<?xml version='1.0' encoding='ASCII' standalone='yes'?>
<svg xmlns:dc="http://purl.org/dc/elements/1.1/" xmlns:cc="http://creativecommons.org/ns#" xmlns:rdf="http://www.w3.org/1999/02/22-rdf-syntax-ns#" xmlns:svg="http://www.w3.org/2000/svg" xmlns="http://www.w3.org/2000/svg" xmlns:sodipodi="http://sodipodi.sourceforge.net/DTD/sodipodi-0.dtd" xmlns:inkscape="http://www.inkscape.org/namespaces/inkscape" id="Calque_1" data-name="Calque 1" viewBox="0 0 1122.5196 1587.4016" version="1.1" sodipodi:docname="base_45.svg" inkscape:version="0.92.3 (2405546, 2018-03-11)" width="29.700001cm" height="42cm">
  <metadata id="metadata93">
    <rdf:RDF>
      <cc:Work rdf:about="">
        <dc:format>image/svg+xml</dc:format>
        <dc:type rdf:resource="http://purl.org/dc/dcmitype/StillImage"/>
        <dc:title/>
      </cc:Work>
    </rdf:RDF>
  </metadata>
  <sodipodi:namedview pagecolor="#ffffff" bordercolor="#666666" borderopacity="1" objecttolerance="10" gridtolerance="10" guidetolerance="10" inkscape:pageopacity="0" inkscape:pageshadow="2" inkscape:window-width="691" inkscape:window-height="480" id="namedview91" showgrid="false" inkscape:zoom="0.28032165" inkscape:cx="342.23165" inkscape:cy="420.94501" inkscape:window-x="67" inkscape:window-y="27" inkscape:window-maximized="0" inkscape:current-layer="Calque_1" units="cm"/>
  <defs id="defs4">
    <style id="style2">.cls-1{fill:#08a2ac;}.cls-2{font-size:64.01px;font-family:DINNextLTPro-BoldItalic, DIN Next LT Pro;font-weight:700;font-style:italic;}.cls-2,.cls-5{fill:#010101;}.cls-3{letter-spacing:-0.05em;}.cls-4{letter-spacing:-0.07em;}.cls-6{fill:#fff;}</style>
  </defs>
<svg:g><svg:g><svg:metadata id="metadata944"><rdf:RDF><cc:Work rdf:about=""><dc:format>image/svg+xml</dc:format><dc:type rdf:resource="http://purl.org/dc/dcmitype/StillImage"/><dc:title/></cc:Work></rdf:RDF></svg:metadata><svg:defs id="defs942"><svg:clipPath clipPathUnits="userSpaceOnUse" id="clipPath954"><svg:path d="M 0,1190.551 H 841.89 V 0 H 0 Z" id="path952"/></svg:clipPath></svg:defs><sodipodi:namedview pagecolor="#ffffff" bordercolor="#666666" borderopacity="1" objecttolerance="10" gridtolerance="10" guidetolerance="10" inkscape:pageopacity="0" inkscape:pageshadow="2" inkscape:window-width="863" inkscape:window-height="1014" id="namedview940" showgrid="false" inkscape:zoom="0.63500062" inkscape:cx="561.26001" inkscape:cy="793.70001" inkscape:window-x="0" inkscape:window-y="0" inkscape:window-maximized="0" inkscape:current-layer="g946"/><svg:g id="g946" inkscape:groupmode="layer" inkscape:label="2021_DX_pepperARUCO_MAT_A3v2" transform="matrix(1.3333333,0,0,-1.3333333,0,1587.4)"><svg:g id="g948"><svg:g id="g950" clip-path="url(#clipPath954)"><svg:g id="g956" transform="translate(77.0747,612.1717)"><svg:path d="M 0,0 343.89,343.87 687.74,0 v -186.418 c 0,-189.915 -153.956,-343.871 -343.87,-343.871 C 153.956,-530.289 0,-376.333 0,-186.418 Z" style="fill:none;stroke:#ffffff;stroke-width:75.216;stroke-linecap:butt;stroke-linejoin:round;stroke-miterlimit:10;stroke-dasharray:none;stroke-opacity:1" id="path958"/></svg:g><svg:g id="g960" transform="translate(44.7906,702.9227)"><svg:path d="M 0,0 376.176,376.154 752.309,0 v -233.92 c 0,-207.745 -168.411,-376.155 -376.155,-376.155 C 168.41,-610.075 0,-441.665 0,-233.92 Z" style="fill:#ffffff;fill-opacity:1;fill-rule:nonzero;stroke:none" id="path962"/></svg:g><svg:g id="g964" transform="translate(44.7906,702.9227)"><svg:path d="M 0,0 376.176,376.154 752.309,0 v -233.92 c 0,-207.745 -168.411,-376.155 -376.155,-376.155 C 168.41,-610.075 0,-441.665 0,-233.92 Z" style="fill:none;stroke:#00a2ac;stroke-width:40;stroke-linecap:butt;stroke-linejoin:round;stroke-miterlimit:10;stroke-dasharray:none;stroke-opacity:1" id="path966"/></svg:g><svg:g id="g968" transform="translate(580.8315,445.7572)"><svg:path d="m 0,0 c 0.084,0.504 0.42,0.84 0.924,0.84 h 35.111 c 0.504,0 0.756,-0.336 0.672,-0.84 l -1.512,-8.568 c -0.084,-0.504 -0.504,-0.84 -0.924,-0.84 H 10.584 c -0.336,0 -0.504,-0.168 -0.588,-0.504 l -2.1,-12.012 c -0.084,-0.336 0.084,-0.504 0.42,-0.504 h 19.655 c 0.506,0 0.758,-0.336 0.674,-0.84 l -1.514,-8.4 c -0.084,-0.504 -0.504,-0.84 -1.008,-0.84 H 6.467 c -0.336,0 -0.504,-0.168 -0.588,-0.504 L 3.695,-45.528 c -0.084,-0.336 0.084,-0.504 0.42,-0.504 h 23.688 c 0.506,0 0.758,-0.336 0.674,-0.84 l -1.598,-8.568 c -0.084,-0.504 -0.42,-0.84 -0.924,-0.84 H -9.072 c -0.504,0 -0.84,0.336 -0.756,0.84 z" style="fill:#000000;fill-opacity:1;fill-rule:nonzero;stroke:none" id="path970"/></svg:g><svg:g id="g972" transform="translate(626.3589,445.7572)"><svg:path d="M 0,0 C 0.084,0.504 0.42,0.84 0.924,0.84 H 10.5 c 0.672,0 1.092,-0.252 1.26,-0.84 l 13.019,-36.708 h 0.336 L 31.668,0 c 0.084,0.504 0.42,0.84 0.924,0.84 h 9.072 c 0.504,0 0.84,-0.336 0.756,-0.84 l -9.828,-55.44 c -0.084,-0.504 -0.42,-0.84 -0.924,-0.84 h -9.66 c -0.504,0 -0.924,0.252 -1.176,0.84 L 7.729,-18.732 H 7.309 L 0.84,-55.44 C 0.756,-55.944 0.42,-56.28 0,-56.28 h -9.072 c -0.504,0 -0.84,0.336 -0.756,0.84 z" style="fill:#000000;fill-opacity:1;fill-rule:nonzero;stroke:none" id="path974"/></svg:g><svg:g id="g976" transform="translate(683.562,399.9774)"><svg:path d="m 0,0 h 6.385 c 5.543,0 8.988,1.764 11.256,6.468 1.931,3.864 4.199,16.884 4.199,21.336 0,5.964 -3.024,8.316 -9.24,8.316 H 6.301 c -0.336,0 -0.42,-0.168 -0.504,-0.504 L -0.42,0.504 C -0.504,0.168 -0.336,0 0,0 m -4.199,45.78 c 0.084,0.504 0.42,0.84 0.924,0.84 H 17.137 C 28.225,46.62 33.6,40.908 33.6,30.408 33.6,23.436 31.164,7.98 27.889,1.176 23.52,-7.644 16.717,-10.5 7.141,-10.5 h -20.412 c -0.504,0 -0.84,0.336 -0.756,0.84 z" style="fill:#000000;fill-opacity:1;fill-rule:nonzero;stroke:none" id="path978"/></svg:g><svg:g id="g980" transform="translate(554.3188,359.4173)"><svg:path d="m 0,0 c 0,3.78 -2.52,6.132 -6.887,6.132 h -9.072 c -0.336,0 -0.504,-0.168 -0.588,-0.504 l -2.687,-14.952 c 0,-0.336 0.084,-0.504 0.42,-0.504 h 9.07 C -4.115,-9.828 0,-6.048 0,0 m -35.699,-40.74 c -0.42,0 -0.756,0.336 -0.672,0.84 l 9.828,55.44 c 0.084,0.504 0.42,0.84 0.84,0.84 h 21.252 c 10.668,0 16.379,-5.628 16.379,-14.448 0,-14.28 -9.574,-22.008 -22.68,-22.008 h -9.828 c -0.336,0 -0.588,-0.168 -0.588,-0.504 l -3.443,-19.32 c -0.084,-0.504 -0.42,-0.84 -0.924,-0.84 z" style="fill:#000000;fill-opacity:1;fill-rule:nonzero;stroke:none" id="path982"/></svg:g><svg:g id="g984" transform="translate(598.2505,334.9735)"><svg:path d="m 0,0 c 1.932,3.948 4.451,19.068 4.451,23.184 0,4.956 -2.771,8.064 -7.726,8.064 -4.621,0 -7.897,-2.604 -9.829,-6.72 -2.017,-3.948 -4.537,-19.068 -4.537,-23.184 0,-4.956 2.858,-8.064 7.729,-8.064 4.619,0 7.896,2.604 9.912,6.72 m -29.568,0.252 c 0,5.124 2.771,22.344 5.713,28.392 4.535,9.156 12.095,13.104 22.175,13.104 10.752,0 18.059,-5.964 18.059,-17.472 0,-5.124 -2.772,-22.344 -5.711,-28.392 -4.537,-9.156 -12.012,-13.104 -22.176,-13.104 -10.752,0 -18.06,5.964 -18.06,17.472" style="fill:#000000;fill-opacity:1;fill-rule:nonzero;stroke:none" id="path986"/></svg:g><svg:g id="g988" transform="translate(627.145,374.9574)"><svg:path d="M 0,0 C 0.084,0.504 0.42,0.84 0.924,0.84 H 11.088 C 11.592,0.84 11.844,0.504 11.76,0 L 1.934,-55.44 C 1.85,-55.944 1.598,-56.28 1.092,-56.28 H -9.07 c -0.506,0 -0.842,0.336 -0.758,0.84 z" style="fill:#000000;fill-opacity:1;fill-rule:nonzero;stroke:none" id="path990"/></svg:g><svg:g id="g992" transform="translate(649.4888,374.9574)"><svg:path d="M 0,0 C 0.084,0.504 0.42,0.84 0.924,0.84 H 10.5 c 0.672,0 1.092,-0.252 1.26,-0.84 l 13.019,-36.708 h 0.336 L 31.668,0 c 0.084,0.504 0.42,0.84 0.924,0.84 h 9.072 c 0.504,0 0.84,-0.336 0.756,-0.84 l -9.828,-55.44 c -0.084,-0.504 -0.42,-0.84 -0.924,-0.84 h -9.66 c -0.504,0 -0.924,0.252 -1.176,0.84 L 7.729,-18.732 H 7.309 L 0.84,-55.44 C 0.756,-55.944 0.42,-56.28 0,-56.28 h -9.072 c -0.504,0 -0.84,0.336 -0.756,0.84 z" style="fill:#000000;fill-opacity:1;fill-rule:nonzero;stroke:none" id="path994"/></svg:g><svg:g id="g996" transform="translate(704.7603,318.6776)"><svg:path d="M 0,0 C -0.42,0 -0.756,0.336 -0.672,0.84 L 7.309,46.116 C 7.393,46.452 7.225,46.62 6.889,46.62 H -7.057 c -0.504,0 -0.839,0.336 -0.755,0.84 l 1.597,8.82 c 0.084,0.504 0.42,0.84 0.924,0.84 h 40.738 c 0.504,0 0.84,-0.336 0.756,-0.84 L 34.607,47.46 C 34.523,46.956 34.188,46.62 33.684,46.62 H 19.656 c -0.336,0 -0.504,-0.168 -0.588,-0.504 L 11.088,0.84 C 11.004,0.336 10.668,0 10.164,0 Z" style="fill:#000000;fill-opacity:1;fill-rule:nonzero;stroke:none" id="path998"/></svg:g><svg:g id="g1000" transform="translate(122.1255,466.6761)"><svg:path d="M 0,0 C 0,0.144 0.096,0.24 0.24,0.24 H 3.984 C 4.129,0.24 4.225,0.144 4.225,0 v -5.785 c 0,-0.096 0.048,-0.144 0.144,-0.144 h 4.44 c 0.095,0 0.144,0.048 0.144,0.144 V 0 c 0,0.144 0.096,0.24 0.24,0.24 h 3.745 c 0.144,0 0.24,-0.096 0.24,-0.24 v -15.841 c 0,-0.144 -0.096,-0.241 -0.24,-0.241 H 9.193 c -0.144,0 -0.24,0.097 -0.24,0.241 v 6.024 c 0,0.096 -0.049,0.144 -0.144,0.144 h -4.44 c -0.096,0 -0.144,-0.048 -0.144,-0.144 v -6.024 c 0,-0.144 -0.096,-0.241 -0.241,-0.241 H 0.24 c -0.144,0 -0.24,0.097 -0.24,0.241 z" style="fill:#00a2ac;fill-opacity:1;fill-rule:nonzero;stroke:none" id="path1002"/></svg:g><svg:g id="g1004" transform="translate(146.2466,455.515)"><svg:path d="m 0,0 c 0.191,0.552 0.24,1.296 0.24,3.24 0,1.945 -0.049,2.689 -0.24,3.24 -0.287,0.913 -1.031,1.441 -2.088,1.441 -1.057,0 -1.801,-0.528 -2.088,-1.441 -0.191,-0.551 -0.24,-1.295 -0.24,-3.24 0,-1.944 0.049,-2.688 0.24,-3.24 0.287,-0.912 1.031,-1.44 2.088,-1.44 1.057,0 1.801,0.528 2.088,1.44 m -8.209,-1.2 c -0.383,1.248 -0.479,2.208 -0.479,4.44 0,2.233 0.096,3.193 0.479,4.441 0.865,2.664 3.24,4.008 6.121,4.008 2.881,0 5.256,-1.344 6.121,-4.008 C 4.441,6.433 4.514,5.473 4.514,3.24 4.514,1.008 4.441,0.048 4.033,-1.2 3.168,-3.864 0.793,-5.208 -2.088,-5.208 c -2.881,0 -5.256,1.344 -6.121,4.008" style="fill:#00a2ac;fill-opacity:1;fill-rule:nonzero;stroke:none" id="path1006"/></svg:g><svg:g id="g1008" transform="translate(165.1841,450.5946)"><svg:path d="M 0,0 C -0.168,0 -0.264,0.072 -0.312,0.24 L -2.881,9.361 H -2.928 L -5.521,0.24 C -5.568,0.072 -5.664,0 -5.832,0 h -3 C -9,0 -9.098,0.072 -9.145,0.24 l -4.441,15.842 c -0.023,0.144 0.025,0.239 0.193,0.239 h 3.936 c 0.191,0 0.289,-0.095 0.312,-0.239 l 2.112,-9.505 h 0.049 l 2.543,9.505 c 0.048,0.168 0.144,0.239 0.312,0.239 h 2.473 c 0.168,0 0.263,-0.071 0.312,-0.239 L 1.271,6.577 H 1.32 l 2.039,9.505 c 0.026,0.144 0.121,0.239 0.289,0.239 h 3.936 c 0.145,0 0.217,-0.095 0.168,-0.239 L 3.336,0.24 C 3.289,0.072 3.191,0 3,0 Z" style="fill:#00a2ac;fill-opacity:1;fill-rule:nonzero;stroke:none" id="path1010"/></svg:g><svg:g id="g1012" transform="translate(182.9673,450.5946)"><svg:path d="M 0,0 H -0.072 C -0.119,0 -0.145,0.024 -0.191,0.072 -0.217,0.096 -0.24,0.12 -0.24,0.168 V 0.24 12.433 c 0,0.072 -0.047,0.12 -0.119,0.144 h -0.026 -4.008 -0.072 c -0.047,0 -0.072,0.024 -0.096,0.048 l -0.023,0.024 c 0,0 0,0.024 -0.023,0.024 -0.026,0.048 -0.026,0.096 -0.026,0.144 v 3.265 c 0,0.119 0.072,0.215 0.168,0.239 h 0.072 12.53 c 0.072,0 0.119,-0.024 0.168,-0.071 0,0 0.023,-0.024 0.023,-0.049 0.026,-0.024 0.049,-0.072 0.049,-0.119 V 12.817 C 8.377,12.745 8.354,12.673 8.305,12.625 8.281,12.601 8.232,12.577 8.186,12.577 H 8.137 4.129 c -0.049,0 -0.072,0 -0.096,-0.024 -0.025,0 -0.025,-0.024 -0.049,-0.048 V 12.433 0.24 0.168 C 3.961,0.096 3.936,0.072 3.865,0.024 3.84,0 3.793,0 3.744,0 Z" style="fill:#00a2ac;fill-opacity:1;fill-rule:nonzero;stroke:none" id="path1014"/></svg:g><svg:g id="g1016" transform="translate(200.9673,455.515)"><svg:path d="m 0,0 c 0.191,0.552 0.24,1.296 0.24,3.24 0,1.945 -0.049,2.689 -0.24,3.24 -0.287,0.913 -1.031,1.441 -2.088,1.441 -1.057,0 -1.801,-0.528 -2.088,-1.441 -0.191,-0.551 -0.24,-1.295 -0.24,-3.24 0,-1.944 0.049,-2.688 0.24,-3.24 0.287,-0.912 1.031,-1.44 2.088,-1.44 1.057,0 1.801,0.528 2.088,1.44 m -8.209,-1.2 c -0.383,1.248 -0.479,2.208 -0.479,4.44 0,2.233 0.096,3.193 0.479,4.441 0.865,2.664 3.24,4.008 6.121,4.008 2.881,0 5.256,-1.344 6.121,-4.008 C 4.441,6.433 4.514,5.473 4.514,3.24 4.514,1.008 4.441,0.048 4.033,-1.2 3.168,-3.864 0.793,-5.208 -2.088,-5.208 c -2.881,0 -5.256,1.344 -6.121,4.008" style="fill:#00a2ac;fill-opacity:1;fill-rule:nonzero;stroke:none" id="path1018"/></svg:g><svg:g id="g1020" transform="translate(207.854,454.1468)"><svg:path d="m 0,0 c 0,0.144 0.096,0.24 0.24,0.24 h 3.313 c 0.144,0 0.24,-0.096 0.24,-0.24 v -3.312 c 0,-0.144 -0.096,-0.24 -0.24,-0.24 H 0.24 C 0.096,-3.552 0,-3.456 0,-3.312 Z m 0,4.584 v 3.313 c 0,0.144 0.096,0.24 0.24,0.24 h 3.313 c 0.144,0 0.24,-0.096 0.24,-0.24 V 4.584 c 0,-0.144 -0.096,-0.24 -0.24,-0.24 H 0.24 C 0.096,4.344 0,4.44 0,4.584" style="fill:#00a2ac;fill-opacity:1;fill-rule:nonzero;stroke:none" id="path1022"/></svg:g><svg:g id="g1024" transform="translate(130.1177,425.1551)"><svg:path d="M 0,0 C 0.193,0.6 0.266,1.344 0.266,2.4 0.266,3.432 0.193,4.176 0,4.8 -0.383,5.928 -1.248,6.528 -2.52,6.528 -3.791,6.528 -4.68,5.953 -5.064,4.8 -5.256,4.224 -5.328,3.552 -5.328,2.4 c 0,-1.152 0.072,-1.848 0.264,-2.4 0.384,-1.152 1.273,-1.752 2.544,-1.752 1.272,0 2.137,0.624 2.52,1.752 m -7.104,-7.681 c -0.144,0 -0.24,0.097 -0.24,0.24 V 7.896 c 0,0.145 0.096,0.241 0.24,0.241 h 1.536 c 0.144,0 0.24,-0.096 0.24,-0.241 v -1.08 h 0.025 c 0.551,0.913 1.535,1.585 3.264,1.585 1.992,0 3.385,-0.937 3.961,-2.76 C 2.232,4.729 2.328,3.816 2.328,2.4 2.328,0.96 2.232,0.048 1.922,-0.864 1.346,-2.688 -0.047,-3.625 -2.039,-3.625 c -1.729,0 -2.713,0.697 -3.264,1.609 h -0.025 v -5.425 c 0,-0.143 -0.096,-0.24 -0.24,-0.24 z" style="fill:#000000;fill-opacity:1;fill-rule:nonzero;stroke:none" id="path1026"/></svg:g><svg:g id="g1028" transform="translate(142.5259,428.5394)"><svg:path d="m 0,0 c 0.096,0 0.145,0.048 0.145,0.144 0,0.528 -0.049,0.936 -0.168,1.296 -0.385,1.152 -1.344,1.8 -2.641,1.8 -1.295,0 -2.256,-0.648 -2.641,-1.8 C -5.424,1.08 -5.473,0.672 -5.473,0.144 -5.473,0.048 -5.424,0 -5.328,0 Z m -7.152,-3.888 c -0.241,0.743 -0.383,1.584 -0.383,2.904 0,1.32 0.119,2.208 0.359,2.904 0.649,1.992 2.328,3.097 4.512,3.097 2.209,0 3.865,-1.129 4.514,-3.097 0.238,-0.744 0.359,-1.536 0.359,-3.288 0,-0.144 -0.096,-0.24 -0.264,-0.24 h -7.273 c -0.096,0 -0.145,-0.048 -0.145,-0.144 0,-0.624 0.073,-1.008 0.194,-1.393 0.455,-1.319 1.488,-1.992 2.904,-1.992 1.367,0 2.328,0.553 2.951,1.273 0.121,0.12 0.24,0.144 0.361,0.048 L 1.92,-4.705 C 2.041,-4.8 2.041,-4.92 1.945,-5.041 1.033,-6.192 -0.527,-7.009 -2.543,-7.009 c -2.328,0 -3.984,1.129 -4.609,3.121" style="fill:#000000;fill-opacity:1;fill-rule:nonzero;stroke:none" id="path1030"/></svg:g><svg:g id="g1032" transform="translate(155.3189,425.1551)"><svg:path d="M 0,0 C 0.191,0.6 0.264,1.344 0.264,2.4 0.264,3.432 0.191,4.176 0,4.8 -0.385,5.928 -1.248,6.528 -2.52,6.528 -3.793,6.528 -4.68,5.953 -5.064,4.8 -5.256,4.224 -5.328,3.552 -5.328,2.4 c 0,-1.152 0.072,-1.848 0.264,-2.4 0.384,-1.152 1.271,-1.752 2.544,-1.752 1.272,0 2.135,0.624 2.52,1.752 m -7.105,-7.681 c -0.143,0 -0.241,0.097 -0.241,0.24 V 7.896 c 0,0.145 0.098,0.241 0.241,0.241 h 1.537 c 0.144,0 0.24,-0.096 0.24,-0.241 v -1.08 h 0.023 c 0.553,0.913 1.537,1.585 3.264,1.585 1.992,0 3.385,-0.937 3.961,-2.76 C 2.232,4.729 2.328,3.816 2.328,2.4 2.328,0.96 2.232,0.048 1.92,-0.864 1.344,-2.688 -0.049,-3.625 -2.041,-3.625 c -1.727,0 -2.711,0.697 -3.264,1.609 h -0.023 v -5.425 c 0,-0.143 -0.096,-0.24 -0.24,-0.24 z" style="fill:#000000;fill-opacity:1;fill-rule:nonzero;stroke:none" id="path1034"/></svg:g><svg:g id="g1036" transform="translate(168.231,425.1551)"><svg:path d="M 0,0 C 0.191,0.6 0.264,1.344 0.264,2.4 0.264,3.432 0.191,4.176 0,4.8 -0.385,5.928 -1.248,6.528 -2.52,6.528 -3.793,6.528 -4.68,5.953 -5.064,4.8 -5.256,4.224 -5.328,3.552 -5.328,2.4 c 0,-1.152 0.072,-1.848 0.264,-2.4 0.384,-1.152 1.271,-1.752 2.544,-1.752 1.272,0 2.135,0.624 2.52,1.752 m -7.105,-7.681 c -0.143,0 -0.241,0.097 -0.241,0.24 V 7.896 c 0,0.145 0.098,0.241 0.241,0.241 h 1.537 c 0.144,0 0.24,-0.096 0.24,-0.241 v -1.08 h 0.023 c 0.553,0.913 1.537,1.585 3.264,1.585 1.992,0 3.385,-0.937 3.961,-2.76 C 2.232,4.729 2.328,3.816 2.328,2.4 2.328,0.96 2.232,0.048 1.92,-0.864 1.344,-2.688 -0.049,-3.625 -2.041,-3.625 c -1.727,0 -2.711,0.697 -3.264,1.609 h -0.023 v -5.425 c 0,-0.143 -0.096,-0.24 -0.24,-0.24 z" style="fill:#000000;fill-opacity:1;fill-rule:nonzero;stroke:none" id="path1038"/></svg:g><svg:g id="g1040" transform="translate(180.6392,428.5394)"><svg:path d="m 0,0 c 0.096,0 0.145,0.048 0.145,0.144 0,0.528 -0.049,0.936 -0.168,1.296 -0.385,1.152 -1.346,1.8 -2.641,1.8 -1.297,0 -2.256,-0.648 -2.641,-1.8 C -5.424,1.08 -5.473,0.672 -5.473,0.144 -5.473,0.048 -5.424,0 -5.328,0 Z m -7.152,-3.888 c -0.241,0.743 -0.385,1.584 -0.385,2.904 0,1.32 0.121,2.208 0.359,2.904 0.649,1.992 2.328,3.097 4.514,3.097 2.207,0 3.863,-1.129 4.512,-3.097 0.24,-0.744 0.359,-1.536 0.359,-3.288 0,-0.144 -0.096,-0.24 -0.264,-0.24 h -7.271 c -0.096,0 -0.145,-0.048 -0.145,-0.144 0,-0.624 0.073,-1.008 0.192,-1.393 0.457,-1.319 1.488,-1.992 2.904,-1.992 1.369,0 2.328,0.553 2.953,1.273 0.119,0.12 0.24,0.144 0.36,0.048 L 1.92,-4.705 C 2.039,-4.8 2.039,-4.92 1.943,-5.041 1.031,-6.192 -0.529,-7.009 -2.545,-7.009 c -2.328,0 -3.984,1.129 -4.607,3.121" style="fill:#000000;fill-opacity:1;fill-rule:nonzero;stroke:none" id="path1042"/></svg:g><svg:g id="g1044" transform="translate(186.3267,421.7948)"><svg:path d="m 0,0 c -0.145,0 -0.24,0.096 -0.24,0.24 v 11.017 c 0,0.144 0.095,0.24 0.24,0.24 h 1.535 c 0.145,0 0.24,-0.096 0.24,-0.24 v -1.176 h 0.026 c 0.504,0.984 1.512,1.68 3.047,1.68 0.912,0 1.777,-0.336 2.353,-0.864 0.119,-0.12 0.143,-0.216 0.047,-0.336 L 6.359,9.385 C 6.264,9.265 6.145,9.241 6.023,9.337 5.496,9.673 4.92,9.889 4.248,9.889 2.496,9.889 1.775,8.521 1.775,6.529 V 0.24 C 1.775,0.096 1.68,0 1.535,0 Z" style="fill:#000000;fill-opacity:1;fill-rule:nonzero;stroke:none" id="path1046"/></svg:g><svg:g id="g1048" transform="translate(211.5747,421.7948)"><svg:path d="M 0,0 C -0.145,0 -0.24,0.096 -0.287,0.24 L -2.881,8.473 H -2.928 L -5.545,0.24 C -5.592,0.096 -5.687,0 -5.832,0 h -1.393 c -0.144,0 -0.24,0.096 -0.287,0.24 l -3.601,11.017 c -0.047,0.144 0.023,0.24 0.168,0.24 h 1.632 c 0.168,0 0.241,-0.048 0.313,-0.24 l 2.543,-8.305 h 0.049 l 2.592,8.305 c 0.048,0.168 0.144,0.24 0.289,0.24 h 1.248 c 0.142,0 0.263,-0.072 0.31,-0.24 L 0.648,2.952 h 0.047 l 2.473,8.305 c 0.049,0.192 0.145,0.24 0.312,0.24 h 1.633 c 0.143,0 0.215,-0.096 0.168,-0.24 L 1.656,0.24 C 1.607,0.096 1.537,0 1.369,0 Z" style="fill:#000000;fill-opacity:1;fill-rule:nonzero;stroke:none" id="path1050"/></svg:g><svg:g id="g1052" transform="translate(219.8052,421.7948)"><svg:path d="m 0,0 c -0.143,0 -0.24,0.096 -0.24,0.24 v 11.017 c 0,0.144 0.097,0.24 0.24,0.24 h 1.537 c 0.145,0 0.24,-0.096 0.24,-0.24 V 0.24 C 1.777,0.096 1.682,0 1.537,0 Z m -0.047,14.089 c -0.144,0 -0.24,0.096 -0.24,0.24 v 1.753 c 0,0.144 0.096,0.239 0.24,0.239 h 1.631 c 0.145,0 0.24,-0.095 0.24,-0.239 v -1.753 c 0,-0.144 -0.095,-0.24 -0.24,-0.24 z" style="fill:#000000;fill-opacity:1;fill-rule:nonzero;stroke:none" id="path1054"/></svg:g><svg:g id="g1056" transform="translate(228.2779,421.6747)"><svg:path d="m 0,0 c -2.016,0 -2.809,0.96 -2.809,3.024 v 13.178 c 0,0.144 0.098,0.239 0.241,0.239 h 1.537 c 0.142,0 0.24,-0.095 0.24,-0.239 V 3.145 c 0,-0.961 0.359,-1.273 1.152,-1.273 h 0.455 c 0.145,0 0.241,-0.096 0.241,-0.24 V 0.24 C 1.057,0.096 0.961,0 0.816,0 Z" style="fill:#000000;fill-opacity:1;fill-rule:nonzero;stroke:none" id="path1058"/></svg:g><svg:g id="g1060" transform="translate(234.8775,421.6747)"><svg:path d="m 0,0 c -2.016,0 -2.809,0.96 -2.809,3.024 v 13.178 c 0,0.144 0.098,0.239 0.241,0.239 h 1.537 c 0.142,0 0.24,-0.095 0.24,-0.239 V 3.145 c 0,-0.961 0.359,-1.273 1.152,-1.273 h 0.455 c 0.145,0 0.241,-0.096 0.241,-0.24 V 0.24 C 1.057,0.096 0.961,0 0.816,0 Z" style="fill:#000000;fill-opacity:1;fill-rule:nonzero;stroke:none" id="path1062"/></svg:g><svg:g id="g1064" transform="translate(243.7329,423.2591)"><svg:path d="m 0,0 c -0.096,0.096 -0.096,0.24 0,0.336 l 0.984,1.056 c 0.096,0.096 0.241,0.096 0.336,0 0.864,-0.744 2.16,-1.32 3.553,-1.32 1.68,0 2.52,0.72 2.52,1.752 0,0.912 -0.432,1.416 -2.233,1.608 L 3.936,3.552 C 1.68,3.792 0.504,4.92 0.504,6.792 c 0,2.185 1.56,3.505 4.271,3.505 1.682,0 3.121,-0.552 4.082,-1.273 0.12,-0.071 0.12,-0.215 0.047,-0.336 L 8.088,7.656 C 7.992,7.537 7.873,7.537 7.752,7.608 7.008,8.088 5.832,8.544 4.656,8.544 3.217,8.544 2.473,7.896 2.473,6.96 2.473,6.048 3.023,5.568 4.729,5.4 L 5.928,5.28 C 8.256,5.064 9.385,3.888 9.385,2.04 9.385,-0.216 7.752,-1.729 4.752,-1.729 2.52,-1.729 0.936,-0.816 0,0" style="fill:#000000;fill-opacity:1;fill-rule:nonzero;stroke:none" id="path1066"/></svg:g><svg:g id="g1068" transform="translate(259.6216,421.6747)"><svg:path d="m 0,0 c -2.232,0 -3.098,1.008 -3.098,3.264 v 6.577 c 0,0.096 -0.047,0.144 -0.142,0.144 h -0.961 c -0.145,0 -0.24,0.096 -0.24,0.24 v 1.152 c 0,0.144 0.095,0.24 0.24,0.24 h 0.961 c 0.095,0 0.142,0.048 0.142,0.144 v 3.24 c 0,0.145 0.096,0.24 0.241,0.24 h 1.537 c 0.142,0 0.24,-0.095 0.24,-0.24 v -3.24 c 0,-0.096 0.047,-0.144 0.143,-0.144 h 1.824 c 0.144,0 0.24,-0.096 0.24,-0.24 v -1.152 c 0,-0.144 -0.096,-0.24 -0.24,-0.24 H -0.937 C -1.033,9.985 -1.08,9.937 -1.08,9.841 V 3.336 c 0,-1.152 0.432,-1.464 1.463,-1.464 h 0.504 c 0.144,0 0.24,-0.096 0.24,-0.24 V 0.24 C 1.127,0.096 1.031,0 0.887,0 Z" style="fill:#000000;fill-opacity:1;fill-rule:nonzero;stroke:none" id="path1070"/></svg:g><svg:g id="g1072" transform="translate(270.6861,425.203)"><svg:path d="M 0,0 C 0.191,0.624 0.264,1.248 0.264,2.352 0.264,3.457 0.191,4.057 0,4.681 -0.385,5.833 -1.32,6.48 -2.594,6.48 -3.865,6.48 -4.801,5.833 -5.186,4.681 -5.377,4.057 -5.449,3.457 -5.449,2.352 c 0,-1.104 0.072,-1.728 0.263,-2.352 0.385,-1.152 1.321,-1.8 2.592,-1.8 1.274,0 2.209,0.648 2.594,1.8 m -7.129,-0.576 c -0.264,0.792 -0.385,1.584 -0.385,2.928 0,1.32 0.121,2.112 0.385,2.904 0.623,1.969 2.303,3.097 4.535,3.097 2.233,0 3.912,-1.128 4.537,-3.097 C 2.207,4.464 2.328,3.672 2.328,2.352 2.328,1.008 2.207,0.216 1.943,-0.576 1.318,-2.52 -0.361,-3.672 -2.594,-3.672 c -2.232,0 -3.912,1.152 -4.535,3.096" style="fill:#000000;fill-opacity:1;fill-rule:nonzero;stroke:none" id="path1074"/></svg:g><svg:g id="g1076" transform="translate(283.5962,425.1551)"><svg:path d="M 0,0 C 0.193,0.6 0.266,1.344 0.266,2.4 0.266,3.432 0.193,4.176 0,4.8 -0.383,5.928 -1.248,6.528 -2.52,6.528 -3.791,6.528 -4.68,5.953 -5.064,4.8 -5.256,4.224 -5.328,3.552 -5.328,2.4 c 0,-1.152 0.072,-1.848 0.264,-2.4 0.384,-1.152 1.273,-1.752 2.544,-1.752 1.272,0 2.137,0.624 2.52,1.752 m -7.104,-7.681 c -0.144,0 -0.24,0.097 -0.24,0.24 V 7.896 c 0,0.145 0.096,0.241 0.24,0.241 h 1.536 c 0.144,0 0.24,-0.096 0.24,-0.241 v -1.08 h 0.025 c 0.551,0.913 1.535,1.585 3.264,1.585 1.992,0 3.385,-0.937 3.961,-2.76 C 2.232,4.729 2.328,3.816 2.328,2.4 2.328,0.96 2.232,0.048 1.922,-0.864 1.346,-2.688 -0.047,-3.625 -2.039,-3.625 c -1.729,0 -2.713,0.697 -3.264,1.609 h -0.025 v -5.425 c 0,-0.143 -0.096,-0.24 -0.24,-0.24 z" style="fill:#000000;fill-opacity:1;fill-rule:nonzero;stroke:none" id="path1078"/></svg:g><svg:g id="g1080" transform="translate(130.2388,392.9945)"><svg:path d="m 0,0 c -0.145,0 -0.24,0.096 -0.24,0.24 v 6.72 c 0,1.849 -0.84,2.929 -2.569,2.929 -1.56,0 -2.64,-1.104 -2.64,-2.808 V 0.24 C -5.449,0.096 -5.545,0 -5.689,0 h -1.536 c -0.144,0 -0.24,0.096 -0.24,0.24 v 15.842 c 0,0.144 0.096,0.239 0.24,0.239 h 1.536 c 0.144,0 0.24,-0.095 0.24,-0.239 v -5.881 h 0.025 c 0.551,0.888 1.654,1.56 3.215,1.56 2.496,0 3.984,-1.704 3.984,-4.321 V 0.24 C 1.775,0.096 1.68,0 1.535,0 Z" style="fill:#000000;fill-opacity:1;fill-rule:nonzero;stroke:none" id="path1082"/></svg:g><svg:g id="g1084" transform="translate(142.6704,399.7391)"><svg:path d="m 0,0 c 0.096,0 0.145,0.048 0.145,0.144 0,0.528 -0.049,0.936 -0.168,1.296 -0.385,1.152 -1.346,1.8 -2.641,1.8 -1.297,0 -2.256,-0.648 -2.641,-1.8 C -5.424,1.08 -5.473,0.672 -5.473,0.144 -5.473,0.048 -5.424,0 -5.328,0 Z m -7.152,-3.888 c -0.241,0.743 -0.385,1.584 -0.385,2.904 0,1.32 0.121,2.208 0.359,2.904 0.649,1.992 2.328,3.097 4.514,3.097 2.207,0 3.863,-1.129 4.512,-3.097 0.24,-0.744 0.359,-1.536 0.359,-3.288 0,-0.144 -0.096,-0.24 -0.264,-0.24 h -7.271 c -0.096,0 -0.145,-0.048 -0.145,-0.144 0,-0.624 0.073,-1.008 0.192,-1.393 0.457,-1.319 1.488,-1.992 2.904,-1.992 1.369,0 2.328,0.553 2.953,1.273 0.119,0.12 0.24,0.144 0.36,0.048 L 1.92,-4.705 C 2.039,-4.8 2.039,-4.92 1.943,-5.041 1.031,-6.192 -0.529,-7.009 -2.545,-7.009 c -2.328,0 -3.984,1.129 -4.607,3.121" style="fill:#000000;fill-opacity:1;fill-rule:nonzero;stroke:none" id="path1086"/></svg:g><svg:g id="g1088" transform="translate(148.3579,392.9945)"><svg:path d="m 0,0 c -0.145,0 -0.24,0.096 -0.24,0.24 v 11.017 c 0,0.144 0.095,0.24 0.24,0.24 h 1.535 c 0.145,0 0.24,-0.096 0.24,-0.24 v -1.176 h 0.026 c 0.504,0.984 1.512,1.68 3.047,1.68 0.912,0 1.777,-0.336 2.353,-0.864 0.119,-0.12 0.143,-0.216 0.047,-0.336 L 6.359,9.385 C 6.264,9.265 6.145,9.241 6.023,9.337 5.496,9.673 4.92,9.889 4.248,9.889 2.496,9.889 1.775,8.521 1.775,6.528 V 0.24 C 1.775,0.096 1.68,0 1.535,0 Z" style="fill:#000000;fill-opacity:1;fill-rule:nonzero;stroke:none" id="path1090"/></svg:g><svg:g id="g1092" transform="translate(164.3658,399.7391)"><svg:path d="m 0,0 c 0.096,0 0.145,0.048 0.145,0.144 0,0.528 -0.049,0.936 -0.168,1.296 -0.385,1.152 -1.344,1.8 -2.641,1.8 -1.295,0 -2.256,-0.648 -2.641,-1.8 C -5.424,1.08 -5.473,0.672 -5.473,0.144 -5.473,0.048 -5.424,0 -5.328,0 Z m -7.152,-3.888 c -0.241,0.743 -0.383,1.584 -0.383,2.904 0,1.32 0.119,2.208 0.359,2.904 0.649,1.992 2.328,3.097 4.512,3.097 2.209,0 3.865,-1.129 4.514,-3.097 0.238,-0.744 0.359,-1.536 0.359,-3.288 0,-0.144 -0.096,-0.24 -0.264,-0.24 h -7.273 c -0.096,0 -0.145,-0.048 -0.145,-0.144 0,-0.624 0.073,-1.008 0.194,-1.393 0.455,-1.319 1.488,-1.992 2.904,-1.992 1.367,0 2.328,0.553 2.951,1.273 0.121,0.12 0.24,0.144 0.361,0.048 L 1.92,-4.705 C 2.041,-4.8 2.041,-4.92 1.945,-5.041 1.033,-6.192 -0.527,-7.009 -2.543,-7.009 c -2.328,0 -3.984,1.129 -4.609,3.121" style="fill:#000000;fill-opacity:1;fill-rule:nonzero;stroke:none" id="path1094"/></svg:g><svg:g id="g1096" transform="translate(182.2466,396.7147)"><svg:path d="m 0,0 v 1.272 c 0,0.096 -0.049,0.144 -0.145,0.144 h -2.304 c -1.992,0 -2.856,-0.576 -2.856,-1.872 0,-1.176 0.864,-1.8 2.401,-1.8 1.8,0 2.904,0.84 2.904,2.256 m 0.287,-3.72 c -0.142,0 -0.24,0.096 -0.24,0.24 v 1.008 H 0.023 c -0.527,-0.864 -1.656,-1.512 -3.408,-1.512 -2.183,0 -3.863,1.128 -3.863,3.456 0,2.424 1.68,3.552 4.488,3.552 h 2.615 C -0.049,3.024 0,3.072 0,3.168 v 0.84 c 0,1.585 -0.625,2.257 -2.76,2.257 -1.297,0 -2.113,-0.336 -2.785,-0.816 -0.119,-0.096 -0.264,-0.096 -0.336,0.024 l -0.648,1.104 c -0.073,0.144 -0.047,0.24 0.049,0.336 0.863,0.672 2.207,1.128 3.912,1.128 3.263,0 4.511,-1.08 4.511,-3.913 V -3.48 c 0,-0.144 -0.095,-0.24 -0.24,-0.24 z" style="fill:#000000;fill-opacity:1;fill-rule:nonzero;stroke:none" id="path1098"/></svg:g><svg:g id="g1100" transform="translate(195.4947,392.9945)"><svg:path d="m 0,0 c -0.145,0 -0.24,0.096 -0.24,0.24 v 6.72 c 0,1.849 -0.84,2.929 -2.569,2.929 -1.56,0 -2.64,-1.104 -2.64,-2.808 V 0.24 C -5.449,0.096 -5.545,0 -5.689,0 h -1.536 c -0.144,0 -0.24,0.096 -0.24,0.24 v 11.017 c 0,0.144 0.096,0.24 0.24,0.24 h 1.536 c 0.144,0 0.24,-0.096 0.24,-0.24 v -1.056 h 0.025 c 0.551,0.888 1.654,1.56 3.215,1.56 2.496,0 3.984,-1.704 3.984,-4.321 V 0.24 C 1.775,0.096 1.68,0 1.535,0 Z" style="fill:#000000;fill-opacity:1;fill-rule:nonzero;stroke:none" id="path1102"/></svg:g><svg:g id="g1104" transform="translate(207.7818,396.3548)"><svg:path d="M 0,0 C 0.191,0.552 0.264,1.248 0.264,2.4 0.264,3.552 0.191,4.224 0,4.8 -0.385,5.953 -1.271,6.528 -2.545,6.528 -3.816,6.528 -4.68,5.928 -5.064,4.8 -5.256,4.176 -5.328,3.432 -5.328,2.4 c 0,-1.056 0.072,-1.8 0.264,-2.4 0.384,-1.128 1.248,-1.752 2.519,-1.752 1.274,0 2.16,0.6 2.545,1.752 m 0.504,-3.36 c -0.145,0 -0.24,0.096 -0.24,0.24 v 1.104 H 0.24 c -0.552,-0.912 -1.537,-1.609 -3.263,-1.609 -1.993,0 -3.385,0.937 -3.961,2.761 -0.313,0.912 -0.409,1.824 -0.409,3.264 0,1.416 0.096,2.329 0.409,3.241 0.576,1.823 1.968,2.76 3.961,2.76 1.726,0 2.711,-0.672 3.263,-1.585 h 0.024 v 5.905 c 0,0.144 0.095,0.24 0.24,0.24 h 1.537 c 0.143,0 0.24,-0.096 0.24,-0.24 V -3.12 c 0,-0.144 -0.097,-0.24 -0.24,-0.24 z" style="fill:#000000;fill-opacity:1;fill-rule:nonzero;stroke:none" id="path1106"/></svg:g><svg:g id="g1108" transform="translate(220.3814,392.9945)"><svg:path d="m 0,0 c -0.145,0 -0.24,0.096 -0.24,0.24 v 9.481 c 0,0.096 -0.049,0.144 -0.145,0.144 h -0.984 c -0.143,0 -0.238,0.096 -0.238,0.24 v 1.152 c 0,0.144 0.095,0.24 0.238,0.24 h 0.984 c 0.096,0 0.145,0.048 0.145,0.144 v 0.984 c 0,2.712 1.103,3.696 3.504,3.696 h 0.888 c 0.145,0 0.241,-0.095 0.241,-0.239 v -1.393 c 0,-0.144 -0.096,-0.24 -0.241,-0.24 H 3.527 c -1.463,0 -1.752,-0.312 -1.752,-1.728 v -1.08 c 0,-0.096 0.049,-0.144 0.145,-0.144 h 2.232 c 0.145,0 0.241,-0.096 0.241,-0.24 v -1.152 c 0,-0.144 -0.096,-0.24 -0.241,-0.24 H 1.92 C 1.824,9.865 1.775,9.817 1.775,9.721 V 0.24 C 1.775,0.096 1.68,0 1.535,0 Z" style="fill:#000000;fill-opacity:1;fill-rule:nonzero;stroke:none" id="path1110"/></svg:g><svg:g id="g1112" transform="translate(234.1587,396.4027)"><svg:path d="M 0,0 C 0.191,0.624 0.264,1.248 0.264,2.353 0.264,3.457 0.191,4.057 0,4.681 -0.385,5.833 -1.32,6.48 -2.594,6.48 -3.865,6.48 -4.801,5.833 -5.186,4.681 -5.377,4.057 -5.449,3.457 -5.449,2.353 c 0,-1.105 0.072,-1.729 0.263,-2.353 0.385,-1.152 1.321,-1.8 2.592,-1.8 1.274,0 2.209,0.648 2.594,1.8 m -7.129,-0.576 c -0.264,0.792 -0.385,1.584 -0.385,2.929 0,1.319 0.121,2.111 0.385,2.903 0.623,1.969 2.303,3.097 4.535,3.097 2.233,0 3.912,-1.128 4.537,-3.097 C 2.207,4.464 2.328,3.672 2.328,2.353 2.328,1.008 2.207,0.216 1.943,-0.576 1.318,-2.52 -0.361,-3.672 -2.594,-3.672 c -2.232,0 -3.912,1.152 -4.535,3.096" style="fill:#000000;fill-opacity:1;fill-rule:nonzero;stroke:none" id="path1114"/></svg:g><svg:g id="g1116" transform="translate(242.4849,392.8744)"><svg:path d="m 0,0 c -2.016,0 -2.809,0.96 -2.809,3.024 v 13.178 c 0,0.144 0.098,0.239 0.241,0.239 h 1.537 c 0.142,0 0.24,-0.095 0.24,-0.239 V 3.145 c 0,-0.961 0.359,-1.273 1.152,-1.273 h 0.455 c 0.145,0 0.241,-0.096 0.241,-0.24 V 0.24 C 1.057,0.096 0.961,0 0.816,0 Z" style="fill:#000000;fill-opacity:1;fill-rule:nonzero;stroke:none" id="path1118"/></svg:g><svg:g id="g1120" transform="translate(249.0845,392.8744)"><svg:path d="m 0,0 c -2.016,0 -2.809,0.96 -2.809,3.024 v 13.178 c 0,0.144 0.098,0.239 0.241,0.239 h 1.537 c 0.142,0 0.24,-0.095 0.24,-0.239 V 3.145 c 0,-0.961 0.359,-1.273 1.152,-1.273 h 0.455 c 0.145,0 0.241,-0.096 0.241,-0.24 V 0.24 C 1.057,0.096 0.961,0 0.816,0 Z" style="fill:#000000;fill-opacity:1;fill-rule:nonzero;stroke:none" id="path1122"/></svg:g><svg:g id="g1124" transform="translate(259.7896,396.4027)"><svg:path d="M 0,0 C 0.191,0.624 0.264,1.248 0.264,2.353 0.264,3.457 0.191,4.057 0,4.681 -0.385,5.833 -1.32,6.48 -2.594,6.48 -3.865,6.48 -4.801,5.833 -5.186,4.681 -5.377,4.057 -5.449,3.457 -5.449,2.353 c 0,-1.105 0.072,-1.729 0.263,-2.353 0.385,-1.152 1.321,-1.8 2.592,-1.8 1.274,0 2.209,0.648 2.594,1.8 m -7.129,-0.576 c -0.264,0.792 -0.385,1.584 -0.385,2.929 0,1.319 0.121,2.111 0.385,2.903 0.623,1.969 2.303,3.097 4.535,3.097 2.233,0 3.912,-1.128 4.537,-3.097 C 2.207,4.464 2.328,3.672 2.328,2.353 2.328,1.008 2.207,0.216 1.943,-0.576 1.318,-2.52 -0.361,-3.672 -2.594,-3.672 c -2.232,0 -3.912,1.152 -4.535,3.096" style="fill:#000000;fill-opacity:1;fill-rule:nonzero;stroke:none" id="path1126"/></svg:g><svg:g id="g1128" transform="translate(275.149,392.9945)"><svg:path d="M 0,0 C -0.145,0 -0.24,0.096 -0.289,0.24 L -2.881,8.473 H -2.93 L -5.545,0.24 C -5.594,0.096 -5.689,0 -5.834,0 h -1.391 c -0.144,0 -0.24,0.096 -0.289,0.24 l -3.599,11.017 c -0.049,0.144 0.023,0.24 0.168,0.24 h 1.631 c 0.168,0 0.24,-0.048 0.312,-0.24 l 2.545,-8.305 h 0.047 l 2.594,8.305 c 0.046,0.168 0.142,0.24 0.287,0.24 h 1.248 c 0.144,0 0.263,-0.072 0.312,-0.24 L 0.646,2.952 h 0.049 l 2.473,8.305 c 0.047,0.192 0.143,0.24 0.311,0.24 h 1.632 c 0.145,0 0.217,-0.096 0.168,-0.24 L 1.654,0.24 C 1.607,0.096 1.535,0 1.367,0 Z" style="fill:#000000;fill-opacity:1;fill-rule:nonzero;stroke:none" id="path1130"/></svg:g><svg:g id="g1132" transform="translate(126.1099,364.0746)"><svg:path d="m 0,0 c -2.232,0 -3.096,1.008 -3.096,3.264 v 6.577 c 0,0.096 -0.049,0.144 -0.144,0.144 h -0.959 c -0.145,0 -0.24,0.096 -0.24,0.24 v 1.152 c 0,0.144 0.095,0.24 0.24,0.24 h 0.959 c 0.095,0 0.144,0.048 0.144,0.144 v 3.24 c 0,0.145 0.096,0.24 0.241,0.24 h 1.535 c 0.144,0 0.24,-0.095 0.24,-0.24 v -3.24 c 0,-0.096 0.049,-0.144 0.144,-0.144 h 1.825 c 0.144,0 0.24,-0.096 0.24,-0.24 v -1.152 c 0,-0.144 -0.096,-0.24 -0.24,-0.24 H -0.936 C -1.031,9.985 -1.08,9.937 -1.08,9.841 V 3.336 c 0,-1.152 0.432,-1.464 1.465,-1.464 h 0.504 c 0.144,0 0.24,-0.096 0.24,-0.24 V 0.24 C 1.129,0.096 1.033,0 0.889,0 Z" style="fill:#000000;fill-opacity:1;fill-rule:nonzero;stroke:none" id="path1134"/></svg:g><svg:g id="g1136" transform="translate(137.8228,364.1947)"><svg:path d="m 0,0 c -0.145,0 -0.24,0.096 -0.24,0.24 v 6.72 c 0,1.849 -0.84,2.929 -2.569,2.929 -1.56,0 -2.64,-1.104 -2.64,-2.808 V 0.24 C -5.449,0.096 -5.545,0 -5.689,0 h -1.536 c -0.144,0 -0.24,0.096 -0.24,0.24 v 15.842 c 0,0.144 0.096,0.239 0.24,0.239 h 1.536 c 0.144,0 0.24,-0.095 0.24,-0.239 v -5.881 h 0.025 c 0.551,0.888 1.654,1.56 3.215,1.56 2.496,0 3.984,-1.704 3.984,-4.321 V 0.24 C 1.775,0.096 1.68,0 1.535,0 Z" style="fill:#000000;fill-opacity:1;fill-rule:nonzero;stroke:none" id="path1138"/></svg:g><svg:g id="g1140" transform="translate(150.2544,370.9393)"><svg:path d="m 0,0 c 0.096,0 0.145,0.048 0.145,0.144 0,0.528 -0.049,0.936 -0.168,1.296 -0.385,1.152 -1.346,1.8 -2.641,1.8 -1.297,0 -2.256,-0.648 -2.641,-1.8 C -5.424,1.08 -5.473,0.672 -5.473,0.144 -5.473,0.048 -5.424,0 -5.328,0 Z m -7.152,-3.888 c -0.241,0.743 -0.385,1.584 -0.385,2.904 0,1.32 0.121,2.208 0.359,2.904 0.649,1.992 2.328,3.097 4.514,3.097 2.207,0 3.863,-1.129 4.512,-3.097 0.24,-0.744 0.359,-1.536 0.359,-3.288 0,-0.144 -0.096,-0.24 -0.264,-0.24 h -7.271 c -0.096,0 -0.145,-0.048 -0.145,-0.144 0,-0.624 0.073,-1.008 0.192,-1.393 0.457,-1.319 1.488,-1.992 2.904,-1.992 1.369,0 2.328,0.553 2.953,1.273 0.119,0.12 0.24,0.144 0.36,0.048 L 1.92,-4.705 C 2.039,-4.8 2.039,-4.92 1.943,-5.041 1.031,-6.192 -0.529,-7.009 -2.545,-7.009 c -2.328,0 -3.984,1.129 -4.607,3.121" style="fill:#000000;fill-opacity:1;fill-rule:nonzero;stroke:none" id="path1142"/></svg:g><svg:g id="g1144" transform="translate(164.7974,364.0746)"><svg:path d="m 0,0 c -2.232,0 -3.096,1.008 -3.096,3.264 v 6.577 c 0,0.096 -0.049,0.144 -0.144,0.144 h -0.959 c -0.145,0 -0.24,0.096 -0.24,0.24 v 1.152 c 0,0.144 0.095,0.24 0.24,0.24 h 0.959 c 0.095,0 0.144,0.048 0.144,0.144 v 3.24 c 0,0.145 0.096,0.24 0.241,0.24 h 1.535 c 0.144,0 0.24,-0.095 0.24,-0.24 v -3.24 c 0,-0.096 0.049,-0.144 0.144,-0.144 h 1.825 c 0.144,0 0.24,-0.096 0.24,-0.24 v -1.152 c 0,-0.144 -0.096,-0.24 -0.24,-0.24 H -0.936 C -1.031,9.985 -1.08,9.937 -1.08,9.841 V 3.336 c 0,-1.152 0.432,-1.464 1.465,-1.464 h 0.504 c 0.144,0 0.24,-0.096 0.24,-0.24 V 0.24 C 1.129,0.096 1.033,0 0.889,0 Z" style="fill:#000000;fill-opacity:1;fill-rule:nonzero;stroke:none" id="path1146"/></svg:g><svg:g id="g1148" transform="translate(169.2857,364.1947)"><svg:path d="m 0,0 c -0.145,0 -0.24,0.096 -0.24,0.24 v 11.017 c 0,0.144 0.095,0.24 0.24,0.24 h 1.535 c 0.145,0 0.24,-0.096 0.24,-0.24 v -1.176 h 0.026 c 0.504,0.984 1.512,1.68 3.047,1.68 0.912,0 1.777,-0.336 2.353,-0.864 0.119,-0.12 0.143,-0.216 0.047,-0.336 L 6.359,9.385 C 6.264,9.265 6.145,9.241 6.023,9.337 5.496,9.673 4.92,9.889 4.248,9.889 2.496,9.889 1.775,8.521 1.775,6.528 V 0.24 C 1.775,0.096 1.68,0 1.535,0 Z" style="fill:#000000;fill-opacity:1;fill-rule:nonzero;stroke:none" id="path1150"/></svg:g><svg:g id="g1152" transform="translate(179.1255,364.1947)"><svg:path d="m 0,0 c -0.145,0 -0.24,0.096 -0.24,0.24 v 11.017 c 0,0.144 0.095,0.24 0.24,0.24 h 1.535 c 0.145,0 0.24,-0.096 0.24,-0.24 V 0.24 C 1.775,0.096 1.68,0 1.535,0 Z m -0.049,14.089 c -0.142,0 -0.24,0.096 -0.24,0.24 v 1.753 c 0,0.144 0.098,0.239 0.24,0.239 h 1.633 c 0.145,0 0.24,-0.095 0.24,-0.239 v -1.753 c 0,-0.144 -0.095,-0.24 -0.24,-0.24 z" style="fill:#000000;fill-opacity:1;fill-rule:nonzero;stroke:none" id="path1154"/></svg:g><svg:g id="g1156" transform="translate(191.5083,367.9149)"><svg:path d="m 0,0 v 1.272 c 0,0.096 -0.047,0.144 -0.143,0.144 h -2.304 c -1.992,0 -2.858,-0.576 -2.858,-1.872 0,-1.176 0.866,-1.8 2.401,-1.8 1.8,0 2.904,0.84 2.904,2.256 m 0.289,-3.72 c -0.144,0 -0.24,0.096 -0.24,0.24 v 1.008 H 0.025 c -0.529,-0.864 -1.656,-1.512 -3.408,-1.512 -2.185,0 -3.865,1.128 -3.865,3.456 0,2.424 1.68,3.552 4.488,3.552 h 2.617 C -0.047,3.024 0,3.072 0,3.168 v 0.84 c 0,1.585 -0.623,2.257 -2.76,2.257 -1.297,0 -2.111,-0.336 -2.783,-0.816 -0.121,-0.096 -0.266,-0.096 -0.338,0.024 l -0.646,1.104 c -0.073,0.144 -0.049,0.24 0.047,0.336 0.865,0.672 2.209,1.128 3.912,1.128 3.265,0 4.513,-1.08 4.513,-3.913 V -3.48 c 0,-0.144 -0.095,-0.24 -0.24,-0.24 z" style="fill:#000000;fill-opacity:1;fill-rule:nonzero;stroke:none" id="path1158"/></svg:g><svg:g id="g1160" transform="translate(204.7564,364.1947)"><svg:path d="m 0,0 c -0.143,0 -0.24,0.096 -0.24,0.24 v 6.72 c 0,1.849 -0.84,2.929 -2.567,2.929 -1.56,0 -2.64,-1.104 -2.64,-2.808 V 0.24 C -5.447,0.096 -5.543,0 -5.687,0 h -1.538 c -0.142,0 -0.24,0.096 -0.24,0.24 v 11.017 c 0,0.144 0.098,0.24 0.24,0.24 h 1.538 c 0.144,0 0.24,-0.096 0.24,-0.24 v -1.056 h 0.023 c 0.553,0.888 1.656,1.56 3.217,1.56 2.496,0 3.984,-1.704 3.984,-4.321 V 0.24 C 1.777,0.096 1.682,0 1.537,0 Z" style="fill:#000000;fill-opacity:1;fill-rule:nonzero;stroke:none" id="path1162"/></svg:g><svg:g id="g1164" transform="translate(216.8286,367.9149)"><svg:path d="m 0,0 c 0.191,0.576 0.264,1.248 0.264,2.232 0,0.984 -0.073,1.632 -0.264,2.232 -0.408,1.177 -1.248,1.704 -2.447,1.704 -1.25,0 -2.041,-0.6 -2.426,-1.704 -0.191,-0.6 -0.287,-1.296 -0.287,-2.232 0,-0.936 0.096,-1.656 0.287,-2.232 0.385,-1.128 1.176,-1.728 2.426,-1.728 1.199,0 2.039,0.552 2.447,1.728 m -6.721,-6.601 c -0.095,0.121 -0.095,0.217 0.024,0.336 l 0.984,0.985 c 0.121,0.12 0.24,0.12 0.361,0 0.791,-0.72 1.608,-1.153 2.711,-1.153 1.897,0 2.905,0.985 2.905,3.097 v 1.344 H 0.24 c -0.527,-0.96 -1.511,-1.584 -3.193,-1.584 -1.943,0 -3.287,0.984 -3.863,2.784 -0.289,0.864 -0.385,1.704 -0.385,3.024 0,1.32 0.096,2.161 0.385,3.024 0.576,1.801 1.92,2.785 3.863,2.785 1.682,0 2.666,-0.624 3.193,-1.584 h 0.024 v 1.08 c 0,0.144 0.095,0.24 0.24,0.24 h 1.537 c 0.143,0 0.238,-0.096 0.238,-0.24 V -3.216 c 0,-3.264 -1.775,-5.089 -5.015,-5.089 -1.608,0 -3.217,0.697 -3.985,1.704" style="fill:#000000;fill-opacity:1;fill-rule:nonzero;stroke:none" id="path1166"/></svg:g><svg:g id="g1168" transform="translate(225.8033,364.0746)"><svg:path d="m 0,0 c -2.016,0 -2.809,0.96 -2.809,3.024 v 13.178 c 0,0.144 0.098,0.239 0.241,0.239 h 1.537 c 0.142,0 0.24,-0.095 0.24,-0.239 V 3.145 c 0,-0.961 0.359,-1.273 1.152,-1.273 h 0.455 c 0.145,0 0.241,-0.096 0.241,-0.24 V 0.24 C 1.057,0.096 0.961,0 0.816,0 Z" style="fill:#000000;fill-opacity:1;fill-rule:nonzero;stroke:none" id="path1170"/></svg:g><svg:g id="g1172" transform="translate(236.5318,370.9393)"><svg:path d="m 0,0 c 0.096,0 0.145,0.048 0.145,0.144 0,0.528 -0.049,0.936 -0.168,1.296 -0.385,1.152 -1.346,1.8 -2.641,1.8 -1.297,0 -2.256,-0.648 -2.641,-1.8 C -5.424,1.08 -5.473,0.672 -5.473,0.144 -5.473,0.048 -5.424,0 -5.328,0 Z m -7.152,-3.888 c -0.241,0.743 -0.385,1.584 -0.385,2.904 0,1.32 0.121,2.208 0.359,2.904 0.649,1.992 2.328,3.097 4.514,3.097 2.207,0 3.863,-1.129 4.512,-3.097 0.24,-0.744 0.359,-1.536 0.359,-3.288 0,-0.144 -0.096,-0.24 -0.264,-0.24 h -7.271 c -0.096,0 -0.145,-0.048 -0.145,-0.144 0,-0.624 0.073,-1.008 0.192,-1.393 0.457,-1.319 1.488,-1.992 2.904,-1.992 1.369,0 2.328,0.553 2.953,1.273 0.119,0.12 0.24,0.144 0.36,0.048 L 1.92,-4.705 C 2.039,-4.8 2.039,-4.92 1.943,-5.041 1.031,-6.192 -0.529,-7.009 -2.545,-7.009 c -2.328,0 -3.984,1.129 -4.607,3.121" style="fill:#000000;fill-opacity:1;fill-rule:nonzero;stroke:none" id="path1174"/></svg:g><svg:g id="g1176" transform="translate(255.0826,367.555)"><svg:path d="M 0,0 C 0.193,0.6 0.266,1.344 0.266,2.4 0.266,3.432 0.193,4.176 0,4.8 -0.383,5.928 -1.248,6.528 -2.52,6.528 -3.791,6.528 -4.68,5.953 -5.064,4.8 -5.256,4.224 -5.328,3.552 -5.328,2.4 c 0,-1.152 0.072,-1.848 0.264,-2.4 0.384,-1.152 1.273,-1.752 2.544,-1.752 1.272,0 2.137,0.624 2.52,1.752 m -7.104,-7.681 c -0.144,0 -0.24,0.096 -0.24,0.24 V 7.896 c 0,0.145 0.096,0.241 0.24,0.241 h 1.536 c 0.144,0 0.24,-0.096 0.24,-0.241 v -1.08 h 0.025 c 0.551,0.913 1.535,1.585 3.264,1.585 1.992,0 3.385,-0.937 3.961,-2.76 C 2.232,4.729 2.328,3.816 2.328,2.4 2.328,0.96 2.232,0.048 1.922,-0.864 1.346,-2.688 -0.047,-3.625 -2.039,-3.625 c -1.729,0 -2.713,0.697 -3.264,1.609 h -0.025 v -5.425 c 0,-0.144 -0.096,-0.24 -0.24,-0.24 z" style="fill:#000000;fill-opacity:1;fill-rule:nonzero;stroke:none" id="path1178"/></svg:g><svg:g id="g1180" transform="translate(267.4673,367.6029)"><svg:path d="M 0,0 C 0.191,0.624 0.264,1.248 0.264,2.353 0.264,3.457 0.191,4.057 0,4.681 -0.385,5.833 -1.32,6.48 -2.592,6.48 -3.863,6.48 -4.801,5.833 -5.184,4.681 -5.377,4.057 -5.449,3.457 -5.449,2.353 c 0,-1.105 0.072,-1.729 0.265,-2.353 0.383,-1.152 1.321,-1.8 2.592,-1.8 1.272,0 2.207,0.648 2.592,1.8 m -7.129,-0.576 c -0.264,0.792 -0.383,1.584 -0.383,2.929 0,1.319 0.119,2.111 0.383,2.903 0.625,1.969 2.305,3.097 4.537,3.097 2.233,0 3.912,-1.128 4.535,-3.097 C 2.209,4.464 2.328,3.672 2.328,2.353 2.328,1.008 2.209,0.216 1.943,-0.576 1.32,-2.52 -0.359,-3.672 -2.592,-3.672 c -2.232,0 -3.912,1.152 -4.537,3.096" style="fill:#000000;fill-opacity:1;fill-rule:nonzero;stroke:none" id="path1182"/></svg:g><svg:g id="g1184" transform="translate(272.2427,365.659)"><svg:path d="m 0,0 c -0.096,0.096 -0.096,0.24 0,0.336 l 0.984,1.056 c 0.096,0.096 0.241,0.096 0.336,0 0.864,-0.744 2.16,-1.32 3.553,-1.32 1.68,0 2.52,0.72 2.52,1.752 0,0.912 -0.432,1.416 -2.233,1.608 L 3.936,3.552 C 1.68,3.792 0.504,4.92 0.504,6.792 c 0,2.185 1.56,3.505 4.271,3.505 1.682,0 3.121,-0.552 4.082,-1.273 0.12,-0.071 0.12,-0.215 0.047,-0.336 L 8.088,7.656 C 7.992,7.537 7.873,7.537 7.752,7.608 7.008,8.088 5.832,8.544 4.656,8.544 3.217,8.544 2.473,7.896 2.473,6.96 2.473,6.048 3.023,5.568 4.729,5.4 L 5.928,5.28 C 8.256,5.064 9.385,3.888 9.385,2.04 9.385,-0.216 7.752,-1.729 4.752,-1.729 2.52,-1.729 0.936,-0.816 0,0" style="fill:#000000;fill-opacity:1;fill-rule:nonzero;stroke:none" id="path1186"/></svg:g><svg:g id="g1188" transform="translate(285.0337,364.1947)"><svg:path d="m 0,0 c -0.143,0 -0.24,0.096 -0.24,0.24 v 11.017 c 0,0.144 0.097,0.24 0.24,0.24 h 1.537 c 0.145,0 0.24,-0.096 0.24,-0.24 V 0.24 C 1.777,0.096 1.682,0 1.537,0 Z m -0.047,14.089 c -0.144,0 -0.24,0.096 -0.24,0.24 v 1.753 c 0,0.144 0.096,0.239 0.24,0.239 h 1.631 c 0.145,0 0.24,-0.095 0.24,-0.239 v -1.753 c 0,-0.144 -0.095,-0.24 -0.24,-0.24 z" style="fill:#000000;fill-opacity:1;fill-rule:nonzero;stroke:none" id="path1190"/></svg:g><svg:g id="g1192" transform="translate(294.0826,364.0746)"><svg:path d="m 0,0 c -2.232,0 -3.096,1.008 -3.096,3.264 v 6.577 c 0,0.096 -0.049,0.144 -0.144,0.144 h -0.959 c -0.145,0 -0.24,0.096 -0.24,0.24 v 1.152 c 0,0.144 0.095,0.24 0.24,0.24 h 0.959 c 0.095,0 0.144,0.048 0.144,0.144 v 3.24 c 0,0.145 0.096,0.24 0.241,0.24 h 1.535 c 0.144,0 0.24,-0.095 0.24,-0.24 v -3.24 c 0,-0.096 0.049,-0.144 0.144,-0.144 h 1.825 c 0.144,0 0.24,-0.096 0.24,-0.24 v -1.152 c 0,-0.144 -0.096,-0.24 -0.24,-0.24 H -0.936 C -1.031,9.985 -1.08,9.937 -1.08,9.841 V 3.336 c 0,-1.152 0.432,-1.464 1.465,-1.464 h 0.504 c 0.144,0 0.24,-0.096 0.24,-0.24 V 0.24 C 1.129,0.096 1.033,0 0.889,0 Z" style="fill:#000000;fill-opacity:1;fill-rule:nonzero;stroke:none" id="path1194"/></svg:g><svg:g id="g1196" transform="translate(298.5708,364.1947)"><svg:path d="m 0,0 c -0.145,0 -0.24,0.096 -0.24,0.24 v 11.017 c 0,0.144 0.095,0.24 0.24,0.24 h 1.535 c 0.145,0 0.24,-0.096 0.24,-0.24 V 0.24 C 1.775,0.096 1.68,0 1.535,0 Z m -0.049,14.089 c -0.142,0 -0.24,0.096 -0.24,0.24 v 1.753 c 0,0.144 0.098,0.239 0.24,0.239 h 1.633 c 0.145,0 0.24,-0.095 0.24,-0.239 v -1.753 c 0,-0.144 -0.095,-0.24 -0.24,-0.24 z" style="fill:#000000;fill-opacity:1;fill-rule:nonzero;stroke:none" id="path1198"/></svg:g><svg:g id="g1200" transform="translate(311.0982,367.6029)"><svg:path d="M 0,0 C 0.191,0.624 0.264,1.248 0.264,2.353 0.264,3.457 0.191,4.057 0,4.681 -0.385,5.833 -1.32,6.48 -2.592,6.48 -3.863,6.48 -4.801,5.833 -5.184,4.681 -5.377,4.057 -5.449,3.457 -5.449,2.353 c 0,-1.105 0.072,-1.729 0.265,-2.353 0.383,-1.152 1.321,-1.8 2.592,-1.8 1.272,0 2.207,0.648 2.592,1.8 m -7.129,-0.576 c -0.264,0.792 -0.383,1.584 -0.383,2.929 0,1.319 0.119,2.111 0.383,2.903 0.625,1.969 2.305,3.097 4.537,3.097 2.233,0 3.912,-1.128 4.535,-3.097 C 2.209,4.464 2.328,3.672 2.328,2.353 2.328,1.008 2.209,0.216 1.943,-0.576 1.32,-2.52 -0.359,-3.672 -2.592,-3.672 c -2.232,0 -3.912,1.152 -4.537,3.096" style="fill:#000000;fill-opacity:1;fill-rule:nonzero;stroke:none" id="path1202"/></svg:g><svg:g id="g1204" transform="translate(324.1294,364.1947)"><svg:path d="m 0,0 c -0.143,0 -0.24,0.096 -0.24,0.24 v 6.72 c 0,1.849 -0.84,2.929 -2.567,2.929 -1.56,0 -2.64,-1.104 -2.64,-2.808 V 0.24 C -5.447,0.096 -5.543,0 -5.687,0 h -1.538 c -0.142,0 -0.24,0.096 -0.24,0.24 v 11.017 c 0,0.144 0.098,0.24 0.24,0.24 h 1.538 c 0.144,0 0.24,-0.096 0.24,-0.24 v -1.056 h 0.023 c 0.553,0.888 1.656,1.56 3.217,1.56 2.496,0 3.984,-1.704 3.984,-4.321 V 0.24 C 1.777,0.096 1.682,0 1.537,0 Z" style="fill:#000000;fill-opacity:1;fill-rule:nonzero;stroke:none" id="path1206"/></svg:g><svg:g id="g1208" transform="translate(219.1177,171.5736)"><svg:path d="M 0,0 517.209,120.881 435.963,-3.963 245.725,-79.266 49.541,-45.578 Z" style="fill:#00a2ac;fill-opacity:1;fill-rule:nonzero;stroke:none" id="path1210"/></svg:g><svg:g id="g1212" transform="translate(168.9351,509.4237)"><svg:path d="m 0,0 c 0,12.548 -10.172,22.721 -22.721,22.721 -12.549,0 -22.72,-10.173 -22.72,-22.721 0,-12.548 10.171,-22.721 22.72,-22.721 C -10.172,-22.721 0,-12.548 0,0 Z" style="fill:none;stroke:#00a2ac;stroke-width:4.676;stroke-linecap:butt;stroke-linejoin:miter;stroke-miterlimit:10;stroke-dasharray:none;stroke-opacity:1" id="path1214"/></svg:g><svg:g id="g1216" transform="translate(149.4322,519.7537)"><svg:path d="m 0,0 c 0,1.539 -1.247,2.786 -2.785,2.786 -1.539,0 -2.786,-1.247 -2.786,-2.786 0,-1.539 1.247,-2.786 2.786,-2.786 C -1.247,-2.786 0,-1.539 0,0" style="fill:#00a2ac;fill-opacity:1;fill-rule:nonzero;stroke:none" id="path1218"/></svg:g><svg:g id="g1220" transform="translate(146.647,496.308)"><svg:path d="m 0,0 v 0 c -1.532,0 -2.786,1.253 -2.786,2.786 v 12.11 c 0,1.532 1.254,2.786 2.786,2.786 1.531,0 2.785,-1.254 2.785,-2.786 V 2.786 C 2.785,1.253 1.531,0 0,0" style="fill:#00a2ac;fill-opacity:1;fill-rule:nonzero;stroke:none" id="path1222"/></svg:g><svg:g id="g1224" transform="translate(141.0757,511.2044)"><svg:path d="M 0,0 V 0 C 0,1.532 1.253,2.786 2.785,2.786 H 5.571 C 7.103,2.786 8.356,1.532 8.356,0 8.356,-1.532 7.103,-2.786 5.571,-2.786 H 2.785 C 1.253,-2.786 0,-1.532 0,0" style="fill:#00a2ac;fill-opacity:1;fill-rule:nonzero;stroke:none" id="path1226"/></svg:g><svg:g id="g1228" transform="translate(514.4741,374.7191)"><svg:path d="M 0,0 -10.2,-57.434 H -57.546 Z" style="fill:#000000;fill-opacity:1;fill-rule:nonzero;stroke:none" id="path1230"/></svg:g><svg:g id="g1232" transform="translate(420.9449,364.2694)"><svg:path d="M 0,0 -300.421,300.421 0,600.842 300.421,300.421 Z" style="fill:#000000;fill-opacity:1;fill-rule:nonzero;stroke:none" id="path1234"/></svg:g><svg:g id="g1236" transform="translate(420.9449,464.4095)"><svg:path d="M 0,0 -50.07,50.07 0,100.141 50.07,50.07 Z" style="fill:#000000;fill-opacity:1;fill-rule:nonzero;stroke:none" id="path1238"/></svg:g><svg:g id="g1240" transform="translate(370.8745,514.4798)"><svg:path d="M 0,0 -50.07,50.07 0,100.141 50.07,50.07 Z" style="fill:#000000;fill-opacity:1;fill-rule:nonzero;stroke:none" id="path1242"/></svg:g><svg:g id="g1244" transform="translate(320.8042,564.5501)"><svg:path d="M 0,0 -50.07,50.07 0,100.14 50.07,50.07 Z" style="fill:#ffffff;fill-opacity:1;fill-rule:nonzero;stroke:none" id="path1246"/></svg:g><svg:g id="g1248" transform="translate(270.7339,614.6204)"><svg:path d="M 0,0 -50.069,50.07 0,100.14 50.07,50.07 Z" style="fill:#ffffff;fill-opacity:1;fill-rule:nonzero;stroke:none" id="path1250"/></svg:g><svg:g id="g1252" transform="translate(471.0152,514.4798)"><svg:path d="M 0,0 -50.07,50.07 0,100.141 50.07,50.07 Z" style="fill:#000000;fill-opacity:1;fill-rule:nonzero;stroke:none" id="path1254"/></svg:g><svg:g id="g1256" transform="translate(420.9449,564.5501)"><svg:path d="M 0,0 -50.07,50.07 0,100.14 50.07,50.07 Z" style="fill:#000000;fill-opacity:1;fill-rule:nonzero;stroke:none" id="path1258"/></svg:g><svg:g id="g1260" transform="translate(370.8745,614.6204)"><svg:path d="M 0,0 -50.07,50.07 0,100.14 50.07,50.07 Z" style="fill:#ffffff;fill-opacity:1;fill-rule:nonzero;stroke:none" id="path1262"/></svg:g><svg:g id="g1264" transform="translate(320.8042,664.6902)"><svg:path d="M 0,0 -50.07,50.07 0,100.141 50.07,50.07 Z" style="fill:#ffffff;fill-opacity:1;fill-rule:nonzero;stroke:none" id="path1266"/></svg:g><svg:g id="g1268" transform="translate(521.0854,564.5501)"><svg:path d="M 0,0 -50.07,50.07 0,100.14 50.07,50.07 Z" style="fill:#000000;fill-opacity:1;fill-rule:nonzero;stroke:none" id="path1270"/></svg:g><svg:g id="g1272" transform="translate(471.0152,614.6204)"><svg:path d="M 0,0 -50.07,50.07 0,100.14 50.07,50.07 Z" style="fill:#000000;fill-opacity:1;fill-rule:nonzero;stroke:none" id="path1274"/></svg:g><svg:g id="g1276" transform="translate(420.9449,664.6902)"><svg:path d="M 0,0 -50.07,50.07 0,100.141 50.07,50.07 Z" style="fill:#ffffff;fill-opacity:1;fill-rule:nonzero;stroke:none" id="path1278"/></svg:g><svg:g id="g1280" transform="translate(370.8745,714.7606)"><svg:path d="M 0,0 -50.07,50.07 0,100.14 50.07,50.07 Z" style="fill:#000000;fill-opacity:1;fill-rule:nonzero;stroke:none" id="path1282"/></svg:g><svg:g id="g1284" transform="translate(571.1558,614.6204)"><svg:path d="M 0,0 -50.07,50.07 0,100.14 50.069,50.07 Z" style="fill:#ffffff;fill-opacity:1;fill-rule:nonzero;stroke:none" id="path1286"/></svg:g><svg:g id="g1288" transform="translate(521.0854,664.6902)"><svg:path d="M 0,0 -50.07,50.07 0,100.141 50.07,50.07 Z" style="fill:#ffffff;fill-opacity:1;fill-rule:nonzero;stroke:none" id="path1290"/></svg:g><svg:g id="g1292" transform="translate(471.0152,714.7606)"><svg:path d="M 0,0 -50.07,50.07 0,100.14 50.07,50.07 Z" style="fill:#000000;fill-opacity:1;fill-rule:nonzero;stroke:none" id="path1294"/></svg:g><svg:g id="g1296" transform="translate(420.9449,764.8309)"><svg:path d="M 0,0 -50.07,50.07 0,100.14 50.07,50.07 Z" style="fill:#ffffff;fill-opacity:1;fill-rule:nonzero;stroke:none" id="path1298"/></svg:g><svg:g id="g1300" transform="translate(105.2173,764.7986)"><svg:path d="M 0,0 C -0.777,0.777 -1.777,0.743 -2.676,-0.155 L -4.541,-2.02 c -0.068,-0.069 -0.068,-0.137 -0.016,-0.224 l 2.521,-3.625 c 0.068,-0.068 0.12,-0.086 0.188,-0.017 l 1.865,1.864 C 1.173,-2.866 1.243,-1.243 0,0 m 1.035,-15.708 c -0.086,-0.086 -0.223,-0.086 -0.31,0.035 l -9.373,13.412 c -0.086,0.12 -0.086,0.258 10e-4,0.345 l 4.366,4.367 c 2.193,2.192 4.522,2.21 6.335,0.397 2.934,-2.934 2.555,-6.49 -0.138,-9.183 l -2.02,-2.02 C -0.173,-8.424 -0.19,-8.51 -0.121,-8.579 l 3.263,-4.677 c 0.086,-0.122 0.086,-0.26 -0.019,-0.364 z" style="fill:#ffffff;fill-opacity:1;fill-rule:nonzero;stroke:none" id="path1302"/></svg:g><svg:g id="g1304" transform="translate(106.6031,772.5711)"><svg:path d="M 0,0 C -0.087,0.12 -0.087,0.258 0.018,0.362 L 7.231,7.576 C 7.336,7.68 7.456,7.664 7.543,7.543 L 8.993,5.472 C 9.078,5.35 9.062,5.195 8.976,5.109 L 4.107,0.241 C 4.038,0.172 4.039,0.104 4.091,0.016 l 2.036,-2.899 c 0.052,-0.086 0.12,-0.087 0.19,-0.016 l 4.038,4.037 c 0.104,0.104 0.226,0.087 0.312,-0.034 l 1.416,-2.036 c 0.085,-0.122 0.068,-0.276 -0.035,-0.38 l -4.04,-4.04 C 7.939,-5.421 7.94,-5.489 7.99,-5.576 l 2.124,-3.021 c 0.052,-0.086 0.12,-0.086 0.191,-0.016 l 4.867,4.867 c 0.104,0.104 0.224,0.085 0.31,-0.035 l 1.433,-2.088 c 0.088,-0.12 0.086,-0.259 -0.017,-0.362 L 9.699,-13.43 c -0.102,-0.103 -0.24,-0.103 -0.327,0.018 z" style="fill:#ffffff;fill-opacity:1;fill-rule:nonzero;stroke:none" id="path1306"/></svg:g><svg:g id="g1308" transform="translate(124.6284,784.2098)"><svg:path d="m 0,0 c -0.777,0.777 -1.779,0.742 -2.676,-0.155 l -1.863,-1.864 c -0.07,-0.07 -0.07,-0.138 -0.018,-0.225 l 2.521,-3.625 c 0.068,-0.068 0.12,-0.086 0.188,-0.017 l 1.865,1.864 C 1.173,-2.866 1.243,-1.243 0,0 m 1.035,-15.708 c -0.086,-0.086 -0.223,-0.086 -0.31,0.035 l -9.373,13.412 c -0.086,0.12 -0.086,0.258 10e-4,0.344 l 4.366,4.368 c 2.193,2.192 4.522,2.21 6.335,0.397 2.934,-2.934 2.555,-6.49 -0.138,-9.183 l -2.02,-2.02 C -0.173,-8.424 -0.19,-8.51 -0.121,-8.579 l 3.263,-4.677 c 0.086,-0.122 0.086,-0.26 -0.019,-0.364 z" style="fill:#ffffff;fill-opacity:1;fill-rule:nonzero;stroke:none" id="path1310"/></svg:g><svg:g id="g1312" transform="translate(134.6783,794.2606)"><svg:path d="M 0,0 C -0.776,0.776 -1.776,0.743 -2.675,-0.155 L -4.54,-2.021 c -0.068,-0.068 -0.068,-0.137 -0.016,-0.223 l 2.521,-3.625 c 0.068,-0.068 0.12,-0.086 0.188,-0.017 l 1.865,1.864 C 1.174,-2.866 1.243,-1.243 0,0 m 1.035,-15.708 c -0.085,-0.086 -0.223,-0.086 -0.31,0.035 l -9.372,13.411 c -0.087,0.121 -0.087,0.259 10e-4,0.345 L -4.28,2.45 c 2.192,2.193 4.522,2.211 6.335,0.398 2.934,-2.934 2.554,-6.491 -0.138,-9.183 l -2.02,-2.02 C -0.172,-8.424 -0.189,-8.51 -0.12,-8.579 l 3.263,-4.677 c 0.086,-0.122 0.086,-0.26 -0.019,-0.364 z" style="fill:#ffffff;fill-opacity:1;fill-rule:nonzero;stroke:none" id="path1314"/></svg:g><svg:g id="g1316" transform="translate(136.065,802.033)"><svg:path d="M 0,0 C -0.087,0.12 -0.087,0.258 0.017,0.362 L 7.231,7.576 C 7.335,7.68 7.456,7.663 7.543,7.543 L 8.992,5.472 C 9.078,5.35 9.062,5.195 8.976,5.109 L 4.107,0.241 C 4.038,0.172 4.039,0.104 4.09,0.016 L 6.127,-2.883 C 6.179,-2.969 6.247,-2.97 6.317,-2.9 l 4.038,4.038 c 0.104,0.104 0.226,0.087 0.312,-0.034 l 1.415,-2.036 c 0.086,-0.122 0.069,-0.277 -0.035,-0.381 L 8.008,-5.352 C 7.939,-5.421 7.939,-5.489 7.99,-5.577 l 2.124,-3.02 c 0.052,-0.086 0.12,-0.086 0.191,-0.016 l 4.867,4.867 c 0.103,0.104 0.224,0.085 0.31,-0.035 l 1.433,-2.088 c 0.087,-0.121 0.086,-0.26 -0.017,-0.362 L 9.699,-13.43 c -0.102,-0.103 -0.24,-0.103 -0.327,0.018 z" style="fill:#ffffff;fill-opacity:1;fill-rule:nonzero;stroke:none" id="path1318"/></svg:g><svg:g id="g1320" transform="translate(154.0034,813.7918)"><svg:path d="M 0,0 C -0.726,0.725 -1.674,0.64 -2.485,-0.171 L -4.471,-2.157 C -4.54,-2.226 -4.539,-2.294 -4.487,-2.382 l 2.33,-3.331 c 0.052,-0.086 0.12,-0.087 0.188,-0.018 l 1.987,1.986 C 1.019,-2.71 1.191,-1.191 0,0 M 7.37,-9.58 C 7.232,-9.717 7.129,-9.717 6.974,-9.63 l -5.541,3.157 -1.691,-1.691 c -0.07,-0.07 -0.087,-0.155 -0.017,-0.224 l 3.485,-5.006 c 0.087,-0.121 0.087,-0.259 0,-0.346 l -2.089,-2.089 c -0.102,-0.102 -0.24,-0.102 -0.327,0.019 l -9.372,13.412 c -0.087,0.12 -0.087,0.257 0.017,0.361 l 4.453,4.453 C -2.02,4.504 0.362,4.54 2.089,2.814 4.004,0.898 4.35,-1.657 3.366,-3.883 L 9.355,-7.18 c 0.157,-0.052 0.191,-0.224 0.07,-0.345 z" style="fill:#ffffff;fill-opacity:1;fill-rule:nonzero;stroke:none" id="path1322"/></svg:g><svg:g id="g1324" transform="translate(167.8033,824.4505)"><svg:path d="M 0,0 C 1.036,1.036 1.105,2.521 0.035,3.591 -0.673,4.298 -1.52,4.246 -2.364,3.401 L -4.092,1.674 C -4.16,1.605 -4.16,1.537 -4.107,1.451 l 2.209,-3.143 c 0.051,-0.085 0.12,-0.086 0.189,-0.017 z m 2.364,-7.543 1.865,1.864 c 1.087,1.088 1.105,2.624 -0.051,3.781 -0.726,0.725 -1.606,0.742 -2.503,-0.156 L -0.172,-3.901 C -0.241,-3.97 -0.242,-4.04 -0.189,-4.125 L 2.192,-7.508 C 2.244,-7.594 2.296,-7.612 2.364,-7.543 M -8.061,1.26 c -0.086,0.121 -0.086,0.259 0.018,0.363 l 4.384,4.383 C -1.519,8.146 0.432,8.164 1.985,6.61 3.4,5.195 3.832,3.521 3.229,1.64 L 3.263,1.605 C 4.126,1.951 5.385,1.76 6.455,0.69 8.923,-1.778 8.803,-5.006 5.937,-7.872 L 1.64,-12.169 c -0.103,-0.103 -0.241,-0.103 -0.328,0.018 z" style="fill:#ffffff;fill-opacity:1;fill-rule:nonzero;stroke:none" id="path1326"/></svg:g><svg:g id="g1328" transform="translate(181.3755,832.9134)"><svg:path d="m 0,0 -4.816,3.745 -0.051,-0.051 2.19,-6.37 z M -3.125,-11.479 -8.596,5.835 c -0.052,0.154 -0.034,0.31 0.087,0.431 l 2.088,2.088 c 0.121,0.121 0.242,0.104 0.362,0.018 L 7.146,-1.208 C 7.268,-1.294 7.284,-1.416 7.197,-1.502 L 5.092,-3.608 C 4.971,-3.729 4.85,-3.746 4.712,-3.642 L 2.33,-1.813 -1.622,-5.765 -0.536,-8.89 c 0.069,-0.173 0.07,-0.275 -0.051,-0.396 l -2.277,-2.278 c -0.105,-0.104 -0.208,-0.071 -0.261,0.085" style="fill:#ffffff;fill-opacity:1;fill-rule:nonzero;stroke:none" id="path1330"/></svg:g><svg:g id="g1332" transform="translate(181.8306,843.1033)"><svg:path d="M 0,0 C -0.932,2.797 -0.31,5.111 1.743,7.164 3.607,9.028 5.8,9.253 7.802,8.01 7.924,7.924 7.958,7.82 7.906,7.664 L 6.836,5.077 C 6.784,4.92 6.646,4.885 6.508,4.955 5.559,5.525 4.575,5.679 3.626,4.73 2.692,3.797 2.572,2.642 3.038,1.381 3.47,0.122 6.023,-3.469 6.887,-4.332 c 1.002,-1.001 2.192,-1.088 3.194,-0.085 0.863,0.862 0.95,2.123 0.639,3.331 -0.034,0.171 0.016,0.292 0.172,0.344 l 2.52,0.76 c 0.12,0.051 0.226,-0.017 0.276,-0.172 0.673,-2.815 0.069,-4.903 -1.812,-6.783 C 9.719,-9.095 6.991,-9.338 4.643,-6.99 3.59,-5.937 0.655,-1.898 0,0" style="fill:#ffffff;fill-opacity:1;fill-rule:nonzero;stroke:none" id="path1334"/></svg:g><svg:g id="g1336" transform="translate(189.5181,855.4861)"><svg:path d="M 0,0 C -0.087,0.12 -0.087,0.258 0.018,0.362 L 2.105,2.451 C 2.21,2.555 2.329,2.536 2.416,2.416 L 6.455,-3.383 6.059,6.093 C 6.04,6.316 6.076,6.421 6.214,6.559 L 8.699,9.043 C 8.82,9.165 8.992,9.096 8.992,8.888 L 9.183,0.035 18.4,-4.315 c 0.155,-0.087 0.189,-0.226 0.051,-0.363 L 16.328,-6.802 C 16.19,-6.939 16.087,-6.974 15.931,-6.888 l -6.765,3.35 0.154,-3.919 2.468,-3.539 c 0.087,-0.121 0.105,-0.241 0,-0.345 L 9.699,-13.43 c -0.102,-0.103 -0.24,-0.103 -0.327,0.018 z" style="fill:#ffffff;fill-opacity:1;fill-rule:nonzero;stroke:none" id="path1338"/></svg:g><svg:g id="g1340" transform="translate(221.7163,864.555)"><svg:path d="M 0,0 C -0.104,-0.104 -0.241,-0.104 -0.362,-0.017 L -8.51,6.818 -8.544,6.784 -4.366,-4.021 c 0.052,-0.156 0.052,-0.294 -0.07,-0.415 L -6.11,-6.111 c -0.086,-0.086 -0.224,-0.086 -0.346,0 L -18.762,4.368 c -0.103,0.103 -0.138,0.205 -0.035,0.309 l 2.072,2.072 c 0.121,0.121 0.259,0.121 0.362,0.018 l 7.87,-7.286 0.035,0.036 -4.299,10.856 c -0.051,0.155 -0.051,0.293 0.07,0.414 l 1.434,1.434 c 0.12,0.121 0.241,0.104 0.361,0.017 l 8.235,-6.921 0.033,0.034 -4.643,10.512 c -0.087,0.155 -0.068,0.276 0.035,0.379 l 2.227,2.228 c 0.121,0.12 0.224,0.085 0.293,-0.052 L 1.709,2.055 C 1.778,1.916 1.778,1.778 1.675,1.674 Z" style="fill:#ffffff;fill-opacity:1;fill-rule:nonzero;stroke:none" id="path1342"/></svg:g><svg:g id="g1344" transform="translate(218.273,884.241)"><svg:path d="M 0,0 C -0.087,0.12 -0.087,0.258 0.018,0.362 L 2.105,2.45 C 2.21,2.554 2.329,2.536 2.416,2.416 L 6.093,-2.813 C 6.144,-2.9 6.214,-2.9 6.283,-2.832 l 3.694,3.694 c 0.068,0.069 0.068,0.139 0.016,0.225 L 6.334,6.334 C 6.248,6.455 6.248,6.592 6.352,6.696 L 8.44,8.785 C 8.544,8.889 8.682,8.889 8.769,8.769 l 9.372,-13.412 c 0.086,-0.123 0.086,-0.26 -0.017,-0.363 l -2.089,-2.088 c -0.103,-0.104 -0.241,-0.104 -0.328,0.016 l -3.764,5.386 c -0.05,0.087 -0.12,0.086 -0.189,0.017 L 8.043,-5.387 C 7.974,-5.456 7.975,-5.523 8.025,-5.611 l 3.763,-5.385 c 0.087,-0.121 0.105,-0.242 0,-0.346 L 9.699,-13.43 c -0.102,-0.103 -0.24,-0.103 -0.327,0.018 z" style="fill:#ffffff;fill-opacity:1;fill-rule:nonzero;stroke:none" id="path1346"/></svg:g><svg:g id="g1348" transform="translate(229.2212,895.1898)"><svg:path d="M 0,0 C -0.086,0.12 -0.086,0.258 0.018,0.362 L 7.232,7.576 C 7.336,7.68 7.457,7.663 7.543,7.543 L 8.993,5.472 C 9.079,5.35 9.062,5.195 8.977,5.109 L 4.107,0.241 C 4.039,0.172 4.039,0.104 4.091,0.016 l 2.036,-2.899 c 0.053,-0.086 0.122,-0.085 0.19,-0.016 l 4.038,4.037 c 0.105,0.104 0.226,0.087 0.313,-0.034 l 1.415,-2.036 c 0.086,-0.122 0.069,-0.277 -0.035,-0.381 L 8.009,-5.352 C 7.939,-5.421 7.94,-5.489 7.991,-5.576 l 2.123,-3.021 c 0.053,-0.086 0.12,-0.086 0.191,-0.016 l 4.867,4.867 c 0.104,0.104 0.224,0.085 0.31,-0.035 l 1.434,-2.088 c 0.086,-0.122 0.086,-0.26 -0.018,-0.362 L 9.7,-13.43 c -0.102,-0.103 -0.24,-0.103 -0.328,0.018 z" style="fill:#ffffff;fill-opacity:1;fill-rule:nonzero;stroke:none" id="path1350"/></svg:g><svg:g id="g1352" transform="translate(238.5816,904.5501)"><svg:path d="M 0,0 C -0.086,0.12 -0.086,0.258 0.018,0.362 L 7.232,7.576 C 7.336,7.68 7.457,7.664 7.544,7.543 L 8.993,5.472 C 9.079,5.35 9.063,5.195 8.977,5.11 L 4.107,0.241 C 4.039,0.172 4.04,0.104 4.091,0.016 l 2.037,-2.899 c 0.052,-0.086 0.121,-0.085 0.19,-0.016 l 4.037,4.038 c 0.105,0.104 0.226,0.086 0.313,-0.034 l 1.415,-2.037 c 0.086,-0.122 0.069,-0.276 -0.035,-0.38 L 8.009,-5.352 C 7.939,-5.421 7.94,-5.489 7.991,-5.576 l 2.124,-3.021 c 0.052,-0.085 0.12,-0.086 0.191,-0.016 l 4.867,4.867 c 0.103,0.104 0.223,0.085 0.31,-0.035 l 1.433,-2.088 c 0.086,-0.122 0.086,-0.259 -0.017,-0.362 L 9.7,-13.43 c -0.102,-0.103 -0.24,-0.103 -0.327,0.018 z" style="fill:#ffffff;fill-opacity:1;fill-rule:nonzero;stroke:none" id="path1354"/></svg:g><svg:g id="g1356" transform="translate(247.9419,913.9105)"><svg:path d="M 0,0 C -0.086,0.121 -0.086,0.258 0.018,0.362 L 2.106,2.451 C 2.211,2.555 2.33,2.537 2.416,2.416 L 10.08,-8.527 c 0.053,-0.087 0.122,-0.086 0.191,-0.017 l 4.782,4.781 c 0.102,0.103 0.223,0.086 0.309,-0.034 l 1.486,-2.14 c 0.085,-0.123 0.085,-0.26 0,-0.346 L 9.7,-13.43 c -0.102,-0.103 -0.24,-0.103 -0.327,0.018 z" style="fill:#ffffff;fill-opacity:1;fill-rule:nonzero;stroke:none" id="path1358"/></svg:g><svg:g id="g1360" transform="translate(278.4156,921.2537)"><svg:path d="M 0,0 C -0.104,-0.104 -0.242,-0.104 -0.363,-0.017 L -8.511,6.818 -8.544,6.784 -4.367,-4.021 c 0.052,-0.156 0.052,-0.294 -0.069,-0.415 L -6.111,-6.111 C -6.197,-6.197 -6.335,-6.197 -6.456,-6.11 L -18.763,4.368 c -0.103,0.103 -0.138,0.205 -0.034,0.309 l 2.071,2.072 c 0.122,0.121 0.259,0.121 0.363,0.018 l 7.87,-7.286 0.035,0.036 -4.299,10.856 c -0.052,0.155 -0.052,0.293 0.069,0.414 l 1.434,1.434 c 0.121,0.12 0.242,0.104 0.362,0.017 l 8.234,-6.921 0.034,0.034 -4.644,10.512 c -0.086,0.155 -0.067,0.276 0.036,0.379 l 2.227,2.227 c 0.12,0.121 0.224,0.086 0.293,-0.051 L 1.709,2.055 C 1.777,1.916 1.777,1.778 1.674,1.674 Z" style="fill:#ffffff;fill-opacity:1;fill-rule:nonzero;stroke:none" id="path1362"/></svg:g><svg:g id="g1364" transform="translate(274.9712,940.9398)"><svg:path d="M 0,0 C -0.087,0.12 -0.087,0.258 0.018,0.362 L 2.106,2.45 C 2.21,2.554 2.329,2.536 2.416,2.416 l 9.372,-13.412 c 0.088,-0.121 0.105,-0.242 0,-0.346 L 9.7,-13.43 c -0.102,-0.103 -0.24,-0.103 -0.328,0.018 z" style="fill:#ffffff;fill-opacity:1;fill-rule:nonzero;stroke:none" id="path1366"/></svg:g><svg:g id="g1368" transform="translate(279.5659,945.534)"><svg:path d="M 0,0 C -0.087,0.12 -0.087,0.258 0.018,0.362 L 2.105,2.451 C 2.21,2.555 2.329,2.536 2.416,2.416 l 7.663,-10.944 c 0.053,-0.086 0.122,-0.085 0.192,-0.016 l 4.781,4.781 c 0.102,0.102 0.223,0.086 0.309,-0.034 l 1.486,-2.14 c 0.086,-0.123 0.086,-0.26 0,-0.346 L 9.699,-13.43 c -0.102,-0.103 -0.24,-0.103 -0.327,0.018 z" style="fill:#ffffff;fill-opacity:1;fill-rule:nonzero;stroke:none" id="path1370"/></svg:g><svg:g id="g1372" transform="translate(288.5288,954.4969)"><svg:path d="M 0,0 C -0.087,0.12 -0.087,0.258 0.018,0.362 L 2.105,2.45 C 2.21,2.554 2.329,2.536 2.416,2.416 l 7.663,-10.944 c 0.053,-0.086 0.122,-0.086 0.192,-0.017 l 4.781,4.782 c 0.102,0.102 0.223,0.085 0.309,-0.035 l 1.486,-2.139 c 0.086,-0.123 0.086,-0.261 0,-0.346 L 9.699,-13.43 c -0.102,-0.103 -0.24,-0.103 -0.327,0.018 z" style="fill:#ffffff;fill-opacity:1;fill-rule:nonzero;stroke:none" id="path1374"/></svg:g><svg:g id="g1376" transform="translate(309.5064,966.1541)"><svg:path d="M 0,0 C 1.036,1.036 1.105,2.521 0.035,3.591 -0.672,4.298 -1.519,4.246 -2.363,3.401 L -4.091,1.674 C -4.16,1.605 -4.159,1.537 -4.107,1.451 l 2.21,-3.143 c 0.051,-0.085 0.12,-0.086 0.188,-0.017 z m 2.365,-7.543 1.864,1.864 c 1.087,1.088 1.106,2.624 -0.051,3.781 -0.725,0.725 -1.605,0.742 -2.503,-0.156 L -0.172,-3.901 C -0.24,-3.97 -0.241,-4.04 -0.189,-4.125 L 2.193,-7.508 C 2.245,-7.594 2.296,-7.612 2.365,-7.543 M -8.061,1.26 c -0.085,0.121 -0.085,0.259 0.018,0.363 l 4.384,4.383 C -1.519,8.146 0.432,8.164 1.985,6.61 3.401,5.195 3.832,3.521 3.229,1.64 L 3.263,1.605 C 4.126,1.951 5.386,1.76 6.456,0.69 8.924,-1.778 8.804,-5.006 5.937,-7.872 L 1.64,-12.169 c -0.103,-0.103 -0.241,-0.103 -0.328,0.018 z" style="fill:#ffffff;fill-opacity:1;fill-rule:nonzero;stroke:none" id="path1378"/></svg:g><svg:g id="g1380" transform="translate(311.5493,977.5174)"><svg:path d="M 0,0 C -0.087,0.12 -0.087,0.258 0.018,0.362 L 7.231,7.576 C 7.336,7.68 7.456,7.663 7.543,7.543 L 8.992,5.472 C 9.078,5.35 9.062,5.195 8.976,5.109 L 4.107,0.241 C 4.038,0.172 4.039,0.104 4.09,0.016 L 6.127,-2.883 C 6.179,-2.969 6.248,-2.969 6.317,-2.9 l 4.038,4.038 c 0.104,0.104 0.226,0.087 0.312,-0.034 l 1.415,-2.036 c 0.086,-0.122 0.069,-0.277 -0.035,-0.381 L 8.008,-5.352 C 7.939,-5.421 7.939,-5.489 7.99,-5.577 l 2.124,-3.02 c 0.052,-0.086 0.12,-0.086 0.191,-0.016 l 4.867,4.867 c 0.103,0.104 0.224,0.085 0.31,-0.035 l 1.433,-2.088 c 0.086,-0.122 0.086,-0.26 -0.017,-0.362 L 9.699,-13.43 c -0.102,-0.103 -0.24,-0.103 -0.327,0.018 z" style="fill:#ffffff;fill-opacity:1;fill-rule:nonzero;stroke:none" id="path1382"/></svg:g><svg:g id="g1384" transform="translate(336.7222,979.5599)"><svg:path d="m 0,0 c -0.086,-0.085 -0.224,-0.085 -0.311,0.035 l -7.664,10.944 c -0.051,0.086 -0.12,0.086 -0.19,0.016 l -2.864,-2.864 c -0.104,-0.104 -0.242,-0.104 -0.329,0.017 l -1.484,2.141 c -0.086,0.12 -0.086,0.258 0.018,0.362 l 8.371,8.371 c 0.104,0.104 0.242,0.104 0.328,-0.016 l 1.483,-2.141 c 0.088,-0.121 0.088,-0.259 -0.016,-0.363 L -5.541,13.619 C -5.609,13.55 -5.609,13.482 -5.559,13.395 L 2.105,2.451 C 2.192,2.331 2.192,2.193 2.088,2.089 Z" style="fill:#ffffff;fill-opacity:1;fill-rule:nonzero;stroke:none" id="path1386"/></svg:g><svg:g id="g1388" transform="translate(333.9829,999.9515)"><svg:path d="M 0,0 C -0.086,0.12 -0.086,0.258 0.018,0.362 L 2.106,2.451 C 2.21,2.555 2.33,2.536 2.416,2.416 L 6.094,-2.813 C 6.145,-2.9 6.215,-2.9 6.283,-2.831 l 3.695,3.693 c 0.068,0.069 0.068,0.139 0.016,0.225 L 6.335,6.334 C 6.248,6.455 6.248,6.592 6.353,6.696 L 8.44,8.785 C 8.545,8.889 8.683,8.889 8.77,8.769 l 9.372,-13.412 c 0.086,-0.122 0.086,-0.26 -0.017,-0.362 l -2.089,-2.089 c -0.104,-0.104 -0.242,-0.104 -0.329,0.017 l -3.763,5.385 c -0.05,0.087 -0.12,0.087 -0.189,0.017 L 8.043,-5.386 C 7.975,-5.455 7.975,-5.523 8.025,-5.611 l 3.764,-5.385 c 0.087,-0.121 0.104,-0.241 0,-0.345 L 9.7,-13.43 c -0.102,-0.103 -0.24,-0.103 -0.327,0.018 z" style="fill:#ffffff;fill-opacity:1;fill-rule:nonzero;stroke:none" id="path1390"/></svg:g><svg:g id="g1392" transform="translate(344.9322,1010.9002)"><svg:path d="M 0,0 C -0.087,0.12 -0.087,0.258 0.018,0.362 L 2.105,2.451 C 2.21,2.555 2.329,2.536 2.416,2.416 l 9.372,-13.412 c 0.087,-0.121 0.105,-0.241 0,-0.345 L 9.699,-13.43 c -0.102,-0.103 -0.24,-0.103 -0.327,0.018 z" style="fill:#ffffff;fill-opacity:1;fill-rule:nonzero;stroke:none" id="path1394"/></svg:g><svg:g id="g1396" transform="translate(357.3277,1002.9627)"><svg:path d="m 0,0 c -0.138,0.034 -0.259,0.121 -0.258,0.294 l 0.069,2.9 c 0,0.172 0.103,0.276 0.225,0.259 1.19,-0.018 2.726,0.414 3.917,1.606 1.295,1.294 1.364,2.95 0.398,3.917 C 3.78,9.546 3.073,9.563 1.743,8.579 L 1.088,8.096 C -1.173,6.421 -3.228,6.3 -4.901,7.974 c -2.487,2.485 -2.159,6.026 0.516,8.7 1.487,1.486 3.351,2.348 4.904,2.417 0.154,0.016 0.223,-0.052 0.258,-0.259 l 0.19,-2.641 c 0.001,-0.172 -0.069,-0.276 -0.19,-0.294 -1.295,-0.189 -2.313,-0.621 -3.228,-1.536 -1.105,-1.104 -1.172,-2.589 -0.275,-3.486 0.569,-0.569 1.312,-0.587 2.622,0.379 l 0.657,0.483 c 2.26,1.674 4.298,1.847 5.885,0.259 C 9.183,9.251 8.7,5.523 5.766,2.589 4.022,0.846 1.589,-0.138 0,0" style="fill:#ffffff;fill-opacity:1;fill-rule:nonzero;stroke:none" id="path1398"/></svg:g><svg:g id="g1400" transform="translate(371.1958,1016.8309)"><svg:path d="m 0,0 c -0.138,0.034 -0.259,0.121 -0.258,0.294 l 0.069,2.9 C -0.19,3.366 -0.086,3.47 0.035,3.452 1.226,3.435 2.762,3.866 3.953,5.058 5.248,6.353 5.317,8.009 4.351,8.976 3.78,9.546 3.072,9.562 1.743,8.578 L 1.088,8.095 C -1.173,6.421 -3.229,6.3 -4.902,7.974 c -2.486,2.486 -2.158,6.025 0.517,8.7 1.486,1.485 3.35,2.348 4.904,2.416 0.154,0.017 0.223,-0.051 0.258,-0.258 l 0.19,-2.641 c 0.001,-0.172 -0.07,-0.277 -0.19,-0.293 -1.295,-0.19 -2.313,-0.622 -3.228,-1.537 -1.106,-1.105 -1.173,-2.589 -0.276,-3.486 0.57,-0.569 1.313,-0.587 2.623,0.379 l 0.656,0.483 C 2.813,13.411 4.85,13.584 6.438,11.996 9.183,9.252 8.699,5.523 5.765,2.589 4.022,0.846 1.589,-0.139 0,0" style="fill:#ffffff;fill-opacity:1;fill-rule:nonzero;stroke:none" id="path1402"/></svg:g><svg:g id="g1404" transform="translate(373.3072,1039.2758)"><svg:path d="M 0,0 C -0.086,0.12 -0.086,0.258 0.018,0.362 L 2.106,2.45 C 2.21,2.554 2.33,2.536 2.416,2.416 l 9.372,-13.412 c 0.088,-0.121 0.105,-0.242 0,-0.346 L 9.7,-13.43 c -0.102,-0.103 -0.24,-0.103 -0.328,0.018 z" style="fill:#ffffff;fill-opacity:1;fill-rule:nonzero;stroke:none" id="path1406"/></svg:g><svg:g id="g1408" transform="translate(388.1704,1035.3241)"><svg:path d="m 0,0 1.312,1.312 c 1.139,1.139 1.484,2.209 0.984,3.642 -0.399,1.191 -2.607,4.333 -3.522,5.247 -1.225,1.226 -2.33,1.088 -3.607,-0.19 L -6.128,8.717 c -0.068,-0.069 -0.051,-0.12 0,-0.208 L -0.19,0.017 C -0.138,-0.069 -0.068,-0.069 0,0 m -10.271,8.544 c -0.085,0.121 -0.085,0.259 0.018,0.363 l 4.194,4.194 c 2.279,2.278 4.557,2.209 6.714,0.051 C 2.088,11.72 4.764,8.043 5.489,5.972 6.404,3.263 5.593,1.277 3.625,-0.69 L -0.57,-4.885 c -0.103,-0.103 -0.241,-0.103 -0.327,0.018 z" style="fill:#ffffff;fill-opacity:1;fill-rule:nonzero;stroke:none" id="path1410"/></svg:g><svg:g id="g1412" transform="translate(388.3492,1054.3173)"><svg:path d="M 0,0 C -0.087,0.12 -0.087,0.258 0.018,0.362 L 7.231,7.576 C 7.336,7.68 7.456,7.663 7.543,7.543 L 8.992,5.472 C 9.078,5.35 9.062,5.195 8.976,5.109 L 4.107,0.241 C 4.038,0.172 4.039,0.104 4.09,0.016 L 6.127,-2.883 C 6.179,-2.969 6.247,-2.97 6.317,-2.9 l 4.038,4.038 c 0.104,0.104 0.226,0.087 0.312,-0.034 l 1.415,-2.036 c 0.086,-0.122 0.069,-0.277 -0.035,-0.381 L 8.008,-5.352 C 7.939,-5.421 7.939,-5.489 7.99,-5.577 l 2.124,-3.02 c 0.052,-0.086 0.12,-0.086 0.191,-0.016 l 4.867,4.867 c 0.103,0.104 0.224,0.085 0.31,-0.035 l 1.433,-2.088 c 0.087,-0.121 0.086,-0.26 -0.017,-0.362 L 9.699,-13.43 c -0.102,-0.103 -0.24,-0.103 -0.327,0.018 z" style="fill:#ffffff;fill-opacity:1;fill-rule:nonzero;stroke:none" id="path1414"/></svg:g><svg:g id="g1416" transform="translate(537.1021,180.4163)"><svg:path d="M 0,0 C -0.58,2.847 -1.185,3.811 -4.446,3.811 -5.83,3.811 -6.962,3.425 -7.734,2.762 -8.395,2.213 -8.702,1.52 -8.702,0.664 c 0,-0.773 0.415,-1.713 0.941,-2.213 0.716,-0.689 1.765,-1.298 3.506,-2.178 2.157,-1.108 3.788,-1.746 4.976,-3.094 0.577,-0.669 1.16,-1.912 1.16,-3.266 0,-1.436 -0.499,-2.732 -1.548,-3.674 -1.161,-1.05 -2.983,-1.739 -5.444,-1.739 -1.601,0 -3.561,0.359 -5.166,0.937 -0.249,1.715 -0.55,2.876 -0.911,4.091 l 0.967,0.252 c 0.883,-3.401 2.432,-4.231 5.36,-4.231 1.269,0 2.459,0.359 3.315,1.024 0.857,0.667 1.41,1.63 1.41,2.874 0,1.102 -0.304,1.767 -0.885,2.459 -0.883,1.049 -2.377,1.711 -3.979,2.511 -1.685,0.857 -4.005,2.102 -4.807,3.233 -0.5,0.722 -0.828,1.631 -0.828,2.653 0,1.189 0.495,2.375 1.655,3.262 0.998,0.775 2.513,1.299 4.67,1.299 1.768,0 3.206,-0.223 4.618,-0.773 C 0.469,2.955 0.721,1.462 0.97,0.221 Z" style="fill:#ffffff;fill-opacity:1;fill-rule:nonzero;stroke:none" id="path1418"/></svg:g><svg:g id="g1420" transform="translate(541.2153,171.5736)"><svg:path d="m 0,0 c 0,-2.513 0.663,-4.169 1.738,-5.192 1.11,-0.971 2.434,-1.384 4.092,-1.384 1.736,0 3.096,0.444 4.197,1.439 1.051,1.022 1.686,2.651 1.686,5.137 0,2.183 -0.604,3.869 -1.686,4.947 C 8.948,5.972 7.678,6.466 5.83,6.466 4.058,6.466 2.79,5.972 1.712,4.975 0.605,3.896 0,2.183 0,0 m 1.985,-0.026 c 0,2.129 0.39,3.507 1.136,4.476 0.661,0.771 1.576,1.156 2.68,1.156 C 6.959,5.606 7.9,5.221 8.535,4.45 9.281,3.481 9.67,2.103 9.67,-0.026 9.67,-2.265 9.201,-3.672 8.508,-4.558 7.874,-5.274 6.985,-5.72 5.83,-5.72 c -1.16,0 -2.048,0.446 -2.68,1.162 -0.692,0.886 -1.165,2.293 -1.165,4.532" style="fill:#ffffff;fill-opacity:1;fill-rule:nonzero;stroke:none" id="path1422"/></svg:g><svg:g id="g1424" transform="translate(556.6235,176.8519)"><svg:path d="M 0,0 H -2.045 V 0.882 H 0 V 2.623 C 0,4.311 0.416,5.579 1.327,6.519 1.989,7.156 2.929,7.598 4.145,7.598 5.277,7.598 5.939,7.294 6.493,6.937 7.295,6.412 7.683,5.72 7.683,5.224 7.683,4.668 7.403,4.363 6.905,4.363 6.246,4.363 5.997,4.946 5.691,5.555 5.389,6.162 5.027,6.742 4.172,6.742 3.62,6.742 3.179,6.549 2.788,6.133 2.239,5.47 1.907,4.477 1.907,2.516 V 0.882 H 5.414 V 0 H 1.907 v -9.033 c 0,-1.659 0.111,-1.827 2.184,-1.827 v -0.691 h -6.164 v 0.691 c 1.935,0 2.073,0.194 2.073,1.882 z" style="fill:#ffffff;fill-opacity:1;fill-rule:nonzero;stroke:none" id="path1426"/></svg:g><svg:g id="g1428" transform="translate(563.2329,177.4866)"><svg:path d="M 0,0 C 1.739,0.164 2.929,0.832 3.286,3.729 H 3.975 V 0.247 H 6.904 V -0.635 H 3.975 V -9.56 c 0,-1.296 0.388,-1.961 1.353,-1.961 0.639,0 1.162,0.22 1.716,0.638 l 0.441,-0.612 c -0.717,-0.634 -1.575,-0.994 -2.709,-0.994 -1.408,0 -2.707,0.665 -2.707,2.822 v 9.032 l -2.069,0 z" style="fill:#ffffff;fill-opacity:1;fill-rule:nonzero;stroke:none" id="path1430"/></svg:g><svg:g id="g1432" transform="translate(576.5376,175.055)"><svg:path d="M 0,0 H 3.431 C 5.691,0 7.212,-0.387 8.184,-1.131 9.172,-1.88 9.703,-2.956 9.703,-4.169 9.703,-5.608 9.285,-6.63 8.621,-7.323 7.682,-8.288 6.416,-8.705 4.451,-8.705 H 1.022 C 0.166,-8.705 0,-8.51 0,-7.347 Z m -2.044,-6.851 c 0,-1.959 -0.166,-2.1 -2.237,-2.1 v -0.803 h 9.008 c 2.874,0 4.503,0.664 5.582,1.715 1.102,1.049 1.546,2.431 1.546,3.81 0,1.523 -0.775,2.628 -1.772,3.401 C 8.9,0.083 7.294,0.552 5.503,0.609 v 0.055 c 1.739,0.25 2.9,0.801 3.727,1.546 1.019,0.914 1.38,2.131 1.38,3.177 0,1.411 -0.716,2.517 -1.763,3.233 C 7.354,9.616 5.691,9.837 3.15,9.837 H -4.281 V 9.036 c 2.071,0 2.237,-0.138 2.237,-2.129 z M 0,7.818 c 0,0.749 0.109,0.968 0.832,0.968 h 2.621 c 1.938,0 3.18,-0.44 3.951,-1.078 C 8.017,7.213 8.487,6.134 8.487,5.195 8.487,3.87 8.017,2.903 7.212,2.238 6.217,1.408 4.671,1.05 2.764,1.05 H 0 Z" style="fill:#ffffff;fill-opacity:1;fill-rule:nonzero;stroke:none" id="path1434"/></svg:g><svg:g id="g1436" transform="translate(599.4868,174.1991)"><svg:path d="m 0,0 c 0,1.216 -0.194,1.962 -0.912,2.762 -0.691,0.773 -1.659,1.079 -3.315,1.079 -1.465,0 -2.432,-0.359 -3.151,-0.775 -0.884,-0.522 -1.435,-1.273 -1.435,-1.932 0,-0.417 0.244,-0.801 0.772,-0.801 0.578,0 0.831,0.273 0.965,0.666 0.252,0.604 0.499,1.075 0.861,1.35 0.495,0.387 1.05,0.632 1.877,0.632 0.911,0 1.574,-0.271 1.988,-0.826 0.358,-0.471 0.443,-1.299 0.443,-1.932 v -1.191 l -1.63,-0.387 c -1.771,-0.386 -3.147,-0.94 -4.089,-1.573 -1.217,-0.799 -1.711,-1.798 -1.711,-3.067 0,-1.05 0.439,-1.854 1.102,-2.375 0.718,-0.582 1.658,-0.832 2.543,-0.832 1.824,0 2.928,0.638 3.865,1.524 h 0.086 c 0.247,-0.915 0.829,-1.41 1.797,-1.41 0.716,0 1.214,0.165 1.684,0.386 L 1.576,-8.068 C 1.353,-8.207 1.102,-8.26 0.829,-8.26 0.278,-8.26 0,-7.708 0,-6.467 Z m -1.907,-6.714 c -0.693,-0.69 -1.63,-1.434 -2.982,-1.434 -0.831,0 -1.411,0.273 -1.826,0.664 -0.415,0.41 -0.606,1.017 -0.606,1.74 0,1.27 0.773,1.988 1.849,2.568 1.022,0.634 2.377,1.024 3.565,1.352 z" style="fill:#ffffff;fill-opacity:1;fill-rule:nonzero;stroke:none" id="path1438"/></svg:g><svg:g id="g1440" transform="translate(613.5464,167.763)"><svg:path d="m 0,0 c 0,-1.549 0.114,-1.771 1.354,-1.771 v -0.691 h -4.671 v 0.691 c 1.33,0 1.411,0.168 1.411,1.827 v 6.159 c 0,1.077 -0.137,1.964 -0.663,2.516 -0.36,0.358 -0.855,0.55 -1.598,0.55 -1.164,0 -2.405,-1.052 -3.509,-2.569 V 0.056 c 0,-1.659 0.025,-1.827 1.321,-1.827 v -0.691 h -4.832 v 0.691 c 1.491,0 1.602,0.168 1.602,1.827 v 6.713 c 0,1.601 -0.139,1.794 -1.602,1.767 v 0.61 c 1.215,0.191 2.155,0.467 3.066,1.131 l 0.275,-0.165 0.111,-2.128 h 0.059 c 1.104,1.406 2.507,2.293 4.032,2.293 1.186,0 2.043,-0.306 2.65,-0.887 C -0.358,8.785 0,7.79 0,6.326 Z" style="fill:#ffffff;fill-opacity:1;fill-rule:nonzero;stroke:none" id="path1442"/></svg:g><svg:g id="g1444" transform="translate(620.0229,172.099)"><svg:path d="M 0,0 3.949,3.843 C 4.693,4.531 4.89,4.945 3.562,4.945 v 0.69 H 7.651 V 4.945 C 6.853,4.917 6.411,4.726 5.774,4.115 L 2.873,1.355 7.098,-5.056 C 7.71,-6.022 8.314,-6.134 9.144,-6.107 v -0.691 h -3.15 l -4.5,6.962 -1.55,-1.52 V -4.28 c 0,-1.605 0.056,-1.827 1.574,-1.827 v -0.691 h -5.135 v 0.691 c 1.599,0 1.653,0.222 1.653,1.827 V 8.814 c 0,1.603 -0.166,1.796 -1.653,1.796 v 0.606 c 1.349,0.198 2.292,0.502 3.314,1.135 l 0.247,-0.164 V 0 Z" style="fill:#ffffff;fill-opacity:1;fill-rule:nonzero;stroke:none" id="path1446"/></svg:g><svg:path d="m 517.682,178.49 h -27.623 v 6.789 h 27.623 z" style="fill:#ffffff;fill-opacity:1;fill-rule:nonzero;stroke:none" id="path1448"/><svg:path d="m 517.682,164.914 h -27.623 v 6.789 h 27.623 z" style="fill:#ffffff;fill-opacity:1;fill-rule:nonzero;stroke:none" id="path1450"/><svg:g id="g1452" transform="translate(599.9585,155.1829)"><svg:path d="M 0,0 C 1.055,0 1.524,0.959 1.524,1.831 1.524,2.761 0.959,3.663 0,3.663 -0.968,3.663 -1.534,2.761 -1.534,1.831 -1.534,0.959 -1.064,0 0,0 m 0,4.391 c 1.486,0 2.483,-1.074 2.483,-2.56 0,-1.399 -1.016,-2.56 -2.483,-2.56 -1.477,0 -2.492,1.161 -2.492,2.56 0,1.486 0.996,2.56 2.492,2.56" style="fill:#ffffff;fill-opacity:1;fill-rule:nonzero;stroke:none" id="path1454"/></svg:g><svg:g id="g1456" transform="translate(605.8901,158.8455)"><svg:path d="m 0,0 c -0.978,0 -1.447,-0.931 -1.447,-1.841 0,-0.815 0.422,-1.822 1.438,-1.822 0.969,0 1.37,1.084 1.352,1.851 C 1.361,-0.931 0.979,0 0,0 m -2.349,2.539 h 0.902 v -2.596 h 0.019 c 0.278,0.45 0.767,0.786 1.62,0.786 1.419,0 2.11,-1.161 2.11,-2.474 0,-1.342 -0.623,-2.646 -2.1,-2.646 -0.873,0 -1.429,0.441 -1.669,0.806 h -0.019 v -0.691 h -0.863 z" style="fill:#ffffff;fill-opacity:1;fill-rule:nonzero;stroke:none" id="path1458"/></svg:g><svg:g id="g1460" transform="translate(611.687,155.1829)"><svg:path d="M 0,0 C 1.055,0 1.524,0.959 1.524,1.831 1.524,2.761 0.959,3.663 0,3.663 -0.969,3.663 -1.534,2.761 -1.534,1.831 -1.534,0.959 -1.064,0 0,0 m 0,4.391 c 1.485,0 2.483,-1.074 2.483,-2.56 0,-1.399 -1.016,-2.56 -2.483,-2.56 -1.477,0 -2.493,1.161 -2.493,2.56 0,1.486 0.997,2.56 2.493,2.56" style="fill:#ffffff;fill-opacity:1;fill-rule:nonzero;stroke:none" id="path1462"/></svg:g><svg:g id="g1464" transform="translate(617.9067,158.7303)"><svg:path d="m 0,0 h -1.295 v -2.675 c 0,-0.565 0.345,-0.872 0.758,-0.872 0.278,0 0.479,0.086 0.613,0.172 v -0.767 c -0.202,-0.057 -0.479,-0.134 -0.767,-0.134 -0.93,0 -1.505,0.441 -1.505,1.419 V 0 h -1.103 v 0.729 h 1.103 V 1.86 l 0.901,0.288 V 0.729 l 1.295,0 z" style="fill:#ffffff;fill-opacity:1;fill-rule:nonzero;stroke:none" id="path1466"/></svg:g><svg:path d="m 619.273,159.459 h 0.901 v -4.89 h -0.901 z m 0.958,0.91 h -1.016 v 1.016 h 1.016 z" style="fill:#ffffff;fill-opacity:1;fill-rule:nonzero;stroke:none" id="path1468"/><svg:g id="g1470" transform="translate(624.896,158.6341)"><svg:path d="m 0,0 c -0.346,0.144 -0.69,0.211 -0.979,0.211 -1.005,0 -1.572,-0.901 -1.572,-1.831 0,-0.872 0.47,-1.831 1.63,-1.831 0.307,0 0.691,0.096 0.969,0.278 L 0.114,-3.979 C -0.259,-4.151 -0.69,-4.18 -1.017,-4.18 c -1.476,0 -2.493,1.16 -2.493,2.56 0,1.486 0.997,2.56 2.493,2.56 0.365,0 0.834,-0.086 1.093,-0.191 z" style="fill:#ffffff;fill-opacity:1;fill-rule:nonzero;stroke:none" id="path1472"/></svg:g><svg:g id="g1474" transform="translate(593.1216,158.4554)"><svg:path d="M 0,0 H 0.83 C 1.758,0 2.306,0.411 2.306,1.064 2.306,1.68 1.836,2.07 0.937,2.07 H 0 Z m -0.976,2.929 h 1.67 c 1.347,0 2.646,-0.214 2.646,-1.845 0,-0.83 -0.615,-1.416 -1.406,-1.553 v -0.02 C 2.236,-0.605 2.383,-0.752 2.598,-1.172 L 3.887,-3.886 H 2.773 L 1.729,-1.524 C 1.426,-0.859 1.104,-0.859 0.586,-0.859 H 0 v -3.027 h -0.976 z" style="fill:#ffffff;fill-opacity:1;fill-rule:nonzero;stroke:none" id="path1476"/></svg:g><svg:g id="g1478" transform="translate(626.0229,155.5282)"><svg:path d="m 0,0 c 0.38,-0.23 0.923,-0.345 1.201,-0.345 0.441,0 0.985,0.172 0.985,0.7 0,0.892 -2.268,0.814 -2.268,2.186 0,1.016 0.811,1.505 1.846,1.505 0.452,0 0.822,-0.086 1.202,-0.192 L 2.883,3.068 C 2.668,3.192 2.065,3.317 1.84,3.317 1.347,3.317 0.88,3.125 0.88,2.723 c 0,-0.997 2.264,-0.71 2.264,-2.272 0,-1.045 -0.826,-1.525 -1.759,-1.525 -0.492,0 -0.994,0.048 -1.436,0.268 z" style="fill:#ffffff;fill-opacity:1;fill-rule:nonzero;stroke:none" id="path1480"/></svg:g></svg:g></svg:g></svg:g></svg:g></svg:g><svg:g><svg:g transform="translate(276.5, 417) scale(1 1) translate(0, 0) scale(1.3333333333333333 1.3333333333333333)  rotate(45.000000 212.500000 212.500000)"><svg:g id="surface276">
<svg:path style=" stroke:none;fill-rule:nonzero;fill:rgb(50%,50%,50%);fill-opacity:1;" d="M 0 0 L 425.195312 0 L 425.195312 425.195312 L 0 425.195312 Z M 0 0 "/>
<svg:path style=" stroke:none;fill-rule:nonzero;fill:rgb(100%,100%,100%);fill-opacity:1;" d="M 0 0 L 425.195312 0 L 425.195312 425.195312 L 0 425.195312 Z M 0 0 "/>
<svg:path style=" stroke:none;fill-rule:nonzero;fill:rgb(0%,0%,0%);fill-opacity:1;" d="M 0 0 L 425.195312 0 L 425.195312 425.195312 L 0 425.195312 Z M 0 0 "/>
<svg:path style=" stroke:none;fill-rule:nonzero;fill:rgb(100%,100%,100%);fill-opacity:1;" d="M 141.730469 70.867188 L 354.332031 70.867188 L 354.332031 212.597656 L 283.464844 212.597656 L 283.464844 141.730469 L 141.730469 141.730469 Z M 141.730469 70.867188 "/>
<svg:path style=" stroke:none;fill-rule:nonzero;fill:rgb(100%,100%,100%);fill-opacity:1;" d="M 70.867188 141.730469 L 141.730469 141.730469 L 141.730469 212.597656 L 212.597656 212.597656 L 212.597656 354.332031 L 70.867188 354.332031 Z M 70.867188 141.730469 "/>
<svg:path style=" stroke:none;fill-rule:nonzero;fill:rgb(100%,100%,100%);fill-opacity:1;" d="M 283.464844 283.464844 L 354.332031 283.464844 L 354.332031 354.332031 L 283.464844 354.332031 Z M 283.464844 283.464844 "/>
</svg:g>
</svg:g></svg:g><svg:g><svg:text x="707.49" y="1206.9414141414143" font-size="36" font-family="Verdana" font-weight="bold" letter-spacing="0" text-anchor="middle" fill="black">#5</svg:text></svg:g></svg>
