<?xml version='1.0' encoding='ASCII' standalone='yes'?>
<svg xmlns:dc="http://purl.org/dc/elements/1.1/" xmlns:cc="http://creativecommons.org/ns#" xmlns:rdf="http://www.w3.org/1999/02/22-rdf-syntax-ns#" xmlns:svg="http://www.w3.org/2000/svg" xmlns="http://www.w3.org/2000/svg" xmlns:sodipodi="http://sodipodi.sourceforge.net/DTD/sodipodi-0.dtd" xmlns:inkscape="http://www.inkscape.org/namespaces/inkscape" id="Calque_1" data-name="Calque 1" viewBox="0 0 793.70071 1122.5197" version="1.1" sodipodi:docname="base_90.svg" inkscape:version="0.92.3 (2405546, 2018-03-11)" width="210mm" height="297mm">
  <metadata id="metadata93">
    <rdf:RDF>
      <cc:Work rdf:about="">
        <dc:format>image/svg+xml</dc:format>
        <dc:type rdf:resource="http://purl.org/dc/dcmitype/StillImage"/>
        <dc:title/>
      </cc:Work>
    </rdf:RDF>
  </metadata>
  <sodipodi:namedview pagecolor="#ffffff" bordercolor="#666666" borderopacity="1" objecttolerance="10" gridtolerance="10" guidetolerance="10" inkscape:pageopacity="0" inkscape:pageshadow="2" inkscape:window-width="691" inkscape:window-height="480" id="namedview91" showgrid="false" inkscape:zoom="0.28032165" inkscape:cx="342.23165" inkscape:cy="420.94501" inkscape:window-x="67" inkscape:window-y="27" inkscape:window-maximized="0" inkscape:current-layer="Calque_1" units="mm"/>
  <defs id="defs4">
    <style id="style2">.cls-1{fill:#08a2ac;}.cls-2{font-size:64.01px;font-family:DINNextLTPro-BoldItalic, DIN Next LT Pro;font-weight:700;font-style:italic;}.cls-2,.cls-5{fill:#010101;}.cls-3{letter-spacing:-0.05em;}.cls-4{letter-spacing:-0.07em;}.cls-6{fill:#fff;}</style>
  </defs>
<svg:g><svg:g><svg:metadata id="metadata2502"><rdf:RDF><cc:Work rdf:about=""><dc:format>image/svg+xml</dc:format><dc:type rdf:resource="http://purl.org/dc/dcmitype/StillImage"/><dc:title/></cc:Work></rdf:RDF></svg:metadata><svg:defs id="defs2500"><svg:clipPath clipPathUnits="userSpaceOnUse" id="clipPath2512"><svg:path d="M 0,841.89 H 595.276 V 0 H 0 Z" id="path2510"/></svg:clipPath></svg:defs><sodipodi:namedview pagecolor="#ffffff" bordercolor="#666666" borderopacity="1" objecttolerance="10" gridtolerance="10" guidetolerance="10" inkscape:pageopacity="0" inkscape:pageshadow="2" inkscape:window-width="858" inkscape:window-height="480" id="namedview2498" showgrid="false" inkscape:zoom="0.89797953" inkscape:cx="396.85068" inkscape:cy="561.26001" inkscape:window-x="0" inkscape:window-y="0" inkscape:window-maximized="0" inkscape:current-layer="g2504"/><svg:g id="g2504" inkscape:groupmode="layer" inkscape:label="2021_DX_pepperARUCO_MAT_A4v2" transform="matrix(1.3333333,0,0,-1.3333333,0,1122.52)"><svg:g id="g2506"><svg:g id="g2508" clip-path="url(#clipPath2512)"><svg:g id="g2514" transform="translate(298.0258,812.0475)"><svg:path d="M 0,0 C -5.291,0 -10.581,-1.307 -15.372,-3.92 L -253.9,-134.038 c -10.296,-5.616 -16.709,-16.401 -16.728,-28.129 l -0.749,-476.192 c -0.019,-12.242 6.927,-23.431 17.909,-28.843 L -15,-784.73 c 4.473,-2.204 9.332,-3.307 14.19,-3.307 4.857,0 9.713,1.102 14.186,3.305 l 238.562,117.528 c 10.952,5.396 17.895,16.537 17.915,28.745 l 0.748,476.191 c 0.018,11.764 -6.399,22.595 -16.726,28.229 L 15.373,-3.921 C 10.582,-1.307 5.291,0 0,0 m 0,-32.1 238.502,-130.117 -0.749,-476.192 -238.563,-117.528 -238.468,117.528 0.75,476.192 L 0,-32.1" style="fill:#0aa2ac;fill-opacity:1;fill-rule:nonzero;stroke:none" id="path2516"/></svg:g><svg:g id="g2518" transform="translate(498.8823,145.1164)"><svg:path d="m 0,0 -400.131,-0.823 168.904,-100.713 221.889,76.26 z" style="fill:#0aa2ac;fill-opacity:1;fill-rule:nonzero;stroke:none" id="path2520"/></svg:g><svg:g id="g2522" transform="translate(250.8666,701.278)"><svg:path d="M 0,0 C 0.064,0.384 0.32,0.64 0.704,0.64 H 8.002 C 8.514,0.64 8.834,0.448 8.962,0 l 9.922,-27.973 H 19.14 L 24.132,0 c 0.064,0.384 0.32,0.64 0.704,0.64 h 6.914 c 0.384,0 0.64,-0.256 0.575,-0.64 l -7.489,-42.247 c -0.064,-0.384 -0.319,-0.64 -0.704,-0.64 h -7.361 c -0.384,0 -0.704,0.192 -0.896,0.64 L 5.89,-14.274 H 5.569 L 0.641,-42.247 C 0.576,-42.631 0.32,-42.887 0,-42.887 h -6.913 c -0.384,0 -0.64,0.256 -0.576,0.64 z" style="fill:#010101;fill-opacity:1;fill-rule:nonzero;stroke:none" id="path2524"/></svg:g><svg:g id="g2526" transform="translate(307.7719,670.8088)"><svg:path d="m 0,0 c 1.473,3.009 3.393,14.53 3.393,17.667 0,3.777 -2.113,6.145 -5.889,6.145 -3.521,0 -6.017,-1.984 -7.489,-5.121 -1.536,-3.008 -3.456,-14.53 -3.456,-17.667 0,-3.776 2.175,-6.145 5.888,-6.145 3.521,0 6.017,1.985 7.553,5.121 m -22.531,0.192 c 0,3.905 2.112,17.027 4.352,21.636 3.457,6.977 9.218,9.985 16.899,9.985 8.193,0 13.762,-4.544 13.762,-13.314 0,-3.904 -2.112,-17.027 -4.352,-21.635 -3.457,-6.978 -9.153,-9.986 -16.9,-9.986 -8.193,0 -13.761,4.545 -13.761,13.314" style="fill:#010101;fill-opacity:1;fill-rule:nonzero;stroke:none" id="path2528"/></svg:g><svg:g id="g2530" transform="translate(332.9916,666.3923)"><svg:path d="m 0,0 h 4.864 c 4.225,0 6.85,1.344 8.577,4.929 1.473,2.944 3.202,12.866 3.202,16.258 0,4.545 -2.305,6.337 -7.041,6.337 H 4.801 C 4.544,27.524 4.48,27.396 4.416,27.14 L -0.32,0.384 C -0.385,0.128 -0.257,0 0,0 m -3.201,34.886 c 0.064,0.384 0.32,0.64 0.704,0.64 h 15.555 c 8.449,0 12.546,-4.353 12.546,-12.354 0,-5.313 -1.856,-17.091 -4.353,-22.276 C 17.923,-5.825 12.737,-8.001 5.44,-8.001 h -15.554 c -0.384,0 -0.64,0.255 -0.576,0.64 z" style="fill:#010101;fill-opacity:1;fill-rule:nonzero;stroke:none" id="path2532"/></svg:g><svg:g id="g2534" transform="translate(368.5161,701.278)"><svg:path d="m 0,0 c 0.064,0.384 0.32,0.64 0.704,0.64 h 26.757 c 0.384,0 0.576,-0.256 0.512,-0.64 L 26.82,-6.529 c -0.063,-0.384 -0.383,-0.64 -0.704,-0.64 H 8.065 c -0.255,0 -0.383,-0.128 -0.448,-0.384 l -1.599,-9.154 c -0.065,-0.256 0.063,-0.384 0.319,-0.384 h 14.978 c 0.385,0 0.577,-0.256 0.513,-0.64 l -1.152,-6.401 c -0.065,-0.384 -0.384,-0.64 -0.769,-0.64 H 4.929 c -0.256,0 -0.384,-0.128 -0.448,-0.384 l -1.665,-9.538 c -0.063,-0.256 0.065,-0.384 0.321,-0.384 h 18.05 c 0.385,0 0.577,-0.256 0.513,-0.64 l -1.217,-6.529 c -0.063,-0.384 -0.319,-0.64 -0.704,-0.64 H -6.913 c -0.384,0 -0.64,0.256 -0.576,0.64 z" style="fill:#010101;fill-opacity:1;fill-rule:nonzero;stroke:none" id="path2536"/></svg:g><svg:g id="g2538" transform="translate(239.019,703.4172)"><svg:path d="m 0,0 -7.772,-43.766 h -36.08 z" style="fill:#010101;fill-opacity:1;fill-rule:nonzero;stroke:none" id="path2540"/></svg:g><svg:g id="g2542" transform="translate(309.3549,113.3742)"><svg:path d="M 0,0 C -0.58,2.847 -1.185,3.811 -4.446,3.811 -5.83,3.811 -6.962,3.425 -7.733,2.762 -8.395,2.214 -8.702,1.52 -8.702,0.663 c 0,-0.772 0.416,-1.712 0.941,-2.212 0.716,-0.689 1.765,-1.299 3.506,-2.179 2.157,-1.108 3.788,-1.745 4.976,-3.093 0.577,-0.669 1.16,-1.912 1.16,-3.266 0,-1.436 -0.499,-2.732 -1.548,-3.675 -1.161,-1.049 -2.983,-1.738 -5.444,-1.738 -1.601,0 -3.561,0.359 -5.166,0.937 -0.249,1.714 -0.55,2.876 -0.911,4.09 l 0.968,0.252 c 0.882,-3.4 2.431,-4.23 5.359,-4.23 1.269,0 2.459,0.358 3.315,1.024 0.857,0.666 1.41,1.63 1.41,2.873 0,1.103 -0.304,1.768 -0.885,2.459 -0.883,1.05 -2.376,1.711 -3.979,2.512 -1.685,0.857 -4.005,2.102 -4.807,3.233 -0.5,0.721 -0.828,1.631 -0.828,2.653 0,1.188 0.495,2.375 1.655,3.261 0.998,0.776 2.513,1.299 4.67,1.299 1.768,0 3.206,-0.222 4.618,-0.772 C 0.469,2.954 0.721,1.462 0.97,0.221 Z" style="fill:#ffffff;fill-opacity:1;fill-rule:nonzero;stroke:none" id="path2544"/></svg:g><svg:g id="g2546" transform="translate(313.4682,104.5314)"><svg:path d="m 0,0 c 0,-2.513 0.663,-4.17 1.739,-5.192 1.11,-0.971 2.433,-1.384 4.091,-1.384 1.736,0 3.096,0.444 4.197,1.438 1.051,1.023 1.687,2.652 1.687,5.138 0,2.183 -0.605,3.869 -1.687,4.946 C 8.948,5.972 7.678,6.466 5.83,6.466 4.058,6.466 2.79,5.972 1.712,4.975 0.605,3.896 0,2.183 0,0 m 1.985,-0.026 c 0,2.129 0.39,3.507 1.136,4.476 0.662,0.771 1.576,1.156 2.68,1.156 C 6.959,5.606 7.9,5.221 8.535,4.45 9.281,3.481 9.67,2.103 9.67,-0.026 9.67,-2.265 9.201,-3.673 8.508,-4.558 7.875,-5.273 6.986,-5.72 5.83,-5.72 c -1.159,0 -2.047,0.447 -2.68,1.162 -0.692,0.885 -1.165,2.293 -1.165,4.532" style="fill:#ffffff;fill-opacity:1;fill-rule:nonzero;stroke:none" id="path2548"/></svg:g><svg:g id="g2550" transform="translate(328.8764,109.8098)"><svg:path d="M 0,0 H -2.045 V 0.882 H 0 V 2.623 C 0,4.311 0.416,5.579 1.327,6.519 1.989,7.156 2.929,7.598 4.145,7.598 5.277,7.598 5.939,7.294 6.494,6.937 7.295,6.411 7.683,5.72 7.683,5.224 7.683,4.668 7.403,4.363 6.906,4.363 6.246,4.363 5.997,4.946 5.691,5.555 5.389,6.162 5.027,6.741 4.172,6.741 3.62,6.741 3.18,6.549 2.788,6.133 2.24,5.47 1.907,4.477 1.907,2.516 V 0.882 H 5.414 V 0 H 1.907 v -9.033 c 0,-1.659 0.111,-1.827 2.184,-1.827 v -0.691 h -6.164 v 0.691 c 1.935,0 2.073,0.194 2.073,1.882 z" style="fill:#ffffff;fill-opacity:1;fill-rule:nonzero;stroke:none" id="path2552"/></svg:g><svg:g id="g2554" transform="translate(335.4858,110.4445)"><svg:path d="M 0,0 C 1.739,0.164 2.929,0.831 3.286,3.729 H 3.975 V 0.247 h 2.93 v -0.882 h -2.93 v -8.926 c 0,-1.295 0.388,-1.96 1.353,-1.96 0.639,0 1.163,0.22 1.716,0.638 l 0.441,-0.612 c -0.716,-0.635 -1.575,-0.994 -2.709,-0.994 -1.408,0 -2.707,0.665 -2.707,2.821 v 9.033 l -2.069,0 z" style="fill:#ffffff;fill-opacity:1;fill-rule:nonzero;stroke:none" id="path2556"/></svg:g><svg:g id="g2558" transform="translate(348.7905,108.0129)"><svg:path d="M 0,0 H 3.431 C 5.691,0 7.213,-0.387 8.184,-1.132 9.172,-1.88 9.703,-2.956 9.703,-4.17 9.703,-5.608 9.285,-6.631 8.621,-7.323 7.683,-8.288 6.416,-8.705 4.452,-8.705 H 1.022 C 0.166,-8.705 0,-8.51 0,-7.347 Z m -2.044,-6.852 c 0,-1.959 -0.166,-2.099 -2.237,-2.099 v -0.803 h 9.008 c 2.874,0 4.503,0.664 5.582,1.715 1.102,1.049 1.547,2.431 1.547,3.81 0,1.523 -0.776,2.627 -1.773,3.401 C 8.9,0.083 7.294,0.552 5.503,0.608 V 0.664 C 7.242,0.913 8.404,1.465 9.23,2.21 10.249,3.123 10.61,4.341 10.61,5.387 10.61,6.798 9.894,7.903 8.847,8.62 7.354,9.616 5.691,9.837 3.15,9.837 H -4.281 V 9.035 c 2.071,0 2.237,-0.138 2.237,-2.128 z M 0,7.817 c 0,0.75 0.109,0.969 0.832,0.969 h 2.622 c 1.937,0 3.179,-0.44 3.95,-1.078 C 8.017,7.214 8.487,6.134 8.487,5.195 8.487,3.869 8.017,2.902 7.213,2.238 6.217,1.408 4.671,1.05 2.764,1.05 H 0 Z" style="fill:#ffffff;fill-opacity:1;fill-rule:nonzero;stroke:none" id="path2560"/></svg:g><svg:g id="g2562" transform="translate(371.7407,107.1564)"><svg:path d="m 0,0 c 0,1.216 -0.195,1.962 -0.912,2.762 -0.692,0.773 -1.66,1.079 -3.315,1.079 -1.465,0 -2.433,-0.359 -3.152,-0.775 -0.884,-0.522 -1.435,-1.272 -1.435,-1.932 0,-0.417 0.244,-0.801 0.772,-0.801 0.578,0 0.831,0.273 0.965,0.666 0.252,0.604 0.499,1.075 0.861,1.351 0.495,0.386 1.05,0.631 1.877,0.631 0.911,0 1.574,-0.27 1.988,-0.826 0.358,-0.47 0.443,-1.299 0.443,-1.932 v -1.191 l -1.629,-0.387 c -1.772,-0.385 -3.148,-0.94 -4.089,-1.573 -1.218,-0.799 -1.712,-1.798 -1.712,-3.067 0,-1.05 0.439,-1.854 1.102,-2.374 0.718,-0.582 1.658,-0.832 2.544,-0.832 1.823,0 2.927,0.637 3.865,1.523 h 0.085 c 0.247,-0.915 0.83,-1.41 1.797,-1.41 0.716,0 1.214,0.165 1.684,0.387 L 1.575,-8.067 C 1.352,-8.207 1.101,-8.26 0.828,-8.26 0.278,-8.26 0,-7.708 0,-6.467 Z m -1.908,-6.714 c -0.693,-0.689 -1.629,-1.433 -2.982,-1.433 -0.831,0 -1.411,0.272 -1.826,0.664 -0.415,0.41 -0.606,1.016 -0.606,1.739 0,1.27 0.773,1.988 1.849,2.568 1.023,0.634 2.377,1.024 3.565,1.352 z" style="fill:#ffffff;fill-opacity:1;fill-rule:nonzero;stroke:none" id="path2564"/></svg:g><svg:g id="g2566" transform="translate(385.7993,100.7209)"><svg:path d="m 0,0 c 0,-1.549 0.114,-1.771 1.354,-1.771 v -0.691 h -4.671 v 0.691 c 1.33,0 1.411,0.167 1.411,1.827 v 6.159 c 0,1.077 -0.137,1.964 -0.663,2.515 -0.36,0.359 -0.855,0.55 -1.598,0.55 -1.164,0 -2.405,-1.051 -3.509,-2.568 V 0.056 c 0,-1.66 0.025,-1.827 1.321,-1.827 v -0.691 h -4.832 v 0.691 c 1.491,0 1.602,0.167 1.602,1.827 v 6.713 c 0,1.6 -0.139,1.794 -1.602,1.767 v 0.61 c 1.216,0.191 2.155,0.467 3.067,1.13 l 0.274,-0.164 0.111,-2.129 h 0.059 c 1.104,1.407 2.507,2.293 4.032,2.293 1.186,0 2.043,-0.305 2.65,-0.886 C -0.358,8.785 0,7.79 0,6.326 Z" style="fill:#ffffff;fill-opacity:1;fill-rule:nonzero;stroke:none" id="path2568"/></svg:g><svg:g id="g2570" transform="translate(392.2768,105.0568)"><svg:path d="M 0,0 3.949,3.843 C 4.692,4.53 4.889,4.944 3.561,4.944 V 5.635 H 7.65 V 4.944 C 6.852,4.916 6.41,4.726 5.773,4.115 L 2.872,1.354 7.097,-5.057 c 0.613,-0.965 1.216,-1.077 2.046,-1.05 v -0.691 h -3.15 l -4.5,6.962 -1.55,-1.52 V -4.28 c 0,-1.605 0.057,-1.827 1.575,-1.827 v -0.691 h -5.136 v 0.691 c 1.599,0 1.653,0.222 1.653,1.827 V 8.813 c 0,1.604 -0.166,1.796 -1.653,1.796 v 0.607 c 1.349,0.197 2.292,0.502 3.314,1.135 l 0.247,-0.164 V 0 Z" style="fill:#ffffff;fill-opacity:1;fill-rule:nonzero;stroke:none" id="path2572"/></svg:g><svg:path d="m 289.935,111.447 h -27.623 v 6.788 h 27.623 z" style="fill:#ffffff;fill-opacity:1;fill-rule:nonzero;stroke:none" id="path2574"/><svg:path d="m 289.935,97.871 h -27.623 v 6.789 h 27.623 z" style="fill:#ffffff;fill-opacity:1;fill-rule:nonzero;stroke:none" id="path2576"/><svg:g id="g2578" transform="translate(372.2114,88.1408)"><svg:path d="M 0,0 C 1.055,0 1.524,0.959 1.524,1.831 1.524,2.761 0.959,3.663 0,3.663 -0.968,3.663 -1.534,2.761 -1.534,1.831 -1.534,0.959 -1.064,0 0,0 m 0,4.391 c 1.486,0 2.483,-1.074 2.483,-2.56 0,-1.399 -1.016,-2.56 -2.483,-2.56 -1.477,0 -2.492,1.161 -2.492,2.56 0,1.486 0.996,2.56 2.492,2.56" style="fill:#ffffff;fill-opacity:1;fill-rule:nonzero;stroke:none" id="path2580"/></svg:g><svg:g id="g2582" transform="translate(378.144,91.8039)"><svg:path d="m 0,0 c -0.979,0 -1.448,-0.932 -1.448,-1.842 0,-0.814 0.422,-1.821 1.438,-1.821 0.969,0 1.371,1.083 1.352,1.851 C 1.361,-0.932 0.979,0 0,0 m -2.35,2.538 h 0.902 v -2.596 h 0.019 c 0.278,0.451 0.767,0.786 1.62,0.786 1.419,0 2.11,-1.16 2.11,-2.474 0,-1.342 -0.623,-2.646 -2.1,-2.646 -0.873,0 -1.429,0.441 -1.669,0.806 H -1.487 V -4.277 H -2.35 Z" style="fill:#ffffff;fill-opacity:1;fill-rule:nonzero;stroke:none" id="path2584"/></svg:g><svg:g id="g2586" transform="translate(383.9399,88.1408)"><svg:path d="M 0,0 C 1.055,0 1.524,0.959 1.524,1.831 1.524,2.761 0.959,3.663 0,3.663 -0.969,3.663 -1.534,2.761 -1.534,1.831 -1.534,0.959 -1.064,0 0,0 m 0,4.391 c 1.486,0 2.483,-1.074 2.483,-2.56 0,-1.399 -1.016,-2.56 -2.483,-2.56 -1.477,0 -2.493,1.161 -2.493,2.56 0,1.486 0.997,2.56 2.493,2.56" style="fill:#ffffff;fill-opacity:1;fill-rule:nonzero;stroke:none" id="path2588"/></svg:g><svg:g id="g2590" transform="translate(390.1596,91.6877)"><svg:path d="m 0,0 h -1.295 v -2.675 c 0,-0.565 0.345,-0.872 0.758,-0.872 0.278,0 0.479,0.086 0.613,0.172 v -0.767 c -0.202,-0.057 -0.478,-0.133 -0.767,-0.133 -0.93,0 -1.505,0.44 -1.505,1.418 V 0 h -1.103 v 0.729 h 1.103 V 1.86 l 0.901,0.288 V 0.729 l 1.295,0 z" style="fill:#ffffff;fill-opacity:1;fill-rule:nonzero;stroke:none" id="path2592"/></svg:g><svg:path d="m 391.526,92.417 h 0.901 v -4.891 h -0.901 z m 0.959,0.909 h -1.017 v 1.016 h 1.017 z" style="fill:#ffffff;fill-opacity:1;fill-rule:nonzero;stroke:none" id="path2594"/><svg:g id="g2596" transform="translate(397.1489,91.592)"><svg:path d="m 0,0 c -0.346,0.144 -0.69,0.212 -0.978,0.212 -1.006,0 -1.573,-0.902 -1.573,-1.832 0,-0.872 0.47,-1.831 1.63,-1.831 0.308,0 0.691,0.096 0.969,0.278 L 0.115,-3.979 C -0.259,-4.151 -0.69,-4.18 -1.017,-4.18 c -1.476,0 -2.493,1.16 -2.493,2.56 0,1.486 0.998,2.559 2.493,2.559 0.365,0 0.834,-0.085 1.093,-0.191 z" style="fill:#ffffff;fill-opacity:1;fill-rule:nonzero;stroke:none" id="path2598"/></svg:g><svg:g id="g2600" transform="translate(365.3754,91.4133)"><svg:path d="m 0,0 h 0.83 c 0.927,0 1.475,0.41 1.475,1.063 0,0.617 -0.47,1.006 -1.368,1.006 H 0 Z m -0.977,2.929 h 1.67 c 1.347,0 2.646,-0.214 2.646,-1.845 0,-0.83 -0.615,-1.416 -1.406,-1.554 v -0.019 c 0.302,-0.116 0.45,-0.263 0.664,-0.683 L 3.886,-3.887 H 2.772 L 1.729,-1.524 C 1.425,-0.859 1.104,-0.859 0.585,-0.859 H 0 v -3.028 h -0.977 z" style="fill:#ffffff;fill-opacity:1;fill-rule:nonzero;stroke:none" id="path2602"/></svg:g><svg:g id="g2604" transform="translate(398.2758,88.4855)"><svg:path d="m 0,0 c 0.38,-0.23 0.923,-0.345 1.201,-0.345 0.442,0 0.985,0.172 0.985,0.7 0,0.892 -2.268,0.815 -2.268,2.186 0,1.017 0.811,1.505 1.847,1.505 0.451,0 0.821,-0.086 1.201,-0.192 L 2.883,3.068 C 2.668,3.192 2.065,3.318 1.84,3.318 1.347,3.318 0.88,3.126 0.88,2.724 c 0,-0.997 2.264,-0.71 2.264,-2.273 0,-1.045 -0.826,-1.524 -1.758,-1.524 -0.493,0 -0.995,0.048 -1.437,0.267 z" style="fill:#ffffff;fill-opacity:1;fill-rule:nonzero;stroke:none" id="path2606"/></svg:g><svg:path d="M 85.027,611.712 H 510.25 V 186.489 H 85.027 Z" style="fill:#010101;fill-opacity:1;fill-rule:nonzero;stroke:none" id="path2608"/><svg:path d="m 155.897,328.231 h 70.87 V 257.36 h -70.87 z" style="fill:#010101;fill-opacity:1;fill-rule:nonzero;stroke:none" id="path2610"/><svg:path d="m 155.897,399.101 h 70.87 v -70.87 h -70.87 z" style="fill:#010101;fill-opacity:1;fill-rule:nonzero;stroke:none" id="path2612"/><svg:path d="m 155.897,469.971 h 70.87 V 399.1 h -70.87 z" style="fill:#ffffff;fill-opacity:1;fill-rule:nonzero;stroke:none" id="path2614"/><svg:path d="m 155.897,540.842 h 70.87 v -70.871 h -70.87 z" style="fill:#ffffff;fill-opacity:1;fill-rule:nonzero;stroke:none" id="path2616"/><svg:path d="m 226.767,328.231 h 70.871 V 257.36 h -70.871 z" style="fill:#010101;fill-opacity:1;fill-rule:nonzero;stroke:none" id="path2618"/><svg:path d="m 226.767,399.101 h 70.871 v -70.87 h -70.871 z" style="fill:#010101;fill-opacity:1;fill-rule:nonzero;stroke:none" id="path2620"/><svg:path d="m 226.767,469.971 h 70.871 V 399.1 h -70.871 z" style="fill:#ffffff;fill-opacity:1;fill-rule:nonzero;stroke:none" id="path2622"/><svg:path d="m 226.767,540.842 h 70.871 v -70.871 h -70.871 z" style="fill:#ffffff;fill-opacity:1;fill-rule:nonzero;stroke:none" id="path2624"/><svg:path d="m 297.638,328.231 h 70.87 V 257.36 h -70.87 z" style="fill:#010101;fill-opacity:1;fill-rule:nonzero;stroke:none" id="path2626"/><svg:path d="m 297.638,399.101 h 70.87 v -70.87 h -70.87 z" style="fill:#010101;fill-opacity:1;fill-rule:nonzero;stroke:none" id="path2628"/><svg:path d="m 297.638,469.971 h 70.87 V 399.1 h -70.87 z" style="fill:#ffffff;fill-opacity:1;fill-rule:nonzero;stroke:none" id="path2630"/><svg:path d="m 297.638,540.842 h 70.87 v -70.871 h -70.87 z" style="fill:#010101;fill-opacity:1;fill-rule:nonzero;stroke:none" id="path2632"/><svg:path d="m 368.508,328.231 h 70.87 V 257.36 h -70.87 z" style="fill:#ffffff;fill-opacity:1;fill-rule:nonzero;stroke:none" id="path2634"/><svg:path d="m 368.508,399.101 h 70.87 v -70.87 h -70.87 z" style="fill:#ffffff;fill-opacity:1;fill-rule:nonzero;stroke:none" id="path2636"/><svg:path d="m 368.508,469.971 h 70.87 V 399.1 h -70.87 z" style="fill:#010101;fill-opacity:1;fill-rule:nonzero;stroke:none" id="path2638"/><svg:path d="m 368.508,540.842 h 70.87 v -70.871 h -70.87 z" style="fill:#ffffff;fill-opacity:1;fill-rule:nonzero;stroke:none" id="path2640"/></svg:g></svg:g></svg:g></svg:g></svg:g><svg:g><svg:g transform="translate(113.43434343434345, 307.9141414141414) scale(1 1) translate(0, 0) scale(1.3333333333333333 1.3333333333333333)  rotate(180.000000 212.500000 212.500000)"><svg:g id="surface326">
<svg:path style=" stroke:none;fill-rule:nonzero;fill:rgb(50%,50%,50%);fill-opacity:1;" d="M 0 0 L 425.195312 0 L 425.195312 425.195312 L 0 425.195312 Z M 0 0 "/>
<svg:path style=" stroke:none;fill-rule:nonzero;fill:rgb(100%,100%,100%);fill-opacity:1;" d="M 0 0 L 425.195312 0 L 425.195312 425.195312 L 0 425.195312 Z M 0 0 "/>
<svg:path style=" stroke:none;fill-rule:nonzero;fill:rgb(0%,0%,0%);fill-opacity:1;" d="M 0 0 L 425.195312 0 L 425.195312 425.195312 L 0 425.195312 Z M 0 0 "/>
<svg:path style=" stroke:none;fill-rule:nonzero;fill:rgb(100%,100%,100%);fill-opacity:1;" d="M 212.597656 70.867188 L 283.464844 70.867188 L 283.464844 212.597656 L 354.332031 212.597656 L 354.332031 283.464844 L 283.464844 283.464844 L 283.464844 354.332031 L 70.867188 354.332031 L 70.867188 283.464844 L 212.597656 283.464844 L 212.597656 212.597656 L 141.730469 212.597656 L 141.730469 141.730469 L 212.597656 141.730469 Z M 212.597656 70.867188 "/>
</svg:g>
</svg:g></svg:g><svg:g><svg:text x="397.020202020202" y="915.0370370370371" font-size="24" font-family="Verdana" font-weight="bold" letter-spacing="0" text-anchor="middle" fill="black">#15</svg:text></svg:g></svg>
