<?xml version='1.0' encoding='ASCII' standalone='yes'?>
<svg xmlns:dc="http://purl.org/dc/elements/1.1/" xmlns:cc="http://creativecommons.org/ns#" xmlns:rdf="http://www.w3.org/1999/02/22-rdf-syntax-ns#" xmlns:svg="http://www.w3.org/2000/svg" xmlns="http://www.w3.org/2000/svg" xmlns:sodipodi="http://sodipodi.sourceforge.net/DTD/sodipodi-0.dtd" xmlns:inkscape="http://www.inkscape.org/namespaces/inkscape" id="Calque_1" data-name="Calque 1" viewBox="0 0 793.70071 1122.5197" version="1.1" sodipodi:docname="base_90.svg" inkscape:version="0.92.3 (2405546, 2018-03-11)" width="210mm" height="297mm">
  <metadata id="metadata93">
    <rdf:RDF>
      <cc:Work rdf:about="">
        <dc:format>image/svg+xml</dc:format>
        <dc:type rdf:resource="http://purl.org/dc/dcmitype/StillImage"/>
        <dc:title/>
      </cc:Work>
    </rdf:RDF>
  </metadata>
  <sodipodi:namedview pagecolor="#ffffff" bordercolor="#666666" borderopacity="1" objecttolerance="10" gridtolerance="10" guidetolerance="10" inkscape:pageopacity="0" inkscape:pageshadow="2" inkscape:window-width="691" inkscape:window-height="480" id="namedview91" showgrid="false" inkscape:zoom="0.28032165" inkscape:cx="342.23165" inkscape:cy="420.94501" inkscape:window-x="67" inkscape:window-y="27" inkscape:window-maximized="0" inkscape:current-layer="Calque_1" units="mm"/>
  <defs id="defs4">
    <style id="style2">.cls-1{fill:#08a2ac;}.cls-2{font-size:64.01px;font-family:DINNextLTPro-BoldItalic, DIN Next LT Pro;font-weight:700;font-style:italic;}.cls-2,.cls-5{fill:#010101;}.cls-3{letter-spacing:-0.05em;}.cls-4{letter-spacing:-0.07em;}.cls-6{fill:#fff;}</style>
  </defs>
<svg:g><svg:g><svg:metadata id="metadata2220"><rdf:RDF><cc:Work rdf:about=""><dc:format>image/svg+xml</dc:format><dc:type rdf:resource="http://purl.org/dc/dcmitype/StillImage"/><dc:title/></cc:Work></rdf:RDF></svg:metadata><svg:defs id="defs2218"><svg:clipPath clipPathUnits="userSpaceOnUse" id="clipPath2230"><svg:path d="M 0,841.89 H 595.276 V 0 H 0 Z" id="path2228"/></svg:clipPath></svg:defs><sodipodi:namedview pagecolor="#ffffff" bordercolor="#666666" borderopacity="1" objecttolerance="10" gridtolerance="10" guidetolerance="10" inkscape:pageopacity="0" inkscape:pageshadow="2" inkscape:window-width="860" inkscape:window-height="480" id="namedview2216" showgrid="false" inkscape:zoom="0.89797953" inkscape:cx="396.85068" inkscape:cy="561.26001" inkscape:window-x="0" inkscape:window-y="0" inkscape:window-maximized="0" inkscape:current-layer="g2222"/><svg:g id="g2222" inkscape:groupmode="layer" inkscape:label="2021_DX_pepperARUCO_MAT_A4v2" transform="matrix(1.3333333,0,0,-1.3333333,0,1122.52)"><svg:g id="g2224"><svg:g id="g2226" clip-path="url(#clipPath2230)"><svg:g id="g2232" transform="translate(297.6383,43.4514)"><svg:path d="m 0,0 c -18.348,0 -82.938,1.637 -143.755,22.695 -76.631,26.535 -117.136,74.323 -117.136,138.196 v 427.164 c 0,5.522 2.914,10.634 7.666,13.448 l 245.274,145.26 c 2.455,1.455 5.21,2.182 7.965,2.182 2.755,0 5.509,-0.727 7.965,-2.182 l 245.246,-145.26 c 4.751,-2.814 7.665,-7.926 7.665,-13.448 V 160.891 C 260.89,97.018 220.385,49.23 143.754,22.695 82.938,1.637 18.348,0 0,0" style="fill:#ffffff;fill-opacity:1;fill-rule:nonzero;stroke:none" id="path2234"/></svg:g><svg:g id="g2236" transform="translate(297.652,808.027)"><svg:path d="m 0,0 c -5.51,0 -11.019,-1.454 -15.931,-4.363 l -245.273,-145.26 c -9.503,-5.628 -15.331,-15.853 -15.331,-26.898 v -427.164 c 0,-20.449 3.794,-39.747 11.277,-57.357 6.904,-16.248 17.006,-31.191 30.025,-44.416 21.103,-21.435 50.156,-38.66 86.35,-51.192 63.122,-21.857 129.904,-23.556 148.869,-23.556 18.964,0 85.746,1.699 148.868,23.556 36.195,12.532 65.248,29.757 86.351,51.192 13.019,13.225 23.121,28.168 30.024,44.416 7.484,17.61 11.278,36.908 11.278,57.357 v 427.164 c 0,11.044 -5.827,21.269 -15.33,26.897 L 15.931,-4.364 C 11.02,-1.455 5.509,0 0,0 m 0,-31.261 245.245,-145.26 v -427.164 c 0,-135.453 -202.565,-145.26 -245.259,-145.26 -42.694,0 -245.26,9.807 -245.26,145.26 v 427.164 L 0,-31.261" style="fill:#0aa2ac;fill-opacity:1;fill-rule:nonzero;stroke:none" id="path2238"/></svg:g><svg:g id="g2240" transform="translate(253.6539,732.5788)"><svg:path d="M 0,0 C 0.063,0.384 0.319,0.64 0.704,0.64 H 27.46 c 0.384,0 0.575,-0.256 0.512,-0.64 l -1.153,-6.529 c -0.063,-0.384 -0.383,-0.64 -0.704,-0.64 H 8.065 c -0.256,0 -0.384,-0.128 -0.448,-0.384 l -1.599,-9.154 c -0.065,-0.255 0.063,-0.383 0.319,-0.383 h 14.977 c 0.386,0 0.578,-0.257 0.514,-0.641 l -1.154,-6.401 c -0.064,-0.384 -0.384,-0.64 -0.768,-0.64 H 4.928 c -0.256,0 -0.384,-0.128 -0.449,-0.384 l -1.664,-9.537 c -0.063,-0.256 0.065,-0.385 0.321,-0.385 h 18.051 c 0.384,0 0.577,-0.255 0.513,-0.639 l -1.218,-6.53 c -0.064,-0.384 -0.32,-0.64 -0.704,-0.64 H -6.913 c -0.385,0 -0.641,0.256 -0.576,0.64 z" style="fill:#010101;fill-opacity:1;fill-rule:nonzero;stroke:none" id="path2242"/></svg:g><svg:g id="g2244" transform="translate(288.3473,732.5788)"><svg:path d="M 0,0 C 0.063,0.384 0.319,0.64 0.703,0.64 H 8.001 C 8.513,0.64 8.833,0.448 8.961,0 l 9.921,-27.973 h 0.256 L 24.132,0 c 0.063,0.384 0.319,0.64 0.703,0.64 h 6.914 c 0.384,0 0.64,-0.256 0.576,-0.64 l -7.49,-42.247 c -0.064,-0.384 -0.319,-0.64 -0.703,-0.64 h -7.361 c -0.385,0 -0.705,0.192 -0.897,0.64 L 5.889,-14.274 H 5.569 L 0.64,-42.247 C 0.575,-42.631 0.319,-42.887 0,-42.887 h -6.914 c -0.384,0 -0.64,0.256 -0.576,0.64 z" style="fill:#010101;fill-opacity:1;fill-rule:nonzero;stroke:none" id="path2246"/></svg:g><svg:g id="g2248" transform="translate(331.9371,697.6935)"><svg:path d="m 0,0 h 4.865 c 4.225,0 6.85,1.344 8.577,4.928 1.473,2.945 3.201,12.867 3.201,16.259 0,4.544 -2.304,6.337 -7.041,6.337 h -4.8 c -0.256,0 -0.321,-0.128 -0.384,-0.384 L -0.32,0.384 C -0.384,0.128 -0.256,0 0,0 m -3.2,34.885 c 0.064,0.385 0.32,0.64 0.704,0.64 h 15.555 c 8.449,0 12.545,-4.352 12.545,-12.354 0,-5.312 -1.856,-17.09 -4.352,-22.275 -3.329,-6.721 -8.513,-8.897 -15.811,-8.897 h -15.554 c -0.384,0 -0.64,0.255 -0.576,0.64 z" style="fill:#010101;fill-opacity:1;fill-rule:nonzero;stroke:none" id="path2250"/></svg:g><svg:g id="g2252" transform="translate(241.0699,666.7853)"><svg:path d="m 0,0 c 0,2.881 -1.92,4.673 -5.247,4.673 h -6.914 c -0.256,0 -0.384,-0.128 -0.447,-0.384 l -2.049,-11.394 c 0,-0.256 0.064,-0.384 0.32,-0.384 h 6.912 C -3.136,-7.489 0,-4.608 0,0 m -27.203,-31.045 c -0.32,0 -0.576,0.256 -0.513,0.64 l 7.489,42.247 c 0.065,0.384 0.321,0.64 0.641,0.64 H -3.392 C 4.737,12.482 9.09,8.193 9.09,1.473 9.09,-9.409 1.794,-15.298 -8.193,-15.298 h -7.49 c -0.255,0 -0.447,-0.128 -0.447,-0.384 l -2.624,-14.723 c -0.064,-0.384 -0.32,-0.64 -0.704,-0.64 z" style="fill:#010101;fill-opacity:1;fill-rule:nonzero;stroke:none" id="path2254"/></svg:g><svg:g id="g2256" transform="translate(274.5475,648.1584)"><svg:path d="m 0,0 c 1.472,3.009 3.392,14.53 3.392,17.667 0,3.777 -2.112,6.145 -5.888,6.145 -3.522,0 -6.018,-1.984 -7.489,-5.121 -1.537,-3.008 -3.457,-14.53 -3.457,-17.667 0,-3.776 2.176,-6.145 5.888,-6.145 3.521,0 6.018,1.985 7.554,5.121 m -22.532,0.192 c 0,3.905 2.112,17.027 4.353,21.636 3.456,6.977 9.218,9.985 16.899,9.985 8.193,0 13.761,-4.544 13.761,-13.314 0,-3.905 -2.112,-17.026 -4.352,-21.635 -3.457,-6.977 -9.153,-9.986 -16.899,-9.986 -8.193,0 -13.762,4.545 -13.762,13.314" style="fill:#010101;fill-opacity:1;fill-rule:nonzero;stroke:none" id="path2258"/></svg:g><svg:g id="g2260" transform="translate(296.566,678.6276)"><svg:path d="M 0,0 C 0.063,0.384 0.32,0.64 0.704,0.64 H 8.449 C 8.833,0.64 9.025,0.384 8.961,0 L 1.474,-42.247 c -0.065,-0.384 -0.256,-0.64 -0.642,-0.64 h -7.744 c -0.386,0 -0.642,0.256 -0.577,0.64 z" style="fill:#010101;fill-opacity:1;fill-rule:nonzero;stroke:none" id="path2262"/></svg:g><svg:g id="g2264" transform="translate(313.5924,678.6276)"><svg:path d="M 0,0 C 0.064,0.384 0.32,0.64 0.704,0.64 H 8.001 C 8.514,0.64 8.833,0.448 8.961,0 l 9.922,-27.973 h 0.256 L 24.132,0 c 0.064,0.384 0.32,0.64 0.704,0.64 h 6.913 c 0.385,0 0.641,-0.256 0.576,-0.64 l -7.489,-42.247 c -0.064,-0.384 -0.32,-0.64 -0.704,-0.64 h -7.361 c -0.384,0 -0.705,0.192 -0.896,0.64 L 5.89,-14.274 H 5.569 L 0.64,-42.247 C 0.576,-42.631 0.32,-42.887 0,-42.887 h -6.913 c -0.384,0 -0.64,0.256 -0.576,0.64 z" style="fill:#010101;fill-opacity:1;fill-rule:nonzero;stroke:none" id="path2266"/></svg:g><svg:g id="g2268" transform="translate(355.7106,635.7404)"><svg:path d="M 0,0 C -0.319,0 -0.575,0.256 -0.512,0.64 L 5.569,35.142 C 5.634,35.397 5.506,35.526 5.25,35.526 H -5.377 c -0.384,0 -0.64,0.256 -0.576,0.64 l 1.218,6.721 c 0.063,0.384 0.32,0.64 0.704,0.64 h 31.044 c 0.383,0 0.639,-0.256 0.575,-0.64 l -1.216,-6.721 c -0.063,-0.384 -0.319,-0.64 -0.704,-0.64 H 14.979 c -0.256,0 -0.384,-0.129 -0.448,-0.384 L 8.45,0.64 C 8.386,0.256 8.13,0 7.746,0 Z" style="fill:#010101;fill-opacity:1;fill-rule:nonzero;stroke:none" id="path2270"/></svg:g><svg:g id="g2272" transform="translate(95.0914,111.2658)"><svg:path d="M 0,0 441.247,35.01 404.257,-2.642 268.184,-64.477 78.936,-47.633 Z" style="fill:#0aa2ac;fill-opacity:1;fill-rule:nonzero;stroke:none" id="path2274"/></svg:g><svg:g id="g2276" transform="translate(210.7076,678.446)"><svg:path d="m 0,0 -7.772,-43.766 h -36.08 z" style="fill:#010101;fill-opacity:1;fill-rule:nonzero;stroke:none" id="path2278"/></svg:g><svg:g id="g2280" transform="translate(349.0211,98.8605)"><svg:path d="m 0,0 c -0.581,2.848 -1.185,3.811 -4.447,3.811 -1.384,0 -2.516,-0.385 -3.287,-1.049 -0.662,-0.548 -0.969,-1.241 -0.969,-2.098 0,-0.772 0.416,-1.712 0.941,-2.213 0.716,-0.688 1.766,-1.298 3.507,-2.178 2.157,-1.108 3.787,-1.745 4.975,-3.094 0.578,-0.668 1.161,-1.912 1.161,-3.265 0,-1.436 -0.5,-2.732 -1.549,-3.675 -1.16,-1.05 -2.982,-1.738 -5.443,-1.738 -1.601,0 -3.562,0.358 -5.167,0.937 -0.249,1.714 -0.549,2.876 -0.91,4.09 l 0.967,0.252 c 0.883,-3.401 2.431,-4.231 5.36,-4.231 1.269,0 2.459,0.359 3.315,1.024 0.856,0.667 1.41,1.63 1.41,2.874 0,1.102 -0.304,1.768 -0.885,2.459 -0.884,1.049 -2.377,1.711 -3.979,2.512 -1.686,0.856 -4.006,2.101 -4.807,3.233 -0.5,0.721 -0.828,1.631 -0.828,2.652 0,1.189 0.495,2.376 1.655,3.262 0.998,0.776 2.513,1.299 4.67,1.299 1.767,0 3.206,-0.223 4.618,-0.773 C 0.469,2.955 0.72,1.463 0.969,0.222 Z" style="fill:#ffffff;fill-opacity:1;fill-rule:nonzero;stroke:none" id="path2282"/></svg:g><svg:g id="g2284" transform="translate(353.1334,90.0178)"><svg:path d="m 0,0 c 0,-2.512 0.664,-4.169 1.739,-5.192 1.11,-0.97 2.433,-1.383 4.091,-1.383 1.737,0 3.097,0.443 4.198,1.438 1.05,1.023 1.686,2.652 1.686,5.137 0,2.184 -0.605,3.869 -1.686,4.947 C 8.948,5.973 7.678,6.467 5.83,6.467 4.059,6.467 2.79,5.973 1.712,4.976 0.605,3.897 0,2.184 0,0 m 1.986,-0.025 c 0,2.128 0.389,3.506 1.135,4.476 0.662,0.771 1.577,1.156 2.68,1.156 C 6.96,5.607 7.9,5.222 8.535,4.451 9.281,3.481 9.67,2.103 9.67,-0.025 9.67,-2.265 9.202,-3.672 8.508,-4.557 7.875,-5.273 6.986,-5.719 5.83,-5.719 c -1.159,0 -2.047,0.446 -2.68,1.162 -0.691,0.885 -1.164,2.292 -1.164,4.532" style="fill:#ffffff;fill-opacity:1;fill-rule:nonzero;stroke:none" id="path2286"/></svg:g><svg:g id="g2288" transform="translate(368.5426,95.2971)"><svg:path d="M 0,0 H -2.046 V 0.882 H 0 v 1.74 C 0,4.31 0.416,5.579 1.326,6.519 1.989,7.155 2.929,7.598 4.145,7.598 5.276,7.598 5.939,7.293 6.493,6.937 7.294,6.411 7.683,5.72 7.683,5.224 7.683,4.668 7.403,4.363 6.905,4.363 6.246,4.363 5.997,4.945 5.691,5.555 5.389,6.161 5.026,6.741 4.172,6.741 3.62,6.741 3.179,6.549 2.788,6.132 2.239,5.47 1.907,4.477 1.907,2.516 V 0.882 H 5.414 V 0 H 1.907 v -9.033 c 0,-1.659 0.111,-1.827 2.184,-1.827 v -0.691 h -6.165 v 0.691 c 1.936,0 2.074,0.194 2.074,1.881 z" style="fill:#ffffff;fill-opacity:1;fill-rule:nonzero;stroke:none" id="path2290"/></svg:g><svg:g id="g2292" transform="translate(375.151,95.9308)"><svg:path d="M 0,0 C 1.739,0.165 2.93,0.832 3.287,3.729 H 3.975 V 0.248 h 2.93 V -0.634 H 3.975 V -9.56 c 0,-1.295 0.388,-1.961 1.354,-1.961 0.639,0 1.162,0.221 1.716,0.639 l 0.44,-0.612 c -0.716,-0.635 -1.574,-0.994 -2.709,-0.994 -1.408,0 -2.706,0.665 -2.706,2.821 v 9.033 H 0 Z" style="fill:#ffffff;fill-opacity:1;fill-rule:nonzero;stroke:none" id="path2294"/></svg:g><svg:g id="g2296" transform="translate(388.4567,93.4992)"><svg:path d="M 0,0 H 3.431 C 5.69,0 7.212,-0.387 8.183,-1.131 9.172,-1.88 9.703,-2.956 9.703,-4.169 9.703,-5.607 9.285,-6.63 8.621,-7.322 7.682,-8.287 6.415,-8.704 4.451,-8.704 H 1.022 C 0.166,-8.704 0,-8.509 0,-7.346 Z m -2.045,-6.851 c 0,-1.959 -0.165,-2.099 -2.236,-2.099 v -0.803 h 9.008 c 2.873,0 4.502,0.663 5.581,1.715 1.103,1.049 1.547,2.431 1.547,3.81 0,1.522 -0.775,2.627 -1.772,3.401 C 8.9,0.084 7.294,0.552 5.502,0.609 v 0.055 c 1.739,0.25 2.901,0.802 3.727,1.547 1.019,0.913 1.381,2.13 1.381,3.177 0,1.41 -0.717,2.516 -1.763,3.232 C 7.354,9.616 5.69,9.837 3.149,9.837 h -7.43 V 9.036 c 2.071,0 2.236,-0.138 2.236,-2.129 z M 0,7.818 c 0,0.75 0.109,0.969 0.832,0.969 h 2.621 c 1.938,0 3.18,-0.44 3.951,-1.078 C 8.016,7.214 8.486,6.135 8.486,5.195 8.486,3.87 8.016,2.903 7.212,2.239 6.217,1.409 4.67,1.05 2.763,1.05 H 0 Z" style="fill:#ffffff;fill-opacity:1;fill-rule:nonzero;stroke:none" id="path2298"/></svg:g><svg:g id="g2300" transform="translate(411.4059,92.6437)"><svg:path d="m 0,0 c 0,1.216 -0.195,1.962 -0.912,2.762 -0.691,0.773 -1.659,1.079 -3.315,1.079 -1.465,0 -2.432,-0.359 -3.151,-0.775 -0.885,-0.522 -1.435,-1.272 -1.435,-1.932 0,-0.417 0.244,-0.802 0.772,-0.802 0.577,0 0.83,0.274 0.964,0.666 0.253,0.605 0.5,1.075 0.862,1.352 0.495,0.385 1.049,0.631 1.876,0.631 0.912,0 1.574,-0.271 1.989,-0.826 0.358,-0.47 0.443,-1.3 0.443,-1.932 v -1.191 l -1.63,-0.387 c -1.771,-0.386 -3.148,-0.94 -4.089,-1.573 -1.217,-0.8 -1.712,-1.798 -1.712,-3.067 0,-1.05 0.439,-1.854 1.103,-2.374 0.718,-0.583 1.658,-0.832 2.543,-0.832 1.823,0 2.927,0.637 3.865,1.523 h 0.086 c 0.247,-0.916 0.829,-1.41 1.796,-1.41 0.717,0 1.214,0.164 1.684,0.386 L 1.576,-8.068 C 1.352,-8.207 1.101,-8.26 0.828,-8.26 0.278,-8.26 0,-7.708 0,-6.467 Z m -1.907,-6.715 c -0.693,-0.689 -1.63,-1.433 -2.983,-1.433 -0.83,0 -1.41,0.273 -1.826,0.665 -0.414,0.41 -0.606,1.016 -0.606,1.739 0,1.27 0.774,1.988 1.849,2.568 1.023,0.634 2.377,1.024 3.566,1.352 z" style="fill:#ffffff;fill-opacity:1;fill-rule:nonzero;stroke:none" id="path2302"/></svg:g><svg:g id="g2304" transform="translate(425.4645,86.2082)"><svg:path d="m 0,0 c 0,-1.549 0.114,-1.771 1.355,-1.771 v -0.691 h -4.671 v 0.691 c 1.329,0 1.411,0.167 1.411,1.827 v 6.159 c 0,1.076 -0.138,1.964 -0.664,2.515 -0.36,0.359 -0.855,0.55 -1.598,0.55 -1.164,0 -2.404,-1.051 -3.509,-2.569 V 0.056 c 0,-1.66 0.025,-1.827 1.321,-1.827 v -0.691 h -4.832 v 0.691 c 1.491,0 1.602,0.167 1.602,1.827 v 6.712 c 0,1.601 -0.138,1.795 -1.602,1.767 v 0.611 c 1.216,0.191 2.156,0.467 3.067,1.13 l 0.274,-0.165 0.112,-2.128 h 0.058 c 1.105,1.407 2.508,2.293 4.032,2.293 1.187,0 2.044,-0.305 2.651,-0.886 C -0.357,8.785 0,7.789 0,6.326 Z" style="fill:#ffffff;fill-opacity:1;fill-rule:nonzero;stroke:none" id="path2306"/></svg:g><svg:g id="g2308" transform="translate(431.942,90.5432)"><svg:path d="M 0,0 3.949,3.844 C 4.693,4.531 4.89,4.945 3.562,4.945 V 5.636 H 7.65 V 4.945 C 6.852,4.917 6.41,4.726 5.773,4.115 L 2.872,1.355 7.097,-5.056 C 7.71,-6.021 8.313,-6.134 9.144,-6.106 V -6.797 H 5.993 l -4.5,6.961 -1.55,-1.519 v -2.924 c 0,-1.605 0.057,-1.827 1.575,-1.827 v -0.691 h -5.136 v 0.691 c 1.6,0 1.654,0.222 1.654,1.827 V 8.814 c 0,1.604 -0.167,1.796 -1.654,1.796 v 0.607 c 1.35,0.197 2.292,0.502 3.314,1.135 l 0.247,-0.164 V 0 Z" style="fill:#ffffff;fill-opacity:1;fill-rule:nonzero;stroke:none" id="path2310"/></svg:g><svg:path d="m 329.6,96.934 h -27.623 v 6.789 H 329.6 Z" style="fill:#ffffff;fill-opacity:1;fill-rule:nonzero;stroke:none" id="path2312"/><svg:path d="m 329.6,83.359 h -27.623 v 6.789 H 329.6 Z" style="fill:#ffffff;fill-opacity:1;fill-rule:nonzero;stroke:none" id="path2314"/><svg:g id="g2316" transform="translate(411.8776,73.6271)"><svg:path d="M 0,0 C 1.055,0 1.523,0.959 1.523,1.832 1.523,2.762 0.959,3.663 0,3.663 -0.969,3.663 -1.534,2.762 -1.534,1.832 -1.534,0.959 -1.064,0 0,0 m 0,4.392 c 1.485,0 2.483,-1.074 2.483,-2.56 0,-1.399 -1.016,-2.561 -2.483,-2.561 -1.478,0 -2.493,1.162 -2.493,2.561 0,1.486 0.997,2.56 2.493,2.56" style="fill:#ffffff;fill-opacity:1;fill-rule:nonzero;stroke:none" id="path2318"/></svg:g><svg:g id="g2320" transform="translate(417.8092,77.2902)"><svg:path d="m 0,0 c -0.978,0 -1.447,-0.931 -1.447,-1.841 0,-0.814 0.421,-1.822 1.437,-1.822 0.969,0 1.371,1.084 1.353,1.851 C 1.361,-0.931 0.979,0 0,0 m -2.35,2.539 h 0.903 v -2.596 h 0.018 c 0.279,0.45 0.768,0.786 1.621,0.786 1.419,0 2.11,-1.161 2.11,-2.474 0,-1.342 -0.623,-2.647 -2.101,-2.647 -0.872,0 -1.429,0.442 -1.668,0.806 h -0.019 v -0.69 H -2.35 Z" style="fill:#ffffff;fill-opacity:1;fill-rule:nonzero;stroke:none" id="path2322"/></svg:g><svg:g id="g2324" transform="translate(423.6061,73.6271)"><svg:path d="M 0,0 C 1.055,0 1.523,0.959 1.523,1.832 1.523,2.762 0.958,3.663 0,3.663 -0.969,3.663 -1.535,2.762 -1.535,1.832 -1.535,0.959 -1.064,0 0,0 m 0,4.392 c 1.485,0 2.482,-1.074 2.482,-2.56 0,-1.399 -1.016,-2.561 -2.482,-2.561 -1.477,0 -2.494,1.162 -2.494,2.561 0,1.486 0.998,2.56 2.494,2.56" style="fill:#ffffff;fill-opacity:1;fill-rule:nonzero;stroke:none" id="path2326"/></svg:g><svg:g id="g2328" transform="translate(429.8248,77.175)"><svg:path d="m 0,0 h -1.294 v -2.675 c 0,-0.565 0.345,-0.873 0.757,-0.873 0.278,0 0.48,0.087 0.613,0.173 v -0.767 c -0.201,-0.057 -0.478,-0.134 -0.766,-0.134 -0.93,0 -1.505,0.441 -1.505,1.419 V 0 h -1.103 v 0.729 h 1.103 V 1.86 l 0.901,0.287 V 0.729 l 1.294,0 z" style="fill:#ffffff;fill-opacity:1;fill-rule:nonzero;stroke:none" id="path2330"/></svg:g><svg:path d="m 431.191,77.904 h 0.901 v -4.891 h -0.901 z m 0.959,0.91 h -1.016 v 1.016 h 1.016 z" style="fill:#ffffff;fill-opacity:1;fill-rule:nonzero;stroke:none" id="path2332"/><svg:g id="g2334" transform="translate(436.8141,77.0793)"><svg:path d="m 0,0 c -0.346,0.144 -0.69,0.211 -0.978,0.211 -1.006,0 -1.573,-0.901 -1.573,-1.831 0,-0.873 0.471,-1.832 1.631,-1.832 0.307,0 0.691,0.096 0.968,0.279 l 0.067,-0.806 c -0.374,-0.172 -0.805,-0.202 -1.132,-0.202 -1.475,0 -2.492,1.161 -2.492,2.561 0,1.486 0.997,2.559 2.492,2.559 0.365,0 0.835,-0.085 1.094,-0.191 z" style="fill:#ffffff;fill-opacity:1;fill-rule:nonzero;stroke:none" id="path2336"/></svg:g><svg:g id="g2338" transform="translate(405.0406,76.8996)"><svg:path d="M 0,0 H 0.83 C 1.757,0 2.305,0.411 2.305,1.064 2.305,1.68 1.836,2.07 0.937,2.07 H 0 Z m -0.977,2.93 h 1.67 c 1.348,0 2.646,-0.215 2.646,-1.845 0,-0.83 -0.614,-1.416 -1.405,-1.554 V -0.488 C 2.235,-0.605 2.383,-0.752 2.598,-1.171 L 3.887,-3.886 H 2.773 L 1.729,-1.523 C 1.426,-0.858 1.104,-0.858 0.586,-0.858 H 0 v -3.028 h -0.977 z" style="fill:#ffffff;fill-opacity:1;fill-rule:nonzero;stroke:none" id="path2340"/></svg:g><svg:g id="g2342" transform="translate(437.941,73.9728)"><svg:path d="m 0,0 c 0.381,-0.23 0.924,-0.346 1.201,-0.346 0.442,0 0.986,0.173 0.986,0.7 0,0.893 -2.268,0.816 -2.268,2.187 0,1.016 0.81,1.505 1.846,1.505 0.452,0 0.821,-0.086 1.201,-0.192 L 2.884,3.068 C 2.668,3.192 2.066,3.317 1.841,3.317 1.348,3.317 0.88,3.126 0.88,2.724 c 0,-0.997 2.265,-0.711 2.265,-2.273 0,-1.046 -0.826,-1.525 -1.759,-1.525 -0.493,0 -0.995,0.048 -1.437,0.268 z" style="fill:#ffffff;fill-opacity:1;fill-rule:nonzero;stroke:none" id="path2344"/></svg:g><svg:g id="g2346" transform="translate(100.2516,680.779)"><svg:path d="m 0,0 c -0.566,0.941 -1.545,1.15 -2.634,0.496 l -2.261,-1.359 c -0.083,-0.05 -0.099,-0.116 -0.069,-0.213 l 1.569,-4.126 c 0.05,-0.084 0.096,-0.113 0.179,-0.063 l 2.259,1.358 C 0.445,-3.064 0.905,-1.507 0,0 m -2.794,-15.493 c -0.104,-0.062 -0.238,-0.029 -0.293,0.11 l -5.851,15.279 c -0.055,0.138 -0.022,0.272 0.084,0.335 l 5.292,3.182 C -0.903,5.01 1.361,4.464 2.682,2.267 4.819,-1.29 3.592,-4.649 0.327,-6.611 l -2.448,-1.471 c -0.083,-0.05 -0.121,-0.13 -0.071,-0.213 l 2.035,-5.327 c 0.053,-0.14 0.02,-0.274 -0.106,-0.349 z" style="fill:#ffffff;fill-opacity:1;fill-rule:nonzero;stroke:none" id="path2348"/></svg:g><svg:g id="g2350" transform="translate(103.4752,687.9855)"><svg:path d="M 0,0 C -0.055,0.138 -0.021,0.271 0.104,0.347 L 8.85,5.603 C 8.976,5.679 9.089,5.633 9.144,5.496 L 10.05,3.135 C 10.104,2.996 10.049,2.85 9.945,2.788 L 4.044,-0.759 C 3.961,-0.81 3.944,-0.876 3.974,-0.974 l 1.274,-3.305 c 0.03,-0.096 0.096,-0.113 0.181,-0.062 l 4.894,2.942 c 0.127,0.075 0.24,0.029 0.295,-0.108 l 0.881,-2.319 c 0.054,-0.139 0,-0.285 -0.126,-0.361 L 6.477,-7.13 C 6.394,-7.18 6.378,-7.246 6.405,-7.343 l 1.33,-3.444 c 0.031,-0.096 0.096,-0.113 0.182,-0.062 l 5.899,3.546 c 0.126,0.075 0.239,0.028 0.293,-0.109 l 0.886,-2.373 c 0.055,-0.138 0.02,-0.273 -0.104,-0.347 L 6.165,-15.377 C 6.04,-15.452 5.907,-15.418 5.852,-15.28 Z" style="fill:#ffffff;fill-opacity:1;fill-rule:nonzero;stroke:none" id="path2352"/></svg:g><svg:g id="g2354" transform="translate(123.7799,694.9206)"><svg:path d="m 0,0 c -0.565,0.941 -1.547,1.149 -2.634,0.496 l -2.259,-1.358 c -0.085,-0.051 -0.1,-0.117 -0.07,-0.214 l 1.568,-4.126 c 0.051,-0.084 0.096,-0.113 0.18,-0.063 l 2.259,1.358 C 0.446,-3.065 0.906,-1.507 0,0 m -2.794,-15.493 c -0.103,-0.062 -0.237,-0.029 -0.293,0.11 l -5.851,15.279 c -0.055,0.138 -0.022,0.272 0.084,0.335 l 5.293,3.182 C -0.903,5.01 1.361,4.464 2.682,2.267 4.82,-1.291 3.592,-4.649 0.328,-6.611 L -2.12,-8.082 c -0.084,-0.05 -0.122,-0.13 -0.071,-0.213 l 2.035,-5.328 c 0.053,-0.139 0.02,-0.273 -0.106,-0.348 z" style="fill:#ffffff;fill-opacity:1;fill-rule:nonzero;stroke:none" id="path2356"/></svg:g><svg:g id="g2358" transform="translate(135.9625,702.2424)"><svg:path d="m 0,0 c -0.565,0.941 -1.545,1.15 -2.634,0.497 l -2.261,-1.359 c -0.083,-0.051 -0.098,-0.117 -0.068,-0.214 l 1.568,-4.126 c 0.051,-0.084 0.096,-0.113 0.18,-0.063 l 2.259,1.358 C 0.446,-3.064 0.906,-1.507 0,0 m -2.794,-15.492 c -0.103,-0.063 -0.237,-0.029 -0.293,0.109 l -5.851,15.28 c -0.055,0.137 -0.022,0.271 0.084,0.334 l 5.293,3.182 C -0.903,5.01 1.361,4.464 2.682,2.267 4.82,-1.29 3.592,-4.648 0.328,-6.61 L -2.12,-8.082 c -0.084,-0.05 -0.122,-0.129 -0.071,-0.213 l 2.035,-5.327 c 0.053,-0.139 0.02,-0.273 -0.106,-0.349 z" style="fill:#ffffff;fill-opacity:1;fill-rule:nonzero;stroke:none" id="path2360"/></svg:g><svg:g id="g2362" transform="translate(139.1871,709.4489)"><svg:path d="m 0,0 c -0.056,0.138 -0.021,0.271 0.104,0.347 l 8.745,5.256 c 0.126,0.076 0.239,0.03 0.294,-0.107 l 0.906,-2.36 c 0.054,-0.14 0,-0.286 -0.104,-0.348 L 4.044,-0.759 C 3.96,-0.809 3.944,-0.875 3.973,-0.973 l 1.275,-3.306 c 0.029,-0.096 0.096,-0.113 0.181,-0.062 l 4.894,2.942 c 0.126,0.076 0.24,0.029 0.295,-0.108 l 0.881,-2.319 c 0.054,-0.139 -0.001,-0.285 -0.127,-0.361 L 6.477,-7.129 C 6.393,-7.18 6.377,-7.246 6.405,-7.343 l 1.33,-3.444 c 0.03,-0.096 0.096,-0.113 0.181,-0.062 l 5.899,3.546 c 0.127,0.076 0.239,0.029 0.293,-0.109 l 0.886,-2.373 c 0.056,-0.138 0.021,-0.273 -0.103,-0.347 L 6.164,-15.377 C 6.04,-15.452 5.906,-15.418 5.851,-15.28 Z" style="fill:#ffffff;fill-opacity:1;fill-rule:nonzero;stroke:none" id="path2364"/></svg:g><svg:g id="g2366" transform="translate(159.4362,716.5217)"><svg:path d="m 0,0 c -0.528,0.879 -1.469,1.025 -2.452,0.434 l -2.407,-1.447 c -0.084,-0.049 -0.1,-0.116 -0.071,-0.214 l 1.455,-3.795 c 0.031,-0.096 0.096,-0.113 0.18,-0.063 l 2.407,1.447 C 0.333,-2.876 0.868,-1.444 0,0 m 4.836,-11.078 c -0.167,-0.1 -0.269,-0.075 -0.398,0.047 l -4.613,4.404 -2.049,-1.232 c -0.085,-0.052 -0.122,-0.13 -0.071,-0.214 l 2.172,-5.7 c 0.055,-0.139 0.021,-0.272 -0.084,-0.336 l -2.531,-1.521 c -0.125,-0.075 -0.259,-0.042 -0.314,0.097 l -5.851,15.28 c -0.055,0.137 -0.022,0.271 0.104,0.347 l 5.398,3.243 C -0.87,4.859 1.45,4.317 2.707,2.225 4.103,-0.097 3.82,-2.66 2.328,-4.582 l 5.015,-4.647 c 0.138,-0.088 0.13,-0.264 -0.017,-0.352 z" style="fill:#ffffff;fill-opacity:1;fill-rule:nonzero;stroke:none" id="path2368"/></svg:g><svg:g id="g2370" transform="translate(175.4039,723.527)"><svg:path d="M 0,0 C 1.256,0.754 1.683,2.179 0.902,3.476 0.387,4.333 -0.447,4.487 -1.472,3.872 L -3.565,2.613 C -3.648,2.563 -3.664,2.497 -3.635,2.401 l 1.384,-3.584 c 0.03,-0.095 0.096,-0.112 0.18,-0.062 z m 0.471,-7.891 2.258,1.358 c 1.32,0.793 1.708,2.279 0.866,3.681 -0.529,0.879 -1.378,1.108 -2.467,0.454 L -1.11,-3.744 c -0.083,-0.05 -0.101,-0.117 -0.072,-0.213 l 1.494,-3.858 c 0.03,-0.097 0.076,-0.126 0.159,-0.076 M -7.517,3.172 c -0.054,0.138 -0.021,0.271 0.105,0.347 l 5.314,3.194 C 0.496,8.272 2.393,7.818 3.525,5.934 4.556,4.219 4.57,2.49 3.529,0.811 L 3.555,0.769 C 4.476,0.896 5.651,0.406 6.431,-0.892 8.229,-3.883 7.332,-6.986 3.858,-9.074 l -5.21,-3.131 c -0.124,-0.075 -0.257,-0.041 -0.313,0.097 z" style="fill:#ffffff;fill-opacity:1;fill-rule:nonzero;stroke:none" id="path2372"/></svg:g><svg:g id="g2374" transform="translate(190.6198,728.4572)"><svg:path d="M 0,0 -3.768,4.798 -3.829,4.761 -3.244,-1.95 Z M -5.808,-10.383 -6.93,7.74 c -0.013,0.162 0.042,0.309 0.189,0.397 l 2.531,1.522 c 0.147,0.088 0.26,0.042 0.356,-0.071 L 6.642,-2.901 C 6.739,-3.014 6.727,-3.135 6.621,-3.198 L 4.068,-4.732 C 3.922,-4.82 3.801,-4.808 3.692,-4.673 l -1.869,2.35 -4.791,-2.879 0.299,-3.295 c 0.024,-0.184 10e-4,-0.284 -0.145,-0.372 l -2.761,-1.66 c -0.127,-0.075 -0.22,-0.017 -0.233,0.146" style="fill:#ffffff;fill-opacity:1;fill-rule:nonzero;stroke:none" id="path2376"/></svg:g><svg:g id="g2378" transform="translate(193.526,738.2346)"><svg:path d="M 0,0 C -0.228,2.939 0.935,5.034 3.424,6.53 5.683,7.888 7.864,7.576 9.507,5.885 9.604,5.772 9.612,5.664 9.524,5.525 L 7.86,3.273 C 7.772,3.134 7.629,3.133 7.513,3.234 6.729,4.017 5.812,4.405 4.662,3.713 3.531,3.034 3.134,1.942 3.281,0.605 c 0.115,-1.326 1.725,-5.428 2.354,-6.474 0.729,-1.214 1.864,-1.585 3.079,-0.855 1.046,0.628 1.434,1.83 1.425,3.078 0.007,0.175 0.087,0.279 0.25,0.293 l 2.63,0.127 c 0.128,0.021 0.213,-0.07 0.226,-0.233 C 13.217,-6.353 12.125,-8.233 9.846,-9.604 7.23,-11.175 4.525,-10.751 2.814,-7.906 2.048,-6.629 0.177,-2 0,0" style="fill:#ffffff;fill-opacity:1;fill-rule:nonzero;stroke:none" id="path2380"/></svg:g><svg:g id="g2382" transform="translate(203.9791,748.3913)"><svg:path d="M 0,0 C -0.055,0.137 -0.021,0.271 0.104,0.347 L 2.636,1.868 C 2.762,1.944 2.874,1.897 2.929,1.76 l 2.516,-6.604 1.908,9.291 c 0.036,0.221 0.095,0.314 0.262,0.414 l 3.013,1.81 C 10.774,6.76 10.925,6.652 10.874,6.45 l -1.956,-8.637 7.894,-6.449 c 0.128,-0.122 0.127,-0.265 -0.039,-0.365 l -2.574,-1.547 c -0.167,-0.101 -0.276,-0.109 -0.406,0.012 L 8.038,-5.65 7.24,-9.489 8.779,-13.52 c 0.056,-0.139 0.043,-0.26 -0.083,-0.335 L 6.164,-15.377 C 6.04,-15.452 5.906,-15.418 5.852,-15.28 Z" style="fill:#ffffff;fill-opacity:1;fill-rule:nonzero;stroke:none" id="path2384"/></svg:g><svg:g id="g2386" transform="translate(237.4156,749.405)"><svg:path d="M 0,0 C -0.126,-0.076 -0.26,-0.042 -0.356,0.071 L -6.609,8.674 -6.65,8.649 -5.21,-2.846 c 0.013,-0.164 -0.02,-0.298 -0.167,-0.385 l -2.031,-1.221 c -0.104,-0.062 -0.238,-0.029 -0.335,0.084 L -17.15,8.775 c -0.076,0.125 -0.084,0.233 0.042,0.309 l 2.51,1.509 c 0.147,0.088 0.281,0.055 0.356,-0.07 L -8.367,1.551 -8.324,1.576 -9.87,13.15 c -0.013,0.163 0.02,0.297 0.167,0.385 l 1.738,1.044 c 0.147,0.088 0.26,0.043 0.356,-0.07 l 6.315,-8.707 0.041,0.025 -1.963,11.322 c -0.048,0.172 0,0.285 0.125,0.36 l 2.7,1.623 c 0.147,0.088 0.238,0.029 0.272,-0.121 L 2.155,1.581 C 2.188,1.429 2.154,1.295 2.028,1.22 Z" style="fill:#ffffff;fill-opacity:1;fill-rule:nonzero;stroke:none" id="path2388"/></svg:g><svg:g id="g2390" transform="translate(238.8336,769.3395)"><svg:path d="M 0,0 C -0.055,0.138 -0.021,0.271 0.104,0.347 L 2.636,1.869 C 2.762,1.944 2.873,1.898 2.929,1.76 L 5.232,-4.203 C 5.261,-4.3 5.328,-4.317 5.412,-4.267 l 4.477,2.691 c 0.084,0.051 0.1,0.118 0.071,0.215 L 7.678,4.615 C 7.623,4.752 7.656,4.886 7.782,4.962 l 2.532,1.521 c 0.126,0.076 0.26,0.043 0.315,-0.095 l 5.851,-15.28 c 0.053,-0.139 0.02,-0.273 -0.104,-0.348 l -2.531,-1.521 c -0.126,-0.076 -0.26,-0.043 -0.316,0.096 L 11.18,-4.53 c -0.028,0.097 -0.096,0.113 -0.179,0.063 L 6.502,-7.171 C 6.418,-7.222 6.402,-7.288 6.431,-7.385 l 2.348,-6.135 c 0.056,-0.138 0.043,-0.26 -0.083,-0.335 L 6.164,-15.377 C 6.04,-15.452 5.906,-15.418 5.852,-15.28 Z" style="fill:#ffffff;fill-opacity:1;fill-rule:nonzero;stroke:none" id="path2392"/></svg:g><svg:g id="g2394" transform="translate(252.1051,777.3161)"><svg:path d="m 0,0 c -0.056,0.137 -0.021,0.271 0.104,0.347 l 8.745,5.256 c 0.126,0.075 0.239,0.03 0.294,-0.108 l 0.906,-2.36 c 0.054,-0.139 0,-0.285 -0.104,-0.347 L 4.044,-0.759 C 3.96,-0.81 3.944,-0.876 3.973,-0.974 l 1.275,-3.305 c 0.029,-0.096 0.097,-0.112 0.181,-0.062 l 4.894,2.942 c 0.126,0.075 0.24,0.029 0.295,-0.109 l 0.881,-2.318 c 0.054,-0.139 -0.001,-0.285 -0.127,-0.361 L 6.477,-7.13 C 6.393,-7.18 6.377,-7.246 6.405,-7.343 l 1.33,-3.444 c 0.03,-0.096 0.096,-0.113 0.181,-0.062 l 5.899,3.546 c 0.127,0.075 0.239,0.028 0.293,-0.11 l 0.886,-2.372 c 0.054,-0.139 0.021,-0.273 -0.103,-0.347 L 6.164,-15.377 C 6.04,-15.452 5.906,-15.418 5.851,-15.28 Z" style="fill:#ffffff;fill-opacity:1;fill-rule:nonzero;stroke:none" id="path2396"/></svg:g><svg:g id="g2398" transform="translate(263.4508,784.1354)"><svg:path d="M 0,0 C -0.055,0.138 -0.021,0.271 0.104,0.347 L 8.85,5.603 C 8.976,5.679 9.089,5.633 9.144,5.496 L 10.05,3.135 C 10.103,2.996 10.049,2.85 9.945,2.788 L 4.044,-0.759 C 3.96,-0.81 3.944,-0.876 3.974,-0.974 l 1.274,-3.305 c 0.03,-0.096 0.098,-0.112 0.181,-0.062 l 4.894,2.942 c 0.126,0.075 0.24,0.029 0.295,-0.109 l 0.881,-2.318 c 0.054,-0.139 0,-0.285 -0.126,-0.361 L 6.477,-7.13 C 6.394,-7.18 6.377,-7.246 6.405,-7.343 l 1.33,-3.444 c 0.031,-0.096 0.096,-0.113 0.182,-0.062 l 5.899,3.546 c 0.126,0.075 0.239,0.028 0.293,-0.11 l 0.886,-2.372 c 0.053,-0.139 0.02,-0.273 -0.104,-0.347 L 6.165,-15.377 C 6.04,-15.452 5.906,-15.418 5.852,-15.28 Z" style="fill:#ffffff;fill-opacity:1;fill-rule:nonzero;stroke:none" id="path2400"/></svg:g><svg:g id="g2402" transform="translate(274.7965,790.9548)"><svg:path d="M 0,0 C -0.055,0.138 -0.021,0.271 0.105,0.347 L 2.637,1.869 C 2.763,1.944 2.874,1.897 2.929,1.76 l 4.79,-12.472 c 0.03,-0.097 0.097,-0.113 0.181,-0.062 l 5.796,3.483 c 0.124,0.075 0.238,0.029 0.292,-0.108 l 0.924,-2.436 c 0.053,-0.139 0.02,-0.273 -0.084,-0.335 l -8.663,-5.207 c -0.124,-0.075 -0.258,-0.041 -0.313,0.097 z" style="fill:#ffffff;fill-opacity:1;fill-rule:nonzero;stroke:none" id="path2404"/></svg:g><svg:g id="g2406" transform="translate(315.1871,773.6804)"><svg:path d="M 0,0 C -0.127,0.075 -0.16,0.208 -0.105,0.347 L 4.506,9.93 4.465,9.955 -4.975,3.239 C -5.113,3.15 -5.247,3.116 -5.394,3.203 l -2.037,1.21 C -7.535,4.475 -7.569,4.608 -7.515,4.747 L -0.4,19.26 c 0.074,0.125 0.165,0.185 0.292,0.11 L 2.41,17.874 C 2.558,17.787 2.591,17.653 2.517,17.527 L -2.6,8.102 -2.557,8.077 6.902,14.923 c 0.138,0.088 0.271,0.122 0.418,0.035 L 9.063,13.923 C 9.211,13.835 9.224,13.714 9.17,13.576 L 4.496,3.888 4.537,3.864 l 9.04,7.095 c 0.129,0.123 0.251,0.134 0.376,0.06 L 16.662,9.41 C 16.809,9.323 16.8,9.215 16.685,9.114 L 2.413,-1.149 C 2.295,-1.25 2.162,-1.284 2.035,-1.209 Z" style="fill:#ffffff;fill-opacity:1;fill-rule:nonzero;stroke:none" id="path2408"/></svg:g><svg:g id="g2410" transform="translate(333.4127,781.8786)"><svg:path d="m 0,0 c 0.096,0.113 0.229,0.147 0.355,0.072 l 2.54,-1.508 C 3.021,-1.511 3.033,-1.631 2.938,-1.745 L -7.744,-14.139 c -0.096,-0.114 -0.209,-0.16 -0.335,-0.085 l -2.54,1.508 c -0.124,0.074 -0.158,0.208 -0.063,0.322 z" style="fill:#ffffff;fill-opacity:1;fill-rule:nonzero;stroke:none" id="path2412"/></svg:g><svg:g id="g2414" transform="translate(338.9996,778.5607)"><svg:path d="m 0,0 c 0.096,0.114 0.229,0.147 0.355,0.072 l 2.54,-1.508 c 0.126,-0.075 0.138,-0.195 0.043,-0.309 l -8.712,-10.128 c -0.072,-0.072 -0.053,-0.14 0.03,-0.19 l 5.814,-3.452 c 0.125,-0.074 0.138,-0.195 0.043,-0.309 l -1.707,-1.967 c -0.097,-0.113 -0.23,-0.147 -0.335,-0.085 l -8.69,5.16 c -0.125,0.074 -0.158,0.208 -0.063,0.322 z" style="fill:#ffffff;fill-opacity:1;fill-rule:nonzero;stroke:none" id="path2416"/></svg:g><svg:g id="g2418" transform="translate(349.8981,772.0886)"><svg:path d="m 0,0 c 0.095,0.114 0.229,0.147 0.355,0.072 l 2.54,-1.508 c 0.126,-0.075 0.138,-0.195 0.043,-0.309 l -8.712,-10.128 c -0.072,-0.072 -0.054,-0.14 0.03,-0.189 l 5.814,-3.453 c 0.124,-0.074 0.138,-0.195 0.043,-0.309 l -1.707,-1.967 c -0.097,-0.113 -0.23,-0.147 -0.335,-0.085 l -8.69,5.16 c -0.125,0.074 -0.159,0.208 -0.064,0.322 z" style="fill:#ffffff;fill-opacity:1;fill-rule:nonzero;stroke:none" id="path2420"/></svg:g><svg:g id="g2422" transform="translate(366.3746,754.6384)"><svg:path d="M 0,0 C 1.259,-0.748 2.715,-0.449 3.488,0.853 3.999,1.713 3.739,2.521 2.712,3.131 L 0.611,4.378 C 0.527,4.428 0.462,4.41 0.392,4.339 l -2.5,-2.917 C -2.179,1.35 -2.162,1.284 -2.078,1.234 Z M -6.726,-4.154 -4.459,-5.5 c 1.322,-0.785 2.815,-0.423 3.65,0.983 0.525,0.882 0.324,1.739 -0.768,2.387 l -2.246,1.334 c -0.084,0.049 -0.152,0.033 -0.222,-0.038 L -6.734,-3.979 C -6.805,-4.05 -6.81,-4.104 -6.726,-4.154 m 5.957,12.276 c 0.095,0.114 0.229,0.148 0.355,0.072 L 4.916,5.029 C 7.52,3.483 8.018,1.598 6.896,-0.292 5.874,-2.012 4.358,-2.844 2.386,-2.723 L 2.361,-2.765 C 2.909,-3.516 3.035,-4.784 2.263,-6.085 0.48,-9.086 -2.678,-9.767 -6.162,-7.697 l -5.226,3.103 c -0.125,0.074 -0.159,0.208 -0.063,0.323 z" style="fill:#ffffff;fill-opacity:1;fill-rule:nonzero;stroke:none" id="path2424"/></svg:g><svg:g id="g2426" transform="translate(377.8903,755.4655)"><svg:path d="m 0,0 c 0.095,0.113 0.229,0.147 0.354,0.072 l 8.773,-5.209 c 0.127,-0.075 0.14,-0.197 0.045,-0.31 L 7.523,-7.363 C 7.426,-7.477 7.271,-7.499 7.168,-7.437 L 1.247,-3.921 C 1.164,-3.871 1.098,-3.889 1.025,-3.96 l -2.306,-2.689 c -0.071,-0.072 -0.053,-0.14 0.031,-0.189 l 4.91,-2.916 c 0.126,-0.075 0.14,-0.197 0.044,-0.31 L 2.08,-11.939 c -0.097,-0.113 -0.251,-0.135 -0.378,-0.06 l -4.911,2.917 c -0.084,0.05 -0.149,0.032 -0.222,-0.039 l -2.402,-2.803 c -0.07,-0.072 -0.055,-0.138 0.031,-0.189 l 5.918,-3.514 c 0.127,-0.076 0.138,-0.197 0.043,-0.31 l -1.67,-1.904 c -0.096,-0.114 -0.23,-0.147 -0.355,-0.074 l -8.753,5.199 c -0.125,0.074 -0.159,0.208 -0.064,0.322 z" style="fill:#ffffff;fill-opacity:1;fill-rule:nonzero;stroke:none" id="path2428"/></svg:g><svg:g id="g2430" transform="translate(386.0856,731.5764)"><svg:path d="M 0,0 C -0.104,0.062 -0.139,0.195 -0.043,0.31 L 8.67,10.438 c 0.07,0.072 0.054,0.138 -0.031,0.188 l -3.484,2.069 c -0.126,0.075 -0.16,0.208 -0.064,0.323 l 1.708,1.966 c 0.096,0.114 0.228,0.147 0.355,0.073 L 17.333,9.012 C 17.46,8.937 17.493,8.803 17.398,8.689 L 15.689,6.723 C 15.594,6.609 15.461,6.575 15.334,6.65 L 11.829,8.732 C 11.745,8.781 11.68,8.764 11.607,8.693 L 2.895,-1.435 C 2.799,-1.549 2.666,-1.583 2.539,-1.508 Z" style="fill:#ffffff;fill-opacity:1;fill-rule:nonzero;stroke:none" id="path2432"/></svg:g><svg:g id="g2434" transform="translate(405.1696,739.2653)"><svg:path d="M 0,0 C 0.095,0.113 0.229,0.147 0.354,0.072 L 2.895,-1.436 C 3.021,-1.511 3.032,-1.631 2.938,-1.745 L -1.222,-6.6 c -0.072,-0.07 -0.054,-0.138 0.03,-0.188 l 4.491,-2.667 c 0.084,-0.05 0.151,-0.032 0.222,0.039 l 4.181,4.842 c 0.095,0.113 0.229,0.147 0.355,0.072 l 2.54,-1.508 c 0.127,-0.075 0.16,-0.209 0.065,-0.322 L -0.021,-18.726 c -0.096,-0.113 -0.23,-0.148 -0.355,-0.073 l -2.539,1.508 c -0.127,0.075 -0.161,0.208 -0.065,0.323 l 4.289,4.976 c 0.072,0.071 0.054,0.138 -0.03,0.188 l -4.513,2.68 c -0.084,0.05 -0.15,0.032 -0.222,-0.038 l -4.289,-4.977 c -0.096,-0.114 -0.208,-0.16 -0.335,-0.085 l -2.539,1.508 c -0.125,0.074 -0.159,0.208 -0.064,0.322 z" style="fill:#ffffff;fill-opacity:1;fill-rule:nonzero;stroke:none" id="path2436"/></svg:g><svg:g id="g2438" transform="translate(418.4821,731.3591)"><svg:path d="m 0,0 c 0.096,0.113 0.229,0.147 0.355,0.072 l 2.54,-1.508 C 3.021,-1.511 3.033,-1.631 2.938,-1.745 L -7.744,-14.139 c -0.096,-0.114 -0.209,-0.16 -0.335,-0.085 l -2.54,1.508 c -0.124,0.074 -0.158,0.208 -0.063,0.322 z" style="fill:#ffffff;fill-opacity:1;fill-rule:nonzero;stroke:none" id="path2440"/></svg:g><svg:g id="g2442" transform="translate(413.8512,717.3874)"><svg:path d="m 0,0 c -0.001,0.142 0.054,0.28 0.222,0.322 l 2.827,0.65 C 3.215,1.015 3.342,0.94 3.354,0.818 3.632,-0.339 4.429,-1.722 5.878,-2.583 7.452,-3.517 9.074,-3.175 9.772,-2 c 0.413,0.693 0.253,1.383 -1.029,2.429 L 8.113,0.945 C 5.933,2.722 5.309,4.683 6.517,6.719 8.312,9.741 11.823,10.297 15.075,8.366 16.882,7.293 18.178,5.699 18.628,4.211 18.683,4.065 18.633,3.982 18.441,3.897 L 15.929,3.061 C 15.762,3.018 15.644,3.059 15.598,3.172 15.094,4.379 14.424,5.261 13.312,5.921 11.968,6.719 10.514,6.418 9.865,5.327 9.454,4.634 9.62,3.91 10.881,2.879 l 0.63,-0.516 c 2.179,-1.779 2.85,-3.709 1.703,-5.64 C 11.232,-6.614 7.501,-7.067 3.933,-4.948 1.813,-3.689 0.259,-1.574 0,0" style="fill:#ffffff;fill-opacity:1;fill-rule:nonzero;stroke:none" id="path2444"/></svg:g><svg:g id="g2446" transform="translate(430.7145,707.3732)"><svg:path d="m 0,0 c -0.002,0.142 0.053,0.28 0.222,0.322 l 2.826,0.65 C 3.215,1.015 3.341,0.94 3.354,0.817 3.631,-0.34 4.429,-1.722 5.878,-2.583 7.451,-3.517 9.074,-3.175 9.772,-2 c 0.412,0.693 0.252,1.383 -1.029,2.429 L 8.113,0.945 C 5.933,2.722 5.308,4.683 6.517,6.719 8.312,9.741 11.822,10.297 15.074,8.366 16.881,7.293 18.177,5.699 18.627,4.211 18.682,4.065 18.632,3.982 18.44,3.896 L 15.929,3.061 C 15.762,3.018 15.643,3.059 15.597,3.172 15.093,4.379 14.424,5.26 13.311,5.921 11.968,6.719 10.513,6.418 9.864,5.327 9.454,4.634 9.62,3.91 10.88,2.879 l 0.63,-0.516 c 2.18,-1.779 2.85,-3.709 1.704,-5.64 C 11.232,-6.614 7.5,-7.067 3.932,-4.948 1.812,-3.689 0.258,-1.574 0,0" style="fill:#ffffff;fill-opacity:1;fill-rule:nonzero;stroke:none" id="path2448"/></svg:g><svg:g id="g2450" transform="translate(452.985,710.8688)"><svg:path d="M 0,0 C 0.096,0.113 0.229,0.147 0.355,0.072 L 2.896,-1.436 C 3.021,-1.511 3.033,-1.631 2.938,-1.745 L -7.744,-14.139 c -0.096,-0.114 -0.208,-0.16 -0.335,-0.085 l -2.54,1.508 c -0.124,0.074 -0.158,0.208 -0.063,0.322 z" style="fill:#ffffff;fill-opacity:1;fill-rule:nonzero;stroke:none" id="path2452"/></svg:g><svg:g id="g2454" transform="translate(452.8268,695.4894)"><svg:path d="M 0,0 1.594,-0.947 C 2.98,-1.77 4.102,-1.839 5.367,-1 c 1.056,0.679 3.555,3.595 4.215,4.707 0.885,1.49 0.479,2.526 -1.074,3.449 L 6.934,8.091 C 6.85,8.141 6.805,8.111 6.732,8.04 L -0.031,0.189 C -0.102,0.117 -0.084,0.05 0,0 m 5.744,12.063 c 0.095,0.113 0.229,0.147 0.355,0.072 L 11.198,9.106 C 13.969,7.461 14.465,5.236 12.906,2.613 11.872,0.871 8.971,-2.629 7.142,-3.844 4.743,-5.4 2.618,-5.104 0.226,-3.683 l -5.101,3.03 C -5,-0.579 -5.034,-0.446 -4.938,-0.331 Z" style="fill:#ffffff;fill-opacity:1;fill-rule:nonzero;stroke:none" id="path2456"/></svg:g><svg:g id="g2458" transform="translate(471.275,700.007)"><svg:path d="m 0,0 c 0.096,0.114 0.229,0.147 0.355,0.072 l 8.773,-5.209 c 0.126,-0.075 0.14,-0.196 0.045,-0.31 L 7.523,-7.363 C 7.426,-7.477 7.272,-7.498 7.168,-7.437 l -5.92,3.516 C 1.164,-3.871 1.099,-3.889 1.026,-3.96 l -2.307,-2.689 c -0.071,-0.072 -0.054,-0.138 0.031,-0.189 l 4.91,-2.916 c 0.127,-0.075 0.14,-0.197 0.045,-0.31 l -1.624,-1.875 c -0.098,-0.113 -0.252,-0.135 -0.378,-0.06 l -4.912,2.917 c -0.083,0.05 -0.149,0.032 -0.222,-0.038 l -2.402,-2.804 c -0.07,-0.072 -0.054,-0.138 0.031,-0.188 l 5.919,-3.515 c 0.126,-0.075 0.138,-0.196 0.042,-0.31 l -1.669,-1.904 c -0.095,-0.114 -0.23,-0.147 -0.355,-0.073 l -8.754,5.198 c -0.125,0.074 -0.158,0.208 -0.063,0.322 z" style="fill:#ffffff;fill-opacity:1;fill-rule:nonzero;stroke:none" id="path2460"/></svg:g><svg:path d="M 84.608,609.254 H 509.831 V 184.031 H 84.608 Z" style="fill:#010101;fill-opacity:1;fill-rule:nonzero;stroke:none" id="path2462"/><svg:path d="m 155.478,325.772 h 70.871 v -70.87 h -70.871 z" style="fill:#010101;fill-opacity:1;fill-rule:nonzero;stroke:none" id="path2464"/><svg:path d="m 155.478,396.642 h 70.871 v -70.87 h -70.871 z" style="fill:#010101;fill-opacity:1;fill-rule:nonzero;stroke:none" id="path2466"/><svg:path d="m 155.478,467.512 h 70.871 v -70.871 h -70.871 z" style="fill:#ffffff;fill-opacity:1;fill-rule:nonzero;stroke:none" id="path2468"/><svg:path d="m 155.478,538.383 h 70.871 v -70.871 h -70.871 z" style="fill:#ffffff;fill-opacity:1;fill-rule:nonzero;stroke:none" id="path2470"/><svg:path d="m 226.349,325.772 h 70.87 v -70.87 h -70.87 z" style="fill:#010101;fill-opacity:1;fill-rule:nonzero;stroke:none" id="path2472"/><svg:path d="m 226.349,396.642 h 70.87 v -70.87 h -70.87 z" style="fill:#010101;fill-opacity:1;fill-rule:nonzero;stroke:none" id="path2474"/><svg:path d="m 226.349,467.512 h 70.87 v -70.871 h -70.87 z" style="fill:#ffffff;fill-opacity:1;fill-rule:nonzero;stroke:none" id="path2476"/><svg:path d="m 226.349,538.383 h 70.87 v -70.871 h -70.87 z" style="fill:#ffffff;fill-opacity:1;fill-rule:nonzero;stroke:none" id="path2478"/><svg:path d="m 297.219,325.772 h 70.87 v -70.87 h -70.87 z" style="fill:#010101;fill-opacity:1;fill-rule:nonzero;stroke:none" id="path2480"/><svg:path d="m 297.219,396.642 h 70.87 v -70.87 h -70.87 z" style="fill:#010101;fill-opacity:1;fill-rule:nonzero;stroke:none" id="path2482"/><svg:path d="m 297.219,467.512 h 70.87 v -70.871 h -70.87 z" style="fill:#ffffff;fill-opacity:1;fill-rule:nonzero;stroke:none" id="path2484"/><svg:path d="m 297.219,538.383 h 70.87 v -70.871 h -70.87 z" style="fill:#010101;fill-opacity:1;fill-rule:nonzero;stroke:none" id="path2486"/><svg:path d="m 368.089,325.772 h 70.871 v -70.87 h -70.871 z" style="fill:#ffffff;fill-opacity:1;fill-rule:nonzero;stroke:none" id="path2488"/><svg:path d="m 368.089,396.642 h 70.871 v -70.87 h -70.871 z" style="fill:#ffffff;fill-opacity:1;fill-rule:nonzero;stroke:none" id="path2490"/><svg:path d="M 368.089,467.512 H 438.96 V 396.641 H 368.089 Z" style="fill:#010101;fill-opacity:1;fill-rule:nonzero;stroke:none" id="path2492"/><svg:path d="M 368.089,538.383 H 438.96 V 467.512 H 368.089 Z" style="fill:#ffffff;fill-opacity:1;fill-rule:nonzero;stroke:none" id="path2494"/></svg:g></svg:g></svg:g></svg:g></svg:g><svg:g><svg:g transform="translate(113.43434343434345, 310.9141414141414) scale(1 1) translate(0, 0) scale(1.3333333333333333 1.3333333333333333)  rotate(0.000000 212.500000 212.500000)"><svg:g id="surface301">
<svg:path style=" stroke:none;fill-rule:nonzero;fill:rgb(50%,50%,50%);fill-opacity:1;" d="M 0 0 L 425.195312 0 L 425.195312 425.195312 L 0 425.195312 Z M 0 0 "/>
<svg:path style=" stroke:none;fill-rule:nonzero;fill:rgb(100%,100%,100%);fill-opacity:1;" d="M 0 0 L 425.195312 0 L 425.195312 425.195312 L 0 425.195312 Z M 0 0 "/>
<svg:path style=" stroke:none;fill-rule:nonzero;fill:rgb(0%,0%,0%);fill-opacity:1;" d="M 0 0 L 425.195312 0 L 425.195312 425.195312 L 0 425.195312 Z M 0 0 "/>
<svg:path style=" stroke:none;fill-rule:nonzero;fill:rgb(100%,100%,100%);fill-opacity:1;" d="M 70.867188 70.867188 L 354.332031 70.867188 L 354.332031 354.332031 L 283.464844 354.332031 L 283.464844 141.730469 L 141.730469 141.730469 L 141.730469 283.464844 L 70.867188 283.464844 Z M 70.867188 70.867188 "/>
</svg:g>
</svg:g></svg:g><svg:g><svg:text x="397.020202020202" y="933.942760942761" font-size="24" font-family="Verdana" font-weight="bold" letter-spacing="0" text-anchor="middle" fill="black">#10</svg:text></svg:g></svg>
