<?xml version='1.0' encoding='ASCII' standalone='yes'?>
<svg xmlns:dc="http://purl.org/dc/elements/1.1/" xmlns:cc="http://creativecommons.org/ns#" xmlns:rdf="http://www.w3.org/1999/02/22-rdf-syntax-ns#" xmlns:svg="http://www.w3.org/2000/svg" xmlns="http://www.w3.org/2000/svg" xmlns:sodipodi="http://sodipodi.sourceforge.net/DTD/sodipodi-0.dtd" xmlns:inkscape="http://www.inkscape.org/namespaces/inkscape" id="Calque_1" data-name="Calque 1" viewBox="0 0 1122.5196 1587.4016" version="1.1" sodipodi:docname="base_45.svg" inkscape:version="0.92.3 (2405546, 2018-03-11)" width="29.700001cm" height="42cm">
  <metadata id="metadata93">
    <rdf:RDF>
      <cc:Work rdf:about="">
        <dc:format>image/svg+xml</dc:format>
        <dc:type rdf:resource="http://purl.org/dc/dcmitype/StillImage"/>
        <dc:title/>
      </cc:Work>
    </rdf:RDF>
  </metadata>
  <sodipodi:namedview pagecolor="#ffffff" bordercolor="#666666" borderopacity="1" objecttolerance="10" gridtolerance="10" guidetolerance="10" inkscape:pageopacity="0" inkscape:pageshadow="2" inkscape:window-width="691" inkscape:window-height="480" id="namedview91" showgrid="false" inkscape:zoom="0.28032165" inkscape:cx="342.23165" inkscape:cy="420.94501" inkscape:window-x="67" inkscape:window-y="27" inkscape:window-maximized="0" inkscape:current-layer="Calque_1" units="cm"/>
  <defs id="defs4">
    <style id="style2">.cls-1{fill:#08a2ac;}.cls-2{font-size:64.01px;font-family:DINNextLTPro-BoldItalic, DIN Next LT Pro;font-weight:700;font-style:italic;}.cls-2,.cls-5{fill:#010101;}.cls-3{letter-spacing:-0.05em;}.cls-4{letter-spacing:-0.07em;}.cls-6{fill:#fff;}</style>
  </defs>
<svg:g><svg:g><svg:metadata id="metadata1488"><rdf:RDF><cc:Work rdf:about=""><dc:format>image/svg+xml</dc:format><dc:type rdf:resource="http://purl.org/dc/dcmitype/StillImage"/><dc:title/></cc:Work></rdf:RDF></svg:metadata><svg:defs id="defs1486"><svg:clipPath clipPathUnits="userSpaceOnUse" id="clipPath1498"><svg:path d="M 0,1190.551 H 841.89 V 0 H 0 Z" id="path1496"/></svg:clipPath></svg:defs><sodipodi:namedview pagecolor="#ffffff" bordercolor="#666666" borderopacity="1" objecttolerance="10" gridtolerance="10" guidetolerance="10" inkscape:pageopacity="0" inkscape:pageshadow="2" inkscape:window-width="879" inkscape:window-height="1005" id="namedview1484" showgrid="false" inkscape:zoom="0.63500062" inkscape:cx="561.26001" inkscape:cy="793.70001" inkscape:window-x="0" inkscape:window-y="0" inkscape:window-maximized="0" inkscape:current-layer="g1490"/><svg:g id="g1490" inkscape:groupmode="layer" inkscape:label="2021_DX_pepperARUCO_MAT_A3v2" transform="matrix(1.3333333,0,0,-1.3333333,0,1587.4)"><svg:g id="g1492"><svg:g id="g1494" clip-path="url(#clipPath1498)"><svg:g id="g1500" transform="translate(43.8458,482.8409)"><svg:path d="M 0,0 V 215.928 L 377.12,593.026 754.198,215.928 V 0" style="fill:none;stroke:#00a2ac;stroke-width:40;stroke-linecap:butt;stroke-linejoin:round;stroke-miterlimit:10;stroke-dasharray:none;stroke-opacity:1" id="path1502"/></svg:g><svg:g id="g1504" transform="translate(534.6915,375.2755)"><svg:path d="M 0,0 C 0.084,0.504 0.42,0.84 0.924,0.84 H 10.5 c 0.672,0 1.092,-0.252 1.26,-0.84 l 13.02,-36.708 h 0.336 L 31.668,0 c 0.084,0.504 0.42,0.84 0.924,0.84 h 9.072 c 0.504,0 0.84,-0.336 0.756,-0.84 l -9.828,-55.44 c -0.084,-0.504 -0.42,-0.84 -0.924,-0.84 h -9.66 c -0.504,0 -0.924,0.252 -1.176,0.84 L 7.729,-18.732 H 7.309 L 0.84,-55.44 C 0.756,-55.944 0.42,-56.28 0,-56.28 h -9.071 c -0.505,0 -0.841,0.336 -0.757,0.84 z" style="fill:#000000;fill-opacity:1;fill-rule:nonzero;stroke:none" id="path1506"/></svg:g><svg:g id="g1508" transform="translate(609.3673,335.2916)"><svg:path d="m 0,0 c 1.933,3.948 4.452,19.068 4.452,23.184 0,4.956 -2.771,8.064 -7.727,8.064 -4.621,0 -7.897,-2.604 -9.829,-6.72 C -15.12,20.58 -17.64,5.46 -17.64,1.344 c 0,-4.956 2.857,-8.064 7.728,-8.064 4.62,0 7.896,2.604 9.912,6.72 m -29.567,0.252 c 0,5.124 2.771,22.344 5.712,28.392 4.536,9.156 12.095,13.104 22.175,13.104 10.752,0 18.06,-5.964 18.06,-17.472 0,-5.124 -2.772,-22.344 -5.712,-28.392 -4.536,-9.156 -12.012,-13.104 -22.176,-13.104 -10.752,0 -18.059,5.964 -18.059,17.472" style="fill:#000000;fill-opacity:1;fill-rule:nonzero;stroke:none" id="path1510"/></svg:g><svg:g id="g1512" transform="translate(642.463,329.4957)"><svg:path d="m 0,0 h 6.384 c 5.544,0 8.988,1.764 11.256,6.468 1.932,3.864 4.2,16.884 4.2,21.336 0,5.964 -3.024,8.316 -9.24,8.316 H 6.3 c -0.336,0 -0.42,-0.168 -0.504,-0.504 L -0.42,0.504 C -0.504,0.168 -0.336,0 0,0 m -4.2,45.78 c 0.084,0.504 0.42,0.84 0.924,0.84 H 17.136 C 28.224,46.62 33.6,40.908 33.6,30.408 33.6,23.436 31.164,7.98 27.888,1.176 23.52,-7.644 16.716,-10.5 7.14,-10.5 h -20.411 c -0.505,0 -0.841,0.336 -0.757,0.84 z" style="fill:#000000;fill-opacity:1;fill-rule:nonzero;stroke:none" id="path1514"/></svg:g><svg:g id="g1516" transform="translate(689.0822,375.2755)"><svg:path d="m 0,0 c 0.084,0.504 0.42,0.84 0.924,0.84 h 35.112 c 0.504,0 0.756,-0.336 0.672,-0.84 l -1.512,-8.568 c -0.084,-0.504 -0.504,-0.84 -0.924,-0.84 H 10.584 c -0.336,0 -0.504,-0.168 -0.588,-0.504 l -2.1,-12.012 c -0.084,-0.336 0.084,-0.504 0.42,-0.504 h 19.656 c 0.505,0 0.757,-0.336 0.673,-0.84 l -1.513,-8.4 c -0.084,-0.504 -0.504,-0.84 -1.008,-0.84 H 6.468 c -0.336,0 -0.504,-0.168 -0.588,-0.504 L 3.696,-45.528 c -0.084,-0.336 0.084,-0.504 0.42,-0.504 h 23.688 c 0.505,0 0.757,-0.336 0.673,-0.84 L 26.88,-55.44 c -0.084,-0.504 -0.42,-0.84 -0.924,-0.84 H -9.071 c -0.505,0 -0.841,0.336 -0.757,0.84 z" style="fill:#000000;fill-opacity:1;fill-rule:nonzero;stroke:none" id="path1518"/></svg:g><svg:g id="g1520" transform="translate(122.1271,462.0719)"><svg:path d="M 0,0 C 0,0.144 0.096,0.24 0.24,0.24 H 3.984 C 4.128,0.24 4.225,0.144 4.225,0 v -5.785 c 0,-0.096 0.047,-0.144 0.143,-0.144 h 4.441 c 0.095,0 0.143,0.048 0.143,0.144 V 0 c 0,0.144 0.097,0.24 0.24,0.24 h 3.745 c 0.144,0 0.24,-0.096 0.24,-0.24 v -15.841 c 0,-0.144 -0.096,-0.241 -0.24,-0.241 H 9.192 c -0.143,0 -0.24,0.097 -0.24,0.241 v 6.024 c 0,0.096 -0.048,0.144 -0.143,0.144 H 4.368 c -0.096,0 -0.143,-0.048 -0.143,-0.144 v -6.024 c 0,-0.144 -0.097,-0.241 -0.241,-0.241 H 0.24 c -0.144,0 -0.24,0.097 -0.24,0.241 z" style="fill:#00a2ac;fill-opacity:1;fill-rule:nonzero;stroke:none" id="path1522"/></svg:g><svg:g id="g1524" transform="translate(146.2482,450.9107)"><svg:path d="m 0,0 c 0.191,0.552 0.24,1.296 0.24,3.24 0,1.945 -0.049,2.689 -0.24,3.24 -0.288,0.913 -1.032,1.441 -2.088,1.441 -1.057,0 -1.801,-0.528 -2.089,-1.441 -0.191,-0.551 -0.24,-1.295 -0.24,-3.24 0,-1.944 0.049,-2.688 0.24,-3.24 0.288,-0.912 1.032,-1.44 2.089,-1.44 1.056,0 1.8,0.528 2.088,1.44 m -8.209,-1.2 c -0.384,1.248 -0.479,2.208 -0.479,4.44 0,2.233 0.095,3.193 0.479,4.441 0.864,2.664 3.24,4.008 6.121,4.008 2.88,0 5.256,-1.344 6.12,-4.008 C 4.44,6.433 4.513,5.473 4.513,3.24 4.513,1.008 4.44,0.048 4.032,-1.2 c -0.864,-2.664 -3.24,-4.008 -6.12,-4.008 -2.881,0 -5.257,1.344 -6.121,4.008" style="fill:#00a2ac;fill-opacity:1;fill-rule:nonzero;stroke:none" id="path1526"/></svg:g><svg:g id="g1528" transform="translate(165.1847,445.9903)"><svg:path d="M 0,0 C -0.168,0 -0.264,0.072 -0.312,0.24 L -2.88,9.361 H -2.928 L -5.521,0.24 C -5.568,0.072 -5.664,0 -5.832,0 h -3 C -9,0 -9.097,0.072 -9.145,0.24 l -4.44,15.842 c -0.023,0.144 0.024,0.239 0.192,0.239 h 3.937 c 0.191,0 0.288,-0.095 0.311,-0.239 l 2.113,-9.505 h 0.048 l 2.544,9.505 c 0.048,0.168 0.144,0.239 0.312,0.239 h 2.473 c 0.168,0 0.263,-0.071 0.311,-0.239 L 1.272,6.577 H 1.32 l 2.04,9.505 c 0.025,0.144 0.12,0.239 0.288,0.239 h 3.937 c 0.144,0 0.216,-0.095 0.168,-0.239 L 3.337,0.24 C 3.289,0.072 3.192,0 3.001,0 Z" style="fill:#00a2ac;fill-opacity:1;fill-rule:nonzero;stroke:none" id="path1530"/></svg:g><svg:g id="g1532" transform="translate(182.9689,445.9903)"><svg:path d="M 0,0 H -0.072 C -0.12,0 -0.145,0.024 -0.192,0.072 -0.217,0.096 -0.24,0.12 -0.24,0.168 V 0.24 12.433 c 0,0.072 -0.048,0.12 -0.12,0.144 h -0.025 -4.008 -0.072 c -0.048,0 -0.072,0.024 -0.096,0.048 l -0.024,0.024 c 0,0 0,0.024 -0.023,0.024 -0.025,0.048 -0.025,0.096 -0.025,0.144 v 3.265 c 0,0.119 0.072,0.215 0.168,0.239 h 0.072 12.53 c 0.071,0 0.119,-0.024 0.168,-0.071 0,0 0.023,-0.024 0.023,-0.049 0.025,-0.024 0.048,-0.072 0.048,-0.119 V 12.817 C 8.376,12.745 8.353,12.673 8.305,12.625 8.28,12.601 8.232,12.577 8.185,12.577 H 8.137 4.128 c -0.048,0 -0.072,0 -0.096,-0.024 -0.024,0 -0.024,-0.024 -0.049,-0.048 V 12.433 0.24 0.168 C 3.96,0.096 3.936,0.072 3.864,0.024 3.84,0 3.792,0 3.744,0 Z" style="fill:#00a2ac;fill-opacity:1;fill-rule:nonzero;stroke:none" id="path1534"/></svg:g><svg:g id="g1536" transform="translate(200.9689,450.9107)"><svg:path d="m 0,0 c 0.191,0.552 0.24,1.296 0.24,3.24 0,1.945 -0.049,2.689 -0.24,3.24 -0.288,0.913 -1.032,1.441 -2.088,1.441 -1.057,0 -1.801,-0.528 -2.089,-1.441 -0.191,-0.551 -0.24,-1.295 -0.24,-3.24 0,-1.944 0.049,-2.688 0.24,-3.24 0.288,-0.912 1.032,-1.44 2.089,-1.44 1.056,0 1.8,0.528 2.088,1.44 m -8.209,-1.2 c -0.384,1.248 -0.479,2.208 -0.479,4.44 0,2.233 0.095,3.193 0.479,4.441 0.864,2.664 3.24,4.008 6.121,4.008 2.88,0 5.256,-1.344 6.12,-4.008 C 4.44,6.433 4.513,5.473 4.513,3.24 4.513,1.008 4.44,0.048 4.032,-1.2 c -0.864,-2.664 -3.24,-4.008 -6.12,-4.008 -2.881,0 -5.257,1.344 -6.121,4.008" style="fill:#00a2ac;fill-opacity:1;fill-rule:nonzero;stroke:none" id="path1538"/></svg:g><svg:g id="g1540" transform="translate(207.8556,449.5426)"><svg:path d="m 0,0 c 0,0.144 0.096,0.24 0.239,0.24 h 3.313 c 0.144,0 0.24,-0.096 0.24,-0.24 v -3.312 c 0,-0.144 -0.096,-0.24 -0.24,-0.24 H 0.239 C 0.096,-3.552 0,-3.456 0,-3.312 Z m 0,4.584 v 3.313 c 0,0.144 0.096,0.24 0.239,0.24 h 3.313 c 0.144,0 0.24,-0.096 0.24,-0.24 V 4.584 c 0,-0.144 -0.096,-0.24 -0.24,-0.24 H 0.239 C 0.096,4.344 0,4.44 0,4.584" style="fill:#00a2ac;fill-opacity:1;fill-rule:nonzero;stroke:none" id="path1542"/></svg:g><svg:g id="g1544" transform="translate(130.1193,420.5509)"><svg:path d="M 0,0 C 0.192,0.6 0.265,1.344 0.265,2.4 0.265,3.432 0.192,4.176 0,4.8 -0.384,5.928 -1.248,6.528 -2.52,6.528 -3.792,6.528 -4.68,5.953 -5.064,4.8 -5.256,4.224 -5.328,3.552 -5.328,2.4 c 0,-1.152 0.072,-1.848 0.264,-2.4 0.384,-1.152 1.272,-1.752 2.544,-1.752 1.272,0 2.136,0.624 2.52,1.752 m -7.104,-7.681 c -0.144,0 -0.241,0.097 -0.241,0.24 V 7.896 c 0,0.145 0.097,0.241 0.241,0.241 h 1.536 c 0.144,0 0.24,-0.096 0.24,-0.241 v -1.08 h 0.024 c 0.552,0.913 1.536,1.585 3.264,1.585 1.992,0 3.385,-0.937 3.961,-2.76 C 2.232,4.729 2.328,3.816 2.328,2.4 2.328,0.96 2.232,0.048 1.921,-0.864 1.345,-2.688 -0.048,-3.625 -2.04,-3.625 c -1.728,0 -2.712,0.697 -3.264,1.609 h -0.024 v -5.425 c 0,-0.143 -0.096,-0.24 -0.24,-0.24 z" style="fill:#000000;fill-opacity:1;fill-rule:nonzero;stroke:none" id="path1546"/></svg:g><svg:g id="g1548" transform="translate(142.5275,423.9352)"><svg:path d="m 0,0 c 0.096,0 0.145,0.048 0.145,0.144 0,0.528 -0.049,0.936 -0.168,1.296 -0.385,1.152 -1.345,1.8 -2.641,1.8 C -3.96,3.24 -4.92,2.592 -5.305,1.44 -5.424,1.08 -5.473,0.672 -5.473,0.144 -5.473,0.048 -5.424,0 -5.328,0 Z m -7.152,-3.888 c -0.241,0.743 -0.384,1.584 -0.384,2.904 0,1.32 0.12,2.208 0.359,2.904 0.649,1.992 2.328,3.097 4.513,3.097 2.208,0 3.864,-1.129 4.513,-3.097 0.239,-0.744 0.359,-1.536 0.359,-3.288 0,-0.144 -0.096,-0.24 -0.264,-0.24 h -7.272 c -0.096,0 -0.145,-0.048 -0.145,-0.144 0,-0.624 0.073,-1.008 0.193,-1.393 0.456,-1.319 1.488,-1.992 2.904,-1.992 1.368,0 2.328,0.553 2.952,1.273 0.12,0.12 0.24,0.144 0.361,0.048 L 1.92,-4.705 C 2.04,-4.8 2.04,-4.92 1.944,-5.041 1.032,-6.192 -0.528,-7.009 -2.544,-7.009 c -2.328,0 -3.984,1.129 -4.608,3.121" style="fill:#000000;fill-opacity:1;fill-rule:nonzero;stroke:none" id="path1550"/></svg:g><svg:g id="g1552" transform="translate(155.3195,420.5509)"><svg:path d="M 0,0 C 0.192,0.6 0.265,1.344 0.265,2.4 0.265,3.432 0.192,4.176 0,4.8 -0.384,5.928 -1.248,6.528 -2.52,6.528 -3.792,6.528 -4.68,5.953 -5.064,4.8 -5.256,4.224 -5.328,3.552 -5.328,2.4 c 0,-1.152 0.072,-1.848 0.264,-2.4 0.384,-1.152 1.272,-1.752 2.544,-1.752 1.272,0 2.136,0.624 2.52,1.752 m -7.104,-7.681 c -0.144,0 -0.241,0.097 -0.241,0.24 V 7.896 c 0,0.145 0.097,0.241 0.241,0.241 h 1.536 c 0.144,0 0.24,-0.096 0.24,-0.241 v -1.08 h 0.024 c 0.552,0.913 1.536,1.585 3.264,1.585 1.992,0 3.385,-0.937 3.961,-2.76 C 2.232,4.729 2.328,3.816 2.328,2.4 2.328,0.96 2.232,0.048 1.921,-0.864 1.345,-2.688 -0.048,-3.625 -2.04,-3.625 c -1.728,0 -2.712,0.697 -3.264,1.609 h -0.024 v -5.425 c 0,-0.143 -0.096,-0.24 -0.24,-0.24 z" style="fill:#000000;fill-opacity:1;fill-rule:nonzero;stroke:none" id="path1554"/></svg:g><svg:g id="g1556" transform="translate(168.2316,420.5509)"><svg:path d="M 0,0 C 0.192,0.6 0.265,1.344 0.265,2.4 0.265,3.432 0.192,4.176 0,4.8 -0.384,5.928 -1.248,6.528 -2.52,6.528 -3.792,6.528 -4.68,5.953 -5.064,4.8 -5.256,4.224 -5.328,3.552 -5.328,2.4 c 0,-1.152 0.072,-1.848 0.264,-2.4 0.384,-1.152 1.272,-1.752 2.544,-1.752 1.272,0 2.136,0.624 2.52,1.752 m -7.104,-7.681 c -0.144,0 -0.241,0.097 -0.241,0.24 V 7.896 c 0,0.145 0.097,0.241 0.241,0.241 h 1.536 c 0.144,0 0.24,-0.096 0.24,-0.241 v -1.08 h 0.024 c 0.552,0.913 1.536,1.585 3.264,1.585 1.992,0 3.385,-0.937 3.961,-2.76 C 2.232,4.729 2.328,3.816 2.328,2.4 2.328,0.96 2.232,0.048 1.921,-0.864 1.345,-2.688 -0.048,-3.625 -2.04,-3.625 c -1.728,0 -2.712,0.697 -3.264,1.609 h -0.024 v -5.425 c 0,-0.143 -0.096,-0.24 -0.24,-0.24 z" style="fill:#000000;fill-opacity:1;fill-rule:nonzero;stroke:none" id="path1558"/></svg:g><svg:g id="g1560" transform="translate(180.6398,423.9352)"><svg:path d="m 0,0 c 0.096,0 0.145,0.048 0.145,0.144 0,0.528 -0.049,0.936 -0.168,1.296 -0.385,1.152 -1.345,1.8 -2.641,1.8 C -3.96,3.24 -4.92,2.592 -5.305,1.44 -5.424,1.08 -5.473,0.672 -5.473,0.144 -5.473,0.048 -5.424,0 -5.328,0 Z m -7.152,-3.888 c -0.241,0.743 -0.384,1.584 -0.384,2.904 0,1.32 0.12,2.208 0.359,2.904 0.649,1.992 2.328,3.097 4.513,3.097 2.208,0 3.864,-1.129 4.513,-3.097 0.239,-0.744 0.359,-1.536 0.359,-3.288 0,-0.144 -0.096,-0.24 -0.264,-0.24 h -7.272 c -0.096,0 -0.145,-0.048 -0.145,-0.144 0,-0.624 0.073,-1.008 0.193,-1.393 0.456,-1.319 1.488,-1.992 2.904,-1.992 1.368,0 2.328,0.553 2.952,1.273 0.12,0.12 0.24,0.144 0.361,0.048 L 1.92,-4.705 C 2.04,-4.8 2.04,-4.92 1.944,-5.041 1.032,-6.192 -0.528,-7.009 -2.544,-7.009 c -2.328,0 -3.984,1.129 -4.608,3.121" style="fill:#000000;fill-opacity:1;fill-rule:nonzero;stroke:none" id="path1562"/></svg:g><svg:g id="g1564" transform="translate(186.3273,417.1905)"><svg:path d="m 0,0 c -0.144,0 -0.24,0.096 -0.24,0.24 v 11.017 c 0,0.144 0.096,0.24 0.24,0.24 h 1.536 c 0.145,0 0.24,-0.096 0.24,-0.24 v -1.176 h 0.025 c 0.504,0.984 1.512,1.68 3.048,1.68 0.912,0 1.776,-0.336 2.352,-0.864 0.12,-0.12 0.144,-0.216 0.048,-0.336 L 6.36,9.385 C 6.265,9.265 6.145,9.241 6.024,9.337 5.497,9.673 4.921,9.889 4.249,9.889 2.496,9.889 1.776,8.521 1.776,6.529 V 0.24 C 1.776,0.096 1.681,0 1.536,0 Z" style="fill:#000000;fill-opacity:1;fill-rule:nonzero;stroke:none" id="path1566"/></svg:g><svg:g id="g1568" transform="translate(211.5763,417.1905)"><svg:path d="M 0,0 C -0.145,0 -0.24,0.096 -0.288,0.24 L -2.881,8.473 H -2.929 L -5.545,0.24 C -5.593,0.096 -5.688,0 -5.833,0 h -1.392 c -0.144,0 -0.24,0.096 -0.288,0.24 l -3.6,11.017 c -0.048,0.144 0.023,0.24 0.168,0.24 h 1.632 c 0.167,0 0.24,-0.048 0.312,-0.24 l 2.544,-8.305 h 0.048 l 2.593,8.305 c 0.047,0.168 0.143,0.24 0.288,0.24 h 1.248 c 0.143,0 0.263,-0.072 0.311,-0.24 L 0.647,2.952 h 0.048 l 2.473,8.305 c 0.048,0.192 0.144,0.24 0.311,0.24 h 1.633 c 0.144,0 0.216,-0.096 0.168,-0.24 L 1.655,0.24 C 1.607,0.096 1.536,0 1.368,0 Z" style="fill:#000000;fill-opacity:1;fill-rule:nonzero;stroke:none" id="path1570"/></svg:g><svg:g id="g1572" transform="translate(219.8068,417.1905)"><svg:path d="m 0,0 c -0.144,0 -0.24,0.096 -0.24,0.24 v 11.017 c 0,0.144 0.096,0.24 0.24,0.24 h 1.536 c 0.145,0 0.24,-0.096 0.24,-0.24 V 0.24 C 1.776,0.096 1.681,0 1.536,0 Z m -0.048,14.089 c -0.143,0 -0.24,0.096 -0.24,0.24 v 1.753 c 0,0.144 0.097,0.239 0.24,0.239 h 1.632 c 0.145,0 0.24,-0.095 0.24,-0.239 v -1.753 c 0,-0.144 -0.095,-0.24 -0.24,-0.24 z" style="fill:#000000;fill-opacity:1;fill-rule:nonzero;stroke:none" id="path1574"/></svg:g><svg:g id="g1576" transform="translate(228.2794,417.0704)"><svg:path d="m 0,0 c -2.017,0 -2.809,0.96 -2.809,3.024 v 13.178 c 0,0.144 0.097,0.239 0.241,0.239 h 1.536 c 0.143,0 0.24,-0.095 0.24,-0.239 V 3.145 c 0,-0.961 0.359,-1.273 1.152,-1.273 h 0.456 c 0.144,0 0.24,-0.096 0.24,-0.24 V 0.24 C 1.056,0.096 0.96,0 0.816,0 Z" style="fill:#000000;fill-opacity:1;fill-rule:nonzero;stroke:none" id="path1578"/></svg:g><svg:g id="g1580" transform="translate(234.879,417.0704)"><svg:path d="m 0,0 c -2.017,0 -2.809,0.96 -2.809,3.024 v 13.178 c 0,0.144 0.097,0.239 0.241,0.239 h 1.536 c 0.143,0 0.24,-0.095 0.24,-0.239 V 3.145 c 0,-0.961 0.359,-1.273 1.152,-1.273 h 0.456 c 0.144,0 0.24,-0.096 0.24,-0.24 V 0.24 C 1.056,0.096 0.96,0 0.816,0 Z" style="fill:#000000;fill-opacity:1;fill-rule:nonzero;stroke:none" id="path1582"/></svg:g><svg:g id="g1584" transform="translate(243.7335,418.6549)"><svg:path d="m 0,0 c -0.096,0.096 -0.096,0.24 0,0.336 l 0.984,1.056 c 0.096,0.096 0.241,0.096 0.336,0 0.865,-0.744 2.16,-1.32 3.553,-1.32 1.68,0 2.52,0.72 2.52,1.752 0,0.912 -0.432,1.416 -2.232,1.608 l -1.224,0.12 c -2.256,0.24 -3.433,1.368 -3.433,3.24 0,2.185 1.56,3.505 4.272,3.505 1.681,0 3.121,-0.552 4.081,-1.273 C 8.978,8.953 8.978,8.809 8.905,8.688 L 8.089,7.656 C 7.993,7.537 7.873,7.537 7.753,7.608 7.009,8.088 5.833,8.544 4.656,8.544 3.217,8.544 2.473,7.896 2.473,6.96 2.473,6.048 3.024,5.568 4.729,5.4 l 1.2,-0.12 C 8.257,5.064 9.385,3.888 9.385,2.04 9.385,-0.216 7.753,-1.729 4.753,-1.729 2.521,-1.729 0.937,-0.816 0,0" style="fill:#000000;fill-opacity:1;fill-rule:nonzero;stroke:none" id="path1586"/></svg:g><svg:g id="g1588" transform="translate(259.6222,417.0704)"><svg:path d="m 0,0 c -2.232,0 -3.097,1.008 -3.097,3.264 v 6.577 c 0,0.096 -0.048,0.144 -0.143,0.144 H -4.2 c -0.145,0 -0.24,0.096 -0.24,0.24 v 1.152 c 0,0.144 0.095,0.24 0.24,0.24 h 0.96 c 0.095,0 0.143,0.048 0.143,0.144 v 3.24 c 0,0.145 0.096,0.24 0.241,0.24 h 1.536 c 0.143,0 0.24,-0.095 0.24,-0.24 v -3.24 c 0,-0.096 0.048,-0.144 0.143,-0.144 h 1.825 c 0.144,0 0.24,-0.096 0.24,-0.24 v -1.152 c 0,-0.144 -0.096,-0.24 -0.24,-0.24 H -0.937 C -1.032,9.985 -1.08,9.937 -1.08,9.841 V 3.336 c 0,-1.152 0.432,-1.464 1.464,-1.464 h 0.504 c 0.144,0 0.24,-0.096 0.24,-0.24 V 0.24 C 1.128,0.096 1.032,0 0.888,0 Z" style="fill:#000000;fill-opacity:1;fill-rule:nonzero;stroke:none" id="path1590"/></svg:g><svg:g id="g1592" transform="translate(270.6866,420.5987)"><svg:path d="M 0,0 C 0.191,0.624 0.264,1.248 0.264,2.352 0.264,3.457 0.191,4.057 0,4.681 -0.385,5.833 -1.32,6.48 -2.593,6.48 -3.864,6.48 -4.801,5.833 -5.185,4.681 -5.377,4.057 -5.449,3.457 -5.449,2.352 c 0,-1.104 0.072,-1.728 0.264,-2.352 0.384,-1.152 1.321,-1.8 2.592,-1.8 1.273,0 2.208,0.648 2.593,1.8 m -7.129,-0.576 c -0.264,0.792 -0.384,1.584 -0.384,2.928 0,1.32 0.12,2.112 0.384,2.904 0.624,1.969 2.304,3.097 4.536,3.097 2.233,0 3.912,-1.128 4.536,-3.097 C 2.208,4.464 2.328,3.672 2.328,2.352 2.328,1.008 2.208,0.216 1.943,-0.576 1.319,-2.52 -0.36,-3.672 -2.593,-3.672 c -2.232,0 -3.912,1.152 -4.536,3.096" style="fill:#000000;fill-opacity:1;fill-rule:nonzero;stroke:none" id="path1594"/></svg:g><svg:g id="g1596" transform="translate(283.5978,420.5509)"><svg:path d="M 0,0 C 0.192,0.6 0.265,1.344 0.265,2.4 0.265,3.432 0.192,4.176 0,4.8 -0.384,5.928 -1.248,6.528 -2.52,6.528 -3.792,6.528 -4.68,5.953 -5.064,4.8 -5.256,4.224 -5.328,3.552 -5.328,2.4 c 0,-1.152 0.072,-1.848 0.264,-2.4 0.384,-1.152 1.272,-1.752 2.544,-1.752 1.272,0 2.136,0.624 2.52,1.752 m -7.104,-7.681 c -0.144,0 -0.241,0.097 -0.241,0.24 V 7.896 c 0,0.145 0.097,0.241 0.241,0.241 h 1.536 c 0.144,0 0.24,-0.096 0.24,-0.241 v -1.08 h 0.024 c 0.552,0.913 1.536,1.585 3.264,1.585 1.992,0 3.385,-0.937 3.961,-2.76 C 2.232,4.729 2.328,3.816 2.328,2.4 2.328,0.96 2.232,0.048 1.921,-0.864 1.345,-2.688 -0.048,-3.625 -2.04,-3.625 c -1.728,0 -2.712,0.697 -3.264,1.609 h -0.024 v -5.425 c 0,-0.143 -0.096,-0.24 -0.24,-0.24 z" style="fill:#000000;fill-opacity:1;fill-rule:nonzero;stroke:none" id="path1598"/></svg:g><svg:g id="g1600" transform="translate(130.2394,388.3902)"><svg:path d="m 0,0 c -0.144,0 -0.24,0.096 -0.24,0.24 v 6.72 c 0,1.849 -0.84,2.929 -2.568,2.929 -1.56,0 -2.64,-1.104 -2.64,-2.808 V 0.24 C -5.448,0.096 -5.544,0 -5.688,0 h -1.537 c -0.143,0 -0.24,0.096 -0.24,0.24 v 15.842 c 0,0.144 0.097,0.239 0.24,0.239 h 1.537 c 0.144,0 0.24,-0.095 0.24,-0.239 v -5.881 h 0.024 c 0.552,0.888 1.655,1.56 3.216,1.56 2.496,0 3.984,-1.704 3.984,-4.321 V 0.24 C 1.776,0.096 1.681,0 1.536,0 Z" style="fill:#000000;fill-opacity:1;fill-rule:nonzero;stroke:none" id="path1602"/></svg:g><svg:g id="g1604" transform="translate(142.671,395.1349)"><svg:path d="m 0,0 c 0.096,0 0.145,0.048 0.145,0.144 0,0.528 -0.049,0.936 -0.168,1.296 -0.385,1.152 -1.345,1.8 -2.641,1.8 C -3.96,3.24 -4.92,2.592 -5.305,1.44 -5.424,1.08 -5.473,0.672 -5.473,0.144 -5.473,0.048 -5.424,0 -5.328,0 Z m -7.152,-3.888 c -0.241,0.743 -0.384,1.584 -0.384,2.904 0,1.32 0.12,2.208 0.359,2.904 0.649,1.992 2.328,3.097 4.513,3.097 2.208,0 3.864,-1.129 4.513,-3.097 0.239,-0.744 0.359,-1.536 0.359,-3.288 0,-0.144 -0.096,-0.24 -0.264,-0.24 h -7.272 c -0.096,0 -0.145,-0.048 -0.145,-0.144 0,-0.624 0.073,-1.008 0.193,-1.393 0.456,-1.319 1.488,-1.992 2.904,-1.992 1.368,0 2.328,0.553 2.952,1.273 0.12,0.12 0.24,0.144 0.361,0.048 L 1.92,-4.705 C 2.04,-4.8 2.04,-4.92 1.944,-5.041 1.032,-6.192 -0.528,-7.009 -2.544,-7.009 c -2.328,0 -3.984,1.129 -4.608,3.121" style="fill:#000000;fill-opacity:1;fill-rule:nonzero;stroke:none" id="path1606"/></svg:g><svg:g id="g1608" transform="translate(148.3585,388.3902)"><svg:path d="m 0,0 c -0.144,0 -0.24,0.096 -0.24,0.24 v 11.017 c 0,0.144 0.096,0.24 0.24,0.24 h 1.536 c 0.145,0 0.24,-0.096 0.24,-0.24 v -1.176 h 0.025 c 0.504,0.984 1.512,1.68 3.048,1.68 0.912,0 1.776,-0.336 2.352,-0.864 0.12,-0.12 0.144,-0.216 0.048,-0.336 L 6.36,9.385 C 6.265,9.265 6.145,9.241 6.024,9.337 5.497,9.673 4.921,9.889 4.249,9.889 2.496,9.889 1.776,8.521 1.776,6.528 V 0.24 C 1.776,0.096 1.681,0 1.536,0 Z" style="fill:#000000;fill-opacity:1;fill-rule:nonzero;stroke:none" id="path1610"/></svg:g><svg:g id="g1612" transform="translate(164.3673,395.1349)"><svg:path d="m 0,0 c 0.096,0 0.145,0.048 0.145,0.144 0,0.528 -0.049,0.936 -0.168,1.296 -0.385,1.152 -1.345,1.8 -2.641,1.8 C -3.96,3.24 -4.92,2.592 -5.305,1.44 -5.424,1.08 -5.473,0.672 -5.473,0.144 -5.473,0.048 -5.424,0 -5.328,0 Z m -7.152,-3.888 c -0.241,0.743 -0.384,1.584 -0.384,2.904 0,1.32 0.12,2.208 0.359,2.904 0.649,1.992 2.328,3.097 4.513,3.097 2.208,0 3.864,-1.129 4.513,-3.097 0.239,-0.744 0.359,-1.536 0.359,-3.288 0,-0.144 -0.096,-0.24 -0.264,-0.24 h -7.272 c -0.096,0 -0.145,-0.048 -0.145,-0.144 0,-0.624 0.073,-1.008 0.193,-1.393 0.456,-1.319 1.488,-1.992 2.904,-1.992 1.368,0 2.328,0.553 2.952,1.273 0.12,0.12 0.24,0.144 0.361,0.048 L 1.92,-4.705 C 2.04,-4.8 2.04,-4.92 1.944,-5.041 1.032,-6.192 -0.528,-7.009 -2.544,-7.009 c -2.328,0 -3.984,1.129 -4.608,3.121" style="fill:#000000;fill-opacity:1;fill-rule:nonzero;stroke:none" id="path1614"/></svg:g><svg:g id="g1616" transform="translate(182.2472,392.1104)"><svg:path d="m 0,0 v 1.272 c 0,0.096 -0.048,0.144 -0.144,0.144 h -2.304 c -1.992,0 -2.857,-0.576 -2.857,-1.872 0,-1.176 0.865,-1.8 2.401,-1.8 1.8,0 2.904,0.84 2.904,2.256 m 0.288,-3.72 c -0.143,0 -0.24,0.096 -0.24,0.24 v 1.008 H 0.024 c -0.528,-0.864 -1.656,-1.512 -3.408,-1.512 -2.184,0 -3.864,1.128 -3.864,3.456 0,2.424 1.68,3.552 4.488,3.552 h 2.616 C -0.048,3.024 0,3.072 0,3.168 v 0.84 c 0,1.585 -0.624,2.257 -2.76,2.257 -1.297,0 -2.112,-0.336 -2.784,-0.816 -0.12,-0.096 -0.265,-0.096 -0.337,0.024 l -0.647,1.104 c -0.073,0.144 -0.048,0.24 0.048,0.336 0.864,0.672 2.208,1.128 3.912,1.128 3.264,0 4.512,-1.08 4.512,-3.913 V -3.48 c 0,-0.144 -0.095,-0.24 -0.24,-0.24 z" style="fill:#000000;fill-opacity:1;fill-rule:nonzero;stroke:none" id="path1618"/></svg:g><svg:g id="g1620" transform="translate(195.4952,388.3902)"><svg:path d="m 0,0 c -0.144,0 -0.24,0.096 -0.24,0.24 v 6.72 c 0,1.849 -0.84,2.929 -2.568,2.929 -1.56,0 -2.64,-1.104 -2.64,-2.808 V 0.24 C -5.448,0.096 -5.544,0 -5.688,0 h -1.537 c -0.143,0 -0.24,0.096 -0.24,0.24 v 11.017 c 0,0.144 0.097,0.24 0.24,0.24 h 1.537 c 0.144,0 0.24,-0.096 0.24,-0.24 v -1.056 h 0.024 c 0.552,0.888 1.655,1.56 3.216,1.56 2.496,0 3.984,-1.704 3.984,-4.321 V 0.24 C 1.776,0.096 1.681,0 1.536,0 Z" style="fill:#000000;fill-opacity:1;fill-rule:nonzero;stroke:none" id="path1622"/></svg:g><svg:g id="g1624" transform="translate(207.7833,391.7506)"><svg:path d="M 0,0 C 0.191,0.552 0.264,1.248 0.264,2.4 0.264,3.552 0.191,4.224 0,4.8 -0.385,5.953 -1.272,6.528 -2.545,6.528 -3.816,6.528 -4.681,5.928 -5.064,4.8 -5.257,4.176 -5.329,3.432 -5.329,2.4 c 0,-1.056 0.072,-1.8 0.265,-2.4 0.383,-1.128 1.248,-1.752 2.519,-1.752 1.273,0 2.16,0.6 2.545,1.752 m 0.504,-3.36 c -0.145,0 -0.24,0.096 -0.24,0.24 v 1.104 H 0.239 c -0.551,-0.912 -1.536,-1.609 -3.263,-1.609 -1.993,0 -3.385,0.937 -3.961,2.761 -0.312,0.912 -0.408,1.824 -0.408,3.264 0,1.416 0.096,2.329 0.408,3.241 0.576,1.823 1.968,2.76 3.961,2.76 1.727,0 2.712,-0.672 3.263,-1.585 h 0.025 v 5.905 c 0,0.144 0.095,0.24 0.24,0.24 H 2.04 c 0.144,0 0.24,-0.096 0.24,-0.24 V -3.12 c 0,-0.144 -0.096,-0.24 -0.24,-0.24 z" style="fill:#000000;fill-opacity:1;fill-rule:nonzero;stroke:none" id="path1626"/></svg:g><svg:g id="g1628" transform="translate(222.5187,388.2701)"><svg:path d="m 0,0 c -2.017,0 -2.809,0.96 -2.809,3.024 v 13.178 c 0,0.144 0.097,0.239 0.241,0.239 h 1.536 c 0.144,0 0.24,-0.095 0.24,-0.239 V 3.145 c 0,-0.961 0.359,-1.273 1.152,-1.273 h 0.456 c 0.144,0 0.24,-0.096 0.24,-0.24 V 0.24 C 1.056,0.096 0.96,0 0.816,0 Z" style="fill:#000000;fill-opacity:1;fill-rule:nonzero;stroke:none" id="path1630"/></svg:g><svg:g id="g1632" transform="translate(233.2228,391.7984)"><svg:path d="M 0,0 C 0.191,0.624 0.264,1.248 0.264,2.353 0.264,3.457 0.191,4.057 0,4.681 -0.385,5.833 -1.32,6.48 -2.593,6.48 -3.864,6.48 -4.801,5.833 -5.185,4.681 -5.377,4.057 -5.449,3.457 -5.449,2.353 c 0,-1.105 0.072,-1.729 0.264,-2.353 0.384,-1.152 1.321,-1.8 2.592,-1.8 1.273,0 2.208,0.648 2.593,1.8 m -7.129,-0.576 c -0.264,0.792 -0.384,1.584 -0.384,2.929 0,1.319 0.12,2.111 0.384,2.903 0.624,1.969 2.304,3.097 4.536,3.097 2.233,0 3.912,-1.128 4.536,-3.097 C 2.208,4.464 2.328,3.672 2.328,2.353 2.328,1.008 2.208,0.216 1.943,-0.576 1.319,-2.52 -0.36,-3.672 -2.593,-3.672 c -2.232,0 -3.912,1.152 -4.536,3.096" style="fill:#000000;fill-opacity:1;fill-rule:nonzero;stroke:none" id="path1634"/></svg:g><svg:g id="g1636" transform="translate(245.6066,391.7984)"><svg:path d="M 0,0 C 0.191,0.624 0.264,1.248 0.264,2.353 0.264,3.457 0.191,4.057 0,4.681 -0.385,5.833 -1.32,6.48 -2.593,6.48 -3.864,6.48 -4.801,5.833 -5.185,4.681 -5.377,4.057 -5.449,3.457 -5.449,2.353 c 0,-1.105 0.072,-1.729 0.264,-2.353 0.384,-1.152 1.321,-1.8 2.592,-1.8 1.273,0 2.208,0.648 2.593,1.8 m -7.129,-0.576 c -0.264,0.792 -0.384,1.584 -0.384,2.929 0,1.319 0.12,2.111 0.384,2.903 0.624,1.969 2.304,3.097 4.536,3.097 2.233,0 3.912,-1.128 4.536,-3.097 C 2.208,4.464 2.328,3.672 2.328,2.353 2.328,1.008 2.208,0.216 1.943,-0.576 1.319,-2.52 -0.36,-3.672 -2.593,-3.672 c -2.232,0 -3.912,1.152 -4.536,3.096" style="fill:#000000;fill-opacity:1;fill-rule:nonzero;stroke:none" id="path1638"/></svg:g><svg:g id="g1640" transform="translate(258.8302,388.3902)"><svg:path d="M 0,0 C -0.168,0 -0.288,0.072 -0.384,0.24 L -3.648,5.592 -5.641,3.264 V 0.24 C -5.641,0.096 -5.736,0 -5.881,0 h -1.536 c -0.144,0 -0.24,0.096 -0.24,0.24 v 15.842 c 0,0.144 0.096,0.239 0.24,0.239 h 1.536 c 0.145,0 0.24,-0.095 0.24,-0.239 V 5.929 l 4.537,5.352 c 0.144,0.168 0.264,0.216 0.432,0.216 h 1.776 c 0.144,0 0.192,-0.12 0.096,-0.24 L -2.328,7.153 1.92,0.24 C 1.992,0.144 1.92,0 1.776,0 Z" style="fill:#000000;fill-opacity:1;fill-rule:nonzero;stroke:none" id="path1642"/></svg:g><svg:g id="g1644" transform="translate(269.8204,388.3902)"><svg:path d="m 0,0 c -0.144,0 -0.239,0.096 -0.239,0.24 v 9.481 c 0,0.096 -0.048,0.144 -0.145,0.144 h -0.984 c -0.144,0 -0.239,0.096 -0.239,0.24 v 1.152 c 0,0.144 0.095,0.24 0.239,0.24 h 0.984 c 0.097,0 0.145,0.048 0.145,0.144 v 0.984 c 0,2.712 1.103,3.696 3.504,3.696 h 0.887 c 0.145,0 0.241,-0.095 0.241,-0.239 v -1.393 c 0,-0.144 -0.096,-0.24 -0.241,-0.24 H 3.528 c -1.464,0 -1.752,-0.312 -1.752,-1.728 v -1.08 c 0,-0.096 0.048,-0.144 0.145,-0.144 h 2.231 c 0.145,0 0.241,-0.096 0.241,-0.24 v -1.152 c 0,-0.144 -0.096,-0.24 -0.241,-0.24 H 1.921 C 1.824,9.865 1.776,9.817 1.776,9.721 V 0.24 C 1.776,0.096 1.681,0 1.536,0 Z" style="fill:#000000;fill-opacity:1;fill-rule:nonzero;stroke:none" id="path1646"/></svg:g><svg:g id="g1648" transform="translate(283.5978,391.7984)"><svg:path d="M 0,0 C 0.191,0.624 0.264,1.248 0.264,2.353 0.264,3.457 0.191,4.057 0,4.681 -0.385,5.833 -1.32,6.48 -2.593,6.48 -3.864,6.48 -4.801,5.833 -5.185,4.681 -5.377,4.057 -5.449,3.457 -5.449,2.353 c 0,-1.105 0.072,-1.729 0.264,-2.353 0.384,-1.152 1.321,-1.8 2.592,-1.8 1.273,0 2.208,0.648 2.593,1.8 m -7.129,-0.576 c -0.264,0.792 -0.384,1.584 -0.384,2.929 0,1.319 0.12,2.111 0.384,2.903 0.624,1.969 2.304,3.097 4.536,3.097 2.233,0 3.912,-1.128 4.536,-3.097 C 2.208,4.464 2.328,3.672 2.328,2.353 2.328,1.008 2.208,0.216 1.943,-0.576 1.319,-2.52 -0.36,-3.672 -2.593,-3.672 c -2.232,0 -3.912,1.152 -4.536,3.096" style="fill:#000000;fill-opacity:1;fill-rule:nonzero;stroke:none" id="path1650"/></svg:g><svg:g id="g1652" transform="translate(289.4044,388.3902)"><svg:path d="m 0,0 c -0.144,0 -0.24,0.096 -0.24,0.24 v 11.017 c 0,0.144 0.096,0.24 0.24,0.24 h 1.536 c 0.145,0 0.24,-0.096 0.24,-0.24 v -1.176 h 0.025 c 0.504,0.984 1.512,1.68 3.048,1.68 0.912,0 1.776,-0.336 2.352,-0.864 0.12,-0.12 0.144,-0.216 0.048,-0.336 L 6.36,9.385 C 6.265,9.265 6.145,9.241 6.024,9.337 5.497,9.673 4.921,9.889 4.249,9.889 2.496,9.889 1.776,8.521 1.776,6.528 V 0.24 C 1.776,0.096 1.681,0 1.536,0 Z" style="fill:#000000;fill-opacity:1;fill-rule:nonzero;stroke:none" id="path1654"/></svg:g><svg:g id="g1656" transform="translate(129.4474,363.3106)"><svg:path d="m 0,0 v 1.272 c 0,0.096 -0.048,0.144 -0.144,0.144 h -2.304 c -1.992,0 -2.857,-0.576 -2.857,-1.872 0,-1.176 0.865,-1.8 2.401,-1.8 1.8,0 2.904,0.84 2.904,2.256 m 0.288,-3.72 c -0.143,0 -0.24,0.096 -0.24,0.24 v 1.008 H 0.024 c -0.528,-0.864 -1.656,-1.512 -3.408,-1.512 -2.184,0 -3.864,1.128 -3.864,3.456 0,2.424 1.68,3.552 4.488,3.552 h 2.616 C -0.048,3.024 0,3.072 0,3.168 v 0.84 c 0,1.585 -0.624,2.257 -2.76,2.257 -1.297,0 -2.112,-0.336 -2.784,-0.816 -0.12,-0.096 -0.265,-0.096 -0.337,0.024 l -0.647,1.104 c -0.073,0.144 -0.048,0.24 0.048,0.336 0.864,0.672 2.208,1.128 3.912,1.128 3.264,0 4.512,-1.08 4.512,-3.913 V -3.48 c 0,-0.144 -0.095,-0.24 -0.24,-0.24 z" style="fill:#000000;fill-opacity:1;fill-rule:nonzero;stroke:none" id="path1658"/></svg:g><svg:g id="g1660" transform="translate(142.6954,359.5904)"><svg:path d="m 0,0 c -0.144,0 -0.24,0.096 -0.24,0.24 v 6.72 c 0,1.849 -0.84,2.929 -2.568,2.929 -1.56,0 -2.64,-1.104 -2.64,-2.808 V 0.24 C -5.448,0.096 -5.544,0 -5.688,0 h -1.537 c -0.143,0 -0.24,0.096 -0.24,0.24 v 11.017 c 0,0.144 0.097,0.24 0.24,0.24 h 1.537 c 0.144,0 0.24,-0.096 0.24,-0.24 v -1.056 h 0.024 c 0.552,0.888 1.655,1.56 3.216,1.56 2.496,0 3.984,-1.704 3.984,-4.321 V 0.24 C 1.776,0.096 1.681,0 1.536,0 Z" style="fill:#000000;fill-opacity:1;fill-rule:nonzero;stroke:none" id="path1662"/></svg:g><svg:g id="g1664" transform="translate(155.1036,362.9986)"><svg:path d="M 0,0 C 0.191,0.624 0.264,1.248 0.264,2.353 0.264,3.457 0.191,4.057 0,4.681 -0.385,5.833 -1.32,6.48 -2.593,6.48 -3.864,6.48 -4.801,5.833 -5.185,4.681 -5.377,4.057 -5.449,3.457 -5.449,2.353 c 0,-1.105 0.072,-1.729 0.264,-2.353 0.384,-1.152 1.321,-1.8 2.592,-1.8 1.273,0 2.208,0.648 2.593,1.8 m -7.129,-0.576 c -0.264,0.792 -0.384,1.584 -0.384,2.929 0,1.319 0.12,2.111 0.384,2.903 0.624,1.969 2.304,3.097 4.536,3.097 2.233,0 3.912,-1.128 4.536,-3.097 C 2.208,4.464 2.328,3.672 2.328,2.353 2.328,1.008 2.208,0.216 1.943,-0.576 1.319,-2.52 -0.36,-3.672 -2.593,-3.672 c -2.232,0 -3.912,1.152 -4.536,3.096" style="fill:#000000;fill-opacity:1;fill-rule:nonzero;stroke:none" id="path1666"/></svg:g><svg:g id="g1668" transform="translate(164.007,359.4703)"><svg:path d="m 0,0 c -2.232,0 -3.097,1.008 -3.097,3.264 v 6.577 c 0,0.096 -0.048,0.144 -0.143,0.144 H -4.2 c -0.145,0 -0.24,0.096 -0.24,0.24 v 1.152 c 0,0.144 0.095,0.24 0.24,0.24 h 0.96 c 0.095,0 0.143,0.048 0.143,0.144 v 3.24 c 0,0.145 0.096,0.24 0.241,0.24 h 1.536 c 0.143,0 0.24,-0.095 0.24,-0.24 v -3.24 c 0,-0.096 0.048,-0.144 0.143,-0.144 h 1.825 c 0.144,0 0.24,-0.096 0.24,-0.24 v -1.152 c 0,-0.144 -0.096,-0.24 -0.24,-0.24 H -0.937 C -1.032,9.985 -1.08,9.937 -1.08,9.841 V 3.336 c 0,-1.152 0.432,-1.464 1.464,-1.464 h 0.504 c 0.144,0 0.24,-0.096 0.24,-0.24 V 0.24 C 1.128,0.096 1.032,0 0.888,0 Z" style="fill:#000000;fill-opacity:1;fill-rule:nonzero;stroke:none" id="path1670"/></svg:g><svg:g id="g1672" transform="translate(175.7189,359.5904)"><svg:path d="m 0,0 c -0.144,0 -0.24,0.096 -0.24,0.24 v 6.72 c 0,1.849 -0.84,2.929 -2.568,2.929 -1.56,0 -2.64,-1.104 -2.64,-2.808 V 0.24 C -5.448,0.096 -5.544,0 -5.688,0 h -1.537 c -0.143,0 -0.24,0.096 -0.24,0.24 v 15.842 c 0,0.144 0.097,0.239 0.24,0.239 h 1.537 c 0.144,0 0.24,-0.095 0.24,-0.239 v -5.881 h 0.024 c 0.552,0.888 1.655,1.56 3.216,1.56 2.496,0 3.984,-1.704 3.984,-4.321 V 0.24 C 1.776,0.096 1.681,0 1.536,0 Z" style="fill:#000000;fill-opacity:1;fill-rule:nonzero;stroke:none" id="path1674"/></svg:g><svg:g id="g1676" transform="translate(188.1505,366.3351)"><svg:path d="m 0,0 c 0.096,0 0.145,0.048 0.145,0.144 0,0.528 -0.049,0.936 -0.168,1.296 -0.385,1.152 -1.345,1.8 -2.641,1.8 C -3.96,3.24 -4.92,2.592 -5.305,1.44 -5.424,1.08 -5.473,0.672 -5.473,0.144 -5.473,0.048 -5.424,0 -5.328,0 Z m -7.152,-3.888 c -0.241,0.743 -0.384,1.584 -0.384,2.904 0,1.32 0.12,2.208 0.359,2.904 0.649,1.992 2.328,3.097 4.513,3.097 2.208,0 3.864,-1.129 4.513,-3.097 0.239,-0.744 0.359,-1.536 0.359,-3.288 0,-0.144 -0.096,-0.24 -0.264,-0.24 h -7.272 c -0.096,0 -0.145,-0.048 -0.145,-0.144 0,-0.624 0.073,-1.008 0.193,-1.393 0.456,-1.319 1.488,-1.992 2.904,-1.992 1.368,0 2.328,0.553 2.952,1.273 0.12,0.12 0.24,0.144 0.361,0.048 L 1.92,-4.705 C 2.04,-4.8 2.04,-4.92 1.944,-5.041 1.032,-6.192 -0.528,-7.009 -2.544,-7.009 c -2.328,0 -3.984,1.129 -4.608,3.121" style="fill:#000000;fill-opacity:1;fill-rule:nonzero;stroke:none" id="path1678"/></svg:g><svg:g id="g1680" transform="translate(193.838,359.5904)"><svg:path d="m 0,0 c -0.144,0 -0.24,0.096 -0.24,0.24 v 11.017 c 0,0.144 0.096,0.24 0.24,0.24 h 1.536 c 0.145,0 0.24,-0.096 0.24,-0.24 v -1.176 h 0.025 c 0.504,0.984 1.512,1.68 3.048,1.68 0.912,0 1.776,-0.336 2.352,-0.864 0.12,-0.12 0.144,-0.216 0.048,-0.336 L 6.36,9.385 C 6.265,9.265 6.145,9.241 6.024,9.337 5.497,9.673 4.921,9.889 4.249,9.889 2.496,9.889 1.776,8.521 1.776,6.528 V 0.24 C 1.776,0.096 1.681,0 1.536,0 Z" style="fill:#000000;fill-opacity:1;fill-rule:nonzero;stroke:none" id="path1682"/></svg:g><svg:g id="g1684" transform="translate(223.8868,359.5904)"><svg:path d="m 0,0 c -0.144,0 -0.24,0.096 -0.24,0.24 v 6.72 c 0,1.849 -0.84,2.929 -2.568,2.929 -1.536,0 -2.64,-1.104 -2.64,-2.808 V 0.24 C -5.448,0.096 -5.544,0 -5.688,0 h -1.537 c -0.143,0 -0.24,0.096 -0.24,0.24 v 6.72 c 0,1.849 -0.84,2.929 -2.567,2.929 -1.561,0 -2.641,-1.104 -2.641,-2.808 V 0.24 c 0,-0.144 -0.096,-0.24 -0.24,-0.24 h -1.536 c -0.144,0 -0.24,0.096 -0.24,0.24 v 11.017 c 0,0.144 0.096,0.24 0.24,0.24 h 1.536 c 0.144,0 0.24,-0.096 0.24,-0.24 v -1.056 h 0.025 c 0.551,0.888 1.655,1.56 3.215,1.56 1.561,0 2.712,-0.648 3.361,-1.8 h 0.024 c 0.792,1.104 1.968,1.8 3.72,1.8 2.664,0 4.104,-1.704 4.104,-4.321 V 0.24 C 1.776,0.096 1.681,0 1.536,0 Z" style="fill:#000000;fill-opacity:1;fill-rule:nonzero;stroke:none" id="path1686"/></svg:g><svg:g id="g1688" transform="translate(236.1495,363.3106)"><svg:path d="m 0,0 v 1.272 c 0,0.096 -0.048,0.144 -0.144,0.144 h -2.304 c -1.992,0 -2.857,-0.576 -2.857,-1.872 0,-1.176 0.865,-1.8 2.401,-1.8 1.8,0 2.904,0.84 2.904,2.256 m 0.288,-3.72 c -0.143,0 -0.24,0.096 -0.24,0.24 v 1.008 H 0.024 c -0.528,-0.864 -1.656,-1.512 -3.408,-1.512 -2.184,0 -3.864,1.128 -3.864,3.456 0,2.424 1.68,3.552 4.488,3.552 h 2.616 C -0.048,3.024 0,3.072 0,3.168 v 0.84 c 0,1.585 -0.624,2.257 -2.76,2.257 -1.297,0 -2.112,-0.336 -2.784,-0.816 -0.12,-0.096 -0.265,-0.096 -0.337,0.024 l -0.647,1.104 c -0.073,0.144 -0.048,0.24 0.048,0.336 0.864,0.672 2.208,1.128 3.912,1.128 3.264,0 4.512,-1.08 4.512,-3.913 V -3.48 c 0,-0.144 -0.095,-0.24 -0.24,-0.24 z" style="fill:#000000;fill-opacity:1;fill-rule:nonzero;stroke:none" id="path1690"/></svg:g><svg:g id="g1692" transform="translate(245.2697,359.4703)"><svg:path d="m 0,0 c -2.232,0 -3.097,1.008 -3.097,3.264 v 6.577 c 0,0.096 -0.048,0.144 -0.143,0.144 H -4.2 c -0.145,0 -0.24,0.096 -0.24,0.24 v 1.152 c 0,0.144 0.095,0.24 0.24,0.24 h 0.96 c 0.095,0 0.143,0.048 0.143,0.144 v 3.24 c 0,0.145 0.097,0.24 0.241,0.24 h 1.536 c 0.143,0 0.24,-0.095 0.24,-0.24 v -3.24 c 0,-0.096 0.048,-0.144 0.143,-0.144 h 1.825 c 0.144,0 0.24,-0.096 0.24,-0.24 v -1.152 c 0,-0.144 -0.096,-0.24 -0.24,-0.24 H -0.937 C -1.032,9.985 -1.08,9.937 -1.08,9.841 V 3.336 c 0,-1.152 0.432,-1.464 1.464,-1.464 h 0.504 c 0.144,0 0.24,-0.096 0.24,-0.24 V 0.24 C 1.128,0.096 1.032,0 0.888,0 Z" style="fill:#000000;fill-opacity:1;fill-rule:nonzero;stroke:none" id="path1694"/></svg:g><svg:g id="g1696" transform="translate(270.3751,170.1842)"><svg:path d="M 0,0 505.779,116.986 530.552,91.224 150.548,-64.343 26.225,-23.146 Z" style="fill:#00a2ac;fill-opacity:1;fill-rule:nonzero;stroke:none" id="path1698"/></svg:g><svg:g id="g1700" transform="translate(168.9357,504.8194)"><svg:path d="m 0,0 c 0,12.549 -10.173,22.721 -22.722,22.721 -12.548,0 -22.72,-10.172 -22.72,-22.721 0,-12.548 10.172,-22.721 22.72,-22.721 C -10.173,-22.721 0,-12.548 0,0 Z" style="fill:none;stroke:#00a2ac;stroke-width:4.676;stroke-linecap:butt;stroke-linejoin:miter;stroke-miterlimit:10;stroke-dasharray:none;stroke-opacity:1" id="path1702"/></svg:g><svg:g id="g1704" transform="translate(149.4318,515.1495)"><svg:path d="m 0,0 c 0,1.539 -1.247,2.786 -2.785,2.786 -1.538,0 -2.786,-1.247 -2.786,-2.786 0,-1.539 1.248,-2.786 2.786,-2.786 C -1.247,-2.786 0,-1.539 0,0" style="fill:#00a2ac;fill-opacity:1;fill-rule:nonzero;stroke:none" id="path1706"/></svg:g><svg:g id="g1708" transform="translate(146.6466,491.7037)"><svg:path d="m 0,0 v 0 c -1.532,0 -2.786,1.254 -2.786,2.786 v 12.11 c 0,1.532 1.254,2.786 2.786,2.786 1.532,0 2.785,-1.254 2.785,-2.786 V 2.786 C 2.785,1.254 1.532,0 0,0" style="fill:#00a2ac;fill-opacity:1;fill-rule:nonzero;stroke:none" id="path1710"/></svg:g><svg:g id="g1712" transform="translate(141.0753,506.6002)"><svg:path d="M 0,0 V 0 C 0,1.532 1.254,2.786 2.785,2.786 H 5.571 C 7.104,2.786 8.356,1.532 8.356,0 8.356,-1.532 7.104,-2.786 5.571,-2.786 H 2.785 C 1.254,-2.786 0,-1.532 0,0" style="fill:#00a2ac;fill-opacity:1;fill-rule:nonzero;stroke:none" id="path1714"/></svg:g><svg:g id="g1716" transform="translate(521.4747,376.1148)"><svg:path d="M 0,0 -10.2,-57.434 H -57.546 Z" style="fill:#000000;fill-opacity:1;fill-rule:nonzero;stroke:none" id="path1718"/></svg:g><svg:g id="g1720" transform="translate(420.9445,963.4181)"><svg:path d="M 0,0 301.087,-301.086 0,-602.173 -301.086,-301.086 Z" style="fill:#000000;fill-opacity:1;fill-rule:nonzero;stroke:none" id="path1722"/></svg:g><svg:g id="g1724" transform="translate(420.9445,863.0558)"><svg:path d="M 0,0 50.182,-50.181 0,-100.362 -50.181,-50.181 Z" style="fill:#ffffff;fill-opacity:1;fill-rule:nonzero;stroke:none" id="path1726"/></svg:g><svg:g id="g1728" transform="translate(471.1261,812.8746)"><svg:path d="M 0,0 50.181,-50.181 0,-100.362 -50.182,-50.181 Z" style="fill:#ffffff;fill-opacity:1;fill-rule:nonzero;stroke:none" id="path1730"/></svg:g><svg:g id="g1732" transform="translate(521.3068,762.6935)"><svg:path d="M 0,0 50.182,-50.181 0,-100.362 -50.181,-50.181 Z" style="fill:#000000;fill-opacity:1;fill-rule:nonzero;stroke:none" id="path1734"/></svg:g><svg:g id="g1736" transform="translate(571.4884,712.5123)"><svg:path d="M 0,0 50.181,-50.181 0,-100.362 -50.182,-50.181 Z" style="fill:#000000;fill-opacity:1;fill-rule:nonzero;stroke:none" id="path1738"/></svg:g><svg:g id="g1740" transform="translate(370.7638,812.8746)"><svg:path d="M 0,0 50.181,-50.181 0,-100.362 -50.181,-50.181 Z" style="fill:#000000;fill-opacity:1;fill-rule:nonzero;stroke:none" id="path1742"/></svg:g><svg:g id="g1744" transform="translate(420.9445,762.6935)"><svg:path d="M 0,0 50.182,-50.181 0,-100.362 -50.181,-50.181 Z" style="fill:#ffffff;fill-opacity:1;fill-rule:nonzero;stroke:none" id="path1746"/></svg:g><svg:g id="g1748" transform="translate(471.1261,712.5123)"><svg:path d="M 0,0 50.181,-50.181 0,-100.362 -50.182,-50.181 Z" style="fill:#000000;fill-opacity:1;fill-rule:nonzero;stroke:none" id="path1750"/></svg:g><svg:g id="g1752" transform="translate(521.3068,662.3317)"><svg:path d="M 0,0 50.182,-50.181 0,-100.362 -50.181,-50.181 Z" style="fill:#000000;fill-opacity:1;fill-rule:nonzero;stroke:none" id="path1754"/></svg:g><svg:g id="g1756" transform="translate(320.5831,762.6935)"><svg:path d="M 0,0 50.181,-50.181 0,-100.362 -50.182,-50.181 Z" style="fill:#ffffff;fill-opacity:1;fill-rule:nonzero;stroke:none" id="path1758"/></svg:g><svg:g id="g1760" transform="translate(370.7638,712.5123)"><svg:path d="M 0,0 50.181,-50.181 0,-100.362 -50.181,-50.181 Z" style="fill:#ffffff;fill-opacity:1;fill-rule:nonzero;stroke:none" id="path1762"/></svg:g><svg:g id="g1764" transform="translate(420.9445,662.3317)"><svg:path d="M 0,0 50.182,-50.181 0,-100.362 -50.181,-50.181 Z" style="fill:#ffffff;fill-opacity:1;fill-rule:nonzero;stroke:none" id="path1766"/></svg:g><svg:g id="g1768" transform="translate(471.1261,612.1505)"><svg:path d="M 0,0 50.181,-50.181 0,-100.362 -50.182,-50.181 Z" style="fill:#ffffff;fill-opacity:1;fill-rule:nonzero;stroke:none" id="path1770"/></svg:g><svg:g id="g1772" transform="translate(270.4015,712.5123)"><svg:path d="M 0,0 50.182,-50.181 0,-100.362 -50.181,-50.181 Z" style="fill:#000000;fill-opacity:1;fill-rule:nonzero;stroke:none" id="path1774"/></svg:g><svg:g id="g1776" transform="translate(320.5831,662.3317)"><svg:path d="M 0,0 50.181,-50.181 0,-100.362 -50.182,-50.181 Z" style="fill:#000000;fill-opacity:1;fill-rule:nonzero;stroke:none" id="path1778"/></svg:g><svg:g id="g1780" transform="translate(370.7638,612.1505)"><svg:path d="M 0,0 50.181,-50.181 0,-100.362 -50.181,-50.181 Z" style="fill:#ffffff;fill-opacity:1;fill-rule:nonzero;stroke:none" id="path1782"/></svg:g><svg:g id="g1784" transform="translate(420.9445,561.9694)"><svg:path d="M 0,0 50.182,-50.181 0,-100.362 -50.181,-50.181 Z" style="fill:#000000;fill-opacity:1;fill-rule:nonzero;stroke:none" id="path1786"/></svg:g><svg:g id="g1788" transform="translate(798.0441,488.8673)"><svg:path d="m 0,0 v -215.928 l -377.121,-167.098 -377.077,167.098 V 0" style="fill:none;stroke:#00a2ac;stroke-width:40;stroke-linecap:butt;stroke-linejoin:round;stroke-miterlimit:10;stroke-dasharray:none;stroke-opacity:1" id="path1790"/></svg:g><svg:g id="g1792" transform="translate(402.3458,166.3976)"><svg:path d="M 0,0 C -0.58,2.847 -1.185,3.811 -4.447,3.811 -5.83,3.811 -6.963,3.425 -7.734,2.762 -8.395,2.214 -8.702,1.52 -8.702,0.664 c 0,-0.773 0.415,-1.713 0.941,-2.213 0.716,-0.689 1.765,-1.298 3.506,-2.178 2.157,-1.108 3.788,-1.746 4.976,-3.094 0.577,-0.669 1.16,-1.912 1.16,-3.265 0,-1.437 -0.499,-2.733 -1.548,-3.675 -1.161,-1.05 -2.983,-1.739 -5.444,-1.739 -1.601,0 -3.561,0.359 -5.166,0.937 -0.249,1.715 -0.55,2.876 -0.911,4.091 l 0.967,0.252 c 0.883,-3.401 2.432,-4.231 5.36,-4.231 1.269,0 2.459,0.359 3.315,1.024 0.857,0.667 1.41,1.63 1.41,2.874 0,1.102 -0.304,1.767 -0.885,2.459 -0.883,1.049 -2.377,1.711 -3.979,2.512 -1.685,0.856 -4.005,2.101 -4.807,3.232 -0.5,0.722 -0.828,1.632 -0.828,2.653 0,1.189 0.495,2.375 1.655,3.262 0.998,0.775 2.513,1.299 4.67,1.299 1.768,0 3.206,-0.223 4.618,-0.773 C 0.469,2.955 0.721,1.462 0.97,0.221 Z" style="fill:#ffffff;fill-opacity:1;fill-rule:nonzero;stroke:none" id="path1794"/></svg:g><svg:g id="g1796" transform="translate(406.4591,157.5548)"><svg:path d="m 0,0 c 0,-2.513 0.663,-4.169 1.738,-5.192 1.11,-0.971 2.434,-1.384 4.092,-1.384 1.736,0 3.096,0.444 4.197,1.439 1.05,1.022 1.686,2.651 1.686,5.137 0,2.183 -0.604,3.869 -1.686,4.947 C 8.948,5.972 7.678,6.466 5.83,6.466 4.058,6.466 2.79,5.972 1.712,4.975 0.605,3.896 0,2.183 0,0 m 1.985,-0.026 c 0,2.129 0.39,3.507 1.135,4.476 C 3.782,5.221 4.697,5.606 5.801,5.606 6.959,5.606 7.9,5.221 8.535,4.45 9.28,3.481 9.67,2.103 9.67,-0.026 9.67,-2.265 9.201,-3.672 8.508,-4.557 7.874,-5.273 6.985,-5.72 5.83,-5.72 c -1.16,0 -2.048,0.447 -2.68,1.163 -0.692,0.885 -1.165,2.292 -1.165,4.531" style="fill:#ffffff;fill-opacity:1;fill-rule:nonzero;stroke:none" id="path1798"/></svg:g><svg:g id="g1800" transform="translate(421.8673,162.8331)"><svg:path d="M 0,0 H -2.045 V 0.882 H 0 v 1.741 c 0,1.688 0.416,2.956 1.327,3.896 0.662,0.637 1.602,1.079 2.818,1.079 1.132,0 1.794,-0.304 2.348,-0.661 0.802,-0.525 1.19,-1.217 1.19,-1.713 0,-0.556 -0.28,-0.86 -0.778,-0.86 -0.659,0 -0.908,0.582 -1.214,1.191 C 5.389,6.162 5.027,6.742 4.172,6.742 3.62,6.742 3.179,6.549 2.788,6.133 2.239,5.47 1.907,4.477 1.907,2.516 V 0.882 H 5.414 V 0 H 1.907 v -9.032 c 0,-1.66 0.111,-1.828 2.184,-1.828 v -0.691 h -6.164 v 0.691 c 1.935,0 2.073,0.194 2.073,1.882 z" style="fill:#ffffff;fill-opacity:1;fill-rule:nonzero;stroke:none" id="path1802"/></svg:g><svg:g id="g1804" transform="translate(428.4767,163.4679)"><svg:path d="M 0,0 C 1.739,0.164 2.929,0.832 3.286,3.729 H 3.975 V 0.247 H 6.904 V -0.635 H 3.975 V -9.56 c 0,-1.296 0.387,-1.961 1.353,-1.961 0.639,0 1.162,0.221 1.716,0.639 l 0.441,-0.613 c -0.717,-0.634 -1.575,-0.994 -2.709,-0.994 -1.408,0 -2.707,0.665 -2.707,2.822 v 9.032 l -2.069,0 z" style="fill:#ffffff;fill-opacity:1;fill-rule:nonzero;stroke:none" id="path1806"/></svg:g><svg:g id="g1808" transform="translate(441.7814,161.0362)"><svg:path d="M 0,0 H 3.431 C 5.691,0 7.212,-0.387 8.184,-1.131 9.172,-1.88 9.703,-2.956 9.703,-4.169 9.703,-5.608 9.285,-6.63 8.621,-7.323 7.682,-8.288 6.416,-8.705 4.451,-8.705 H 1.022 C 0.166,-8.705 0,-8.51 0,-7.346 Z m -2.044,-6.851 c 0,-1.959 -0.166,-2.1 -2.237,-2.1 v -0.803 h 9.008 c 2.874,0 4.503,0.664 5.582,1.715 1.102,1.049 1.546,2.431 1.546,3.81 0,1.523 -0.775,2.628 -1.772,3.401 C 8.9,0.083 7.294,0.552 5.502,0.609 v 0.055 c 1.74,0.25 2.901,0.801 3.728,1.546 1.019,0.914 1.38,2.131 1.38,3.177 0,1.411 -0.716,2.517 -1.763,3.233 C 7.354,9.616 5.691,9.837 3.15,9.837 H -4.281 V 9.036 c 2.071,0 2.237,-0.138 2.237,-2.129 z M 0,7.818 c 0,0.749 0.109,0.969 0.832,0.969 h 2.621 c 1.938,0 3.18,-0.441 3.951,-1.079 C 8.017,7.214 8.487,6.134 8.487,5.195 8.487,3.87 8.017,2.903 7.212,2.239 6.217,1.409 4.671,1.05 2.764,1.05 H 0 Z" style="fill:#ffffff;fill-opacity:1;fill-rule:nonzero;stroke:none" id="path1810"/></svg:g><svg:g id="g1812" transform="translate(464.7306,160.1808)"><svg:path d="M 0,0 C 0,1.215 -0.194,1.961 -0.912,2.761 -1.603,3.534 -2.571,3.84 -4.227,3.84 -5.692,3.84 -6.659,3.482 -7.378,3.065 -8.262,2.543 -8.813,1.793 -8.813,1.133 c 0,-0.417 0.244,-0.801 0.772,-0.801 0.578,0 0.831,0.274 0.965,0.666 0.252,0.605 0.499,1.075 0.861,1.351 0.495,0.386 1.05,0.631 1.877,0.631 0.911,0 1.573,-0.27 1.988,-0.825 0.358,-0.471 0.443,-1.3 0.443,-1.933 v -1.19 l -1.63,-0.388 c -1.771,-0.385 -3.147,-0.939 -4.089,-1.572 -1.217,-0.8 -1.711,-1.799 -1.711,-3.068 0,-1.049 0.439,-1.853 1.102,-2.374 0.718,-0.582 1.658,-0.832 2.543,-0.832 1.824,0 2.927,0.637 3.865,1.523 h 0.086 c 0.247,-0.915 0.829,-1.41 1.797,-1.41 0.716,0 1.214,0.165 1.683,0.387 L 1.576,-8.068 C 1.353,-8.208 1.101,-8.26 0.829,-8.26 0.278,-8.26 0,-7.709 0,-6.467 Z m -1.907,-6.715 c -0.693,-0.689 -1.63,-1.433 -2.982,-1.433 -0.831,0 -1.411,0.273 -1.826,0.664 -0.415,0.41 -0.606,1.017 -0.606,1.739 0,1.271 0.773,1.989 1.848,2.569 1.023,0.633 2.378,1.023 3.566,1.352 z" style="fill:#ffffff;fill-opacity:1;fill-rule:nonzero;stroke:none" id="path1814"/></svg:g><svg:g id="g1816" transform="translate(478.7892,153.7442)"><svg:path d="m 0,0 c 0,-1.549 0.115,-1.771 1.355,-1.771 v -0.691 h -4.671 v 0.691 c 1.33,0 1.411,0.168 1.411,1.828 v 6.158 c 0,1.077 -0.137,1.964 -0.663,2.516 -0.36,0.358 -0.855,0.55 -1.598,0.55 -1.165,0 -2.405,-1.051 -3.509,-2.569 V 0.057 c 0,-1.66 0.025,-1.828 1.321,-1.828 v -0.691 h -4.832 v 0.691 c 1.491,0 1.602,0.168 1.602,1.828 v 6.712 c 0,1.601 -0.139,1.794 -1.602,1.767 v 0.61 c 1.215,0.191 2.155,0.467 3.066,1.131 l 0.275,-0.165 0.111,-2.128 h 0.059 c 1.104,1.406 2.507,2.293 4.032,2.293 1.186,0 2.043,-0.306 2.65,-0.887 C -0.357,8.785 0,7.79 0,6.327 Z" style="fill:#ffffff;fill-opacity:1;fill-rule:nonzero;stroke:none" id="path1818"/></svg:g><svg:g id="g1820" transform="translate(485.2667,158.0802)"><svg:path d="M 0,0 3.949,3.843 C 4.693,4.531 4.89,4.945 3.562,4.945 v 0.69 H 7.651 V 4.945 C 6.853,4.917 6.411,4.726 5.774,4.115 L 2.873,1.355 7.098,-5.056 C 7.71,-6.022 8.314,-6.134 9.144,-6.107 v -0.691 h -3.15 l -4.5,6.962 -1.55,-1.52 v -2.923 c 0,-1.606 0.056,-1.828 1.574,-1.828 v -0.691 h -5.135 v 0.691 c 1.599,0 1.653,0.222 1.653,1.828 V 8.814 c 0,1.603 -0.166,1.796 -1.653,1.796 v 0.606 c 1.349,0.198 2.292,0.503 3.314,1.135 l 0.247,-0.164 V 0 Z" style="fill:#ffffff;fill-opacity:1;fill-rule:nonzero;stroke:none" id="path1822"/></svg:g><svg:path d="m 382.926,164.471 h -27.623 v 6.789 h 27.623 z" style="fill:#ffffff;fill-opacity:1;fill-rule:nonzero;stroke:none" id="path1824"/><svg:path d="m 382.926,150.895 h -27.623 v 6.789 h 27.623 z" style="fill:#ffffff;fill-opacity:1;fill-rule:nonzero;stroke:none" id="path1826"/><svg:g id="g1828" transform="translate(465.2023,141.1642)"><svg:path d="M 0,0 C 1.055,0 1.524,0.959 1.524,1.831 1.524,2.761 0.959,3.663 0,3.663 -0.968,3.663 -1.534,2.761 -1.534,1.831 -1.534,0.959 -1.064,0 0,0 m 0,4.391 c 1.486,0 2.483,-1.074 2.483,-2.56 0,-1.399 -1.016,-2.56 -2.483,-2.56 -1.477,0 -2.493,1.161 -2.493,2.56 0,1.486 0.997,2.56 2.493,2.56" style="fill:#ffffff;fill-opacity:1;fill-rule:nonzero;stroke:none" id="path1830"/></svg:g><svg:g id="g1832" transform="translate(471.1339,144.8273)"><svg:path d="m 0,0 c -0.978,0 -1.447,-0.931 -1.447,-1.841 0,-0.815 0.422,-1.822 1.438,-1.822 0.969,0 1.37,1.083 1.352,1.851 C 1.361,-0.931 0.979,0 0,0 m -2.349,2.539 h 0.902 v -2.596 h 0.019 c 0.278,0.45 0.767,0.785 1.62,0.785 1.419,0 2.11,-1.16 2.11,-2.474 0,-1.342 -0.623,-2.646 -2.1,-2.646 -0.873,0 -1.429,0.441 -1.669,0.806 h -0.019 v -0.691 h -0.863 z" style="fill:#ffffff;fill-opacity:1;fill-rule:nonzero;stroke:none" id="path1834"/></svg:g><svg:g id="g1836" transform="translate(476.9308,141.1642)"><svg:path d="M 0,0 C 1.055,0 1.524,0.959 1.524,1.831 1.524,2.761 0.959,3.663 0,3.663 -0.969,3.663 -1.534,2.761 -1.534,1.831 -1.534,0.959 -1.064,0 0,0 m 0,4.391 c 1.485,0 2.483,-1.074 2.483,-2.56 0,-1.399 -1.016,-2.56 -2.483,-2.56 -1.477,0 -2.493,1.161 -2.493,2.56 0,1.486 0.997,2.56 2.493,2.56" style="fill:#ffffff;fill-opacity:1;fill-rule:nonzero;stroke:none" id="path1838"/></svg:g><svg:g id="g1840" transform="translate(483.1505,144.7115)"><svg:path d="m 0,0 h -1.295 v -2.674 c 0,-0.566 0.345,-0.873 0.758,-0.873 0.278,0 0.479,0.086 0.612,0.172 v -0.767 c -0.201,-0.057 -0.478,-0.134 -0.766,-0.134 -0.93,0 -1.505,0.441 -1.505,1.419 V 0 h -1.103 v 0.729 h 1.103 V 1.86 l 0.901,0.288 V 0.729 l 1.295,0 z" style="fill:#ffffff;fill-opacity:1;fill-rule:nonzero;stroke:none" id="path1842"/></svg:g><svg:path d="m 484.517,145.441 h 0.901 v -4.891 h -0.901 z m 0.958,0.909 h -1.016 v 1.016 h 1.016 z" style="fill:#ffffff;fill-opacity:1;fill-rule:nonzero;stroke:none" id="path1844"/><svg:g id="g1846" transform="translate(490.1398,144.6158)"><svg:path d="m 0,0 c -0.346,0.144 -0.69,0.211 -0.979,0.211 -1.005,0 -1.572,-0.901 -1.572,-1.832 0,-0.872 0.47,-1.831 1.63,-1.831 0.307,0 0.691,0.096 0.969,0.279 L 0.114,-3.979 C -0.259,-4.151 -0.69,-4.18 -1.017,-4.18 c -1.476,0 -2.493,1.16 -2.493,2.559 0,1.487 0.997,2.56 2.493,2.56 0.365,0 0.834,-0.085 1.093,-0.19 z" style="fill:#ffffff;fill-opacity:1;fill-rule:nonzero;stroke:none" id="path1848"/></svg:g><svg:g id="g1850" transform="translate(458.3654,144.4366)"><svg:path d="M 0,0 H 0.83 C 1.758,0 2.306,0.411 2.306,1.064 2.306,1.68 1.836,2.07 0.937,2.07 H 0 Z m -0.976,2.929 h 1.67 c 1.347,0 2.646,-0.214 2.646,-1.845 0,-0.83 -0.615,-1.416 -1.406,-1.553 V -0.488 C 2.236,-0.605 2.383,-0.752 2.598,-1.171 L 3.887,-3.886 H 2.773 L 1.729,-1.523 C 1.426,-0.859 1.104,-0.859 0.586,-0.859 H 0 v -3.027 h -0.976 z" style="fill:#ffffff;fill-opacity:1;fill-rule:nonzero;stroke:none" id="path1852"/></svg:g><svg:g id="g1854" transform="translate(491.2667,141.5094)"><svg:path d="m 0,0 c 0.38,-0.23 0.923,-0.345 1.201,-0.345 0.441,0 0.985,0.172 0.985,0.7 0,0.892 -2.268,0.815 -2.268,2.186 0,1.016 0.811,1.505 1.846,1.505 0.452,0 0.822,-0.086 1.202,-0.191 L 2.883,3.068 C 2.668,3.192 2.065,3.318 1.84,3.318 1.347,3.318 0.88,3.125 0.88,2.724 c 0,-0.997 2.264,-0.711 2.264,-2.273 0,-1.045 -0.826,-1.525 -1.759,-1.525 -0.492,0 -0.994,0.048 -1.437,0.268 z" style="fill:#ffffff;fill-opacity:1;fill-rule:nonzero;stroke:none" id="path1856"/></svg:g></svg:g></svg:g></svg:g></svg:g></svg:g><svg:g><svg:g transform="translate(276.5, 421) scale(1 1) translate(0, 0) scale(1.3333333333333333 1.3333333333333333)  rotate(45.000000 212.500000 212.500000)"><svg:g id="surface376">
<svg:path style=" stroke:none;fill-rule:nonzero;fill:rgb(50%,50%,50%);fill-opacity:1;" d="M 0 0 L 425.195312 0 L 425.195312 425.195312 L 0 425.195312 Z M 0 0 "/>
<svg:path style=" stroke:none;fill-rule:nonzero;fill:rgb(100%,100%,100%);fill-opacity:1;" d="M 0 0 L 425.195312 0 L 425.195312 425.195312 L 0 425.195312 Z M 0 0 "/>
<svg:path style=" stroke:none;fill-rule:nonzero;fill:rgb(0%,0%,0%);fill-opacity:1;" d="M 0 0 L 425.195312 0 L 425.195312 425.195312 L 0 425.195312 Z M 0 0 "/>
<svg:path style=" stroke:none;fill-rule:nonzero;fill:rgb(100%,100%,100%);fill-opacity:1;" d="M 70.867188 70.867188 L 141.730469 70.867188 L 141.730469 141.730469 L 70.867188 141.730469 Z M 70.867188 70.867188 "/>
<svg:path style=" stroke:none;fill-rule:nonzero;fill:rgb(100%,100%,100%);fill-opacity:1;" d="M 283.464844 70.867188 L 354.332031 70.867188 L 354.332031 141.730469 L 283.464844 141.730469 Z M 283.464844 70.867188 "/>
<svg:path style=" stroke:none;fill-rule:nonzero;fill:rgb(100%,100%,100%);fill-opacity:1;" d="M 141.730469 141.730469 L 212.597656 141.730469 L 212.597656 212.597656 L 354.332031 212.597656 L 354.332031 354.332031 L 283.464844 354.332031 L 283.464844 283.464844 L 141.730469 283.464844 Z M 141.730469 141.730469 "/>
</svg:g>
</svg:g></svg:g><svg:g><svg:text x="729.95" y="1206.9414141414143" font-size="36" font-family="Verdana" font-weight="bold" letter-spacing="0" text-anchor="middle" fill="black">#25</svg:text></svg:g></svg>
