<?xml version='1.0' encoding='ASCII' standalone='yes'?>
<svg xmlns:dc="http://purl.org/dc/elements/1.1/" xmlns:cc="http://creativecommons.org/ns#" xmlns:rdf="http://www.w3.org/1999/02/22-rdf-syntax-ns#" xmlns:svg="http://www.w3.org/2000/svg" xmlns="http://www.w3.org/2000/svg" xmlns:sodipodi="http://sodipodi.sourceforge.net/DTD/sodipodi-0.dtd" xmlns:inkscape="http://www.inkscape.org/namespaces/inkscape" id="Calque_1" data-name="Calque 1" viewBox="0 0 793.70071 1122.5197" version="1.1" sodipodi:docname="base_90.svg" inkscape:version="0.92.3 (2405546, 2018-03-11)" width="210mm" height="297mm">
  <metadata id="metadata93">
    <rdf:RDF>
      <cc:Work rdf:about="">
        <dc:format>image/svg+xml</dc:format>
        <dc:type rdf:resource="http://purl.org/dc/dcmitype/StillImage"/>
        <dc:title/>
      </cc:Work>
    </rdf:RDF>
  </metadata>
  <sodipodi:namedview pagecolor="#ffffff" bordercolor="#666666" borderopacity="1" objecttolerance="10" gridtolerance="10" guidetolerance="10" inkscape:pageopacity="0" inkscape:pageshadow="2" inkscape:window-width="691" inkscape:window-height="480" id="namedview91" showgrid="false" inkscape:zoom="0.28032165" inkscape:cx="342.23165" inkscape:cy="420.94501" inkscape:window-x="67" inkscape:window-y="27" inkscape:window-maximized="0" inkscape:current-layer="Calque_1" units="mm"/>
  <defs id="defs4">
    <style id="style2">.cls-1{fill:#08a2ac;}.cls-2{font-size:64.01px;font-family:DINNextLTPro-BoldItalic, DIN Next LT Pro;font-weight:700;font-style:italic;}.cls-2,.cls-5{fill:#010101;}.cls-3{letter-spacing:-0.05em;}.cls-4{letter-spacing:-0.07em;}.cls-6{fill:#fff;}</style>
  </defs>
<svg:g><svg:g><svg:metadata id="metadata1864"><rdf:RDF><cc:Work rdf:about=""><dc:format>image/svg+xml</dc:format><dc:type rdf:resource="http://purl.org/dc/dcmitype/StillImage"/><dc:title/></cc:Work></rdf:RDF></svg:metadata><svg:defs id="defs1862"><svg:clipPath clipPathUnits="userSpaceOnUse" id="clipPath1874"><svg:path d="M 0,841.89 H 595.276 V 0 H 0 Z" id="path1872"/></svg:clipPath></svg:defs><sodipodi:namedview pagecolor="#ffffff" bordercolor="#666666" borderopacity="1" objecttolerance="10" gridtolerance="10" guidetolerance="10" inkscape:pageopacity="0" inkscape:pageshadow="2" inkscape:window-width="860" inkscape:window-height="480" id="namedview1860" showgrid="false" inkscape:zoom="0.89797953" inkscape:cx="396.85068" inkscape:cy="561.26001" inkscape:window-x="0" inkscape:window-y="0" inkscape:window-maximized="0" inkscape:current-layer="g1866"/><svg:g id="g1866" inkscape:groupmode="layer" inkscape:label="2021_DX_pepperARUCO_MAT_A4v2" transform="matrix(1.3333333,0,0,-1.3333333,0,1122.52)"><svg:g id="g1868"><svg:g id="g1870" clip-path="url(#clipPath1874)"><svg:g id="g1876" transform="translate(297.6514,814.675)"><svg:path d="m 0,0 c -5.481,0 -10.962,-1.427 -15.867,-4.284 l -244.514,-142.399 c -9.698,-5.647 -15.663,-16.023 -15.663,-27.245 v -587.609 c 0,-17.414 14.116,-31.529 31.529,-31.529 h 489.002 c 17.413,0 31.53,14.115 31.53,31.529 v 585.507 c 0,11.15 -5.889,21.47 -15.488,27.143 L 16.043,-4.386 C 11.097,-1.463 5.549,0 0,0 M 0,-31.529 244.487,-176.03 v -585.507 h -489.002 v 587.609 L 0,-31.529" style="fill:#0aa2ac;fill-opacity:1;fill-rule:nonzero;stroke:none" id="path1878"/></svg:g><svg:g id="g1880" transform="translate(245.8984,699.7643)"><svg:path d="M 0,0 C 0.064,0.384 0.32,0.64 0.704,0.64 H 8.449 C 8.833,0.64 9.025,0.384 8.961,0 l -2.88,-16.515 c -0.064,-0.256 0.064,-0.384 0.32,-0.384 h 13.698 c 0.256,0 0.384,0.128 0.448,0.384 L 23.492,0 c 0.064,0.384 0.32,0.64 0.704,0.64 h 7.745 c 0.384,0 0.64,-0.256 0.576,-0.64 l -7.489,-42.247 c -0.064,-0.384 -0.32,-0.64 -0.704,-0.64 h -7.745 c -0.385,0 -0.641,0.256 -0.577,0.64 l 3.009,16.963 c 0.064,0.256 -0.064,0.384 -0.32,0.384 H 4.929 c -0.257,0 -0.385,-0.128 -0.449,-0.384 L 1.472,-42.247 c -0.064,-0.384 -0.256,-0.64 -0.64,-0.64 h -7.746 c -0.383,0 -0.639,0.256 -0.575,0.64 z" style="fill:#010101;fill-opacity:1;fill-rule:nonzero;stroke:none" id="path1882"/></svg:g><svg:g id="g1884" transform="translate(302.9951,669.2951)"><svg:path d="m 0,0 c 1.473,3.009 3.393,14.53 3.393,17.667 0,3.777 -2.113,6.145 -5.889,6.145 -3.521,0 -6.018,-1.984 -7.49,-5.121 -1.536,-3.008 -3.456,-14.53 -3.456,-17.667 0,-3.776 2.176,-6.145 5.889,-6.145 3.52,0 6.017,1.985 7.553,5.121 m -22.532,0.192 c 0,3.905 2.113,17.027 4.353,21.636 3.456,6.977 9.218,9.985 16.899,9.985 8.193,0 13.762,-4.544 13.762,-13.314 0,-3.904 -2.112,-17.027 -4.352,-21.635 -3.457,-6.978 -9.154,-9.986 -16.9,-9.986 -8.193,0 -13.762,4.545 -13.762,13.314" style="fill:#010101;fill-opacity:1;fill-rule:nonzero;stroke:none" id="path1886"/></svg:g><svg:g id="g1888" transform="translate(325.0146,699.7643)"><svg:path d="M 0,0 C 0.063,0.384 0.319,0.64 0.704,0.64 H 7.553 C 8.064,0.64 8.385,0.448 8.513,0 l 6.209,-25.348 h 0.192 L 29.893,0 c 0.255,0.448 0.576,0.64 1.024,0.64 h 7.617 c 0.384,0 0.64,-0.256 0.576,-0.64 l -7.489,-42.247 c -0.064,-0.384 -0.32,-0.64 -0.704,-0.64 h -6.913 c -0.385,0 -0.641,0.256 -0.576,0.64 l 4.48,25.284 h -0.256 l -11.33,-19.075 c -0.32,-0.64 -0.768,-0.832 -1.28,-0.832 h -4.097 c -0.448,0 -0.832,0.192 -1.024,0.832 L 5.376,-16.963 H 5.12 L 0.64,-42.247 C 0.575,-42.631 0.319,-42.887 0,-42.887 h -6.914 c -0.384,0 -0.64,0.256 -0.575,0.64 z" style="fill:#010101;fill-opacity:1;fill-rule:nonzero;stroke:none" id="path1890"/></svg:g><svg:g id="g1892" transform="translate(372.1895,699.7643)"><svg:path d="m 0,0 c 0.064,0.384 0.32,0.64 0.704,0.64 h 26.757 c 0.384,0 0.576,-0.256 0.512,-0.64 L 26.82,-6.529 c -0.063,-0.384 -0.383,-0.64 -0.704,-0.64 H 8.065 c -0.255,0 -0.383,-0.128 -0.448,-0.384 l -1.599,-9.154 c -0.065,-0.256 0.063,-0.384 0.319,-0.384 h 14.978 c 0.385,0 0.577,-0.256 0.513,-0.64 l -1.152,-6.401 c -0.065,-0.384 -0.384,-0.64 -0.769,-0.64 H 4.929 c -0.256,0 -0.384,-0.128 -0.448,-0.384 l -1.665,-9.538 c -0.063,-0.256 0.065,-0.384 0.321,-0.384 h 18.05 c 0.385,0 0.577,-0.256 0.513,-0.64 l -1.217,-6.529 c -0.063,-0.384 -0.319,-0.64 -0.704,-0.64 H -6.913 c -0.384,0 -0.64,0.256 -0.575,0.64 z" style="fill:#010101;fill-opacity:1;fill-rule:nonzero;stroke:none" id="path1894"/></svg:g><svg:g id="g1896" transform="translate(235.8267,700.4035)"><svg:path d="M 0,0 -7.773,-43.766 H -43.852 Z" style="fill:#010101;fill-opacity:1;fill-rule:nonzero;stroke:none" id="path1898"/></svg:g><svg:g id="g1900" transform="translate(435.3252,93.1242)"><svg:path d="m 0,0 c -0.581,2.847 -1.185,3.811 -4.447,3.811 -1.384,0 -2.516,-0.386 -3.287,-1.049 -0.661,-0.548 -0.969,-1.242 -0.969,-2.098 0,-0.772 0.416,-1.713 0.941,-2.213 0.716,-0.689 1.766,-1.298 3.507,-2.179 2.157,-1.107 3.788,-1.745 4.975,-3.093 0.578,-0.669 1.161,-1.912 1.161,-3.266 0,-1.435 -0.499,-2.732 -1.548,-3.674 -1.161,-1.05 -2.983,-1.739 -5.444,-1.739 -1.601,0 -3.562,0.359 -5.167,0.937 -0.249,1.715 -0.549,2.876 -0.91,4.09 l 0.967,0.252 c 0.883,-3.4 2.431,-4.23 5.36,-4.23 1.269,0 2.459,0.359 3.315,1.024 0.857,0.667 1.41,1.63 1.41,2.874 0,1.102 -0.304,1.767 -0.885,2.459 -0.884,1.049 -2.377,1.711 -3.979,2.512 -1.686,0.856 -4.006,2.101 -4.807,3.232 -0.5,0.722 -0.828,1.631 -0.828,2.653 0,1.189 0.495,2.375 1.655,3.261 0.998,0.776 2.513,1.3 4.67,1.3 1.768,0 3.206,-0.223 4.618,-0.773 C 0.469,2.955 0.72,1.463 0.97,0.221 Z" style="fill:#ffffff;fill-opacity:1;fill-rule:nonzero;stroke:none" id="path1902"/></svg:g><svg:g id="g1904" transform="translate(439.4385,84.2814)"><svg:path d="m 0,0 c 0,-2.513 0.663,-4.169 1.738,-5.192 1.11,-0.97 2.433,-1.384 4.091,-1.384 1.737,0 3.097,0.444 4.198,1.439 1.05,1.022 1.686,2.652 1.686,5.137 0,2.183 -0.605,3.869 -1.686,4.946 C 8.947,5.972 7.677,6.467 5.829,6.467 4.058,6.467 2.79,5.972 1.712,4.975 0.605,3.896 0,2.183 0,0 M 1.985,-0.026 C 1.985,2.103 2.374,3.481 3.12,4.45 3.782,5.221 4.697,5.606 5.8,5.606 6.959,5.606 7.899,5.221 8.535,4.45 9.28,3.481 9.67,2.103 9.67,-0.026 9.67,-2.265 9.201,-3.672 8.508,-4.558 7.874,-5.273 6.985,-5.72 5.829,-5.72 c -1.159,0 -2.047,0.447 -2.68,1.162 -0.691,0.886 -1.164,2.293 -1.164,4.532" style="fill:#ffffff;fill-opacity:1;fill-rule:nonzero;stroke:none" id="path1906"/></svg:g><svg:g id="g1908" transform="translate(454.8467,89.5598)"><svg:path d="M 0,0 H -2.046 V 0.882 H 0 V 2.623 C 0,4.311 0.416,5.579 1.327,6.52 1.989,7.156 2.929,7.599 4.145,7.599 5.276,7.599 5.939,7.294 6.493,6.937 7.295,6.411 7.683,5.72 7.683,5.225 7.683,4.668 7.403,4.363 6.905,4.363 6.246,4.363 5.997,4.946 5.691,5.555 5.389,6.162 5.026,6.742 4.172,6.742 3.62,6.742 3.179,6.549 2.788,6.133 2.239,5.47 1.907,4.478 1.907,2.516 V 0.882 H 5.414 V 0 H 1.907 v -9.032 c 0,-1.659 0.111,-1.828 2.184,-1.828 v -0.691 h -6.165 v 0.691 c 1.936,0 2.074,0.194 2.074,1.882 z" style="fill:#ffffff;fill-opacity:1;fill-rule:nonzero;stroke:none" id="path1910"/></svg:g><svg:g id="g1912" transform="translate(461.4561,90.1945)"><svg:path d="M 0,0 C 1.738,0.164 2.929,0.832 3.286,3.729 H 3.974 V 0.247 h 2.93 V -0.635 H 3.974 V -9.56 c 0,-1.296 0.388,-1.961 1.354,-1.961 0.639,0 1.162,0.22 1.716,0.638 l 0.44,-0.612 c -0.716,-0.634 -1.574,-0.994 -2.708,-0.994 -1.409,0 -2.707,0.665 -2.707,2.822 v 9.032 l -2.069,0 z" style="fill:#ffffff;fill-opacity:1;fill-rule:nonzero;stroke:none" id="path1914"/></svg:g><svg:g id="g1916" transform="translate(474.7607,87.7629)"><svg:path d="m 0,0 h 3.431 c 2.26,0 3.781,-0.387 4.752,-1.132 0.989,-0.748 1.52,-1.824 1.52,-3.037 0,-1.439 -0.418,-2.462 -1.082,-3.153 C 7.682,-8.288 6.416,-8.704 4.451,-8.704 H 1.022 C 0.166,-8.704 0,-8.51 0,-7.347 Z m -2.044,-6.851 c 0,-1.959 -0.166,-2.099 -2.237,-2.099 v -0.804 h 9.008 c 2.873,0 4.503,0.664 5.581,1.715 1.103,1.05 1.547,2.431 1.547,3.81 0,1.523 -0.775,2.628 -1.772,3.401 C 8.9,0.083 7.294,0.552 5.502,0.608 V 0.664 C 7.241,0.913 8.403,1.465 9.23,2.21 10.249,3.123 10.61,4.341 10.61,5.387 10.61,6.798 9.893,7.904 8.847,8.62 7.354,9.616 5.691,9.837 3.15,9.837 H -4.281 V 9.036 c 2.071,0 2.237,-0.138 2.237,-2.129 z M 0,7.818 c 0,0.749 0.109,0.968 0.832,0.968 h 2.621 c 1.938,0 3.18,-0.44 3.951,-1.078 C 8.016,7.214 8.487,6.135 8.487,5.195 8.487,3.87 8.016,2.903 7.212,2.238 6.217,1.408 4.67,1.05 2.763,1.05 H 0 Z" style="fill:#ffffff;fill-opacity:1;fill-rule:nonzero;stroke:none" id="path1918"/></svg:g><svg:g id="g1920" transform="translate(497.71,86.9074)"><svg:path d="m 0,0 c 0,1.216 -0.195,1.962 -0.912,2.762 -0.691,0.772 -1.659,1.079 -3.315,1.079 -1.465,0 -2.432,-0.36 -3.151,-0.776 -0.885,-0.522 -1.435,-1.272 -1.435,-1.931 0,-0.418 0.244,-0.802 0.772,-0.802 0.578,0 0.83,0.273 0.965,0.666 0.252,0.605 0.499,1.075 0.861,1.351 0.495,0.386 1.049,0.631 1.876,0.631 0.912,0 1.574,-0.27 1.989,-0.826 0.358,-0.47 0.443,-1.299 0.443,-1.931 v -1.191 l -1.63,-0.388 c -1.771,-0.385 -3.147,-0.939 -4.089,-1.572 -1.217,-0.8 -1.711,-1.799 -1.711,-3.067 0,-1.05 0.438,-1.854 1.102,-2.375 0.718,-0.582 1.658,-0.832 2.543,-0.832 1.824,0 2.927,0.637 3.865,1.523 h 0.086 c 0.247,-0.915 0.829,-1.41 1.796,-1.41 0.717,0 1.214,0.165 1.684,0.387 L 1.576,-8.068 C 1.352,-8.208 1.101,-8.26 0.829,-8.26 0.278,-8.26 0,-7.709 0,-6.467 Z m -1.907,-6.715 c -0.693,-0.689 -1.63,-1.433 -2.982,-1.433 -0.831,0 -1.411,0.273 -1.826,0.664 -0.415,0.41 -0.607,1.017 -0.607,1.74 0,1.27 0.774,1.988 1.849,2.567 1.023,0.634 2.377,1.025 3.566,1.353 z" style="fill:#ffffff;fill-opacity:1;fill-rule:nonzero;stroke:none" id="path1922"/></svg:g><svg:g id="g1924" transform="translate(511.7686,80.4709)"><svg:path d="m 0,0 c 0,-1.549 0.114,-1.771 1.355,-1.771 v -0.691 h -4.671 v 0.691 c 1.329,0 1.411,0.168 1.411,1.828 v 6.159 c 0,1.076 -0.138,1.964 -0.663,2.515 -0.361,0.358 -0.856,0.55 -1.599,0.55 -1.164,0 -2.404,-1.052 -3.508,-2.569 V 0.057 c 0,-1.66 0.024,-1.828 1.32,-1.828 v -0.691 h -4.831 v 0.691 c 1.491,0 1.601,0.168 1.601,1.828 v 6.712 c 0,1.601 -0.138,1.794 -1.601,1.767 v 0.61 c 1.215,0.191 2.155,0.467 3.066,1.131 l 0.274,-0.165 0.112,-2.128 h 0.059 c 1.104,1.407 2.507,2.293 4.032,2.293 1.186,0 2.043,-0.306 2.65,-0.886 C -0.357,8.785 0,7.79 0,6.326 Z" style="fill:#ffffff;fill-opacity:1;fill-rule:nonzero;stroke:none" id="path1926"/></svg:g><svg:g id="g1928" transform="translate(518.2461,84.8068)"><svg:path d="M 0,0 3.949,3.844 C 4.693,4.531 4.89,4.945 3.562,4.945 v 0.69 H 7.65 V 4.945 C 6.852,4.917 6.41,4.726 5.774,4.115 L 2.872,1.355 7.098,-5.056 C 7.71,-6.022 8.313,-6.134 9.144,-6.107 V -6.798 H 5.994 L 1.493,0.164 -0.056,-1.355 v -2.924 c 0,-1.606 0.056,-1.828 1.574,-1.828 v -0.691 h -5.136 v 0.691 c 1.6,0 1.654,0.222 1.654,1.828 V 8.814 c 0,1.603 -0.166,1.796 -1.654,1.796 v 0.607 c 1.35,0.197 2.292,0.502 3.314,1.135 l 0.248,-0.165 V 0 Z" style="fill:#ffffff;fill-opacity:1;fill-rule:nonzero;stroke:none" id="path1930"/></svg:g><svg:path d="m 415.904,91.197 h -27.622 v 6.789 h 27.622 z" style="fill:#ffffff;fill-opacity:1;fill-rule:nonzero;stroke:none" id="path1932"/><svg:path d="m 415.904,77.622 h -27.622 v 6.788 h 27.622 z" style="fill:#ffffff;fill-opacity:1;fill-rule:nonzero;stroke:none" id="path1934"/><svg:g id="g1936" transform="translate(498.1816,67.8908)"><svg:path d="M 0,0 C 1.055,0 1.524,0.959 1.524,1.831 1.524,2.761 0.959,3.663 0,3.663 -0.969,3.663 -1.534,2.761 -1.534,1.831 -1.534,0.959 -1.064,0 0,0 m 0,4.391 c 1.486,0 2.483,-1.074 2.483,-2.56 0,-1.399 -1.016,-2.56 -2.483,-2.56 -1.477,0 -2.493,1.161 -2.493,2.56 0,1.486 0.997,2.56 2.493,2.56" style="fill:#ffffff;fill-opacity:1;fill-rule:nonzero;stroke:none" id="path1938"/></svg:g><svg:g id="g1940" transform="translate(504.1133,71.5539)"><svg:path d="m 0,0 c -0.978,0 -1.447,-0.931 -1.447,-1.841 0,-0.815 0.422,-1.822 1.438,-1.822 0.968,0 1.37,1.084 1.352,1.851 C 1.361,-0.931 0.979,0 0,0 m -2.349,2.538 h 0.902 v -2.596 h 0.018 c 0.279,0.451 0.768,0.786 1.621,0.786 1.419,0 2.11,-1.16 2.11,-2.473 0,-1.343 -0.623,-2.647 -2.1,-2.647 -0.873,0 -1.43,0.442 -1.669,0.806 h -0.019 v -0.691 h -0.863 z" style="fill:#ffffff;fill-opacity:1;fill-rule:nonzero;stroke:none" id="path1942"/></svg:g><svg:g id="g1944" transform="translate(509.9102,67.8908)"><svg:path d="M 0,0 C 1.055,0 1.523,0.959 1.523,1.831 1.523,2.761 0.958,3.663 0,3.663 -0.969,3.663 -1.535,2.761 -1.535,1.831 -1.535,0.959 -1.064,0 0,0 m 0,4.391 c 1.485,0 2.483,-1.074 2.483,-2.56 0,-1.399 -1.017,-2.56 -2.483,-2.56 -1.477,0 -2.493,1.161 -2.493,2.56 0,1.486 0.997,2.56 2.493,2.56" style="fill:#ffffff;fill-opacity:1;fill-rule:nonzero;stroke:none" id="path1946"/></svg:g><svg:g id="g1948" transform="translate(516.1289,71.4387)"><svg:path d="m 0,0 h -1.294 v -2.675 c 0,-0.565 0.345,-0.873 0.757,-0.873 0.278,0 0.48,0.087 0.613,0.173 v -0.768 c -0.201,-0.056 -0.478,-0.133 -0.766,-0.133 -0.93,0 -1.505,0.441 -1.505,1.419 V 0 h -1.103 v 0.729 h 1.103 V 1.86 l 0.901,0.287 V 0.729 l 1.294,0 z" style="fill:#ffffff;fill-opacity:1;fill-rule:nonzero;stroke:none" id="path1950"/></svg:g><svg:path d="m 517.496,72.167 h 0.901 v -4.891 h -0.901 z m 0.958,0.909 h -1.016 v 1.016 h 1.016 z" style="fill:#ffffff;fill-opacity:1;fill-rule:nonzero;stroke:none" id="path1952"/><svg:g id="g1954" transform="translate(523.1182,71.342)"><svg:path d="m 0,0 c -0.346,0.145 -0.69,0.212 -0.978,0.212 -1.006,0 -1.572,-0.902 -1.572,-1.832 0,-0.872 0.47,-1.831 1.63,-1.831 0.307,0 0.691,0.096 0.968,0.278 L 0.115,-3.979 C -0.259,-4.151 -0.69,-4.18 -1.017,-4.18 c -1.475,0 -2.492,1.16 -2.492,2.56 0,1.486 0.997,2.559 2.492,2.559 0.365,0 0.835,-0.085 1.094,-0.19 z" style="fill:#ffffff;fill-opacity:1;fill-rule:nonzero;stroke:none" id="path1956"/></svg:g><svg:g id="g1958" transform="translate(491.3447,71.1633)"><svg:path d="M 0,0 H 0.83 C 1.758,0 2.305,0.41 2.305,1.064 2.305,1.68 1.836,2.07 0.937,2.07 H 0 Z m -0.977,2.929 h 1.67 c 1.348,0 2.647,-0.214 2.647,-1.845 0,-0.83 -0.615,-1.416 -1.406,-1.553 V -0.488 C 2.236,-0.605 2.383,-0.752 2.598,-1.172 L 3.887,-3.887 H 2.773 L 1.729,-1.523 C 1.426,-0.859 1.104,-0.859 0.586,-0.859 H 0 v -3.028 h -0.977 z" style="fill:#ffffff;fill-opacity:1;fill-rule:nonzero;stroke:none" id="path1960"/></svg:g><svg:g id="g1962" transform="translate(524.2461,68.2365)"><svg:path d="m 0,0 c 0.38,-0.23 0.923,-0.346 1.201,-0.346 0.441,0 0.985,0.173 0.985,0.7 0,0.892 -2.268,0.815 -2.268,2.186 0,1.017 0.811,1.505 1.846,1.505 0.452,0 0.822,-0.085 1.201,-0.191 L 2.883,3.067 C 2.667,3.191 2.065,3.317 1.84,3.317 1.347,3.317 0.88,3.125 0.88,2.723 c 0,-0.997 2.264,-0.71 2.264,-2.273 0,-1.045 -0.826,-1.524 -1.759,-1.524 -0.492,0 -0.995,0.048 -1.437,0.268 z" style="fill:#ffffff;fill-opacity:1;fill-rule:nonzero;stroke:none" id="path1964"/></svg:g><svg:path d="M 85.026,606.538 H 510.249 V 181.316 H 85.026 Z" style="fill:#010101;fill-opacity:1;fill-rule:nonzero;stroke:none" id="path1966"/><svg:path d="m 155.897,323.056 h 70.87 v -70.87 h -70.87 z" style="fill:#010101;fill-opacity:1;fill-rule:nonzero;stroke:none" id="path1968"/><svg:path d="m 155.897,393.927 h 70.87 v -70.871 h -70.87 z" style="fill:#010101;fill-opacity:1;fill-rule:nonzero;stroke:none" id="path1970"/><svg:path d="m 155.897,464.797 h 70.87 v -70.87 h -70.87 z" style="fill:#ffffff;fill-opacity:1;fill-rule:nonzero;stroke:none" id="path1972"/><svg:path d="m 155.897,535.668 h 70.87 v -70.871 h -70.87 z" style="fill:#ffffff;fill-opacity:1;fill-rule:nonzero;stroke:none" id="path1974"/><svg:path d="m 226.767,323.056 h 70.871 v -70.87 h -70.871 z" style="fill:#010101;fill-opacity:1;fill-rule:nonzero;stroke:none" id="path1976"/><svg:path d="m 226.767,393.927 h 70.871 v -70.871 h -70.871 z" style="fill:#010101;fill-opacity:1;fill-rule:nonzero;stroke:none" id="path1978"/><svg:path d="m 226.767,464.797 h 70.871 v -70.87 h -70.871 z" style="fill:#ffffff;fill-opacity:1;fill-rule:nonzero;stroke:none" id="path1980"/><svg:path d="m 226.767,535.668 h 70.871 v -70.871 h -70.871 z" style="fill:#ffffff;fill-opacity:1;fill-rule:nonzero;stroke:none" id="path1982"/><svg:path d="m 297.638,323.056 h 70.87 v -70.87 h -70.87 z" style="fill:#010101;fill-opacity:1;fill-rule:nonzero;stroke:none" id="path1984"/><svg:path d="m 297.638,393.927 h 70.87 v -70.871 h -70.87 z" style="fill:#010101;fill-opacity:1;fill-rule:nonzero;stroke:none" id="path1986"/><svg:path d="m 297.638,464.797 h 70.87 v -70.87 h -70.87 z" style="fill:#ffffff;fill-opacity:1;fill-rule:nonzero;stroke:none" id="path1988"/><svg:path d="m 297.638,535.668 h 70.87 v -70.871 h -70.87 z" style="fill:#010101;fill-opacity:1;fill-rule:nonzero;stroke:none" id="path1990"/><svg:path d="m 368.508,323.056 h 70.871 v -70.87 h -70.871 z" style="fill:#ffffff;fill-opacity:1;fill-rule:nonzero;stroke:none" id="path1992"/><svg:path d="m 368.508,393.927 h 70.871 v -70.871 h -70.871 z" style="fill:#ffffff;fill-opacity:1;fill-rule:nonzero;stroke:none" id="path1994"/><svg:path d="m 368.508,464.797 h 70.871 v -70.87 h -70.871 z" style="fill:#010101;fill-opacity:1;fill-rule:nonzero;stroke:none" id="path1996"/><svg:path d="m 368.508,535.668 h 70.871 v -70.871 h -70.871 z" style="fill:#ffffff;fill-opacity:1;fill-rule:nonzero;stroke:none" id="path1998"/><svg:path d="M 550.156,119.853 H 45.495 V 43.23 h 504.661 z" style="fill:#0aa2ac;fill-opacity:1;fill-rule:nonzero;stroke:none" id="path2000"/><svg:g id="g2002" transform="translate(450.709,82.384)"><svg:path d="M 0,0 C -0.58,2.847 -1.185,3.811 -4.446,3.811 -5.83,3.811 -6.962,3.425 -7.733,2.762 -8.395,2.214 -8.702,1.52 -8.702,0.663 c 0,-0.772 0.416,-1.712 0.941,-2.212 0.716,-0.689 1.765,-1.298 3.507,-2.179 2.157,-1.107 3.787,-1.745 4.975,-3.093 0.578,-0.669 1.161,-1.912 1.161,-3.266 0,-1.435 -0.5,-2.732 -1.549,-3.674 -1.16,-1.05 -2.982,-1.739 -5.443,-1.739 -1.602,0 -3.562,0.359 -5.167,0.937 -0.249,1.715 -0.55,2.876 -0.911,4.09 l 0.968,0.252 c 0.883,-3.4 2.431,-4.23 5.36,-4.23 1.269,0 2.458,0.359 3.315,1.024 0.856,0.667 1.41,1.63 1.41,2.874 0,1.102 -0.304,1.767 -0.885,2.459 -0.884,1.049 -2.377,1.711 -3.979,2.512 -1.686,0.856 -4.006,2.101 -4.807,3.232 -0.5,0.721 -0.828,1.631 -0.828,2.653 0,1.189 0.495,2.375 1.655,3.261 0.997,0.776 2.513,1.299 4.67,1.299 1.767,0 3.206,-0.222 4.617,-0.772 C 0.47,2.954 0.721,1.463 0.97,0.221 Z" style="fill:#ffffff;fill-opacity:1;fill-rule:nonzero;stroke:none" id="path2004"/></svg:g><svg:g id="g2006" transform="translate(454.8223,73.5412)"><svg:path d="m 0,0 c 0,-2.513 0.664,-4.17 1.739,-5.192 1.11,-0.97 2.433,-1.384 4.091,-1.384 1.737,0 3.097,0.444 4.197,1.438 1.051,1.023 1.687,2.653 1.687,5.138 0,2.183 -0.605,3.869 -1.687,4.946 C 8.948,5.972 7.678,6.467 5.83,6.467 4.059,6.467 2.79,5.972 1.712,4.975 0.605,3.896 0,2.183 0,0 m 1.986,-0.026 c 0,2.129 0.389,3.507 1.135,4.476 0.662,0.771 1.577,1.156 2.68,1.156 C 6.96,5.606 7.9,5.221 8.535,4.45 9.281,3.481 9.67,2.103 9.67,-0.026 9.67,-2.265 9.202,-3.673 8.508,-4.558 7.875,-5.273 6.986,-5.72 5.83,-5.72 c -1.159,0 -2.047,0.447 -2.68,1.162 -0.692,0.885 -1.164,2.293 -1.164,4.532" style="fill:#ffffff;fill-opacity:1;fill-rule:nonzero;stroke:none" id="path2008"/></svg:g><svg:g id="g2010" transform="translate(470.2314,78.8195)"><svg:path d="M 0,0 H -2.046 V 0.882 H 0 V 2.623 C 0,4.311 0.416,5.579 1.326,6.519 1.989,7.156 2.929,7.598 4.145,7.598 5.276,7.598 5.939,7.294 6.493,6.937 7.294,6.411 7.683,5.72 7.683,5.224 7.683,4.668 7.403,4.363 6.905,4.363 6.246,4.363 5.996,4.946 5.691,5.555 5.389,6.162 5.026,6.741 4.172,6.741 3.62,6.741 3.179,6.549 2.788,6.133 2.239,5.47 1.907,4.477 1.907,2.516 V 0.882 H 5.414 V 0 H 1.907 v -9.032 c 0,-1.66 0.11,-1.828 2.184,-1.828 v -0.691 h -6.165 v 0.691 c 1.936,0 2.074,0.194 2.074,1.882 z" style="fill:#ffffff;fill-opacity:1;fill-rule:nonzero;stroke:none" id="path2012"/></svg:g><svg:g id="g2014" transform="translate(476.8398,79.4543)"><svg:path d="M 0,0 C 1.739,0.164 2.93,0.831 3.286,3.729 H 3.975 V 0.247 h 2.93 V -0.635 H 3.975 V -9.56 c 0,-1.296 0.388,-1.961 1.354,-1.961 0.639,0 1.162,0.22 1.716,0.638 l 0.44,-0.612 c -0.716,-0.634 -1.575,-0.994 -2.709,-0.994 -1.408,0 -2.706,0.665 -2.706,2.822 v 9.032 H 0 Z" style="fill:#ffffff;fill-opacity:1;fill-rule:nonzero;stroke:none" id="path2016"/></svg:g><svg:g id="g2018" transform="translate(490.1455,77.0226)"><svg:path d="M 0,0 H 3.431 C 5.69,0 7.212,-0.387 8.183,-1.132 9.172,-1.88 9.702,-2.956 9.702,-4.17 9.702,-5.608 9.285,-6.631 8.621,-7.323 7.682,-8.288 6.415,-8.705 4.451,-8.705 H 1.022 C 0.166,-8.705 0,-8.51 0,-7.347 Z m -2.045,-6.851 c 0,-1.96 -0.165,-2.1 -2.236,-2.1 v -0.803 h 9.008 c 2.873,0 4.502,0.664 5.581,1.715 1.102,1.05 1.547,2.431 1.547,3.81 0,1.523 -0.775,2.627 -1.772,3.401 C 8.9,0.083 7.294,0.552 5.502,0.608 V 0.664 C 7.241,0.913 8.403,1.465 9.229,2.21 10.248,3.123 10.61,4.341 10.61,5.387 10.61,6.798 9.893,7.904 8.847,8.62 7.354,9.616 5.69,9.837 3.149,9.837 h -7.43 V 9.036 c 2.071,0 2.236,-0.138 2.236,-2.129 z M 0,7.818 C 0,8.567 0.108,8.786 0.832,8.786 H 3.453 C 5.39,8.786 6.632,8.346 7.404,7.708 8.016,7.214 8.486,6.134 8.486,5.195 8.486,3.87 8.016,2.902 7.212,2.238 6.216,1.408 4.67,1.05 2.763,1.05 H 0 Z" style="fill:#ffffff;fill-opacity:1;fill-rule:nonzero;stroke:none" id="path2020"/></svg:g><svg:g id="g2022" transform="translate(513.0947,76.1672)"><svg:path d="m 0,0 c 0,1.215 -0.195,1.962 -0.912,2.761 -0.691,0.773 -1.659,1.08 -3.315,1.08 -1.465,0 -2.432,-0.36 -3.151,-0.776 -0.885,-0.522 -1.435,-1.272 -1.435,-1.931 0,-0.418 0.243,-0.802 0.772,-0.802 0.577,0 0.83,0.273 0.964,0.666 0.252,0.605 0.5,1.075 0.862,1.351 0.495,0.386 1.049,0.631 1.876,0.631 0.911,0 1.574,-0.27 1.989,-0.826 0.358,-0.47 0.442,-1.299 0.442,-1.932 v -1.191 l -1.629,-0.387 c -1.771,-0.385 -3.148,-0.939 -4.089,-1.572 -1.218,-0.8 -1.712,-1.799 -1.712,-3.067 0,-1.05 0.439,-1.855 1.103,-2.375 0.717,-0.582 1.658,-0.832 2.543,-0.832 1.823,0 2.927,0.637 3.865,1.523 h 0.086 c 0.247,-0.915 0.829,-1.41 1.796,-1.41 0.717,0 1.214,0.165 1.684,0.387 L 1.576,-8.068 C 1.352,-8.208 1.101,-8.26 0.828,-8.26 0.278,-8.26 0,-7.709 0,-6.468 Z M -1.908,-6.715 C -2.6,-7.404 -3.537,-8.148 -4.89,-8.148 c -0.83,0 -1.41,0.273 -1.826,0.664 -0.414,0.41 -0.606,1.016 -0.606,1.739 0,1.27 0.774,1.989 1.849,2.568 1.023,0.634 2.377,1.025 3.565,1.353 z" style="fill:#ffffff;fill-opacity:1;fill-rule:nonzero;stroke:none" id="path2024"/></svg:g><svg:g id="g2026" transform="translate(527.1533,69.7307)"><svg:path d="m 0,0 c 0,-1.549 0.114,-1.771 1.355,-1.771 v -0.691 h -4.671 v 0.691 c 1.329,0 1.41,0.167 1.41,1.828 v 6.159 c 0,1.076 -0.137,1.963 -0.663,2.514 -0.36,0.359 -0.855,0.55 -1.598,0.55 -1.164,0 -2.404,-1.051 -3.509,-2.568 V 0.057 c 0,-1.661 0.025,-1.828 1.321,-1.828 v -0.691 h -4.832 v 0.691 c 1.491,0 1.602,0.167 1.602,1.828 v 6.712 c 0,1.6 -0.138,1.794 -1.602,1.767 v 0.61 c 1.216,0.191 2.155,0.467 3.067,1.131 l 0.274,-0.165 0.112,-2.128 h 0.058 c 1.105,1.407 2.508,2.293 4.032,2.293 1.186,0 2.044,-0.306 2.651,-0.886 C -0.357,8.785 0,7.79 0,6.326 Z" style="fill:#ffffff;fill-opacity:1;fill-rule:nonzero;stroke:none" id="path2028"/></svg:g><svg:g id="g2030" transform="translate(533.6309,74.0666)"><svg:path d="M 0,0 3.949,3.843 C 4.693,4.531 4.89,4.944 3.562,4.944 V 5.635 H 7.65 V 4.944 C 6.852,4.916 6.41,4.726 5.773,4.115 L 2.872,1.354 7.097,-5.056 C 7.71,-6.022 8.313,-6.134 9.144,-6.107 V -6.798 H 5.993 l -4.5,6.962 -1.55,-1.519 v -2.924 c 0,-1.606 0.057,-1.828 1.575,-1.828 v -0.691 h -5.136 v 0.691 c 1.6,0 1.653,0.222 1.653,1.828 V 8.813 c 0,1.604 -0.166,1.797 -1.653,1.797 v 0.606 c 1.35,0.198 2.292,0.503 3.314,1.135 l 0.247,-0.164 V 0 Z" style="fill:#ffffff;fill-opacity:1;fill-rule:nonzero;stroke:none" id="path2032"/></svg:g><svg:path d="m 431.289,80.457 h -27.623 v 6.788 h 27.623 z" style="fill:#ffffff;fill-opacity:1;fill-rule:nonzero;stroke:none" id="path2034"/><svg:path d="m 431.289,66.881 h -27.623 v 6.789 h 27.623 z" style="fill:#ffffff;fill-opacity:1;fill-rule:nonzero;stroke:none" id="path2036"/><svg:g id="g2038" transform="translate(513.5654,57.1506)"><svg:path d="M 0,0 C 1.055,0 1.524,0.959 1.524,1.831 1.524,2.761 0.96,3.663 0,3.663 -0.968,3.663 -1.533,2.761 -1.533,1.831 -1.533,0.959 -1.063,0 0,0 m 0,4.391 c 1.486,0 2.484,-1.074 2.484,-2.56 0,-1.399 -1.016,-2.56 -2.484,-2.56 -1.477,0 -2.492,1.161 -2.492,2.56 0,1.486 0.997,2.56 2.492,2.56" style="fill:#ffffff;fill-opacity:1;fill-rule:nonzero;stroke:none" id="path2040"/></svg:g><svg:g id="g2042" transform="translate(519.498,60.8137)"><svg:path d="m 0,0 c -0.978,0 -1.447,-0.931 -1.447,-1.841 0,-0.815 0.421,-1.822 1.437,-1.822 0.969,0 1.371,1.084 1.353,1.851 C 1.361,-0.931 0.979,0 0,0 m -2.35,2.538 h 0.903 v -2.596 h 0.018 c 0.279,0.451 0.768,0.786 1.62,0.786 1.42,0 2.11,-1.16 2.11,-2.474 0,-1.342 -0.623,-2.646 -2.1,-2.646 -0.873,0 -1.429,0.441 -1.668,0.806 H -1.486 V -4.277 H -2.35 Z" style="fill:#ffffff;fill-opacity:1;fill-rule:nonzero;stroke:none" id="path2044"/></svg:g><svg:g id="g2046" transform="translate(525.2949,57.1506)"><svg:path d="M 0,0 C 1.055,0 1.523,0.959 1.523,1.831 1.523,2.761 0.958,3.663 0,3.663 -0.969,3.663 -1.535,2.761 -1.535,1.831 -1.535,0.959 -1.065,0 0,0 m 0,4.391 c 1.485,0 2.482,-1.074 2.482,-2.56 0,-1.399 -1.016,-2.56 -2.482,-2.56 -1.478,0 -2.494,1.161 -2.494,2.56 0,1.486 0.997,2.56 2.494,2.56" style="fill:#ffffff;fill-opacity:1;fill-rule:nonzero;stroke:none" id="path2048"/></svg:g><svg:g id="g2050" transform="translate(531.5137,60.6984)"><svg:path d="m 0,0 h -1.294 v -2.675 c 0,-0.565 0.345,-0.873 0.757,-0.873 0.278,0 0.48,0.086 0.613,0.172 V -4.143 C -0.125,-4.2 -0.402,-4.276 -0.69,-4.276 c -0.93,0 -1.506,0.44 -1.506,1.418 V 0 h -1.102 v 0.729 h 1.102 v 1.13 l 0.902,0.288 V 0.729 l 1.294,0 z" style="fill:#ffffff;fill-opacity:1;fill-rule:nonzero;stroke:none" id="path2052"/></svg:g><svg:path d="m 532.88,61.427 h 0.901 v -4.891 h -0.901 z m 0.959,0.909 h -1.016 v 1.016 h 1.016 z" style="fill:#ffffff;fill-opacity:1;fill-rule:nonzero;stroke:none" id="path2054"/><svg:g id="g2056" transform="translate(538.5029,60.6017)"><svg:path d="m 0,0 c -0.346,0.145 -0.69,0.212 -0.978,0.212 -1.006,0 -1.573,-0.902 -1.573,-1.832 0,-0.872 0.471,-1.831 1.63,-1.831 0.308,0 0.692,0.096 0.969,0.278 L 0.115,-3.979 C -0.259,-4.151 -0.69,-4.18 -1.017,-4.18 c -1.475,0 -2.492,1.16 -2.492,2.56 0,1.486 0.997,2.559 2.492,2.559 0.365,0 0.835,-0.085 1.094,-0.19 z" style="fill:#ffffff;fill-opacity:1;fill-rule:nonzero;stroke:none" id="path2058"/></svg:g><svg:g id="g2060" transform="translate(506.7295,60.423)"><svg:path d="M 0,0 H 0.83 C 1.757,0 2.305,0.41 2.305,1.063 2.305,1.68 1.836,2.07 0.937,2.07 H 0 Z m -0.977,2.929 h 1.67 c 1.348,0 2.646,-0.214 2.646,-1.845 0,-0.83 -0.614,-1.416 -1.405,-1.553 V -0.488 C 2.235,-0.605 2.383,-0.752 2.598,-1.172 L 3.886,-3.887 H 2.773 L 1.729,-1.523 C 1.426,-0.859 1.104,-0.859 0.586,-0.859 H 0 v -3.028 h -0.977 z" style="fill:#ffffff;fill-opacity:1;fill-rule:nonzero;stroke:none" id="path2062"/></svg:g><svg:g id="g2064" transform="translate(539.6299,57.4953)"><svg:path d="m 0,0 c 0.381,-0.229 0.924,-0.345 1.201,-0.345 0.442,0 0.986,0.172 0.986,0.7 0,0.892 -2.268,0.815 -2.268,2.186 0,1.017 0.81,1.505 1.846,1.505 0.451,0 0.821,-0.085 1.201,-0.191 L 2.884,3.068 C 2.668,3.192 2.066,3.318 1.841,3.318 1.348,3.318 0.88,3.126 0.88,2.724 c 0,-0.997 2.265,-0.71 2.265,-2.273 0,-1.045 -0.826,-1.524 -1.759,-1.524 -0.493,0 -0.995,0.048 -1.437,0.267 z" style="fill:#ffffff;fill-opacity:1;fill-rule:nonzero;stroke:none" id="path2066"/></svg:g></svg:g></svg:g></svg:g></svg:g></svg:g><svg:g><svg:g transform="translate(113.43434343434345, 312.9141414141414) scale(1 1) translate(0, 0) scale(1.3333333333333333 1.3333333333333333)  rotate(0.000000 212.500000 212.500000)"><svg:g id="surface436">
<svg:path style=" stroke:none;fill-rule:nonzero;fill:rgb(50%,50%,50%);fill-opacity:1;" d="M 0 0 L 425.195312 0 L 425.195312 425.195312 L 0 425.195312 Z M 0 0 "/>
<svg:path style=" stroke:none;fill-rule:nonzero;fill:rgb(100%,100%,100%);fill-opacity:1;" d="M 0 0 L 425.195312 0 L 425.195312 425.195312 L 0 425.195312 Z M 0 0 "/>
<svg:path style=" stroke:none;fill-rule:nonzero;fill:rgb(0%,0%,0%);fill-opacity:1;" d="M 0 0 L 425.195312 0 L 425.195312 425.195312 L 0 425.195312 Z M 0 0 "/>
<svg:path style=" stroke:none;fill-rule:nonzero;fill:rgb(100%,100%,100%);fill-opacity:1;" d="M 141.730469 141.730469 L 212.597656 141.730469 L 212.597656 212.597656 L 354.332031 212.597656 L 354.332031 354.332031 L 70.867188 354.332031 L 70.867188 212.597656 L 141.730469 212.597656 Z M 141.730469 141.730469 "/>
</svg:g>
</svg:g></svg:g><svg:g><svg:text x="397.020202020202" y="933.942760942761" font-size="24" font-family="Verdana" font-weight="bold" letter-spacing="0" text-anchor="middle" fill="black">#37</svg:text></svg:g></svg>
