<?xml version='1.0' encoding='ASCII' standalone='yes'?>
<svg xmlns:dc="http://purl.org/dc/elements/1.1/" xmlns:cc="http://creativecommons.org/ns#" xmlns:rdf="http://www.w3.org/1999/02/22-rdf-syntax-ns#" xmlns:svg="http://www.w3.org/2000/svg" xmlns="http://www.w3.org/2000/svg" xmlns:sodipodi="http://sodipodi.sourceforge.net/DTD/sodipodi-0.dtd" xmlns:inkscape="http://www.inkscape.org/namespaces/inkscape" id="Calque_1" data-name="Calque 1" viewBox="0 0 1122.5196 1587.4016" version="1.1" sodipodi:docname="base_45.svg" inkscape:version="0.92.3 (2405546, 2018-03-11)" width="29.700001cm" height="42cm">
  <metadata id="metadata93">
    <rdf:RDF>
      <cc:Work rdf:about="">
        <dc:format>image/svg+xml</dc:format>
        <dc:type rdf:resource="http://purl.org/dc/dcmitype/StillImage"/>
        <dc:title/>
      </cc:Work>
    </rdf:RDF>
  </metadata>
  <sodipodi:namedview pagecolor="#ffffff" bordercolor="#666666" borderopacity="1" objecttolerance="10" gridtolerance="10" guidetolerance="10" inkscape:pageopacity="0" inkscape:pageshadow="2" inkscape:window-width="691" inkscape:window-height="480" id="namedview91" showgrid="false" inkscape:zoom="0.28032165" inkscape:cx="342.23165" inkscape:cy="420.94501" inkscape:window-x="67" inkscape:window-y="27" inkscape:window-maximized="0" inkscape:current-layer="Calque_1" units="cm"/>
  <defs id="defs4">
    <style id="style2">.cls-1{fill:#08a2ac;}.cls-2{font-size:64.01px;font-family:DINNextLTPro-BoldItalic, DIN Next LT Pro;font-weight:700;font-style:italic;}.cls-2,.cls-5{fill:#010101;}.cls-3{letter-spacing:-0.05em;}.cls-4{letter-spacing:-0.07em;}.cls-6{fill:#fff;}</style>
  </defs>
<svg:g><svg:g><svg:metadata id="metadata16"><rdf:RDF><cc:Work rdf:about=""><dc:format>image/svg+xml</dc:format><dc:type rdf:resource="http://purl.org/dc/dcmitype/StillImage"/><dc:title/></cc:Work></rdf:RDF></svg:metadata><svg:defs id="defs14"><svg:clipPath clipPathUnits="userSpaceOnUse" id="clipPath26"><svg:path d="M 0,1190.551 H 841.89 V 0 H 0 Z" id="path24"/></svg:clipPath></svg:defs><sodipodi:namedview pagecolor="#ffffff" bordercolor="#666666" borderopacity="1" objecttolerance="10" gridtolerance="10" guidetolerance="10" inkscape:pageopacity="0" inkscape:pageshadow="2" inkscape:window-width="879" inkscape:window-height="1053" id="namedview12" showgrid="false" inkscape:zoom="0.63500062" inkscape:cx="561.26001" inkscape:cy="793.70001" inkscape:window-x="0" inkscape:window-y="0" inkscape:window-maximized="0" inkscape:current-layer="g18"/><svg:g id="g18" inkscape:groupmode="layer" inkscape:label="2021_DX_pepperARUCO_MAT_A3v2" transform="matrix(1.3333333,0,0,-1.3333333,0,1587.4)"><svg:g id="g20"><svg:g id="g22" clip-path="url(#clipPath26)"><svg:g id="g28" transform="translate(43.8462,112.8409)"><svg:path d="M 0,0 V 585.928 L 377.12,963.026 754.198,585.928 V 0 Z" style="fill:none;stroke:#00a2ac;stroke-width:40;stroke-linecap:butt;stroke-linejoin:round;stroke-miterlimit:10;stroke-dasharray:none;stroke-opacity:1" id="path30"/></svg:g><svg:g id="g32" transform="translate(534.6914,375.2755)"><svg:path d="M 0,0 C 0.084,0.504 0.42,0.84 0.924,0.84 H 11.088 C 11.592,0.84 11.844,0.504 11.76,0 L 7.98,-21.672 c -0.084,-0.336 0.084,-0.504 0.42,-0.504 h 17.976 c 0.336,0 0.504,0.168 0.588,0.504 L 30.828,0 c 0.084,0.504 0.42,0.84 0.924,0.84 h 10.164 c 0.504,0 0.84,-0.336 0.756,-0.84 l -9.828,-55.44 c -0.084,-0.504 -0.42,-0.84 -0.924,-0.84 H 21.756 c -0.504,0 -0.84,0.336 -0.756,0.84 l 3.948,22.26 c 0.084,0.336 -0.084,0.504 -0.42,0.504 H 6.468 c -0.336,0 -0.504,-0.168 -0.588,-0.504 L 1.933,-55.44 C 1.849,-55.944 1.597,-56.28 1.092,-56.28 H -9.071 c -0.505,0 -0.841,0.336 -0.757,0.84 z" style="fill:#000000;fill-opacity:1;fill-rule:nonzero;stroke:none" id="path34"/></svg:g><svg:g id="g36" transform="translate(609.6182,335.2916)"><svg:path d="m 0,0 c 1.933,3.948 4.452,19.068 4.452,23.184 0,4.956 -2.771,8.064 -7.727,8.064 -4.621,0 -7.897,-2.604 -9.829,-6.72 C -15.12,20.58 -17.64,5.46 -17.64,1.344 c 0,-4.956 2.857,-8.064 7.728,-8.064 4.62,0 7.896,2.604 9.912,6.72 m -29.567,0.252 c 0,5.124 2.771,22.344 5.712,28.392 4.536,9.156 12.095,13.104 22.175,13.104 10.752,0 18.06,-5.964 18.06,-17.472 0,-5.124 -2.772,-22.344 -5.712,-28.392 -4.536,-9.156 -12.012,-13.104 -22.176,-13.104 -10.752,0 -18.059,5.964 -18.059,17.472" style="fill:#000000;fill-opacity:1;fill-rule:nonzero;stroke:none" id="path38"/></svg:g><svg:g id="g40" transform="translate(638.5137,375.2755)"><svg:path d="m 0,0 c 0.084,0.504 0.42,0.84 0.924,0.84 h 8.988 c 0.672,0 1.092,-0.252 1.26,-0.84 l 8.148,-33.264 h 0.252 L 39.229,0 c 0.335,0.588 0.755,0.84 1.343,0.84 h 9.996 c 0.504,0 0.84,-0.336 0.756,-0.84 l -9.828,-55.44 c -0.084,-0.504 -0.42,-0.84 -0.924,-0.84 H 31.5 c -0.504,0 -0.84,0.336 -0.756,0.84 l 5.88,33.18 H 36.288 L 21.42,-47.292 c -0.42,-0.84 -1.008,-1.092 -1.68,-1.092 h -5.376 c -0.588,0 -1.092,0.252 -1.343,1.092 L 7.057,-22.26 H 6.721 L 0.84,-55.44 C 0.756,-55.944 0.42,-56.28 0,-56.28 h -9.071 c -0.505,0 -0.841,0.336 -0.757,0.84 z" style="fill:#000000;fill-opacity:1;fill-rule:nonzero;stroke:none" id="path42"/></svg:g><svg:g id="g44" transform="translate(700.4219,375.2755)"><svg:path d="m 0,0 c 0.084,0.504 0.42,0.84 0.924,0.84 h 35.112 c 0.504,0 0.756,-0.336 0.672,-0.84 l -1.512,-8.568 c -0.084,-0.504 -0.504,-0.84 -0.924,-0.84 H 10.584 c -0.336,0 -0.504,-0.168 -0.588,-0.504 l -2.1,-12.012 c -0.084,-0.336 0.084,-0.504 0.42,-0.504 h 19.656 c 0.505,0 0.757,-0.336 0.673,-0.84 l -1.513,-8.4 c -0.084,-0.504 -0.504,-0.84 -1.008,-0.84 H 6.468 c -0.336,0 -0.504,-0.168 -0.588,-0.504 L 3.696,-45.528 c -0.084,-0.336 0.084,-0.504 0.42,-0.504 h 23.688 c 0.505,0 0.757,-0.336 0.673,-0.84 L 26.88,-55.44 c -0.084,-0.504 -0.42,-0.84 -0.924,-0.84 H -9.071 c -0.505,0 -0.841,0.336 -0.757,0.84 z" style="fill:#000000;fill-opacity:1;fill-rule:nonzero;stroke:none" id="path46"/></svg:g><svg:g id="g48" transform="translate(122.127,460.0719)"><svg:path d="M 0,0 C 0,0.144 0.096,0.24 0.24,0.24 H 3.984 C 4.128,0.24 4.225,0.144 4.225,0 v -5.785 c 0,-0.096 0.047,-0.144 0.143,-0.144 h 4.441 c 0.095,0 0.143,0.048 0.143,0.144 V 0 c 0,0.144 0.097,0.24 0.24,0.24 h 3.745 c 0.144,0 0.24,-0.096 0.24,-0.24 v -15.841 c 0,-0.144 -0.096,-0.241 -0.24,-0.241 H 9.192 c -0.143,0 -0.24,0.097 -0.24,0.241 v 6.024 c 0,0.096 -0.048,0.144 -0.143,0.144 H 4.368 c -0.096,0 -0.143,-0.048 -0.143,-0.144 v -6.024 c 0,-0.144 -0.097,-0.241 -0.241,-0.241 H 0.24 c -0.144,0 -0.24,0.097 -0.24,0.241 z" style="fill:#00a2ac;fill-opacity:1;fill-rule:nonzero;stroke:none" id="path50"/></svg:g><svg:g id="g52" transform="translate(146.248,448.9107)"><svg:path d="m 0,0 c 0.191,0.552 0.24,1.296 0.24,3.24 0,1.945 -0.049,2.689 -0.24,3.24 -0.288,0.913 -1.032,1.441 -2.088,1.441 -1.057,0 -1.801,-0.528 -2.089,-1.441 -0.191,-0.551 -0.24,-1.295 -0.24,-3.24 0,-1.944 0.049,-2.688 0.24,-3.24 0.288,-0.912 1.032,-1.44 2.089,-1.44 1.056,0 1.8,0.528 2.088,1.44 m -8.209,-1.2 c -0.384,1.248 -0.479,2.208 -0.479,4.44 0,2.233 0.095,3.193 0.479,4.441 0.864,2.664 3.24,4.008 6.121,4.008 2.88,0 5.256,-1.344 6.12,-4.008 C 4.44,6.433 4.513,5.473 4.513,3.24 4.513,1.008 4.44,0.048 4.032,-1.2 c -0.864,-2.664 -3.24,-4.008 -6.12,-4.008 -2.881,0 -5.257,1.344 -6.121,4.008" style="fill:#00a2ac;fill-opacity:1;fill-rule:nonzero;stroke:none" id="path54"/></svg:g><svg:g id="g56" transform="translate(165.1846,443.9903)"><svg:path d="M 0,0 C -0.168,0 -0.264,0.072 -0.312,0.24 L -2.88,9.361 H -2.928 L -5.521,0.24 C -5.568,0.072 -5.664,0 -5.832,0 h -3 C -9,0 -9.097,0.072 -9.145,0.24 l -4.44,15.842 c -0.023,0.144 0.024,0.239 0.192,0.239 h 3.937 c 0.191,0 0.288,-0.095 0.311,-0.239 l 2.113,-9.505 h 0.048 l 2.544,9.505 c 0.048,0.168 0.144,0.239 0.312,0.239 h 2.473 c 0.168,0 0.263,-0.071 0.311,-0.239 L 1.272,6.577 H 1.32 l 2.04,9.505 c 0.025,0.144 0.12,0.239 0.288,0.239 h 3.937 c 0.144,0 0.216,-0.095 0.168,-0.239 L 3.337,0.24 C 3.289,0.072 3.192,0 3.001,0 Z" style="fill:#00a2ac;fill-opacity:1;fill-rule:nonzero;stroke:none" id="path58"/></svg:g><svg:g id="g60" transform="translate(182.9687,443.9903)"><svg:path d="M 0,0 H -0.072 C -0.12,0 -0.145,0.024 -0.192,0.072 -0.217,0.096 -0.24,0.12 -0.24,0.168 V 0.24 12.433 c 0,0.072 -0.048,0.12 -0.12,0.144 h -0.025 -4.008 -0.072 c -0.048,0 -0.072,0.024 -0.096,0.048 l -0.024,0.024 c 0,0 0,0.024 -0.023,0.024 -0.025,0.048 -0.025,0.096 -0.025,0.144 v 3.265 c 0,0.119 0.072,0.215 0.168,0.239 h 0.072 12.53 c 0.071,0 0.119,-0.024 0.168,-0.071 0,0 0.023,-0.024 0.023,-0.049 0.025,-0.024 0.048,-0.072 0.048,-0.119 V 12.817 C 8.376,12.745 8.353,12.673 8.305,12.625 8.28,12.601 8.232,12.577 8.185,12.577 H 8.137 4.128 c -0.048,0 -0.072,0 -0.096,-0.024 -0.024,0 -0.024,-0.024 -0.049,-0.048 V 12.433 0.24 0.168 C 3.96,0.096 3.936,0.072 3.864,0.024 3.84,0 3.792,0 3.744,0 Z" style="fill:#00a2ac;fill-opacity:1;fill-rule:nonzero;stroke:none" id="path62"/></svg:g><svg:g id="g64" transform="translate(200.9687,448.9107)"><svg:path d="m 0,0 c 0.191,0.552 0.24,1.296 0.24,3.24 0,1.945 -0.049,2.689 -0.24,3.24 -0.288,0.913 -1.032,1.441 -2.088,1.441 -1.057,0 -1.801,-0.528 -2.089,-1.441 -0.191,-0.551 -0.24,-1.295 -0.24,-3.24 0,-1.944 0.049,-2.688 0.24,-3.24 0.288,-0.912 1.032,-1.44 2.089,-1.44 1.056,0 1.8,0.528 2.088,1.44 m -8.209,-1.2 c -0.384,1.248 -0.479,2.208 -0.479,4.44 0,2.233 0.095,3.193 0.479,4.441 0.864,2.664 3.24,4.008 6.121,4.008 2.88,0 5.256,-1.344 6.12,-4.008 C 4.44,6.433 4.513,5.473 4.513,3.24 4.513,1.008 4.44,0.048 4.032,-1.2 c -0.864,-2.664 -3.24,-4.008 -6.12,-4.008 -2.881,0 -5.257,1.344 -6.121,4.008" style="fill:#00a2ac;fill-opacity:1;fill-rule:nonzero;stroke:none" id="path66"/></svg:g><svg:g id="g68" transform="translate(207.8555,447.5426)"><svg:path d="m 0,0 c 0,0.144 0.096,0.24 0.239,0.24 h 3.313 c 0.144,0 0.24,-0.096 0.24,-0.24 v -3.312 c 0,-0.144 -0.096,-0.24 -0.24,-0.24 H 0.239 C 0.096,-3.552 0,-3.456 0,-3.312 Z m 0,4.584 v 3.313 c 0,0.144 0.096,0.24 0.239,0.24 h 3.313 c 0.144,0 0.24,-0.096 0.24,-0.24 V 4.584 c 0,-0.144 -0.096,-0.24 -0.24,-0.24 H 0.239 C 0.096,4.344 0,4.44 0,4.584" style="fill:#00a2ac;fill-opacity:1;fill-rule:nonzero;stroke:none" id="path70"/></svg:g><svg:g id="g72" transform="translate(130.1191,418.5509)"><svg:path d="M 0,0 C 0.192,0.6 0.265,1.344 0.265,2.4 0.265,3.432 0.192,4.176 0,4.8 -0.384,5.928 -1.248,6.528 -2.52,6.528 -3.792,6.528 -4.68,5.953 -5.064,4.8 -5.256,4.224 -5.328,3.552 -5.328,2.4 c 0,-1.152 0.072,-1.848 0.264,-2.4 0.384,-1.152 1.272,-1.752 2.544,-1.752 1.272,0 2.136,0.624 2.52,1.752 m -7.104,-7.681 c -0.144,0 -0.241,0.097 -0.241,0.24 V 7.896 c 0,0.145 0.097,0.241 0.241,0.241 h 1.536 c 0.144,0 0.24,-0.096 0.24,-0.241 v -1.08 h 0.024 c 0.552,0.913 1.536,1.585 3.264,1.585 1.992,0 3.385,-0.937 3.961,-2.76 C 2.232,4.729 2.328,3.816 2.328,2.4 2.328,0.96 2.232,0.048 1.921,-0.864 1.345,-2.688 -0.048,-3.625 -2.04,-3.625 c -1.728,0 -2.712,0.697 -3.264,1.609 h -0.024 v -5.425 c 0,-0.143 -0.096,-0.24 -0.24,-0.24 z" style="fill:#000000;fill-opacity:1;fill-rule:nonzero;stroke:none" id="path74"/></svg:g><svg:g id="g76" transform="translate(138.4473,415.0704)"><svg:path d="m 0,0 c -2.017,0 -2.809,0.96 -2.809,3.024 v 13.178 c 0,0.144 0.097,0.239 0.241,0.239 h 1.536 c 0.143,0 0.24,-0.095 0.24,-0.239 V 3.145 c 0,-0.961 0.359,-1.273 1.152,-1.273 h 0.456 c 0.144,0 0.24,-0.096 0.24,-0.24 V 0.24 C 1.056,0.096 0.96,0 0.816,0 Z" style="fill:#000000;fill-opacity:1;fill-rule:nonzero;stroke:none" id="path78"/></svg:g><svg:g id="g80" transform="translate(149.1748,421.9352)"><svg:path d="m 0,0 c 0.096,0 0.145,0.048 0.145,0.144 0,0.528 -0.049,0.936 -0.168,1.296 -0.385,1.152 -1.345,1.8 -2.641,1.8 C -3.96,3.24 -4.92,2.592 -5.305,1.44 -5.424,1.08 -5.473,0.672 -5.473,0.144 -5.473,0.048 -5.424,0 -5.328,0 Z m -7.152,-3.888 c -0.241,0.743 -0.384,1.584 -0.384,2.904 0,1.32 0.12,2.208 0.359,2.904 0.649,1.992 2.328,3.097 4.513,3.097 2.208,0 3.864,-1.129 4.513,-3.097 0.239,-0.744 0.359,-1.536 0.359,-3.288 0,-0.144 -0.096,-0.24 -0.264,-0.24 h -7.272 c -0.096,0 -0.145,-0.048 -0.145,-0.144 0,-0.624 0.073,-1.008 0.193,-1.393 0.456,-1.319 1.488,-1.992 2.904,-1.992 1.368,0 2.328,0.553 2.952,1.273 0.12,0.12 0.24,0.144 0.361,0.048 L 1.92,-4.705 C 2.04,-4.8 2.04,-4.92 1.944,-5.041 1.032,-6.192 -0.528,-7.009 -2.544,-7.009 c -2.328,0 -3.984,1.129 -4.608,3.121" style="fill:#000000;fill-opacity:1;fill-rule:nonzero;stroke:none" id="path82"/></svg:g><svg:g id="g84" transform="translate(161.2949,418.9107)"><svg:path d="m 0,0 v 1.272 c 0,0.096 -0.048,0.144 -0.144,0.144 h -2.304 c -1.992,0 -2.857,-0.576 -2.857,-1.872 0,-1.176 0.865,-1.8 2.401,-1.8 1.8,0 2.904,0.84 2.904,2.256 m 0.288,-3.72 c -0.143,0 -0.24,0.096 -0.24,0.24 v 1.008 H 0.024 c -0.528,-0.864 -1.656,-1.512 -3.408,-1.512 -2.184,0 -3.864,1.128 -3.864,3.456 0,2.424 1.68,3.552 4.488,3.552 h 2.616 C -0.048,3.024 0,3.072 0,3.168 v 0.84 c 0,1.585 -0.624,2.257 -2.76,2.257 -1.297,0 -2.112,-0.336 -2.784,-0.816 -0.12,-0.096 -0.265,-0.096 -0.337,0.024 l -0.647,1.104 c -0.073,0.144 -0.048,0.24 0.048,0.336 0.864,0.672 2.208,1.128 3.912,1.128 3.264,0 4.512,-1.08 4.512,-3.913 V -3.48 c 0,-0.144 -0.095,-0.24 -0.24,-0.24 z" style="fill:#000000;fill-opacity:1;fill-rule:nonzero;stroke:none" id="path86"/></svg:g><svg:g id="g88" transform="translate(166.2861,416.6549)"><svg:path d="m 0,0 c -0.096,0.096 -0.096,0.24 0,0.336 l 0.984,1.056 c 0.096,0.096 0.241,0.096 0.336,0 0.865,-0.744 2.16,-1.32 3.553,-1.32 1.68,0 2.52,0.72 2.52,1.752 0,0.912 -0.432,1.416 -2.232,1.608 l -1.224,0.12 c -2.256,0.24 -3.433,1.368 -3.433,3.24 0,2.185 1.56,3.505 4.272,3.505 1.681,0 3.121,-0.552 4.081,-1.273 C 8.978,8.953 8.978,8.809 8.905,8.688 L 8.089,7.656 C 7.993,7.537 7.873,7.537 7.753,7.608 7.009,8.088 5.833,8.544 4.656,8.544 3.217,8.544 2.473,7.896 2.473,6.96 2.473,6.048 3.024,5.568 4.729,5.4 l 1.2,-0.12 C 8.257,5.064 9.385,3.888 9.385,2.04 9.385,-0.216 7.753,-1.729 4.753,-1.729 2.521,-1.729 0.937,-0.816 0,0" style="fill:#000000;fill-opacity:1;fill-rule:nonzero;stroke:none" id="path90"/></svg:g><svg:g id="g92" transform="translate(185.6787,421.9352)"><svg:path d="m 0,0 c 0.096,0 0.145,0.048 0.145,0.144 0,0.528 -0.049,0.936 -0.168,1.296 -0.385,1.152 -1.345,1.8 -2.641,1.8 C -3.96,3.24 -4.92,2.592 -5.305,1.44 -5.424,1.08 -5.473,0.672 -5.473,0.144 -5.473,0.048 -5.424,0 -5.328,0 Z m -7.152,-3.888 c -0.241,0.743 -0.384,1.584 -0.384,2.904 0,1.32 0.12,2.208 0.359,2.904 0.649,1.992 2.328,3.097 4.513,3.097 2.208,0 3.864,-1.129 4.513,-3.097 0.239,-0.744 0.359,-1.536 0.359,-3.288 0,-0.144 -0.096,-0.24 -0.264,-0.24 h -7.272 c -0.096,0 -0.145,-0.048 -0.145,-0.144 0,-0.624 0.073,-1.008 0.193,-1.393 0.456,-1.319 1.488,-1.992 2.904,-1.992 1.368,0 2.328,0.553 2.952,1.273 0.12,0.12 0.24,0.144 0.361,0.048 L 1.92,-4.705 C 2.04,-4.8 2.04,-4.92 1.944,-5.041 1.032,-6.192 -0.528,-7.009 -2.544,-7.009 c -2.328,0 -3.984,1.129 -4.608,3.121" style="fill:#000000;fill-opacity:1;fill-rule:nonzero;stroke:none" id="path94"/></svg:g><svg:g id="g96" transform="translate(204.2305,418.5509)"><svg:path d="M 0,0 C 0.192,0.6 0.265,1.344 0.265,2.4 0.265,3.432 0.192,4.176 0,4.8 -0.384,5.928 -1.248,6.528 -2.52,6.528 -3.792,6.528 -4.68,5.953 -5.064,4.8 -5.256,4.224 -5.328,3.552 -5.328,2.4 c 0,-1.152 0.072,-1.848 0.264,-2.4 0.384,-1.152 1.272,-1.752 2.544,-1.752 1.272,0 2.136,0.624 2.52,1.752 m -7.104,-7.681 c -0.144,0 -0.241,0.097 -0.241,0.24 V 7.896 c 0,0.145 0.097,0.241 0.241,0.241 h 1.536 c 0.144,0 0.24,-0.096 0.24,-0.241 v -1.08 h 0.024 c 0.552,0.913 1.536,1.585 3.264,1.585 1.992,0 3.385,-0.937 3.961,-2.76 C 2.232,4.729 2.328,3.816 2.328,2.4 2.328,0.96 2.232,0.048 1.921,-0.864 1.345,-2.688 -0.048,-3.625 -2.04,-3.625 c -1.728,0 -2.712,0.697 -3.264,1.609 h -0.024 v -5.425 c 0,-0.143 -0.096,-0.24 -0.24,-0.24 z" style="fill:#000000;fill-opacity:1;fill-rule:nonzero;stroke:none" id="path98"/></svg:g><svg:g id="g100" transform="translate(212.5586,415.0704)"><svg:path d="m 0,0 c -2.017,0 -2.809,0.96 -2.809,3.024 v 13.178 c 0,0.144 0.097,0.239 0.241,0.239 h 1.536 c 0.143,0 0.24,-0.095 0.24,-0.239 V 3.145 c 0,-0.961 0.359,-1.273 1.152,-1.273 h 0.456 c 0.144,0 0.24,-0.096 0.24,-0.24 V 0.24 C 1.056,0.096 0.96,0 0.816,0 Z" style="fill:#000000;fill-opacity:1;fill-rule:nonzero;stroke:none" id="path102"/></svg:g><svg:g id="g104" transform="translate(223.1182,418.9107)"><svg:path d="m 0,0 v 1.272 c 0,0.096 -0.048,0.144 -0.144,0.144 h -2.304 c -1.992,0 -2.857,-0.576 -2.857,-1.872 0,-1.176 0.865,-1.8 2.401,-1.8 1.8,0 2.904,0.84 2.904,2.256 m 0.288,-3.72 c -0.143,0 -0.24,0.096 -0.24,0.24 v 1.008 H 0.024 c -0.528,-0.864 -1.656,-1.512 -3.408,-1.512 -2.184,0 -3.864,1.128 -3.864,3.456 0,2.424 1.68,3.552 4.488,3.552 h 2.616 C -0.048,3.024 0,3.072 0,3.168 v 0.84 c 0,1.585 -0.624,2.257 -2.76,2.257 -1.297,0 -2.112,-0.336 -2.784,-0.816 -0.12,-0.096 -0.265,-0.096 -0.337,0.024 l -0.647,1.104 c -0.073,0.144 -0.048,0.24 0.048,0.336 0.864,0.672 2.208,1.128 3.912,1.128 3.264,0 4.512,-1.08 4.512,-3.913 V -3.48 c 0,-0.144 -0.095,-0.24 -0.24,-0.24 z" style="fill:#000000;fill-opacity:1;fill-rule:nonzero;stroke:none" id="path106"/></svg:g><svg:g id="g108" transform="translate(228.5654,423.8551)"><svg:path d="M 0,0 C 0.648,1.992 2.328,3.097 4.537,3.097 6.289,3.097 7.633,2.353 8.473,1.152 8.545,1.032 8.545,0.937 8.401,0.816 L 7.345,-0.048 C 7.225,-0.144 7.104,-0.144 7.009,-0.024 6.337,0.816 5.688,1.224 4.537,1.224 c -1.248,0 -2.184,-0.6 -2.568,-1.8 -0.193,-0.6 -0.265,-1.32 -0.265,-2.328 0,-1.032 0.072,-1.752 0.265,-2.352 0.384,-1.201 1.32,-1.801 2.568,-1.801 1.151,0 1.8,0.409 2.472,1.249 0.095,0.12 0.216,0.12 0.336,0.024 L 8.401,-6.648 C 8.545,-6.769 8.545,-6.864 8.473,-6.984 7.633,-8.185 6.289,-8.929 4.537,-8.929 2.328,-8.929 0.648,-7.825 0,-5.833 -0.216,-5.136 -0.359,-4.2 -0.359,-2.904 -0.359,-1.632 -0.216,-0.696 0,0" style="fill:#000000;fill-opacity:1;fill-rule:nonzero;stroke:none" id="path110"/></svg:g><svg:g id="g112" transform="translate(246.7822,421.9352)"><svg:path d="m 0,0 c 0.096,0 0.145,0.048 0.145,0.144 0,0.528 -0.049,0.936 -0.168,1.296 -0.385,1.152 -1.345,1.8 -2.641,1.8 C -3.96,3.24 -4.92,2.592 -5.305,1.44 -5.424,1.08 -5.473,0.672 -5.473,0.144 -5.473,0.048 -5.424,0 -5.328,0 Z m -7.152,-3.888 c -0.241,0.743 -0.384,1.584 -0.384,2.904 0,1.32 0.12,2.208 0.359,2.904 0.649,1.992 2.328,3.097 4.513,3.097 2.208,0 3.864,-1.129 4.513,-3.097 0.239,-0.744 0.359,-1.536 0.359,-3.288 0,-0.144 -0.096,-0.24 -0.264,-0.24 h -7.272 c -0.096,0 -0.145,-0.048 -0.145,-0.144 0,-0.624 0.073,-1.008 0.193,-1.393 0.456,-1.319 1.488,-1.992 2.904,-1.992 1.368,0 2.328,0.553 2.952,1.273 0.12,0.12 0.24,0.144 0.361,0.048 L 1.92,-4.705 C 2.04,-4.8 2.04,-4.92 1.944,-5.041 1.032,-6.192 -0.528,-7.009 -2.544,-7.009 c -2.328,0 -3.984,1.129 -4.608,3.121" style="fill:#000000;fill-opacity:1;fill-rule:nonzero;stroke:none" id="path114"/></svg:g><svg:g id="g116" transform="translate(126.1113,386.2701)"><svg:path d="m 0,0 c -2.232,0 -3.097,1.008 -3.097,3.264 v 6.577 c 0,0.096 -0.048,0.144 -0.143,0.144 H -4.2 c -0.145,0 -0.24,0.096 -0.24,0.24 v 1.152 c 0,0.144 0.095,0.24 0.24,0.24 h 0.96 c 0.095,0 0.143,0.048 0.143,0.144 v 3.24 c 0,0.145 0.097,0.24 0.241,0.24 h 1.536 c 0.143,0 0.24,-0.095 0.24,-0.24 v -3.24 c 0,-0.096 0.048,-0.144 0.143,-0.144 h 1.825 c 0.144,0 0.24,-0.096 0.24,-0.24 v -1.152 c 0,-0.144 -0.096,-0.24 -0.24,-0.24 H -0.937 C -1.032,9.985 -1.08,9.937 -1.08,9.841 V 3.336 c 0,-1.152 0.432,-1.464 1.464,-1.464 h 0.504 c 0.144,0 0.24,-0.096 0.24,-0.24 V 0.24 C 1.128,0.096 1.032,0 0.888,0 Z" style="fill:#000000;fill-opacity:1;fill-rule:nonzero;stroke:none" id="path118"/></svg:g><svg:g id="g120" transform="translate(137.8232,386.3902)"><svg:path d="m 0,0 c -0.144,0 -0.24,0.096 -0.24,0.24 v 6.72 c 0,1.849 -0.84,2.929 -2.568,2.929 -1.56,0 -2.64,-1.104 -2.64,-2.808 V 0.24 C -5.448,0.096 -5.544,0 -5.688,0 h -1.537 c -0.143,0 -0.24,0.096 -0.24,0.24 v 15.842 c 0,0.144 0.097,0.239 0.24,0.239 h 1.537 c 0.144,0 0.24,-0.095 0.24,-0.239 v -5.881 h 0.024 c 0.552,0.888 1.655,1.56 3.216,1.56 2.496,0 3.984,-1.704 3.984,-4.321 V 0.24 C 1.776,0.096 1.681,0 1.536,0 Z" style="fill:#000000;fill-opacity:1;fill-rule:nonzero;stroke:none" id="path122"/></svg:g><svg:g id="g124" transform="translate(150.2549,393.1349)"><svg:path d="m 0,0 c 0.096,0 0.145,0.048 0.145,0.144 0,0.528 -0.049,0.936 -0.168,1.296 -0.385,1.152 -1.345,1.8 -2.641,1.8 C -3.96,3.24 -4.92,2.592 -5.305,1.44 -5.424,1.08 -5.473,0.672 -5.473,0.144 -5.473,0.048 -5.424,0 -5.328,0 Z m -7.152,-3.888 c -0.241,0.743 -0.384,1.584 -0.384,2.904 0,1.32 0.12,2.208 0.359,2.904 0.649,1.992 2.328,3.097 4.513,3.097 2.208,0 3.864,-1.129 4.513,-3.097 0.239,-0.744 0.359,-1.536 0.359,-3.288 0,-0.144 -0.096,-0.24 -0.264,-0.24 h -7.272 c -0.096,0 -0.145,-0.048 -0.145,-0.144 0,-0.624 0.073,-1.008 0.193,-1.393 0.456,-1.319 1.488,-1.992 2.904,-1.992 1.368,0 2.328,0.553 2.952,1.273 0.12,0.12 0.24,0.144 0.361,0.048 L 1.92,-4.705 C 2.04,-4.8 2.04,-4.92 1.944,-5.041 1.032,-6.192 -0.528,-7.009 -2.544,-7.009 c -2.328,0 -3.984,1.129 -4.608,3.121" style="fill:#000000;fill-opacity:1;fill-rule:nonzero;stroke:none" id="path126"/></svg:g><svg:g id="g128" transform="translate(168.9268,386.3902)"><svg:path d="m 0,0 c -0.144,0 -0.24,0.096 -0.24,0.24 v 6.72 c 0,1.849 -0.84,2.929 -2.568,2.929 -1.56,0 -2.64,-1.104 -2.64,-2.808 V 0.24 C -5.448,0.096 -5.544,0 -5.688,0 h -1.537 c -0.143,0 -0.24,0.096 -0.24,0.24 v 11.017 c 0,0.144 0.097,0.24 0.24,0.24 h 1.537 c 0.144,0 0.24,-0.096 0.24,-0.24 v -1.056 h 0.024 c 0.552,0.888 1.655,1.56 3.216,1.56 2.496,0 3.984,-1.704 3.984,-4.321 V 0.24 C 1.776,0.096 1.681,0 1.536,0 Z" style="fill:#000000;fill-opacity:1;fill-rule:nonzero;stroke:none" id="path130"/></svg:g><svg:g id="g132" transform="translate(181.3584,393.1349)"><svg:path d="m 0,0 c 0.096,0 0.145,0.048 0.145,0.144 0,0.528 -0.049,0.936 -0.168,1.296 -0.385,1.152 -1.345,1.8 -2.641,1.8 C -3.96,3.24 -4.92,2.592 -5.305,1.44 -5.424,1.08 -5.473,0.672 -5.473,0.144 -5.473,0.048 -5.424,0 -5.328,0 Z m -7.152,-3.888 c -0.241,0.743 -0.384,1.584 -0.384,2.904 0,1.32 0.12,2.208 0.359,2.904 0.649,1.992 2.328,3.097 4.513,3.097 2.208,0 3.864,-1.129 4.513,-3.097 0.239,-0.744 0.359,-1.536 0.359,-3.288 0,-0.144 -0.096,-0.24 -0.264,-0.24 h -7.272 c -0.096,0 -0.145,-0.048 -0.145,-0.144 0,-0.624 0.073,-1.008 0.193,-1.393 0.456,-1.319 1.488,-1.992 2.904,-1.992 1.368,0 2.328,0.553 2.952,1.273 0.12,0.12 0.24,0.144 0.361,0.048 L 1.92,-4.705 C 2.04,-4.8 2.04,-4.92 1.944,-5.041 1.032,-6.192 -0.528,-7.009 -2.544,-7.009 c -2.328,0 -3.984,1.129 -4.608,3.121" style="fill:#000000;fill-opacity:1;fill-rule:nonzero;stroke:none" id="path134"/></svg:g><svg:g id="g136" transform="translate(193.6465,386.3902)"><svg:path d="M 0,0 C -0.168,0 -0.239,0.048 -0.359,0.216 L -3.144,4.272 H -3.168 L -5.952,0.216 C -6.048,0.048 -6.145,0 -6.312,0 H -8.017 C -8.208,0 -8.256,0.12 -8.185,0.24 L -4.271,6 -7.849,11.257 c -0.071,0.12 -0.023,0.24 0.168,0.24 h 1.729 c 0.144,0 0.264,-0.024 0.36,-0.216 l 2.424,-3.576 h 0.024 l 2.472,3.576 c 0.097,0.168 0.193,0.216 0.336,0.216 h 1.729 c 0.192,0 0.24,-0.12 0.168,-0.24 L -2.04,6 1.896,0.24 C 1.969,0.12 1.921,0 1.729,0 Z" style="fill:#000000;fill-opacity:1;fill-rule:nonzero;stroke:none" id="path138"/></svg:g><svg:g id="g140" transform="translate(201.5664,386.2701)"><svg:path d="m 0,0 c -2.232,0 -3.097,1.008 -3.097,3.264 v 6.577 c 0,0.096 -0.048,0.144 -0.143,0.144 H -4.2 c -0.145,0 -0.24,0.096 -0.24,0.24 v 1.152 c 0,0.144 0.095,0.24 0.24,0.24 h 0.96 c 0.095,0 0.143,0.048 0.143,0.144 v 3.24 c 0,0.145 0.097,0.24 0.241,0.24 h 1.536 c 0.143,0 0.24,-0.095 0.24,-0.24 v -3.24 c 0,-0.096 0.048,-0.144 0.143,-0.144 h 1.825 c 0.144,0 0.24,-0.096 0.24,-0.24 v -1.152 c 0,-0.144 -0.096,-0.24 -0.24,-0.24 H -0.937 C -1.032,9.985 -1.08,9.937 -1.08,9.841 V 3.336 c 0,-1.152 0.432,-1.464 1.464,-1.464 h 0.504 c 0.144,0 0.24,-0.096 0.24,-0.24 V 0.24 C 1.128,0.096 1.032,0 0.888,0 Z" style="fill:#000000;fill-opacity:1;fill-rule:nonzero;stroke:none" id="path142"/></svg:g><svg:g id="g144" transform="translate(226.2627,386.3902)"><svg:path d="m 0,0 c -0.144,0 -0.24,0.096 -0.24,0.24 v 6.72 c 0,1.849 -0.84,2.929 -2.568,2.929 -1.536,0 -2.64,-1.104 -2.64,-2.808 V 0.24 C -5.448,0.096 -5.544,0 -5.688,0 h -1.537 c -0.143,0 -0.24,0.096 -0.24,0.24 v 6.72 c 0,1.849 -0.84,2.929 -2.567,2.929 -1.561,0 -2.641,-1.104 -2.641,-2.808 V 0.24 c 0,-0.144 -0.096,-0.24 -0.24,-0.24 h -1.536 c -0.144,0 -0.24,0.096 -0.24,0.24 v 11.017 c 0,0.144 0.096,0.24 0.24,0.24 h 1.536 c 0.144,0 0.24,-0.096 0.24,-0.24 v -1.056 h 0.025 c 0.551,0.888 1.655,1.56 3.215,1.56 1.561,0 2.712,-0.648 3.361,-1.8 h 0.024 c 0.792,1.104 1.968,1.8 3.72,1.8 2.664,0 4.104,-1.704 4.104,-4.321 V 0.24 C 1.776,0.096 1.681,0 1.536,0 Z" style="fill:#000000;fill-opacity:1;fill-rule:nonzero;stroke:none" id="path146"/></svg:g><svg:g id="g148" transform="translate(238.5254,390.1104)"><svg:path d="m 0,0 v 1.272 c 0,0.096 -0.048,0.144 -0.144,0.144 h -2.304 c -1.992,0 -2.857,-0.576 -2.857,-1.872 0,-1.176 0.865,-1.8 2.401,-1.8 1.8,0 2.904,0.84 2.904,2.256 m 0.288,-3.72 c -0.143,0 -0.24,0.096 -0.24,0.24 v 1.008 H 0.024 c -0.528,-0.864 -1.656,-1.512 -3.408,-1.512 -2.184,0 -3.864,1.128 -3.864,3.456 0,2.424 1.68,3.552 4.488,3.552 h 2.616 C -0.048,3.024 0,3.072 0,3.168 v 0.84 c 0,1.585 -0.624,2.257 -2.76,2.257 -1.297,0 -2.112,-0.336 -2.784,-0.816 -0.12,-0.096 -0.265,-0.096 -0.337,0.024 l -0.647,1.104 c -0.073,0.144 -0.048,0.24 0.048,0.336 0.864,0.672 2.208,1.128 3.912,1.128 3.264,0 4.512,-1.08 4.512,-3.913 V -3.48 c 0,-0.144 -0.095,-0.24 -0.24,-0.24 z" style="fill:#000000;fill-opacity:1;fill-rule:nonzero;stroke:none" id="path150"/></svg:g><svg:g id="g152" transform="translate(244.5488,386.3902)"><svg:path d="m 0,0 c -0.144,0 -0.24,0.096 -0.24,0.24 v 11.017 c 0,0.144 0.096,0.24 0.24,0.24 h 1.536 c 0.145,0 0.24,-0.096 0.24,-0.24 v -1.176 h 0.025 c 0.504,0.984 1.512,1.68 3.048,1.68 0.912,0 1.776,-0.336 2.352,-0.864 0.12,-0.12 0.144,-0.216 0.048,-0.336 L 6.36,9.385 C 6.265,9.265 6.145,9.241 6.024,9.337 5.497,9.673 4.921,9.889 4.249,9.889 2.496,9.889 1.776,8.521 1.776,6.528 V 0.24 C 1.776,0.096 1.681,0 1.536,0 Z" style="fill:#000000;fill-opacity:1;fill-rule:nonzero;stroke:none" id="path154"/></svg:g><svg:g id="g156" transform="translate(261.8057,386.3902)"><svg:path d="M 0,0 C -0.168,0 -0.288,0.072 -0.384,0.24 L -3.648,5.592 -5.641,3.264 V 0.24 C -5.641,0.096 -5.736,0 -5.881,0 h -1.536 c -0.144,0 -0.24,0.096 -0.24,0.24 v 15.842 c 0,0.144 0.096,0.239 0.24,0.239 h 1.536 c 0.145,0 0.24,-0.095 0.24,-0.239 V 5.929 l 4.537,5.352 c 0.144,0.168 0.264,0.216 0.432,0.216 h 1.776 c 0.144,0 0.192,-0.12 0.096,-0.24 L -2.328,7.153 1.92,0.24 C 1.992,0.144 1.92,0 1.776,0 Z" style="fill:#000000;fill-opacity:1;fill-rule:nonzero;stroke:none" id="path158"/></svg:g><svg:g id="g160" transform="translate(272.9648,393.1349)"><svg:path d="m 0,0 c 0.096,0 0.145,0.048 0.145,0.144 0,0.528 -0.049,0.936 -0.168,1.296 -0.385,1.152 -1.345,1.8 -2.641,1.8 C -3.96,3.24 -4.92,2.592 -5.305,1.44 -5.424,1.08 -5.473,0.672 -5.473,0.144 -5.473,0.048 -5.424,0 -5.328,0 Z m -7.152,-3.888 c -0.241,0.743 -0.384,1.584 -0.384,2.904 0,1.32 0.12,2.208 0.359,2.904 0.649,1.992 2.328,3.097 4.513,3.097 2.208,0 3.864,-1.129 4.513,-3.097 0.239,-0.744 0.359,-1.536 0.359,-3.288 0,-0.144 -0.096,-0.24 -0.264,-0.24 h -7.272 c -0.096,0 -0.145,-0.048 -0.145,-0.144 0,-0.624 0.073,-1.008 0.193,-1.393 0.456,-1.319 1.488,-1.992 2.904,-1.992 1.368,0 2.328,0.553 2.952,1.273 0.12,0.12 0.24,0.144 0.361,0.048 L 1.92,-4.705 C 2.04,-4.8 2.04,-4.92 1.944,-5.041 1.032,-6.192 -0.528,-7.009 -2.544,-7.009 c -2.328,0 -3.984,1.129 -4.608,3.121" style="fill:#000000;fill-opacity:1;fill-rule:nonzero;stroke:none" id="path162"/></svg:g><svg:g id="g164" transform="translate(278.6523,386.3902)"><svg:path d="m 0,0 c -0.144,0 -0.24,0.096 -0.24,0.24 v 11.017 c 0,0.144 0.096,0.24 0.24,0.24 h 1.536 c 0.145,0 0.24,-0.096 0.24,-0.24 v -1.176 h 0.025 c 0.504,0.984 1.512,1.68 3.048,1.68 0.912,0 1.776,-0.336 2.352,-0.864 0.12,-0.12 0.144,-0.216 0.048,-0.336 L 6.36,9.385 C 6.265,9.265 6.145,9.241 6.024,9.337 5.497,9.673 4.921,9.889 4.249,9.889 2.496,9.889 1.776,8.521 1.776,6.528 V 0.24 C 1.776,0.096 1.681,0 1.536,0 Z" style="fill:#000000;fill-opacity:1;fill-rule:nonzero;stroke:none" id="path166"/></svg:g><svg:g id="g168" transform="translate(129.4473,361.3106)"><svg:path d="m 0,0 v 1.272 c 0,0.096 -0.048,0.144 -0.144,0.144 h -2.304 c -1.992,0 -2.857,-0.576 -2.857,-1.872 0,-1.176 0.865,-1.8 2.401,-1.8 1.8,0 2.904,0.84 2.904,2.256 m 0.288,-3.72 c -0.143,0 -0.24,0.096 -0.24,0.24 v 1.008 H 0.024 c -0.528,-0.864 -1.656,-1.512 -3.408,-1.512 -2.184,0 -3.864,1.128 -3.864,3.456 0,2.424 1.68,3.552 4.488,3.552 h 2.616 C -0.048,3.024 0,3.072 0,3.168 v 0.84 c 0,1.585 -0.624,2.257 -2.76,2.257 -1.297,0 -2.112,-0.336 -2.784,-0.816 -0.12,-0.096 -0.265,-0.096 -0.337,0.024 l -0.647,1.104 c -0.073,0.144 -0.048,0.24 0.048,0.336 0.864,0.672 2.208,1.128 3.912,1.128 3.264,0 4.512,-1.08 4.512,-3.913 V -3.48 c 0,-0.144 -0.095,-0.24 -0.24,-0.24 z" style="fill:#000000;fill-opacity:1;fill-rule:nonzero;stroke:none" id="path170"/></svg:g><svg:g id="g172" transform="translate(142.5752,360.9508)"><svg:path d="M 0,0 C 0.192,0.6 0.265,1.344 0.265,2.4 0.265,3.432 0.192,4.176 0,4.8 -0.384,5.928 -1.248,6.528 -2.52,6.528 -3.792,6.528 -4.68,5.953 -5.064,4.8 -5.256,4.224 -5.328,3.552 -5.328,2.4 c 0,-1.152 0.072,-1.848 0.264,-2.4 0.384,-1.152 1.272,-1.752 2.544,-1.752 1.272,0 2.136,0.624 2.52,1.752 m -7.104,-7.681 c -0.144,0 -0.241,0.096 -0.241,0.24 V 7.896 c 0,0.145 0.097,0.241 0.241,0.241 h 1.536 c 0.144,0 0.24,-0.096 0.24,-0.241 v -1.08 h 0.024 c 0.552,0.913 1.536,1.585 3.264,1.585 1.992,0 3.385,-0.937 3.961,-2.76 C 2.232,4.729 2.328,3.816 2.328,2.4 2.328,0.96 2.232,0.048 1.921,-0.864 1.345,-2.688 -0.048,-3.625 -2.04,-3.625 c -1.728,0 -2.712,0.697 -3.264,1.609 h -0.024 v -5.425 c 0,-0.144 -0.096,-0.24 -0.24,-0.24 z" style="fill:#000000;fill-opacity:1;fill-rule:nonzero;stroke:none" id="path174"/></svg:g><svg:g id="g176" transform="translate(155.4873,360.9508)"><svg:path d="M 0,0 C 0.192,0.6 0.265,1.344 0.265,2.4 0.265,3.432 0.192,4.176 0,4.8 -0.384,5.928 -1.248,6.528 -2.52,6.528 -3.792,6.528 -4.68,5.953 -5.064,4.8 -5.256,4.224 -5.328,3.552 -5.328,2.4 c 0,-1.152 0.072,-1.848 0.264,-2.4 0.384,-1.152 1.272,-1.752 2.544,-1.752 1.272,0 2.136,0.624 2.52,1.752 m -7.104,-7.681 c -0.144,0 -0.241,0.096 -0.241,0.24 V 7.896 c 0,0.145 0.097,0.241 0.241,0.241 h 1.536 c 0.144,0 0.24,-0.096 0.24,-0.241 v -1.08 h 0.024 c 0.552,0.913 1.536,1.585 3.264,1.585 1.992,0 3.385,-0.937 3.961,-2.76 C 2.232,4.729 2.328,3.816 2.328,2.4 2.328,0.96 2.232,0.048 1.921,-0.864 1.345,-2.688 -0.048,-3.625 -2.04,-3.625 c -1.728,0 -2.712,0.697 -3.264,1.609 h -0.024 v -5.425 c 0,-0.144 -0.096,-0.24 -0.24,-0.24 z" style="fill:#000000;fill-opacity:1;fill-rule:nonzero;stroke:none" id="path178"/></svg:g><svg:g id="g180" transform="translate(161.2949,357.5904)"><svg:path d="m 0,0 c -0.144,0 -0.24,0.096 -0.24,0.24 v 11.017 c 0,0.144 0.096,0.24 0.24,0.24 h 1.536 c 0.145,0 0.24,-0.096 0.24,-0.24 v -1.176 h 0.025 c 0.504,0.984 1.512,1.68 3.048,1.68 0.912,0 1.776,-0.336 2.352,-0.864 0.12,-0.12 0.144,-0.216 0.048,-0.336 L 6.36,9.385 C 6.265,9.265 6.145,9.241 6.024,9.337 5.497,9.673 4.921,9.889 4.249,9.889 2.496,9.889 1.776,8.521 1.776,6.528 V 0.24 C 1.776,0.096 1.681,0 1.536,0 Z" style="fill:#000000;fill-opacity:1;fill-rule:nonzero;stroke:none" id="path182"/></svg:g><svg:g id="g184" transform="translate(177.2803,360.9986)"><svg:path d="M 0,0 C 0.191,0.624 0.264,1.248 0.264,2.353 0.264,3.457 0.191,4.057 0,4.681 -0.385,5.833 -1.32,6.48 -2.593,6.48 -3.864,6.48 -4.801,5.833 -5.185,4.681 -5.377,4.057 -5.449,3.457 -5.449,2.353 c 0,-1.105 0.072,-1.729 0.264,-2.353 0.384,-1.152 1.321,-1.8 2.592,-1.8 1.273,0 2.208,0.648 2.593,1.8 m -7.129,-0.576 c -0.264,0.792 -0.384,1.584 -0.384,2.929 0,1.319 0.12,2.111 0.384,2.903 0.624,1.969 2.304,3.097 4.536,3.097 2.233,0 3.912,-1.128 4.536,-3.097 C 2.208,4.464 2.328,3.672 2.328,2.353 2.328,1.008 2.208,0.216 1.943,-0.576 1.319,-2.52 -0.36,-3.672 -2.593,-3.672 c -2.232,0 -3.912,1.152 -4.536,3.096" style="fill:#000000;fill-opacity:1;fill-rule:nonzero;stroke:none" id="path186"/></svg:g><svg:g id="g188" transform="translate(189.3994,357.5904)"><svg:path d="M 0,0 C -0.168,0 -0.239,0.048 -0.359,0.216 L -3.144,4.272 H -3.168 L -5.952,0.216 C -6.048,0.048 -6.145,0 -6.312,0 H -8.017 C -8.208,0 -8.256,0.12 -8.185,0.24 L -4.271,6 -7.849,11.257 c -0.071,0.12 -0.023,0.24 0.168,0.24 h 1.729 c 0.144,0 0.264,-0.024 0.36,-0.216 l 2.424,-3.576 h 0.024 l 2.472,3.576 c 0.097,0.168 0.193,0.216 0.336,0.216 h 1.729 c 0.192,0 0.24,-0.12 0.168,-0.24 L -2.04,6 1.896,0.24 C 1.969,0.12 1.921,0 1.729,0 Z" style="fill:#000000;fill-opacity:1;fill-rule:nonzero;stroke:none" id="path190"/></svg:g><svg:g id="g192" transform="translate(193.6943,359.8946)"><svg:path d="M 0,0 C 0,0.144 0.097,0.24 0.24,0.24 H 2.064 C 2.209,0.24 2.305,0.144 2.305,0 v -2.064 c 0,-0.144 -0.096,-0.24 -0.241,-0.24 H 0.24 C 0.097,-2.304 0,-2.208 0,-2.064 Z" style="fill:#000000;fill-opacity:1;fill-rule:nonzero;stroke:none" id="path194"/></svg:g><svg:g id="g196" transform="translate(211.5029,364.2628)"><svg:path d="M 0,0 C 0.816,0 1.297,0.456 1.801,1.296 1.872,1.417 1.992,1.44 2.137,1.344 L 3.049,0.816 C 3.192,0.72 3.217,0.648 3.145,0.48 2.521,-0.864 1.32,-1.68 -0.023,-1.68 c -0.985,0 -1.752,0.456 -2.401,0.888 -0.552,0.36 -1.152,0.696 -1.704,0.696 -0.816,0 -1.296,-0.456 -1.8,-1.296 C -6,-1.512 -6.12,-1.536 -6.265,-1.44 l -0.911,0.528 c -0.144,0.096 -0.169,0.168 -0.096,0.336 0.624,1.344 1.824,2.16 3.168,2.16 0.984,0 1.752,-0.456 2.4,-0.888 C -1.151,0.336 -0.552,0 0,0" style="fill:#000000;fill-opacity:1;fill-rule:nonzero;stroke:none" id="path198"/></svg:g><svg:g id="g200" transform="translate(217.2148,360.6866)"><svg:path d="m 0,0 v 1.32 c 0,0.096 0.023,0.192 0.071,0.288 l 5.282,11.425 c 0.071,0.144 0.168,0.192 0.335,0.192 h 1.608 c 0.168,0 0.217,-0.096 0.168,-0.216 L 2.256,1.656 V 1.608 h 4.32 c 0.096,0 0.145,0.048 0.145,0.144 v 4.272 c 0,0.144 0.095,0.241 0.239,0.241 h 1.536 c 0.145,0 0.24,-0.097 0.24,-0.241 V 1.752 c 0,-0.096 0.048,-0.144 0.145,-0.144 h 1.487 c 0.145,0 0.24,-0.096 0.24,-0.24 V 0 c 0,-0.144 -0.095,-0.24 -0.24,-0.24 H 8.881 c -0.097,0 -0.145,-0.048 -0.145,-0.144 v -2.472 c 0,-0.144 -0.095,-0.24 -0.24,-0.24 H 6.96 c -0.144,0 -0.239,0.096 -0.239,0.24 v 2.472 c 0,0.096 -0.049,0.144 -0.145,0.144 H 0.239 C 0.096,-0.24 0,-0.144 0,0" style="fill:#000000;fill-opacity:1;fill-rule:nonzero;stroke:none" id="path202"/></svg:g><svg:g id="g204" transform="translate(251.3672,357.5904)"><svg:path d="m 0,0 c -0.144,0 -0.24,0.096 -0.24,0.24 v 6.72 c 0,1.849 -0.84,2.929 -2.568,2.929 -1.536,0 -2.64,-1.104 -2.64,-2.808 V 0.24 C -5.448,0.096 -5.544,0 -5.688,0 h -1.537 c -0.143,0 -0.24,0.096 -0.24,0.24 v 6.72 c 0,1.849 -0.84,2.929 -2.567,2.929 -1.561,0 -2.641,-1.104 -2.641,-2.808 V 0.24 c 0,-0.144 -0.096,-0.24 -0.24,-0.24 h -1.536 c -0.144,0 -0.24,0.096 -0.24,0.24 v 11.017 c 0,0.144 0.096,0.24 0.24,0.24 h 1.536 c 0.144,0 0.24,-0.096 0.24,-0.24 v -1.056 h 0.025 c 0.551,0.888 1.655,1.56 3.215,1.56 1.561,0 2.712,-0.648 3.361,-1.8 h 0.024 c 0.792,1.104 1.968,1.8 3.72,1.8 2.664,0 4.104,-1.704 4.104,-4.321 V 0.24 C 1.776,0.096 1.681,0 1.536,0 Z" style="fill:#000000;fill-opacity:1;fill-rule:nonzero;stroke:none" id="path206"/></svg:g><svg:g id="g208" transform="translate(263.7979,364.3351)"><svg:path d="m 0,0 c 0.096,0 0.145,0.048 0.145,0.144 0,0.528 -0.049,0.936 -0.168,1.296 -0.385,1.152 -1.345,1.8 -2.641,1.8 C -3.96,3.24 -4.92,2.592 -5.305,1.44 -5.424,1.08 -5.473,0.672 -5.473,0.144 -5.473,0.048 -5.424,0 -5.328,0 Z m -7.152,-3.888 c -0.241,0.743 -0.384,1.584 -0.384,2.904 0,1.32 0.12,2.208 0.359,2.904 0.649,1.992 2.328,3.097 4.513,3.097 2.208,0 3.864,-1.129 4.513,-3.097 0.239,-0.744 0.359,-1.536 0.359,-3.288 0,-0.144 -0.096,-0.24 -0.264,-0.24 h -7.272 c -0.096,0 -0.145,-0.048 -0.145,-0.144 0,-0.624 0.073,-1.008 0.193,-1.393 0.456,-1.319 1.488,-1.992 2.904,-1.992 1.368,0 2.328,0.553 2.952,1.273 0.12,0.12 0.24,0.144 0.361,0.048 L 1.92,-4.705 C 2.04,-4.8 2.04,-4.92 1.944,-5.041 1.032,-6.192 -0.528,-7.009 -2.544,-7.009 c -2.328,0 -3.984,1.129 -4.608,3.121" style="fill:#000000;fill-opacity:1;fill-rule:nonzero;stroke:none" id="path210"/></svg:g><svg:g id="g212" transform="translate(272.582,357.4703)"><svg:path d="m 0,0 c -2.232,0 -3.097,1.008 -3.097,3.264 v 6.577 c 0,0.096 -0.048,0.144 -0.143,0.144 H -4.2 c -0.145,0 -0.24,0.096 -0.24,0.24 v 1.152 c 0,0.144 0.095,0.24 0.24,0.24 h 0.96 c 0.095,0 0.143,0.048 0.143,0.144 v 3.24 c 0,0.145 0.097,0.24 0.241,0.24 h 1.536 c 0.143,0 0.24,-0.095 0.24,-0.24 v -3.24 c 0,-0.096 0.048,-0.144 0.143,-0.144 h 1.825 c 0.144,0 0.24,-0.096 0.24,-0.24 v -1.152 c 0,-0.144 -0.096,-0.24 -0.24,-0.24 H -0.937 C -1.032,9.985 -1.08,9.937 -1.08,9.841 V 3.336 c 0,-1.152 0.432,-1.464 1.464,-1.464 h 0.504 c 0.144,0 0.24,-0.096 0.24,-0.24 V 0.24 C 1.128,0.096 1.032,0 0.888,0 Z" style="fill:#000000;fill-opacity:1;fill-rule:nonzero;stroke:none" id="path214"/></svg:g><svg:g id="g216" transform="translate(283.6699,364.3351)"><svg:path d="m 0,0 c 0.096,0 0.145,0.048 0.145,0.144 0,0.528 -0.049,0.936 -0.168,1.296 -0.385,1.152 -1.345,1.8 -2.641,1.8 C -3.96,3.24 -4.92,2.592 -5.305,1.44 -5.424,1.08 -5.473,0.672 -5.473,0.144 -5.473,0.048 -5.424,0 -5.328,0 Z m -7.152,-3.888 c -0.241,0.743 -0.384,1.584 -0.384,2.904 0,1.32 0.12,2.208 0.359,2.904 0.649,1.992 2.328,3.097 4.513,3.097 2.208,0 3.864,-1.129 4.513,-3.097 0.239,-0.744 0.359,-1.536 0.359,-3.288 0,-0.144 -0.096,-0.24 -0.264,-0.24 h -7.272 c -0.096,0 -0.145,-0.048 -0.145,-0.144 0,-0.624 0.073,-1.008 0.193,-1.393 0.456,-1.319 1.488,-1.992 2.904,-1.992 1.368,0 2.328,0.553 2.952,1.273 0.12,0.12 0.24,0.144 0.361,0.048 L 1.92,-4.705 C 2.04,-4.8 2.04,-4.92 1.944,-5.041 1.032,-6.192 -0.528,-7.009 -2.544,-7.009 c -2.328,0 -3.984,1.129 -4.608,3.121" style="fill:#000000;fill-opacity:1;fill-rule:nonzero;stroke:none" id="path218"/></svg:g><svg:g id="g220" transform="translate(289.3574,357.5904)"><svg:path d="m 0,0 c -0.144,0 -0.24,0.096 -0.24,0.24 v 11.017 c 0,0.144 0.096,0.24 0.24,0.24 h 1.536 c 0.145,0 0.24,-0.096 0.24,-0.24 v -1.176 h 0.025 c 0.504,0.984 1.512,1.68 3.048,1.68 0.912,0 1.776,-0.336 2.352,-0.864 0.12,-0.12 0.144,-0.216 0.048,-0.336 L 6.36,9.385 C 6.265,9.265 6.145,9.241 6.024,9.337 5.497,9.673 4.921,9.889 4.249,9.889 2.496,9.889 1.776,8.521 1.776,6.528 V 0.24 C 1.776,0.096 1.681,0 1.536,0 Z" style="fill:#000000;fill-opacity:1;fill-rule:nonzero;stroke:none" id="path222"/></svg:g><svg:g id="g224" transform="translate(297.9727,359.0548)"><svg:path d="m 0,0 c -0.096,0.096 -0.096,0.24 0,0.336 l 0.984,1.056 c 0.096,0.096 0.241,0.096 0.336,0 0.865,-0.744 2.16,-1.32 3.553,-1.32 1.68,0 2.52,0.72 2.52,1.752 0,0.912 -0.432,1.416 -2.232,1.608 l -1.224,0.12 c -2.256,0.24 -3.433,1.368 -3.433,3.24 0,2.185 1.56,3.505 4.272,3.505 1.681,0 3.121,-0.552 4.081,-1.273 C 8.978,8.953 8.978,8.809 8.905,8.688 L 8.089,7.656 C 7.993,7.537 7.873,7.537 7.753,7.608 7.009,8.088 5.833,8.544 4.656,8.544 3.217,8.544 2.473,7.896 2.473,6.96 2.473,6.048 3.024,5.568 4.729,5.4 l 1.2,-0.12 C 8.257,5.064 9.385,3.888 9.385,2.04 9.385,-0.216 7.753,-1.729 4.753,-1.729 2.521,-1.729 0.937,-0.816 0,0" style="fill:#000000;fill-opacity:1;fill-rule:nonzero;stroke:none" id="path226"/></svg:g><svg:g id="g228" transform="translate(123.0146,328.7901)"><svg:path d="m 0,0 c -0.144,0 -0.24,0.096 -0.24,0.24 v 11.017 c 0,0.144 0.096,0.24 0.24,0.24 h 1.536 c 0.145,0 0.24,-0.096 0.24,-0.24 V 0.24 C 1.776,0.096 1.681,0 1.536,0 Z m -0.048,14.089 c -0.143,0 -0.24,0.096 -0.24,0.24 v 1.753 c 0,0.144 0.097,0.239 0.24,0.239 h 1.632 c 0.145,0 0.24,-0.095 0.24,-0.239 v -1.753 c 0,-0.144 -0.095,-0.24 -0.24,-0.24 z" style="fill:#000000;fill-opacity:1;fill-rule:nonzero;stroke:none" id="path230"/></svg:g><svg:g id="g232" transform="translate(136.1904,328.7901)"><svg:path d="m 0,0 c -0.144,0 -0.24,0.096 -0.24,0.24 v 6.72 c 0,1.849 -0.84,2.929 -2.568,2.929 -1.56,0 -2.64,-1.104 -2.64,-2.808 V 0.24 C -5.448,0.096 -5.544,0 -5.688,0 h -1.537 c -0.143,0 -0.24,0.096 -0.24,0.24 v 11.017 c 0,0.144 0.097,0.24 0.24,0.24 h 1.537 c 0.144,0 0.24,-0.096 0.24,-0.24 v -1.056 h 0.024 c 0.552,0.888 1.655,1.56 3.216,1.56 2.496,0 3.984,-1.704 3.984,-4.321 V 0.24 C 1.776,0.096 1.681,0 1.536,0 Z" style="fill:#000000;fill-opacity:1;fill-rule:nonzero;stroke:none" id="path234"/></svg:g><svg:g id="g236" transform="translate(150.8779,328.67)"><svg:path d="m 0,0 c -2.232,0 -3.097,1.008 -3.097,3.264 v 6.577 c 0,0.096 -0.048,0.144 -0.143,0.144 H -4.2 c -0.145,0 -0.24,0.096 -0.24,0.24 v 1.152 c 0,0.144 0.095,0.24 0.24,0.24 h 0.96 c 0.095,0 0.143,0.048 0.143,0.144 v 3.24 c 0,0.145 0.096,0.24 0.241,0.24 h 1.536 c 0.143,0 0.24,-0.095 0.24,-0.24 v -3.24 c 0,-0.096 0.048,-0.144 0.143,-0.144 h 1.825 c 0.144,0 0.24,-0.096 0.24,-0.24 v -1.152 c 0,-0.144 -0.096,-0.24 -0.24,-0.24 H -0.937 C -1.032,9.985 -1.08,9.937 -1.08,9.841 V 3.336 c 0,-1.152 0.432,-1.464 1.464,-1.464 h 0.504 c 0.144,0 0.24,-0.096 0.24,-0.24 V 0.24 C 1.128,0.096 1.032,0 0.888,0 Z" style="fill:#000000;fill-opacity:1;fill-rule:nonzero;stroke:none" id="path238"/></svg:g><svg:g id="g240" transform="translate(162.5898,328.7901)"><svg:path d="m 0,0 c -0.144,0 -0.24,0.096 -0.24,0.24 v 6.72 c 0,1.849 -0.84,2.929 -2.568,2.929 -1.56,0 -2.64,-1.104 -2.64,-2.808 V 0.24 C -5.448,0.096 -5.544,0 -5.688,0 h -1.537 c -0.143,0 -0.24,0.096 -0.24,0.24 v 15.842 c 0,0.144 0.097,0.239 0.24,0.239 h 1.537 c 0.144,0 0.24,-0.095 0.24,-0.239 v -5.881 h 0.024 c 0.552,0.888 1.655,1.56 3.216,1.56 2.496,0 3.984,-1.704 3.984,-4.321 V 0.24 C 1.776,0.096 1.681,0 1.536,0 Z" style="fill:#000000;fill-opacity:1;fill-rule:nonzero;stroke:none" id="path242"/></svg:g><svg:g id="g244" transform="translate(175.0215,335.5348)"><svg:path d="m 0,0 c 0.096,0 0.145,0.048 0.145,0.144 0,0.528 -0.049,0.936 -0.168,1.296 -0.385,1.152 -1.345,1.8 -2.641,1.8 C -3.96,3.24 -4.92,2.592 -5.305,1.44 -5.424,1.08 -5.473,0.672 -5.473,0.144 -5.473,0.048 -5.424,0 -5.328,0 Z m -7.152,-3.888 c -0.241,0.743 -0.384,1.584 -0.384,2.904 0,1.32 0.12,2.208 0.359,2.904 0.649,1.992 2.328,3.097 4.513,3.097 2.208,0 3.864,-1.129 4.513,-3.097 0.239,-0.744 0.359,-1.536 0.359,-3.288 0,-0.144 -0.096,-0.24 -0.264,-0.24 h -7.272 c -0.096,0 -0.145,-0.048 -0.145,-0.144 0,-0.624 0.073,-1.008 0.193,-1.393 0.456,-1.319 1.488,-1.992 2.904,-1.992 1.368,0 2.328,0.553 2.952,1.273 0.12,0.12 0.24,0.144 0.361,0.048 L 1.92,-4.705 C 2.04,-4.8 2.04,-4.92 1.944,-5.041 1.032,-6.192 -0.528,-7.009 -2.544,-7.009 c -2.328,0 -3.984,1.129 -4.608,3.121" style="fill:#000000;fill-opacity:1;fill-rule:nonzero;stroke:none" id="path246"/></svg:g><svg:g id="g248" transform="translate(193.5732,332.1505)"><svg:path d="M 0,0 C 0.192,0.6 0.265,1.344 0.265,2.4 0.265,3.432 0.192,4.176 0,4.8 -0.384,5.928 -1.248,6.528 -2.52,6.528 -3.792,6.528 -4.68,5.953 -5.064,4.8 -5.256,4.224 -5.328,3.552 -5.328,2.4 c 0,-1.152 0.072,-1.848 0.264,-2.4 0.384,-1.152 1.272,-1.752 2.544,-1.752 1.272,0 2.136,0.624 2.52,1.752 m -7.104,-7.681 c -0.144,0 -0.241,0.097 -0.241,0.24 V 7.896 c 0,0.145 0.097,0.241 0.241,0.241 h 1.536 c 0.144,0 0.24,-0.096 0.24,-0.241 v -1.08 h 0.024 c 0.552,0.913 1.536,1.585 3.264,1.585 1.992,0 3.385,-0.937 3.961,-2.76 C 2.232,4.729 2.328,3.816 2.328,2.4 2.328,0.96 2.232,0.048 1.921,-0.864 1.345,-2.688 -0.048,-3.625 -2.04,-3.625 c -1.728,0 -2.712,0.697 -3.264,1.609 h -0.024 v -5.425 c 0,-0.143 -0.096,-0.24 -0.24,-0.24 z" style="fill:#000000;fill-opacity:1;fill-rule:nonzero;stroke:none" id="path250"/></svg:g><svg:g id="g252" transform="translate(205.958,332.1983)"><svg:path d="M 0,0 C 0.191,0.624 0.264,1.248 0.264,2.352 0.264,3.457 0.191,4.057 0,4.681 -0.385,5.833 -1.32,6.48 -2.593,6.48 -3.864,6.48 -4.801,5.833 -5.185,4.681 -5.377,4.057 -5.449,3.457 -5.449,2.352 c 0,-1.104 0.072,-1.728 0.264,-2.352 0.384,-1.152 1.321,-1.8 2.592,-1.8 1.273,0 2.208,0.648 2.593,1.8 m -7.129,-0.576 c -0.264,0.792 -0.384,1.584 -0.384,2.928 0,1.32 0.12,2.112 0.384,2.904 0.624,1.969 2.304,3.097 4.536,3.097 2.233,0 3.912,-1.128 4.536,-3.097 C 2.208,4.464 2.328,3.672 2.328,2.352 2.328,1.008 2.208,0.216 1.943,-0.576 1.319,-2.52 -0.36,-3.672 -2.593,-3.672 c -2.232,0 -3.912,1.152 -4.536,3.096" style="fill:#000000;fill-opacity:1;fill-rule:nonzero;stroke:none" id="path254"/></svg:g><svg:g id="g256" transform="translate(211.7646,328.7901)"><svg:path d="m 0,0 c -0.144,0 -0.24,0.096 -0.24,0.24 v 11.017 c 0,0.144 0.096,0.24 0.24,0.24 h 1.536 c 0.145,0 0.24,-0.096 0.24,-0.24 V 0.24 C 1.776,0.096 1.681,0 1.536,0 Z m -0.048,14.089 c -0.143,0 -0.24,0.096 -0.24,0.24 v 1.753 c 0,0.144 0.097,0.239 0.24,0.239 h 1.632 c 0.145,0 0.24,-0.095 0.24,-0.239 v -1.753 c 0,-0.144 -0.095,-0.24 -0.24,-0.24 z" style="fill:#000000;fill-opacity:1;fill-rule:nonzero;stroke:none" id="path258"/></svg:g><svg:g id="g260" transform="translate(224.9404,328.7901)"><svg:path d="m 0,0 c -0.144,0 -0.24,0.096 -0.24,0.24 v 6.72 c 0,1.849 -0.84,2.929 -2.568,2.929 -1.56,0 -2.64,-1.104 -2.64,-2.808 V 0.24 C -5.448,0.096 -5.544,0 -5.688,0 h -1.537 c -0.143,0 -0.24,0.096 -0.24,0.24 v 11.017 c 0,0.144 0.097,0.24 0.24,0.24 h 1.537 c 0.144,0 0.24,-0.096 0.24,-0.24 v -1.056 h 0.024 c 0.552,0.888 1.655,1.56 3.216,1.56 2.496,0 3.984,-1.704 3.984,-4.321 V 0.24 C 1.776,0.096 1.681,0 1.536,0 Z" style="fill:#000000;fill-opacity:1;fill-rule:nonzero;stroke:none" id="path262"/></svg:g><svg:g id="g264" transform="translate(233.8682,328.67)"><svg:path d="m 0,0 c -2.232,0 -3.097,1.008 -3.097,3.264 v 6.577 c 0,0.096 -0.048,0.144 -0.143,0.144 H -4.2 c -0.145,0 -0.24,0.096 -0.24,0.24 v 1.152 c 0,0.144 0.095,0.24 0.24,0.24 h 0.96 c 0.095,0 0.143,0.048 0.143,0.144 v 3.24 c 0,0.145 0.096,0.24 0.241,0.24 h 1.536 c 0.143,0 0.24,-0.095 0.24,-0.24 v -3.24 c 0,-0.096 0.048,-0.144 0.143,-0.144 h 1.825 c 0.144,0 0.24,-0.096 0.24,-0.24 v -1.152 c 0,-0.144 -0.096,-0.24 -0.24,-0.24 H -0.937 C -1.032,9.985 -1.08,9.937 -1.08,9.841 V 3.336 c 0,-1.152 0.432,-1.464 1.464,-1.464 h 0.504 c 0.144,0 0.24,-0.096 0.24,-0.24 V 0.24 C 1.128,0.096 1.032,0 0.888,0 Z" style="fill:#000000;fill-opacity:1;fill-rule:nonzero;stroke:none" id="path266"/></svg:g><svg:g id="g268" transform="translate(244.9561,335.5348)"><svg:path d="m 0,0 c 0.096,0 0.145,0.048 0.145,0.144 0,0.528 -0.049,0.936 -0.168,1.296 -0.385,1.152 -1.345,1.8 -2.641,1.8 C -3.96,3.24 -4.92,2.592 -5.305,1.44 -5.424,1.08 -5.473,0.672 -5.473,0.144 -5.473,0.048 -5.424,0 -5.328,0 Z m -7.152,-3.888 c -0.241,0.743 -0.384,1.584 -0.384,2.904 0,1.32 0.12,2.208 0.359,2.904 0.649,1.992 2.328,3.097 4.513,3.097 2.208,0 3.864,-1.129 4.513,-3.097 0.239,-0.744 0.359,-1.536 0.359,-3.288 0,-0.144 -0.096,-0.24 -0.264,-0.24 h -7.272 c -0.096,0 -0.145,-0.048 -0.145,-0.144 0,-0.624 0.073,-1.008 0.193,-1.393 0.456,-1.319 1.488,-1.992 2.904,-1.992 1.368,0 2.328,0.553 2.952,1.273 0.12,0.12 0.24,0.144 0.361,0.048 L 1.92,-4.705 C 2.04,-4.8 2.04,-4.92 1.944,-5.041 1.032,-6.192 -0.528,-7.009 -2.544,-7.009 c -2.328,0 -3.984,1.129 -4.608,3.121" style="fill:#000000;fill-opacity:1;fill-rule:nonzero;stroke:none" id="path270"/></svg:g><svg:g id="g272" transform="translate(257.1006,332.1505)"><svg:path d="M 0,0 C 0.191,0.552 0.264,1.248 0.264,2.4 0.264,3.552 0.191,4.224 0,4.8 -0.385,5.953 -1.272,6.528 -2.545,6.528 -3.816,6.528 -4.681,5.928 -5.064,4.8 -5.257,4.176 -5.329,3.432 -5.329,2.4 c 0,-1.056 0.072,-1.8 0.265,-2.4 0.383,-1.128 1.248,-1.752 2.519,-1.752 1.273,0 2.16,0.6 2.545,1.752 m 0.504,-3.36 c -0.145,0 -0.24,0.096 -0.24,0.24 v 1.104 H 0.239 c -0.551,-0.912 -1.536,-1.609 -3.263,-1.609 -1.993,0 -3.385,0.937 -3.961,2.761 -0.312,0.912 -0.408,1.824 -0.408,3.264 0,1.416 0.096,2.329 0.408,3.241 0.576,1.823 1.968,2.76 3.961,2.76 1.727,0 2.712,-0.672 3.263,-1.585 h 0.025 v 5.905 c 0,0.144 0.095,0.24 0.24,0.24 H 2.04 c 0.144,0 0.24,-0.096 0.24,-0.24 V -3.12 c 0,-0.144 -0.096,-0.24 -0.24,-0.24 z" style="fill:#000000;fill-opacity:1;fill-rule:nonzero;stroke:none" id="path274"/></svg:g><svg:g id="g276" transform="translate(275.7725,332.1505)"><svg:path d="M 0,0 C 0.191,0.552 0.264,1.248 0.264,2.4 0.264,3.552 0.191,4.224 0,4.8 -0.385,5.953 -1.272,6.528 -2.545,6.528 -3.816,6.528 -4.681,5.928 -5.064,4.8 -5.257,4.176 -5.329,3.432 -5.329,2.4 c 0,-1.056 0.072,-1.8 0.265,-2.4 0.383,-1.128 1.248,-1.752 2.519,-1.752 1.273,0 2.16,0.6 2.545,1.752 m 0.504,-3.36 c -0.145,0 -0.24,0.096 -0.24,0.24 v 1.104 H 0.239 c -0.551,-0.912 -1.536,-1.609 -3.263,-1.609 -1.993,0 -3.385,0.937 -3.961,2.761 -0.312,0.912 -0.408,1.824 -0.408,3.264 0,1.416 0.096,2.329 0.408,3.241 0.576,1.823 1.968,2.76 3.961,2.76 1.727,0 2.712,-0.672 3.263,-1.585 h 0.025 v 5.905 c 0,0.144 0.095,0.24 0.24,0.24 H 2.04 c 0.144,0 0.24,-0.096 0.24,-0.24 V -3.12 c 0,-0.144 -0.096,-0.24 -0.24,-0.24 z" style="fill:#000000;fill-opacity:1;fill-rule:nonzero;stroke:none" id="path278"/></svg:g><svg:g id="g280" transform="translate(282.2275,328.7901)"><svg:path d="m 0,0 c -0.144,0 -0.24,0.096 -0.24,0.24 v 11.017 c 0,0.144 0.096,0.24 0.24,0.24 h 1.536 c 0.145,0 0.24,-0.096 0.24,-0.24 V 0.24 C 1.776,0.096 1.681,0 1.536,0 Z m -0.048,14.089 c -0.143,0 -0.24,0.096 -0.24,0.24 v 1.753 c 0,0.144 0.097,0.239 0.24,0.239 h 1.632 c 0.145,0 0.24,-0.095 0.24,-0.239 v -1.753 c 0,-0.144 -0.095,-0.24 -0.24,-0.24 z" style="fill:#000000;fill-opacity:1;fill-rule:nonzero;stroke:none" id="path282"/></svg:g><svg:g id="g284" transform="translate(288.1787,328.7901)"><svg:path d="m 0,0 c -0.144,0 -0.24,0.096 -0.24,0.24 v 11.017 c 0,0.144 0.096,0.24 0.24,0.24 h 1.536 c 0.145,0 0.24,-0.096 0.24,-0.24 v -1.176 h 0.025 c 0.504,0.984 1.512,1.68 3.048,1.68 0.912,0 1.776,-0.336 2.352,-0.864 0.12,-0.12 0.144,-0.216 0.048,-0.336 L 6.36,9.385 C 6.265,9.265 6.145,9.241 6.024,9.337 5.497,9.673 4.921,9.889 4.249,9.889 2.496,9.889 1.776,8.521 1.776,6.529 V 0.24 C 1.776,0.096 1.681,0 1.536,0 Z" style="fill:#000000;fill-opacity:1;fill-rule:nonzero;stroke:none" id="path286"/></svg:g><svg:g id="g288" transform="translate(304.1875,335.5348)"><svg:path d="m 0,0 c 0.096,0 0.145,0.048 0.145,0.144 0,0.528 -0.049,0.936 -0.168,1.296 -0.385,1.152 -1.345,1.8 -2.641,1.8 C -3.96,3.24 -4.92,2.592 -5.305,1.44 -5.424,1.08 -5.473,0.672 -5.473,0.144 -5.473,0.048 -5.424,0 -5.328,0 Z m -7.152,-3.888 c -0.241,0.743 -0.384,1.584 -0.384,2.904 0,1.32 0.12,2.208 0.359,2.904 0.649,1.992 2.328,3.097 4.513,3.097 2.208,0 3.864,-1.129 4.513,-3.097 0.239,-0.744 0.359,-1.536 0.359,-3.288 0,-0.144 -0.096,-0.24 -0.264,-0.24 h -7.272 c -0.096,0 -0.145,-0.048 -0.145,-0.144 0,-0.624 0.073,-1.008 0.193,-1.393 0.456,-1.319 1.488,-1.992 2.904,-1.992 1.368,0 2.328,0.553 2.952,1.273 0.12,0.12 0.24,0.144 0.361,0.048 L 1.92,-4.705 C 2.04,-4.8 2.04,-4.92 1.944,-5.041 1.032,-6.192 -0.528,-7.009 -2.544,-7.009 c -2.328,0 -3.984,1.129 -4.608,3.121" style="fill:#000000;fill-opacity:1;fill-rule:nonzero;stroke:none" id="path290"/></svg:g><svg:g id="g292" transform="translate(309.2988,337.4547)"><svg:path d="M 0,0 C 0.648,1.992 2.328,3.097 4.537,3.097 6.289,3.097 7.633,2.353 8.473,1.152 8.545,1.032 8.545,0.937 8.401,0.816 L 7.345,-0.048 C 7.225,-0.144 7.104,-0.144 7.009,-0.024 6.337,0.816 5.688,1.224 4.537,1.224 c -1.248,0 -2.184,-0.6 -2.568,-1.8 -0.193,-0.6 -0.265,-1.32 -0.265,-2.328 0,-1.032 0.072,-1.752 0.265,-2.352 0.384,-1.201 1.32,-1.801 2.568,-1.801 1.151,0 1.8,0.409 2.472,1.249 0.095,0.12 0.216,0.12 0.336,0.024 L 8.401,-6.648 C 8.545,-6.769 8.545,-6.864 8.473,-6.984 7.633,-8.185 6.289,-8.929 4.537,-8.929 2.328,-8.929 0.648,-7.825 0,-5.833 -0.216,-5.136 -0.359,-4.2 -0.359,-2.904 -0.359,-1.632 -0.216,-0.696 0,0" style="fill:#000000;fill-opacity:1;fill-rule:nonzero;stroke:none" id="path294"/></svg:g><svg:g id="g296" transform="translate(324.2988,328.67)"><svg:path d="m 0,0 c -2.232,0 -3.097,1.008 -3.097,3.264 v 6.577 c 0,0.096 -0.048,0.144 -0.143,0.144 H -4.2 c -0.145,0 -0.24,0.096 -0.24,0.24 v 1.152 c 0,0.144 0.095,0.24 0.24,0.24 h 0.96 c 0.095,0 0.143,0.048 0.143,0.144 v 3.24 c 0,0.145 0.097,0.24 0.241,0.24 h 1.536 c 0.143,0 0.24,-0.095 0.24,-0.24 v -3.24 c 0,-0.096 0.048,-0.144 0.143,-0.144 h 1.825 c 0.144,0 0.24,-0.096 0.24,-0.24 v -1.152 c 0,-0.144 -0.096,-0.24 -0.24,-0.24 H -0.937 C -1.032,9.985 -1.08,9.937 -1.08,9.841 V 3.336 c 0,-1.152 0.432,-1.464 1.464,-1.464 h 0.504 c 0.144,0 0.24,-0.096 0.24,-0.24 V 0.24 C 1.128,0.096 1.032,0 0.888,0 Z" style="fill:#000000;fill-opacity:1;fill-rule:nonzero;stroke:none" id="path298"/></svg:g><svg:g id="g300" transform="translate(328.7861,328.7901)"><svg:path d="m 0,0 c -0.144,0 -0.24,0.096 -0.24,0.24 v 11.017 c 0,0.144 0.096,0.24 0.24,0.24 h 1.536 c 0.145,0 0.24,-0.096 0.24,-0.24 V 0.24 C 1.776,0.096 1.681,0 1.536,0 Z m -0.048,14.089 c -0.143,0 -0.24,0.096 -0.24,0.24 v 1.753 c 0,0.144 0.097,0.239 0.24,0.239 h 1.632 c 0.145,0 0.24,-0.095 0.24,-0.239 v -1.753 c 0,-0.144 -0.095,-0.24 -0.24,-0.24 z" style="fill:#000000;fill-opacity:1;fill-rule:nonzero;stroke:none" id="path302"/></svg:g><svg:g id="g304" transform="translate(341.3145,332.1983)"><svg:path d="M 0,0 C 0.191,0.624 0.264,1.248 0.264,2.352 0.264,3.457 0.191,4.057 0,4.681 -0.385,5.833 -1.32,6.48 -2.593,6.48 -3.864,6.48 -4.801,5.833 -5.185,4.681 -5.377,4.057 -5.449,3.457 -5.449,2.352 c 0,-1.104 0.072,-1.728 0.264,-2.352 0.384,-1.152 1.321,-1.8 2.592,-1.8 1.273,0 2.208,0.648 2.593,1.8 m -7.129,-0.576 c -0.264,0.792 -0.384,1.584 -0.384,2.928 0,1.32 0.12,2.112 0.384,2.904 0.624,1.969 2.304,3.097 4.536,3.097 2.233,0 3.912,-1.128 4.536,-3.097 C 2.208,4.464 2.328,3.672 2.328,2.352 2.328,1.008 2.208,0.216 1.943,-0.576 1.319,-2.52 -0.36,-3.672 -2.593,-3.672 c -2.232,0 -3.912,1.152 -4.536,3.096" style="fill:#000000;fill-opacity:1;fill-rule:nonzero;stroke:none" id="path306"/></svg:g><svg:g id="g308" transform="translate(354.3457,328.7901)"><svg:path d="m 0,0 c -0.144,0 -0.24,0.096 -0.24,0.24 v 6.72 c 0,1.849 -0.84,2.929 -2.568,2.929 -1.56,0 -2.64,-1.104 -2.64,-2.808 V 0.24 C -5.448,0.096 -5.544,0 -5.688,0 h -1.537 c -0.143,0 -0.24,0.096 -0.24,0.24 v 11.017 c 0,0.144 0.097,0.24 0.24,0.24 h 1.537 c 0.144,0 0.24,-0.096 0.24,-0.24 v -1.056 h 0.024 c 0.552,0.888 1.655,1.56 3.216,1.56 2.496,0 3.984,-1.704 3.984,-4.321 V 0.24 C 1.776,0.096 1.681,0 1.536,0 Z" style="fill:#000000;fill-opacity:1;fill-rule:nonzero;stroke:none" id="path310"/></svg:g><svg:g id="g312" transform="translate(30.3755,130.1842)"><svg:path d="M 0,0 781.139,162.931 V 0 L 746.224,-23.146 H 26.225 Z" style="fill:#00a2ac;fill-opacity:1;fill-rule:nonzero;stroke:none" id="path314"/></svg:g><svg:g id="g316" transform="translate(168.9355,502.8194)"><svg:path d="M 0,0 C 0,12.549 -10.173,22.721 -22.721,22.721 -35.27,22.721 -45.442,12.549 -45.442,0 c 0,-12.548 10.172,-22.721 22.721,-22.721 C -10.173,-22.721 0,-12.548 0,0 Z" style="fill:none;stroke:#00a2ac;stroke-width:4.676;stroke-linecap:butt;stroke-linejoin:miter;stroke-miterlimit:10;stroke-dasharray:none;stroke-opacity:1" id="path318"/></svg:g><svg:g id="g320" transform="translate(149.4321,513.1495)"><svg:path d="m 0,0 c 0,1.539 -1.247,2.786 -2.786,2.786 -1.538,0 -2.785,-1.247 -2.785,-2.786 0,-1.539 1.247,-2.786 2.785,-2.786 C -1.247,-2.786 0,-1.539 0,0" style="fill:#00a2ac;fill-opacity:1;fill-rule:nonzero;stroke:none" id="path322"/></svg:g><svg:g id="g324" transform="translate(146.6465,489.7037)"><svg:path d="m 0,0 v 0 c -1.532,0 -2.786,1.254 -2.786,2.786 v 12.11 c 0,1.532 1.254,2.786 2.786,2.786 1.532,0 2.786,-1.254 2.786,-2.786 V 2.786 C 2.786,1.254 1.532,0 0,0" style="fill:#00a2ac;fill-opacity:1;fill-rule:nonzero;stroke:none" id="path326"/></svg:g><svg:g id="g328" transform="translate(141.0752,504.6002)"><svg:path d="M 0,0 V 0 C 0,1.532 1.253,2.786 2.786,2.786 H 5.571 C 7.104,2.786 8.357,1.532 8.357,0 8.357,-1.532 7.104,-2.786 5.571,-2.786 H 2.786 C 1.253,-2.786 0,-1.532 0,0" style="fill:#00a2ac;fill-opacity:1;fill-rule:nonzero;stroke:none" id="path330"/></svg:g><svg:g id="g332" transform="translate(521.4746,376.1148)"><svg:path d="M 0,0 -10.2,-57.434 H -57.546 Z" style="fill:#000000;fill-opacity:1;fill-rule:nonzero;stroke:none" id="path334"/></svg:g><svg:g id="g336" transform="translate(420.9448,963.4181)"><svg:path d="M 0,0 301.086,-301.086 0,-602.173 -301.086,-301.086 Z" style="fill:#000000;fill-opacity:1;fill-rule:nonzero;stroke:none" id="path338"/></svg:g><svg:g id="g340" transform="translate(420.9448,863.0558)"><svg:path d="M 0,0 50.181,-50.181 0,-100.362 -50.181,-50.181 Z" style="fill:#ffffff;fill-opacity:1;fill-rule:nonzero;stroke:none" id="path342"/></svg:g><svg:g id="g344" transform="translate(471.126,812.8746)"><svg:path d="M 0,0 50.182,-50.181 0,-100.362 -50.181,-50.181 Z" style="fill:#ffffff;fill-opacity:1;fill-rule:nonzero;stroke:none" id="path346"/></svg:g><svg:g id="g348" transform="translate(521.3076,762.6935)"><svg:path d="M 0,0 50.181,-50.181 0,-100.362 -50.182,-50.181 Z" style="fill:#000000;fill-opacity:1;fill-rule:nonzero;stroke:none" id="path350"/></svg:g><svg:g id="g352" transform="translate(571.4883,712.5123)"><svg:path d="M 0,0 50.181,-50.181 0,-100.362 -50.181,-50.181 Z" style="fill:#000000;fill-opacity:1;fill-rule:nonzero;stroke:none" id="path354"/></svg:g><svg:g id="g356" transform="translate(370.7637,812.8746)"><svg:path d="M 0,0 50.181,-50.181 0,-100.362 -50.181,-50.181 Z" style="fill:#000000;fill-opacity:1;fill-rule:nonzero;stroke:none" id="path358"/></svg:g><svg:g id="g360" transform="translate(420.9448,762.6935)"><svg:path d="M 0,0 50.181,-50.181 0,-100.362 -50.181,-50.181 Z" style="fill:#ffffff;fill-opacity:1;fill-rule:nonzero;stroke:none" id="path362"/></svg:g><svg:g id="g364" transform="translate(471.126,712.5123)"><svg:path d="M 0,0 50.182,-50.181 0,-100.362 -50.181,-50.181 Z" style="fill:#000000;fill-opacity:1;fill-rule:nonzero;stroke:none" id="path366"/></svg:g><svg:g id="g368" transform="translate(521.3076,662.3317)"><svg:path d="M 0,0 50.181,-50.181 0,-100.362 -50.182,-50.181 Z" style="fill:#000000;fill-opacity:1;fill-rule:nonzero;stroke:none" id="path370"/></svg:g><svg:g id="g372" transform="translate(320.5825,762.6935)"><svg:path d="M 0,0 50.181,-50.181 0,-100.362 -50.181,-50.181 Z" style="fill:#ffffff;fill-opacity:1;fill-rule:nonzero;stroke:none" id="path374"/></svg:g><svg:g id="g376" transform="translate(370.7637,712.5123)"><svg:path d="M 0,0 50.181,-50.181 0,-100.362 -50.181,-50.181 Z" style="fill:#ffffff;fill-opacity:1;fill-rule:nonzero;stroke:none" id="path378"/></svg:g><svg:g id="g380" transform="translate(420.9448,662.3317)"><svg:path d="M 0,0 50.181,-50.181 0,-100.362 -50.181,-50.181 Z" style="fill:#ffffff;fill-opacity:1;fill-rule:nonzero;stroke:none" id="path382"/></svg:g><svg:g id="g384" transform="translate(471.126,612.1505)"><svg:path d="M 0,0 50.182,-50.181 0,-100.362 -50.181,-50.181 Z" style="fill:#ffffff;fill-opacity:1;fill-rule:nonzero;stroke:none" id="path386"/></svg:g><svg:g id="g388" transform="translate(270.4014,712.5123)"><svg:path d="M 0,0 50.181,-50.181 0,-100.362 -50.181,-50.181 Z" style="fill:#000000;fill-opacity:1;fill-rule:nonzero;stroke:none" id="path390"/></svg:g><svg:g id="g392" transform="translate(320.5825,662.3317)"><svg:path d="M 0,0 50.181,-50.181 0,-100.362 -50.181,-50.181 Z" style="fill:#000000;fill-opacity:1;fill-rule:nonzero;stroke:none" id="path394"/></svg:g><svg:g id="g396" transform="translate(370.7637,612.1505)"><svg:path d="M 0,0 50.181,-50.181 0,-100.362 -50.181,-50.181 Z" style="fill:#ffffff;fill-opacity:1;fill-rule:nonzero;stroke:none" id="path398"/></svg:g><svg:g id="g400" transform="translate(420.9448,561.9694)"><svg:path d="M 0,0 50.181,-50.181 0,-100.362 -50.181,-50.181 Z" style="fill:#000000;fill-opacity:1;fill-rule:nonzero;stroke:none" id="path402"/></svg:g><svg:g id="g404" transform="translate(663.251,185.3795)"><svg:path d="M 0,0 C -0.58,2.847 -1.185,3.811 -4.446,3.811 -5.83,3.811 -6.962,3.425 -7.733,2.762 -8.395,2.213 -8.702,1.52 -8.702,0.664 c 0,-0.773 0.416,-1.713 0.941,-2.213 0.716,-0.689 1.765,-1.298 3.506,-2.178 2.157,-1.108 3.788,-1.746 4.976,-3.094 0.577,-0.669 1.16,-1.912 1.16,-3.266 0,-1.436 -0.499,-2.732 -1.548,-3.674 -1.161,-1.05 -2.982,-1.739 -5.444,-1.739 -1.601,0 -3.561,0.359 -5.166,0.937 -0.249,1.715 -0.55,2.876 -0.911,4.091 l 0.968,0.252 c 0.883,-3.401 2.431,-4.231 5.359,-4.231 1.27,0 2.459,0.359 3.315,1.024 0.857,0.667 1.41,1.63 1.41,2.874 0,1.102 -0.304,1.767 -0.885,2.459 -0.883,1.049 -2.376,1.711 -3.979,2.511 -1.685,0.857 -4.005,2.102 -4.807,3.233 -0.5,0.722 -0.828,1.631 -0.828,2.653 0,1.189 0.496,2.375 1.655,3.262 0.998,0.775 2.513,1.299 4.67,1.299 1.768,0 3.206,-0.223 4.618,-0.773 C 0.469,2.955 0.721,1.462 0.97,0.221 Z" style="fill:#ffffff;fill-opacity:1;fill-rule:nonzero;stroke:none" id="path406"/></svg:g><svg:g id="g408" transform="translate(667.3643,176.5367)"><svg:path d="m 0,0 c 0,-2.513 0.664,-4.169 1.739,-5.192 1.11,-0.971 2.433,-1.384 4.091,-1.384 1.736,0 3.096,0.444 4.197,1.439 1.051,1.022 1.687,2.651 1.687,5.137 0,2.183 -0.605,3.869 -1.687,4.947 C 8.948,5.972 7.678,6.466 5.83,6.466 4.058,6.466 2.79,5.972 1.712,4.975 0.605,3.896 0,2.183 0,0 m 1.986,-0.026 c 0,2.129 0.389,3.507 1.135,4.476 0.662,0.771 1.576,1.156 2.68,1.156 C 6.959,5.606 7.9,5.221 8.535,4.45 9.281,3.481 9.67,2.103 9.67,-0.026 9.67,-2.265 9.201,-3.672 8.508,-4.558 7.875,-5.274 6.986,-5.72 5.83,-5.72 c -1.159,0 -2.047,0.446 -2.68,1.162 -0.692,0.886 -1.164,2.293 -1.164,4.532" style="fill:#ffffff;fill-opacity:1;fill-rule:nonzero;stroke:none" id="path410"/></svg:g><svg:g id="g412" transform="translate(682.7725,181.815)"><svg:path d="M 0,0 H -2.045 V 0.882 H 0 V 2.623 C 0,4.311 0.416,5.579 1.327,6.519 1.989,7.156 2.929,7.598 4.145,7.598 5.277,7.598 5.939,7.294 6.494,6.937 7.295,6.412 7.683,5.72 7.683,5.224 7.683,4.668 7.403,4.364 6.906,4.364 6.246,4.364 5.997,4.946 5.691,5.555 5.389,6.162 5.027,6.742 4.172,6.742 3.62,6.742 3.18,6.549 2.788,6.133 2.24,5.47 1.908,4.477 1.908,2.516 V 0.882 H 5.414 V 0 H 1.908 v -9.033 c 0,-1.659 0.11,-1.827 2.183,-1.827 v -0.691 h -6.164 v 0.691 c 1.935,0 2.073,0.194 2.073,1.882 z" style="fill:#ffffff;fill-opacity:1;fill-rule:nonzero;stroke:none" id="path414"/></svg:g><svg:g id="g416" transform="translate(689.3818,182.4498)"><svg:path d="M 0,0 C 1.739,0.164 2.929,0.832 3.286,3.729 H 3.975 V 0.247 h 2.93 V -0.635 H 3.975 V -9.56 c 0,-1.296 0.388,-1.961 1.353,-1.961 0.639,0 1.163,0.221 1.716,0.638 l 0.441,-0.612 c -0.716,-0.634 -1.575,-0.994 -2.709,-0.994 -1.408,0 -2.707,0.665 -2.707,2.822 v 9.032 l -2.069,0 z" style="fill:#ffffff;fill-opacity:1;fill-rule:nonzero;stroke:none" id="path418"/></svg:g><svg:g id="g420" transform="translate(702.6865,180.0182)"><svg:path d="M 0,0 H 3.431 C 5.691,0 7.213,-0.387 8.184,-1.131 9.172,-1.88 9.703,-2.956 9.703,-4.169 9.703,-5.608 9.285,-6.63 8.621,-7.323 7.683,-8.288 6.416,-8.705 4.452,-8.705 H 1.022 C 0.166,-8.705 0,-8.51 0,-7.347 Z m -2.044,-6.851 c 0,-1.959 -0.166,-2.1 -2.237,-2.1 v -0.803 h 9.008 c 2.874,0 4.503,0.664 5.582,1.715 1.102,1.049 1.547,2.431 1.547,3.81 0,1.523 -0.776,2.628 -1.772,3.401 C 8.9,0.083 7.294,0.552 5.503,0.609 v 0.055 c 1.739,0.25 2.901,0.801 3.727,1.546 1.019,0.914 1.38,2.131 1.38,3.177 0,1.411 -0.716,2.517 -1.763,3.233 C 7.354,9.616 5.691,9.837 3.15,9.837 H -4.281 V 9.036 c 2.071,0 2.237,-0.138 2.237,-2.129 z M 0,7.818 c 0,0.749 0.109,0.968 0.832,0.968 h 2.622 c 1.937,0 3.179,-0.44 3.95,-1.078 C 8.017,7.213 8.487,6.134 8.487,5.195 8.487,3.87 8.017,2.903 7.213,2.238 6.217,1.408 4.671,1.05 2.764,1.05 H 0 Z" style="fill:#ffffff;fill-opacity:1;fill-rule:nonzero;stroke:none" id="path422"/></svg:g><svg:g id="g424" transform="translate(725.6367,179.1622)"><svg:path d="m 0,0 c 0,1.216 -0.195,1.962 -0.912,2.762 -0.692,0.773 -1.66,1.079 -3.315,1.079 -1.465,0 -2.433,-0.359 -3.151,-0.775 -0.885,-0.522 -1.436,-1.273 -1.436,-1.932 0,-0.417 0.244,-0.801 0.772,-0.801 0.578,0 0.831,0.273 0.965,0.666 0.252,0.604 0.499,1.075 0.861,1.35 0.495,0.387 1.05,0.632 1.877,0.632 0.911,0 1.574,-0.271 1.988,-0.826 0.359,-0.471 0.443,-1.299 0.443,-1.932 v -1.191 l -1.629,-0.387 c -1.771,-0.386 -3.148,-0.94 -4.089,-1.573 -1.218,-0.799 -1.712,-1.798 -1.712,-3.067 0,-1.05 0.439,-1.854 1.102,-2.375 0.718,-0.582 1.658,-0.832 2.544,-0.832 1.823,0 2.927,0.638 3.865,1.524 h 0.085 c 0.248,-0.915 0.83,-1.41 1.797,-1.41 0.716,0 1.214,0.165 1.684,0.386 L 1.576,-8.068 C 1.352,-8.207 1.101,-8.26 0.828,-8.26 0.278,-8.26 0,-7.708 0,-6.467 Z m -1.908,-6.714 c -0.692,-0.69 -1.629,-1.434 -2.982,-1.434 -0.831,0 -1.411,0.273 -1.826,0.664 -0.415,0.41 -0.606,1.017 -0.606,1.74 0,1.27 0.774,1.988 1.849,2.568 1.023,0.634 2.377,1.024 3.565,1.352 z" style="fill:#ffffff;fill-opacity:1;fill-rule:nonzero;stroke:none" id="path426"/></svg:g><svg:g id="g428" transform="translate(739.6953,172.7262)"><svg:path d="m 0,0 c 0,-1.549 0.114,-1.771 1.355,-1.771 v -0.691 h -4.672 v 0.691 c 1.33,0 1.411,0.168 1.411,1.827 v 6.159 c 0,1.077 -0.137,1.964 -0.663,2.516 -0.36,0.358 -0.855,0.55 -1.598,0.55 -1.164,0 -2.405,-1.052 -3.509,-2.569 V 0.056 c 0,-1.659 0.025,-1.827 1.321,-1.827 v -0.691 h -4.832 v 0.691 c 1.491,0 1.602,0.168 1.602,1.827 v 6.713 c 0,1.601 -0.138,1.794 -1.602,1.767 v 0.61 c 1.216,0.191 2.155,0.467 3.067,1.131 l 0.274,-0.165 0.112,-2.128 h 0.058 c 1.104,1.406 2.507,2.293 4.032,2.293 1.186,0 2.043,-0.306 2.65,-0.887 C -0.358,8.785 0,7.79 0,6.326 Z" style="fill:#ffffff;fill-opacity:1;fill-rule:nonzero;stroke:none" id="path430"/></svg:g><svg:g id="g432" transform="translate(746.1729,177.0621)"><svg:path d="M 0,0 3.949,3.843 C 4.693,4.531 4.89,4.945 3.561,4.945 v 0.69 H 7.65 V 4.945 C 6.852,4.917 6.41,4.726 5.773,4.115 L 2.872,1.355 7.097,-5.056 C 7.71,-6.022 8.313,-6.134 9.143,-6.107 v -0.691 h -3.15 l -4.5,6.962 -1.55,-1.52 V -4.28 c 0,-1.605 0.057,-1.827 1.575,-1.827 v -0.691 h -5.136 v 0.691 c 1.599,0 1.653,0.222 1.653,1.827 V 8.814 c 0,1.603 -0.166,1.796 -1.653,1.796 v 0.606 c 1.349,0.198 2.292,0.502 3.314,1.135 l 0.247,-0.164 V 0 Z" style="fill:#ffffff;fill-opacity:1;fill-rule:nonzero;stroke:none" id="path434"/></svg:g><svg:path d="m 643.831,183.453 h -27.623 v 6.789 h 27.623 z" style="fill:#ffffff;fill-opacity:1;fill-rule:nonzero;stroke:none" id="path436"/><svg:path d="m 643.831,169.877 h -27.623 v 6.789 h 27.623 z" style="fill:#ffffff;fill-opacity:1;fill-rule:nonzero;stroke:none" id="path438"/><svg:g id="g440" transform="translate(726.1074,160.1461)"><svg:path d="M 0,0 C 1.055,0 1.524,0.959 1.524,1.831 1.524,2.761 0.959,3.663 0,3.663 -0.968,3.663 -1.533,2.761 -1.533,1.831 -1.533,0.959 -1.064,0 0,0 m 0,4.391 c 1.486,0 2.483,-1.074 2.483,-2.56 0,-1.399 -1.015,-2.56 -2.483,-2.56 -1.477,0 -2.492,1.161 -2.492,2.56 0,1.486 0.996,2.56 2.492,2.56" style="fill:#ffffff;fill-opacity:1;fill-rule:nonzero;stroke:none" id="path442"/></svg:g><svg:g id="g444" transform="translate(732.04,163.8087)"><svg:path d="m 0,0 c -0.978,0 -1.448,-0.931 -1.448,-1.841 0,-0.815 0.422,-1.822 1.438,-1.822 0.969,0 1.371,1.084 1.352,1.851 C 1.361,-0.931 0.979,0 0,0 m -2.35,2.539 h 0.902 v -2.596 h 0.019 c 0.279,0.45 0.767,0.786 1.62,0.786 1.42,0 2.11,-1.161 2.11,-2.474 0,-1.342 -0.623,-2.646 -2.1,-2.646 -0.873,0 -1.429,0.441 -1.669,0.806 H -1.487 V -4.276 H -2.35 Z" style="fill:#ffffff;fill-opacity:1;fill-rule:nonzero;stroke:none" id="path446"/></svg:g><svg:g id="g448" transform="translate(737.8359,160.1461)"><svg:path d="M 0,0 C 1.055,0 1.524,0.959 1.524,1.831 1.524,2.761 0.959,3.663 0,3.663 -0.969,3.663 -1.534,2.761 -1.534,1.831 -1.534,0.959 -1.064,0 0,0 m 0,4.391 c 1.486,0 2.483,-1.074 2.483,-2.56 0,-1.399 -1.016,-2.56 -2.483,-2.56 -1.477,0 -2.493,1.161 -2.493,2.56 0,1.486 0.997,2.56 2.493,2.56" style="fill:#ffffff;fill-opacity:1;fill-rule:nonzero;stroke:none" id="path450"/></svg:g><svg:g id="g452" transform="translate(744.0557,163.6935)"><svg:path d="m 0,0 h -1.294 v -2.675 c 0,-0.565 0.345,-0.872 0.757,-0.872 0.278,0 0.479,0.086 0.613,0.172 v -0.767 c -0.201,-0.057 -0.478,-0.134 -0.766,-0.134 -0.931,0 -1.506,0.441 -1.506,1.419 V 0 h -1.102 v 0.729 h 1.102 V 1.86 l 0.902,0.288 V 0.729 l 1.294,0 z" style="fill:#ffffff;fill-opacity:1;fill-rule:nonzero;stroke:none" id="path454"/></svg:g><svg:path d="m 745.422,164.422 h 0.901 v -4.89 h -0.901 z m 0.959,0.91 h -1.016 v 1.016 h 1.016 z" style="fill:#ffffff;fill-opacity:1;fill-rule:nonzero;stroke:none" id="path456"/><svg:g id="g458" transform="translate(751.0449,163.5973)"><svg:path d="m 0,0 c -0.346,0.144 -0.69,0.211 -0.978,0.211 -1.006,0 -1.573,-0.901 -1.573,-1.831 0,-0.872 0.47,-1.831 1.63,-1.831 0.308,0 0.691,0.096 0.969,0.278 L 0.115,-3.979 C -0.259,-4.151 -0.69,-4.18 -1.017,-4.18 c -1.476,0 -2.493,1.16 -2.493,2.56 0,1.486 0.998,2.56 2.493,2.56 0.365,0 0.834,-0.086 1.093,-0.191 z" style="fill:#ffffff;fill-opacity:1;fill-rule:nonzero;stroke:none" id="path460"/></svg:g><svg:g id="g462" transform="translate(719.2715,163.4186)"><svg:path d="M 0,0 H 0.83 C 1.757,0 2.305,0.411 2.305,1.064 2.305,1.68 1.836,2.07 0.937,2.07 H 0 Z m -0.977,2.929 h 1.67 c 1.348,0 2.646,-0.214 2.646,-1.845 0,-0.83 -0.615,-1.416 -1.406,-1.553 v -0.02 c 0.302,-0.116 0.45,-0.263 0.664,-0.683 L 3.886,-3.886 H 2.772 L 1.729,-1.524 C 1.425,-0.859 1.104,-0.859 0.585,-0.859 H 0 v -3.027 h -0.977 z" style="fill:#ffffff;fill-opacity:1;fill-rule:nonzero;stroke:none" id="path464"/></svg:g><svg:g id="g466" transform="translate(752.1719,160.4913)"><svg:path d="m 0,0 c 0.38,-0.23 0.924,-0.345 1.201,-0.345 0.442,0 0.986,0.172 0.986,0.7 0,0.892 -2.269,0.814 -2.269,2.186 0,1.016 0.811,1.505 1.847,1.505 0.451,0 0.821,-0.086 1.201,-0.192 L 2.883,3.068 C 2.668,3.192 2.065,3.317 1.84,3.317 1.347,3.317 0.88,3.125 0.88,2.723 c 0,-0.997 2.264,-0.71 2.264,-2.272 0,-1.045 -0.825,-1.525 -1.758,-1.525 -0.493,0 -0.995,0.048 -1.437,0.268 z" style="fill:#ffffff;fill-opacity:1;fill-rule:nonzero;stroke:none" id="path468"/></svg:g></svg:g></svg:g></svg:g></svg:g></svg:g><svg:g><svg:g transform="translate(276.5, 421) scale(1 1) translate(0, 0) scale(1.3333333333333333 1.3333333333333333)  rotate(135.000000 212.500000 212.500000)"><svg:g id="surface441">
<svg:path style=" stroke:none;fill-rule:nonzero;fill:rgb(50%,50%,50%);fill-opacity:1;" d="M 0 0 L 425.195312 0 L 425.195312 425.195312 L 0 425.195312 Z M 0 0 "/>
<svg:path style=" stroke:none;fill-rule:nonzero;fill:rgb(100%,100%,100%);fill-opacity:1;" d="M 0 0 L 425.195312 0 L 425.195312 425.195312 L 0 425.195312 Z M 0 0 "/>
<svg:path style=" stroke:none;fill-rule:nonzero;fill:rgb(0%,0%,0%);fill-opacity:1;" d="M 0 0 L 425.195312 0 L 425.195312 425.195312 L 0 425.195312 Z M 0 0 "/>
<svg:path style=" stroke:none;fill-rule:nonzero;fill:rgb(100%,100%,100%);fill-opacity:1;" d="M 70.867188 141.730469 L 212.597656 141.730469 L 212.597656 212.597656 L 283.464844 212.597656 L 283.464844 141.730469 L 354.332031 141.730469 L 354.332031 283.464844 L 283.464844 283.464844 L 283.464844 354.332031 L 141.730469 354.332031 L 141.730469 283.464844 L 70.867188 283.464844 Z M 70.867188 141.730469 "/>
</svg:g>
</svg:g></svg:g><svg:g><svg:text x="729.95" y="1206.9414141414143" font-size="36" font-family="Verdana" font-weight="bold" letter-spacing="0" text-anchor="middle" fill="black">#38</svg:text></svg:g></svg>
