<?xml version='1.0' encoding='ASCII' standalone='yes'?>
<svg xmlns:dc="http://purl.org/dc/elements/1.1/" xmlns:cc="http://creativecommons.org/ns#" xmlns:rdf="http://www.w3.org/1999/02/22-rdf-syntax-ns#" xmlns:svg="http://www.w3.org/2000/svg" xmlns="http://www.w3.org/2000/svg" xmlns:sodipodi="http://sodipodi.sourceforge.net/DTD/sodipodi-0.dtd" xmlns:inkscape="http://www.inkscape.org/namespaces/inkscape" id="Calque_1" data-name="Calque 1" viewBox="0 0 793.70071 1122.5197" version="1.1" sodipodi:docname="base_90.svg" inkscape:version="0.92.3 (2405546, 2018-03-11)" width="210mm" height="297mm">
  <metadata id="metadata93">
    <rdf:RDF>
      <cc:Work rdf:about="">
        <dc:format>image/svg+xml</dc:format>
        <dc:type rdf:resource="http://purl.org/dc/dcmitype/StillImage"/>
        <dc:title/>
      </cc:Work>
    </rdf:RDF>
  </metadata>
  <sodipodi:namedview pagecolor="#ffffff" bordercolor="#666666" borderopacity="1" objecttolerance="10" gridtolerance="10" guidetolerance="10" inkscape:pageopacity="0" inkscape:pageshadow="2" inkscape:window-width="691" inkscape:window-height="480" id="namedview91" showgrid="false" inkscape:zoom="0.28032165" inkscape:cx="342.23165" inkscape:cy="420.94501" inkscape:window-x="67" inkscape:window-y="27" inkscape:window-maximized="0" inkscape:current-layer="Calque_1" units="mm"/>
  <defs id="defs4">
    <style id="style2">.cls-1{fill:#08a2ac;}.cls-2{font-size:64.01px;font-family:DINNextLTPro-BoldItalic, DIN Next LT Pro;font-weight:700;font-style:italic;}.cls-2,.cls-5{fill:#010101;}.cls-3{letter-spacing:-0.05em;}.cls-4{letter-spacing:-0.07em;}.cls-6{fill:#fff;}</style>
  </defs>
<svg:g><svg:g><svg:metadata id="metadata2074"><rdf:RDF><cc:Work rdf:about=""><dc:format>image/svg+xml</dc:format><dc:type rdf:resource="http://purl.org/dc/dcmitype/StillImage"/><dc:title/></cc:Work></rdf:RDF></svg:metadata><svg:defs id="defs2072"><svg:clipPath clipPathUnits="userSpaceOnUse" id="clipPath2084"><svg:path d="M 0,841.89 H 595.276 V 0 H 0 Z" id="path2082"/></svg:clipPath></svg:defs><sodipodi:namedview pagecolor="#ffffff" bordercolor="#666666" borderopacity="1" objecttolerance="10" gridtolerance="10" guidetolerance="10" inkscape:pageopacity="0" inkscape:pageshadow="2" inkscape:window-width="858" inkscape:window-height="480" id="namedview2070" showgrid="false" inkscape:zoom="0.89797953" inkscape:cx="396.85068" inkscape:cy="561.26001" inkscape:window-x="0" inkscape:window-y="0" inkscape:window-maximized="0" inkscape:current-layer="g2076"/><svg:g id="g2076" inkscape:groupmode="layer" inkscape:label="2021_DX_pepperARUCO_MAT_A4v2" transform="matrix(1.3333333,0,0,-1.3333333,0,1122.52)"><svg:g id="g2078"><svg:g id="g2080" clip-path="url(#clipPath2084)"><svg:g id="g2086" transform="translate(297.6522,814.633)"><svg:path d="m 0,0 c -5.562,0 -11.124,-1.467 -16.084,-4.401 l -244.849,-144.834 c -9.61,-5.686 -15.505,-16.023 -15.505,-27.19 v -583.089 c 0,-9.823 4.569,-19.088 12.364,-25.066 5.576,-4.276 12.349,-6.524 19.226,-6.524 2.737,0 5.489,0.356 8.189,1.081 l 236.597,63.516 236.695,-63.517 c 2.699,-0.724 5.451,-1.08 8.185,-1.08 6.879,0 13.652,2.248 19.229,6.525 7.794,5.978 12.363,15.242 12.363,25.065 v 583.089 c 0,11.167 -5.894,21.503 -15.505,27.189 L 16.084,-4.401 C 11.124,-1.467 5.562,0 0,0 m 0,-31.59 244.82,-144.835 v -583.089 l -244.882,65.715 -244.788,-65.715 v 583.089 L 0,-31.59" style="fill:#0aa2ac;fill-opacity:1;fill-rule:nonzero;stroke:none" id="path2088"/></svg:g><svg:g id="g2090" transform="translate(297.5897,120.8342)"><svg:path d="m 0,0 251.689,0.129 1.235,-82.269 z" style="fill:#0aa2ac;fill-opacity:1;fill-rule:nonzero;stroke:none" id="path2092"/></svg:g><svg:g id="g2094" transform="translate(267.0652,684.0383)"><svg:path d="m 0,0 c 0,2.881 -1.921,4.673 -5.249,4.673 h -6.913 c -0.256,0 -0.385,-0.128 -0.448,-0.384 l -2.049,-11.394 c 0,-0.256 0.064,-0.384 0.32,-0.384 h 6.913 C -3.137,-7.489 0,-4.608 0,0 m -27.205,-31.045 c -0.319,0 -0.576,0.256 -0.512,0.64 l 7.489,42.247 c 0.064,0.384 0.321,0.64 0.64,0.64 h 16.195 c 8.129,0 12.482,-4.289 12.482,-11.009 0,-10.882 -7.297,-16.771 -17.282,-16.771 h -7.49 c -0.256,0 -0.448,-0.128 -0.448,-0.385 l -2.625,-14.722 c -0.063,-0.384 -0.319,-0.64 -0.704,-0.64 z" style="fill:#010101;fill-opacity:1;fill-rule:nonzero;stroke:none" id="path2096"/></svg:g><svg:g id="g2098" transform="translate(297.1492,669.1242)"><svg:path d="M 0,0 -1.984,15.875 H -2.177 L -9.922,0 Z m -27.076,-15.491 21.955,42.247 c 0.192,0.384 0.512,0.64 0.96,0.64 h 7.745 c 0.448,0 0.641,-0.256 0.704,-0.64 l 6.722,-42.247 c 0.063,-0.384 -0.128,-0.64 -0.448,-0.64 h -7.81 c -0.447,0 -0.704,0.192 -0.768,0.64 L 0.96,-7.682 h -14.658 l -3.777,-7.809 c -0.192,-0.448 -0.384,-0.64 -0.833,-0.64 h -8.449 c -0.384,0 -0.512,0.256 -0.319,0.64" style="fill:#010101;fill-opacity:1;fill-rule:nonzero;stroke:none" id="path2100"/></svg:g><svg:g id="g2102" transform="translate(317.6971,652.9933)"><svg:path d="m 0,0 c -0.32,0 -0.576,0.256 -0.512,0.64 l 6.081,34.502 c 0.064,0.256 -0.064,0.384 -0.32,0.384 H -5.377 c -0.384,0 -0.64,0.256 -0.576,0.64 l 1.217,6.721 c 0.063,0.384 0.319,0.64 0.704,0.64 h 31.045 c 0.383,0 0.639,-0.256 0.576,-0.64 l -1.217,-6.721 c -0.063,-0.384 -0.319,-0.64 -0.704,-0.64 H 14.979 c -0.256,0 -0.384,-0.128 -0.449,-0.384 L 8.449,0.64 C 8.386,0.256 8.13,0 7.745,0 Z" style="fill:#010101;fill-opacity:1;fill-rule:nonzero;stroke:none" id="path2104"/></svg:g><svg:g id="g2106" transform="translate(350.4061,695.8806)"><svg:path d="M 0,0 C 0.064,0.384 0.32,0.64 0.704,0.64 H 8.449 C 8.834,0.64 9.025,0.384 8.962,0 L 6.081,-16.515 c -0.063,-0.256 0.065,-0.384 0.32,-0.384 H 20.1 c 0.255,0 0.383,0.128 0.448,0.384 L 23.492,0 c 0.065,0.384 0.32,0.64 0.704,0.64 h 7.745 c 0.384,0 0.641,-0.256 0.577,-0.64 l -7.49,-42.247 c -0.063,-0.384 -0.32,-0.64 -0.704,-0.64 h -7.745 c -0.384,0 -0.641,0.256 -0.576,0.64 l 3.009,16.963 c 0.063,0.256 -0.065,0.384 -0.321,0.384 H 4.929 c -0.256,0 -0.384,-0.128 -0.448,-0.384 L 1.473,-42.247 c -0.065,-0.384 -0.256,-0.64 -0.641,-0.64 h -7.745 c -0.384,0 -0.64,0.256 -0.576,0.64 z" style="fill:#010101;fill-opacity:1;fill-rule:nonzero;stroke:none" id="path2108"/></svg:g><svg:g id="g2110" transform="translate(237.0633,697.2404)"><svg:path d="m 0,0 -7.772,-43.766 h -36.08 z" style="fill:#010101;fill-opacity:1;fill-rule:nonzero;stroke:none" id="path2112"/></svg:g><svg:g id="g2114" transform="translate(450.1863,92.9064)"><svg:path d="m 0,0 c -0.581,2.848 -1.185,3.811 -4.447,3.811 -1.384,0 -2.516,-0.385 -3.287,-1.049 -0.661,-0.548 -0.969,-1.241 -0.969,-2.098 0,-0.772 0.416,-1.712 0.942,-2.213 0.716,-0.688 1.765,-1.298 3.506,-2.178 2.157,-1.108 3.788,-1.745 4.976,-3.094 0.577,-0.668 1.16,-1.912 1.16,-3.265 0,-1.436 -0.499,-2.733 -1.548,-3.675 -1.161,-1.05 -2.983,-1.738 -5.444,-1.738 -1.601,0 -3.562,0.358 -5.166,0.936 -0.25,1.715 -0.55,2.877 -0.911,4.091 l 0.967,0.252 c 0.883,-3.401 2.431,-4.231 5.36,-4.231 1.269,0 2.459,0.359 3.315,1.024 0.857,0.667 1.41,1.63 1.41,2.874 0,1.102 -0.304,1.768 -0.885,2.459 -0.883,1.049 -2.377,1.711 -3.979,2.512 -1.686,0.856 -4.005,2.101 -4.807,3.233 -0.5,0.721 -0.828,1.631 -0.828,2.652 0,1.189 0.495,2.376 1.655,3.262 0.998,0.775 2.513,1.299 4.67,1.299 1.768,0 3.206,-0.223 4.618,-0.773 C 0.469,2.955 0.721,1.463 0.97,0.222 Z" style="fill:#ffffff;fill-opacity:1;fill-rule:nonzero;stroke:none" id="path2116"/></svg:g><svg:g id="g2118" transform="translate(454.2996,84.0637)"><svg:path d="m 0,0 c 0,-2.512 0.663,-4.169 1.738,-5.192 1.11,-0.97 2.434,-1.383 4.091,-1.383 1.737,0 3.097,0.443 4.198,1.438 1.05,1.023 1.686,2.652 1.686,5.137 0,2.184 -0.605,3.869 -1.686,4.947 C 8.947,5.973 7.678,6.467 5.829,6.467 4.058,6.467 2.79,5.973 1.712,4.976 0.605,3.897 0,2.184 0,0 m 1.985,-0.025 c 0,2.128 0.39,3.506 1.135,4.476 C 3.782,5.222 4.697,5.607 5.801,5.607 6.959,5.607 7.9,5.222 8.535,4.451 9.28,3.481 9.67,2.103 9.67,-0.025 9.67,-2.265 9.201,-3.672 8.508,-4.557 7.874,-5.273 6.985,-5.72 5.829,-5.72 c -1.159,0 -2.047,0.447 -2.68,1.163 -0.691,0.885 -1.164,2.292 -1.164,4.532" style="fill:#ffffff;fill-opacity:1;fill-rule:nonzero;stroke:none" id="path2120"/></svg:g><svg:g id="g2122" transform="translate(469.7078,89.343)"><svg:path d="M 0,0 H -2.045 V 0.881 H 0 V 2.622 C 0,4.31 0.416,5.579 1.327,6.519 1.989,7.155 2.929,7.598 4.145,7.598 5.276,7.598 5.939,7.293 6.493,6.937 7.295,6.411 7.683,5.72 7.683,5.224 7.683,4.668 7.403,4.363 6.905,4.363 6.246,4.363 5.997,4.945 5.691,5.555 5.389,6.161 5.027,6.741 4.172,6.741 3.62,6.741 3.179,6.549 2.788,6.132 2.239,5.47 1.907,4.477 1.907,2.516 V 0.881 H 5.414 V 0 H 1.907 v -9.033 c 0,-1.659 0.111,-1.827 2.184,-1.827 v -0.692 h -6.165 v 0.692 c 1.936,0 2.074,0.194 2.074,1.881 z" style="fill:#ffffff;fill-opacity:1;fill-rule:nonzero;stroke:none" id="path2124"/></svg:g><svg:g id="g2126" transform="translate(476.3172,89.9767)"><svg:path d="M 0,0 C 1.738,0.165 2.929,0.832 3.286,3.729 H 3.975 V 0.247 H 6.904 V -0.634 H 3.975 V -9.56 c 0,-1.296 0.387,-1.961 1.353,-1.961 0.639,0 1.162,0.221 1.716,0.639 l 0.44,-0.612 c -0.716,-0.635 -1.574,-0.994 -2.708,-0.994 -1.408,0 -2.707,0.665 -2.707,2.821 v 9.033 l -2.069,0 z" style="fill:#ffffff;fill-opacity:1;fill-rule:nonzero;stroke:none" id="path2128"/></svg:g><svg:g id="g2130" transform="translate(489.6219,87.5451)"><svg:path d="M 0,0 H 3.431 C 5.691,0 7.212,-0.387 8.184,-1.131 9.172,-1.88 9.703,-2.956 9.703,-4.169 9.703,-5.607 9.285,-6.63 8.621,-7.322 7.682,-8.287 6.416,-8.704 4.451,-8.704 H 1.022 C 0.166,-8.704 0,-8.51 0,-7.346 Z m -2.044,-6.851 c 0,-1.959 -0.166,-2.099 -2.237,-2.099 v -0.804 h 9.008 c 2.873,0 4.503,0.664 5.581,1.716 1.103,1.049 1.547,2.431 1.547,3.81 0,1.522 -0.775,2.627 -1.772,3.401 C 8.9,0.084 7.294,0.552 5.502,0.609 v 0.055 c 1.739,0.25 2.901,0.802 3.728,1.547 1.019,0.913 1.38,2.13 1.38,3.177 0,1.41 -0.717,2.516 -1.763,3.232 C 7.354,9.616 5.691,9.837 3.15,9.837 H -4.281 V 9.036 c 2.071,0 2.237,-0.138 2.237,-2.129 z M 0,7.818 c 0,0.75 0.109,0.969 0.832,0.969 h 2.621 c 1.938,0 3.18,-0.44 3.951,-1.078 C 8.016,7.214 8.487,6.135 8.487,5.195 8.487,3.87 8.016,2.903 7.212,2.239 6.217,1.409 4.67,1.05 2.764,1.05 H 0 Z" style="fill:#ffffff;fill-opacity:1;fill-rule:nonzero;stroke:none" id="path2132"/></svg:g><svg:g id="g2134" transform="translate(512.5711,86.6896)"><svg:path d="m 0,0 c 0,1.216 -0.195,1.962 -0.912,2.762 -0.691,0.772 -1.659,1.079 -3.315,1.079 -1.465,0 -2.432,-0.359 -3.151,-0.775 -0.884,-0.522 -1.435,-1.272 -1.435,-1.932 0,-0.417 0.244,-0.802 0.772,-0.802 0.578,0 0.831,0.274 0.965,0.666 0.252,0.605 0.499,1.075 0.861,1.352 0.495,0.385 1.049,0.631 1.876,0.631 0.912,0 1.574,-0.271 1.989,-0.826 0.358,-0.47 0.443,-1.3 0.443,-1.932 v -1.191 l -1.63,-0.387 c -1.771,-0.386 -3.147,-0.94 -4.089,-1.573 -1.217,-0.8 -1.711,-1.798 -1.711,-3.067 0,-1.05 0.439,-1.854 1.102,-2.374 0.718,-0.583 1.658,-0.832 2.543,-0.832 1.824,0 2.927,0.637 3.865,1.523 h 0.086 c 0.247,-0.916 0.829,-1.41 1.797,-1.41 0.716,0 1.213,0.164 1.683,0.386 L 1.576,-8.068 C 1.352,-8.207 1.101,-8.26 0.829,-8.26 0.278,-8.26 0,-7.708 0,-6.467 Z m -1.907,-6.715 c -0.693,-0.689 -1.63,-1.433 -2.982,-1.433 -0.831,0 -1.411,0.273 -1.826,0.665 -0.415,0.41 -0.607,1.016 -0.607,1.739 0,1.27 0.774,1.988 1.849,2.568 1.023,0.634 2.377,1.024 3.566,1.352 z" style="fill:#ffffff;fill-opacity:1;fill-rule:nonzero;stroke:none" id="path2136"/></svg:g><svg:g id="g2138" transform="translate(526.6297,80.2541)"><svg:path d="m 0,0 c 0,-1.549 0.114,-1.771 1.355,-1.771 v -0.692 h -4.671 v 0.692 c 1.329,0 1.411,0.167 1.411,1.827 v 6.159 c 0,1.076 -0.138,1.964 -0.663,2.515 -0.36,0.359 -0.856,0.55 -1.598,0.55 -1.165,0 -2.405,-1.051 -3.509,-2.569 V 0.056 c 0,-1.66 0.024,-1.827 1.32,-1.827 v -0.692 h -4.831 v 0.692 c 1.491,0 1.601,0.167 1.601,1.827 v 6.712 c 0,1.601 -0.138,1.795 -1.601,1.767 v 0.611 c 1.215,0.191 2.155,0.467 3.066,1.13 l 0.275,-0.165 0.111,-2.128 h 0.059 c 1.104,1.407 2.507,2.293 4.032,2.293 1.186,0 2.043,-0.306 2.65,-0.886 C -0.357,8.785 0,7.789 0,6.326 Z" style="fill:#ffffff;fill-opacity:1;fill-rule:nonzero;stroke:none" id="path2140"/></svg:g><svg:g id="g2142" transform="translate(533.1072,84.5891)"><svg:path d="M 0,0 3.949,3.844 C 4.693,4.531 4.89,4.945 3.562,4.945 v 0.69 H 7.65 V 4.945 C 6.852,4.917 6.41,4.726 5.774,4.115 L 2.872,1.355 7.098,-5.056 C 7.71,-6.021 8.314,-6.134 9.144,-6.106 V -6.798 H 5.994 L 1.493,0.164 -0.056,-1.355 v -2.924 c 0,-1.605 0.056,-1.827 1.574,-1.827 v -0.692 h -5.136 v 0.692 c 1.6,0 1.654,0.222 1.654,1.827 V 8.814 c 0,1.604 -0.166,1.796 -1.654,1.796 v 0.607 c 1.35,0.197 2.292,0.502 3.314,1.135 l 0.248,-0.164 V 0 Z" style="fill:#ffffff;fill-opacity:1;fill-rule:nonzero;stroke:none" id="path2144"/></svg:g><svg:path d="m 430.765,90.98 h -27.622 v 6.789 h 27.622 z" style="fill:#ffffff;fill-opacity:1;fill-rule:nonzero;stroke:none" id="path2146"/><svg:path d="m 430.765,77.404 h -27.622 v 6.789 h 27.622 z" style="fill:#ffffff;fill-opacity:1;fill-rule:nonzero;stroke:none" id="path2148"/><svg:g id="g2150" transform="translate(513.0428,67.673)"><svg:path d="M 0,0 C 1.055,0 1.524,0.959 1.524,1.832 1.524,2.762 0.959,3.663 0,3.663 -0.968,3.663 -1.534,2.762 -1.534,1.832 -1.534,0.959 -1.064,0 0,0 m 0,4.392 c 1.486,0 2.483,-1.074 2.483,-2.56 0,-1.399 -1.016,-2.561 -2.483,-2.561 -1.477,0 -2.493,1.162 -2.493,2.561 0,1.486 0.997,2.56 2.493,2.56" style="fill:#ffffff;fill-opacity:1;fill-rule:nonzero;stroke:none" id="path2152"/></svg:g><svg:g id="g2154" transform="translate(518.9744,71.3361)"><svg:path d="m 0,0 c -0.978,0 -1.447,-0.931 -1.447,-1.841 0,-0.814 0.422,-1.822 1.438,-1.822 0.968,0 1.37,1.084 1.352,1.851 C 1.361,-0.931 0.979,0 0,0 m -2.349,2.539 h 0.902 v -2.596 h 0.018 c 0.279,0.45 0.768,0.786 1.621,0.786 1.419,0 2.11,-1.161 2.11,-2.474 0,-1.342 -0.623,-2.647 -2.1,-2.647 -0.873,0 -1.429,0.442 -1.669,0.806 h -0.019 v -0.69 h -0.863 z" style="fill:#ffffff;fill-opacity:1;fill-rule:nonzero;stroke:none" id="path2156"/></svg:g><svg:g id="g2158" transform="translate(524.7713,67.673)"><svg:path d="M 0,0 C 1.055,0 1.523,0.959 1.523,1.832 1.523,2.762 0.958,3.663 0,3.663 -0.969,3.663 -1.534,2.762 -1.534,1.832 -1.534,0.959 -1.064,0 0,0 m 0,4.392 c 1.485,0 2.483,-1.074 2.483,-2.56 0,-1.399 -1.016,-2.561 -2.483,-2.561 -1.477,0 -2.493,1.162 -2.493,2.561 0,1.486 0.997,2.56 2.493,2.56" style="fill:#ffffff;fill-opacity:1;fill-rule:nonzero;stroke:none" id="path2160"/></svg:g><svg:g id="g2162" transform="translate(530.9901,71.2209)"><svg:path d="m 0,0 h -1.294 v -2.675 c 0,-0.565 0.345,-0.873 0.757,-0.873 0.278,0 0.48,0.087 0.613,0.173 v -0.767 c -0.201,-0.057 -0.478,-0.134 -0.766,-0.134 -0.93,0 -1.505,0.441 -1.505,1.419 V 0 h -1.103 v 0.729 h 1.103 V 1.86 l 0.901,0.287 V 0.729 l 1.294,0 z" style="fill:#ffffff;fill-opacity:1;fill-rule:nonzero;stroke:none" id="path2164"/></svg:g><svg:path d="m 532.357,71.95 h 0.901 v -4.891 h -0.901 z m 0.958,0.91 h -1.016 v 1.016 h 1.016 z" style="fill:#ffffff;fill-opacity:1;fill-rule:nonzero;stroke:none" id="path2166"/><svg:g id="g2168" transform="translate(537.9793,71.1252)"><svg:path d="m 0,0 c -0.346,0.144 -0.69,0.211 -0.978,0.211 -1.006,0 -1.572,-0.901 -1.572,-1.831 0,-0.873 0.47,-1.832 1.63,-1.832 0.307,0 0.691,0.096 0.968,0.279 l 0.067,-0.806 c -0.374,-0.172 -0.805,-0.202 -1.132,-0.202 -1.475,0 -2.492,1.161 -2.492,2.561 0,1.486 0.997,2.559 2.492,2.559 0.365,0 0.835,-0.085 1.094,-0.191 z" style="fill:#ffffff;fill-opacity:1;fill-rule:nonzero;stroke:none" id="path2170"/></svg:g><svg:g id="g2172" transform="translate(506.2059,70.9455)"><svg:path d="M 0,0 H 0.83 C 1.758,0 2.305,0.411 2.305,1.064 2.305,1.68 1.836,2.07 0.937,2.07 H 0 Z m -0.977,2.93 h 1.67 C 2.041,2.93 3.34,2.715 3.34,1.084 3.34,0.255 2.725,-0.331 1.934,-0.469 V -0.488 C 2.236,-0.605 2.383,-0.752 2.598,-1.171 L 3.887,-3.886 H 2.773 L 1.729,-1.523 C 1.426,-0.858 1.104,-0.858 0.586,-0.858 H 0 v -3.028 h -0.977 z" style="fill:#ffffff;fill-opacity:1;fill-rule:nonzero;stroke:none" id="path2174"/></svg:g><svg:g id="g2176" transform="translate(539.1072,68.0187)"><svg:path d="m 0,0 c 0.38,-0.23 0.923,-0.346 1.201,-0.346 0.441,0 0.985,0.173 0.985,0.7 0,0.893 -2.268,0.816 -2.268,2.187 0,1.016 0.811,1.505 1.846,1.505 0.452,0 0.822,-0.086 1.201,-0.192 L 2.883,3.068 C 2.667,3.192 2.065,3.317 1.84,3.317 1.347,3.317 0.88,3.126 0.88,2.724 c 0,-0.997 2.264,-0.711 2.264,-2.273 0,-1.046 -0.826,-1.525 -1.759,-1.525 -0.492,0 -0.995,0.048 -1.437,0.268 z" style="fill:#ffffff;fill-opacity:1;fill-rule:nonzero;stroke:none" id="path2178"/></svg:g><svg:path d="M 85.026,609.556 H 510.249 V 184.333 H 85.026 Z" style="fill:#010101;fill-opacity:1;fill-rule:nonzero;stroke:none" id="path2180"/><svg:path d="m 155.897,326.074 h 70.87 v -70.87 h -70.87 z" style="fill:#010101;fill-opacity:1;fill-rule:nonzero;stroke:none" id="path2182"/><svg:path d="m 155.897,396.945 h 70.87 v -70.87 h -70.87 z" style="fill:#010101;fill-opacity:1;fill-rule:nonzero;stroke:none" id="path2184"/><svg:path d="m 155.897,467.816 h 70.87 v -70.871 h -70.87 z" style="fill:#ffffff;fill-opacity:1;fill-rule:nonzero;stroke:none" id="path2186"/><svg:path d="m 155.897,538.686 h 70.87 v -70.87 h -70.87 z" style="fill:#ffffff;fill-opacity:1;fill-rule:nonzero;stroke:none" id="path2188"/><svg:path d="m 226.767,326.074 h 70.87 v -70.87 h -70.87 z" style="fill:#010101;fill-opacity:1;fill-rule:nonzero;stroke:none" id="path2190"/><svg:path d="m 226.767,396.945 h 70.87 v -70.87 h -70.87 z" style="fill:#010101;fill-opacity:1;fill-rule:nonzero;stroke:none" id="path2192"/><svg:path d="m 226.767,467.816 h 70.87 v -70.871 h -70.87 z" style="fill:#ffffff;fill-opacity:1;fill-rule:nonzero;stroke:none" id="path2194"/><svg:path d="m 226.767,538.686 h 70.87 v -70.87 h -70.87 z" style="fill:#ffffff;fill-opacity:1;fill-rule:nonzero;stroke:none" id="path2196"/><svg:path d="m 297.638,326.074 h 70.871 v -70.87 h -70.871 z" style="fill:#010101;fill-opacity:1;fill-rule:nonzero;stroke:none" id="path2198"/><svg:path d="m 297.638,396.945 h 70.871 v -70.87 h -70.871 z" style="fill:#010101;fill-opacity:1;fill-rule:nonzero;stroke:none" id="path2200"/><svg:path d="m 297.638,467.816 h 70.871 v -70.871 h -70.871 z" style="fill:#ffffff;fill-opacity:1;fill-rule:nonzero;stroke:none" id="path2202"/><svg:path d="m 297.638,538.686 h 70.871 v -70.87 h -70.871 z" style="fill:#010101;fill-opacity:1;fill-rule:nonzero;stroke:none" id="path2204"/><svg:path d="m 368.509,326.074 h 70.87 v -70.87 h -70.87 z" style="fill:#ffffff;fill-opacity:1;fill-rule:nonzero;stroke:none" id="path2206"/><svg:path d="m 368.509,396.945 h 70.87 v -70.87 h -70.87 z" style="fill:#ffffff;fill-opacity:1;fill-rule:nonzero;stroke:none" id="path2208"/><svg:path d="m 368.509,467.816 h 70.87 v -70.871 h -70.87 z" style="fill:#010101;fill-opacity:1;fill-rule:nonzero;stroke:none" id="path2210"/><svg:path d="m 368.509,538.686 h 70.87 v -70.87 h -70.87 z" style="fill:#ffffff;fill-opacity:1;fill-rule:nonzero;stroke:none" id="path2212"/></svg:g></svg:g></svg:g></svg:g></svg:g><svg:g><svg:g transform="translate(113.43434343434345, 310.9141414141414) scale(1 1) translate(0, 0) scale(1.3333333333333333 1.3333333333333333)  rotate(0.000000 212.500000 212.500000)"><svg:g id="surface391">
<svg:path style=" stroke:none;fill-rule:nonzero;fill:rgb(50%,50%,50%);fill-opacity:1;" d="M 0 0 L 425.195312 0 L 425.195312 425.195312 L 0 425.195312 Z M 0 0 "/>
<svg:path style=" stroke:none;fill-rule:nonzero;fill:rgb(100%,100%,100%);fill-opacity:1;" d="M 0 0 L 425.195312 0 L 425.195312 425.195312 L 0 425.195312 Z M 0 0 "/>
<svg:path style=" stroke:none;fill-rule:nonzero;fill:rgb(0%,0%,0%);fill-opacity:1;" d="M 0 0 L 425.195312 0 L 425.195312 425.195312 L 0 425.195312 Z M 0 0 "/>
<svg:path style=" stroke:none;fill-rule:nonzero;fill:rgb(100%,100%,100%);fill-opacity:1;" d="M 212.597656 70.867188 L 283.464844 70.867188 L 283.464844 141.730469 L 212.597656 141.730469 Z M 212.597656 70.867188 "/>
<svg:path style=" stroke:none;fill-rule:nonzero;fill:rgb(100%,100%,100%);fill-opacity:1;" d="M 283.464844 141.730469 L 354.332031 141.730469 L 354.332031 212.597656 L 283.464844 212.597656 Z M 283.464844 141.730469 "/>
<svg:path style=" stroke:none;fill-rule:nonzero;fill:rgb(100%,100%,100%);fill-opacity:1;" d="M 212.597656 212.597656 L 283.464844 212.597656 L 283.464844 283.464844 L 354.332031 283.464844 L 354.332031 354.332031 L 212.597656 354.332031 Z M 212.597656 212.597656 "/>
</svg:g>
</svg:g></svg:g><svg:g><svg:text x="397.020202020202" y="933.942760942761" font-size="24" font-family="Verdana" font-weight="bold" letter-spacing="0" text-anchor="middle" fill="black">#28</svg:text></svg:g></svg>
