<?xml version="1.0" encoding="UTF-8" standalone="no"?>
<svg
   xmlns:dc="http://purl.org/dc/elements/1.1/"
   xmlns:cc="http://creativecommons.org/ns#"
   xmlns:rdf="http://www.w3.org/1999/02/22-rdf-syntax-ns#"
   xmlns:svg="http://www.w3.org/2000/svg"
   xmlns="http://www.w3.org/2000/svg"
   xmlns:sodipodi="http://sodipodi.sourceforge.net/DTD/sodipodi-0.dtd"
   xmlns:inkscape="http://www.inkscape.org/namespaces/inkscape"
   width="374.111"
   height="314"
   viewBox="0 0 374.111 314"
   version="1.1"
   id="svg3861"
   sodipodi:docname="Aruco_logo.svg"
   inkscape:version="0.92.3 (2405546, 2018-03-11)">
  <metadata
     id="metadata3865">
    <rdf:RDF>
      <cc:Work
         rdf:about="">
        <dc:format>image/svg+xml</dc:format>
        <dc:type
           rdf:resource="http://purl.org/dc/dcmitype/StillImage" />
        <dc:title></dc:title>
      </cc:Work>
    </rdf:RDF>
  </metadata>
  <sodipodi:namedview
     pagecolor="#ffffff"
     bordercolor="#666666"
     borderopacity="1"
     objecttolerance="10"
     gridtolerance="10"
     guidetolerance="10"
     inkscape:pageopacity="0"
     inkscape:pageshadow="2"
     inkscape:window-width="1853"
     inkscape:window-height="1025"
     id="namedview3863"
     showgrid="false"
     inkscape:pagecheckerboard="true"
     inkscape:zoom="2.6878981"
     inkscape:cx="187.0555"
     inkscape:cy="157"
     inkscape:window-x="67"
     inkscape:window-y="27"
     inkscape:window-maximized="1"
     inkscape:current-layer="svg3861" />
  <defs
     id="defs3811">
    <style
       id="style3809">.a,.d,.e{fill:#fff;}.a{font-size:100px;font-family:DINNextLTPro-Medium, DIN Next LT Pro;font-weight:500;letter-spacing:-0.04em;}.b,.c{fill:none;stroke:#fff;stroke-linecap:round;stroke-miterlimit:10;}.b{stroke-width:5px;}.c{stroke-width:2px;}.d{font-size:38px;font-family:DINNextLTPro-UltraLight, DIN Next LT Pro;font-weight:100;letter-spacing:0.2em;}</style>
  </defs>
  <g
     transform="translate(-452.549 -173)"
     id="g3859">
    <g
       transform="translate(456 173)"
       id="g3831">
      <g
         aria-label="ArUco"
         transform="translate(183.99 85)"
         style="font-weight:500;font-size:100px;font-family:DINNextLTPro-Medium, 'DIN Next LT Pro';letter-spacing:-0.04em;fill:#ffffff"
         id="text3815">
        <path
           d="m -91.870316,-63.183594 -13.378904,36.279297 h 26.806639 z m -5.566406,-9.716797 h 11.181641 L -58.471878,0 h -10.253906 l -6.640625,-18.701172 H -108.22774 L -114.86836,0 h -10.40039 z"
           style=""
           id="path3867" />
        <path
           d="m -20.577347,-46.289062 q -1.513672,-0.878907 -3.320312,-1.269532 -1.757813,-0.439453 -3.90625,-0.439453 -7.617188,0 -11.71875,4.980469 -4.052735,4.931641 -4.052735,14.208984 V 0 h -9.033203 v -54.6875 h 9.033203 v 8.496094 q 2.832032,-4.980469 7.373047,-7.373047 4.541016,-2.441406 11.035156,-2.441406 0.927735,0 2.050782,0.146484 1.123047,0.09766 2.490234,0.341797 z"
           style=""
           id="path3869" />
        <path
           d="m -15.788284,-72.900391 h 9.9121091 v 44.28711 q 0,11.71875 4.2480468,16.894531 4.2480469,5.1269531 13.7695311,5.1269531 9.472656,0 13.720703,-5.1269531 4.248047,-5.175781 4.248047,-16.894531 v -44.28711 h 9.91211 v 45.507813 q 0,14.257812 -7.080079,21.533203 -7.03125,7.2753906 -20.800781,7.2753906 -13.8183592,0 -20.8984373,-7.2753906 -7.0312497,-7.275391 -7.0312497,-21.533203 z"
           style=""
           id="path3871" />
        <path
           d="m 93.541794,-52.587891 v 8.398438 q -3.808594,-2.099609 -7.666016,-3.125 -3.808594,-1.074219 -7.714844,-1.074219 -8.740234,0 -13.574218,5.566406 -4.833985,5.517579 -4.833985,15.527344 0,10.009766 4.833985,15.576172 4.833984,5.5175781 13.574218,5.5175781 3.90625,0 7.714844,-1.0253906 3.857422,-1.0742188 7.666016,-3.1738285 v 8.3007816 q -3.759766,1.75781252 -7.8125,2.63671877 -4.003906,0.87890623 -8.544922,0.87890623 -12.353516,0 -19.628906,-7.7636718 -7.275391,-7.7636718 -7.275391,-20.9472658 0,-13.378906 7.324219,-21.044922 7.373047,-7.666015 20.166015,-7.666015 4.150391,0 8.105469,0.878906 3.955078,0.830078 7.666016,2.539062 z"
           style=""
           id="path3873" />
        <path
           d="m 126.45586,-48.388672 q -7.22657,0 -11.42578,5.664063 -4.19922,5.615234 -4.19922,15.429687 0,9.814453 4.15039,15.478516 4.19922,5.6152341 11.47461,5.6152341 7.17773,0 11.37695,-5.6640621 4.19922,-5.664063 4.19922,-15.429688 0,-9.716797 -4.19922,-15.380859 -4.19922,-5.712891 -11.37695,-5.712891 z m 0,-7.617187 q 11.71875,0 18.4082,7.617187 6.68945,7.617188 6.68945,21.09375 0,13.427734 -6.68945,21.0937501 -6.68945,7.6171875 -18.4082,7.6171875 -11.76758,0 -18.45703,-7.6171875 -6.64063,-7.6660161 -6.64063,-21.0937501 0,-13.476562 6.64063,-21.09375 6.68945,-7.617187 18.45703,-7.617187 z"
           style=""
           id="path3875" />
      </g>
      <g
         transform="translate(0 109)"
         id="g3825">
        <path
           class="b"
           d="M320.545,307.182l-22.289,56.28L406.009,382.7l80.815-24.739,77.278,23.38,101.363-24.89L616.017,240.316l-65.262,15.136-61.183-16.786L423.42,255.452l-75.391-16.593-7.984,20.064"
           transform="translate(-298.256 -238.667)"
           id="path3817" />
        <line
           class="c"
           x2="10.925"
           y2="103.048"
           transform="translate(254.921 39.63)"
           id="line3819" />
        <line
           class="c"
           x1="13.203"
           y2="102.001"
           transform="translate(109.857 29.411)"
           id="line3821" />
        <line
           class="c"
           x1="0.901"
           y2="39.121"
           transform="translate(188.567 80.177)"
           id="line3823" />
      </g>
      <g
         aria-label="AUTOMAPPING"
         transform="translate(183.99 301)"
         style="font-weight:100;font-size:38px;font-family:DINNextLTPro-UltraLight, 'DIN Next LT Pro';letter-spacing:0.2em;fill:#ffffff"
         id="text3829">
        <path
           d="m -144.48372,-24.009766 -5.08398,13.786133 h 10.18652 z m -2.11523,-3.692382 h 4.24902 L -131.79231,0 h -3.89649 l -2.52343,-7.1064453 h -12.48731 L -153.22298,0 h -3.95215 z"
           style=""
           id="path3878" />
        <path
           d="m -120.5927,-27.702148 h 3.7666 v 16.829101 q 0,4.4531251 1.61425,6.419922 1.61426,1.9482422 5.23243,1.9482422 3.59961,0 5.21386,-1.9482422 1.61426,-1.9667969 1.61426,-6.419922 v -16.829101 h 3.766603 v 17.292968 q 0,5.4179691 -2.690433,8.1826175 -2.67187,2.76464844 -7.90429,2.76464844 -5.25098,0 -7.94141,-2.76464844 -2.67187,-2.7646484 -2.67187,-8.1826175 z"
           style=""
           id="path3880" />
        <path
           d="m -88.574738,-27.702148 h 23.434571 v 3.154296 h -9.833985 V 0 h -3.766601 v -24.547852 h -9.833985 z"
           style=""
           id="path3882" />
        <path
           d="m -42.659302,-25.160156 q -4.082031,0 -6.49414,3.042969 -2.393555,3.042968 -2.393555,8.293945 0,5.2324217 2.393555,8.2753904 2.412109,3.0429688 6.49414,3.0429688 4.082031,0 6.457031,-3.0429688 2.393555,-3.0429687 2.393555,-8.2753904 0,-5.250977 -2.393555,-8.293945 -2.375,-3.042969 -6.457031,-3.042969 z m 0,-3.042969 q 5.826172,0 9.314453,3.915039 3.488282,3.896484 3.488282,10.464844 0,6.5498045 -3.488282,10.4648436 -3.488281,3.89648434 -9.314453,3.89648434 -5.844726,0 -9.351562,-3.89648434 -3.488282,-3.8964844 -3.488282,-10.4648436 0,-6.56836 3.488282,-10.464844 3.506836,-3.915039 9.351562,-3.915039 z"
           style=""
           id="path3884" />
        <path
           d="m -16.393295,-27.702148 h 5.584961 L -3.7389984,-8.8505859 3.3674469,-27.702148 H 8.9524078 V 0 H 5.2971344 V -24.325195 L -1.8464203,-5.3251953 H -5.6130219 L -12.756577,-24.325195 V 0 h -3.636718 z"
           style=""
           id="path3886" />
        <path
           d="m 33.270187,-24.009766 -5.083984,13.786133 h 10.186523 z m -2.115234,-3.692382 h 4.249023 L 45.961594,0 H 42.065109 L 39.541672,-7.1064453 H 27.054367 L 24.53093,0 h -3.952149 z"
           style=""
           id="path3888" />
        <path
           d="m 61.336014,-24.62207 v 10.409179 h 4.71289 q 2.616211,0 4.044922,-1.354492 1.428711,-1.354492 1.428711,-3.859375 0,-2.486328 -1.428711,-3.84082 -1.428711,-1.354492 -4.044922,-1.354492 z m -3.748047,-3.080078 h 8.460937 q 4.657227,0 7.032227,2.115234 2.393555,2.09668 2.393555,6.160156 0,4.100586 -2.393555,6.197266 -2.375,2.096679 -7.032227,2.096679 h -4.71289 V 0 h -3.748047 z"
           style=""
           id="path3890" />
        <path
           d="m 91.869598,-24.62207 v 10.409179 h 4.712891 q 2.616211,0 4.044921,-1.354492 1.42871,-1.354492 1.42871,-3.859375 0,-2.486328 -1.42871,-3.84082 -1.42871,-1.354492 -4.044921,-1.354492 z m -3.748046,-3.080078 h 8.460937 q 4.657231,0 7.032231,2.115234 2.39355,2.09668 2.39355,6.160156 0,4.100586 -2.39355,6.197266 -2.375,2.096679 -7.032231,2.096679 H 91.869598 V 0 h -3.748046 z"
           style=""
           id="path3892" />
        <path
           d="m 118.65514,-27.702148 h 3.74804 V 0 h -3.74804 z"
           style=""
           id="path3894" />
        <path
           d="m 137.46217,-27.702148 h 5.04688 l 12.2832,23.1748043 V -27.702148 h 3.63672 V 0 H 153.3821 L 141.09889,-23.174805 V 0 h -3.63672 z"
           style=""
           id="path3896" />
        <path
           d="m 192.37663,-3.9521484 v -7.4404296 h -6.12304 v -3.080078 h 9.83398 v 11.8935544 q -2.1709,1.5400391 -4.78711,2.33789066 -2.61621,0.77929688 -5.58496,0.77929688 -6.49414,0 -10.16797,-3.78515624 -3.65527,-3.8037109 -3.65527,-10.5761717 0,-6.791016 3.65527,-10.576172 3.67383,-3.803711 10.16797,-3.803711 2.70898,0 5.13965,0.667969 2.44922,0.667969 4.50879,1.966797 v 3.989257 q -2.07813,-1.762695 -4.41602,-2.65332 -2.33789,-0.890625 -4.91699,-0.890625 -5.08398,0 -7.64453,2.838867 -2.54199,2.838868 -2.54199,8.460938 0,5.6035154 2.54199,8.4423826 2.56055,2.8388672 7.64453,2.8388672 1.98535,0 3.54394,-0.3339844 1.5586,-0.352539 2.80176,-1.0761718 z"
           style=""
           id="path3898" />
      </g>
    </g>
    <g
       transform="matrix(0.951, -0.309, 0.309, 0.951, 477.433, -163.424)"
       id="g3857">
      <rect
         class="b"
         width="65.013"
         height="65.013"
         transform="translate(-140.573 454.911) rotate(11)"
         id="rect3833" />
      <g
         transform="translate(-132.363 467.098) rotate(11)"
         id="g3855">
        <rect
           class="e"
           width="11.06"
           height="11.06"
           transform="translate(0.024 0.011)"
           id="rect3835" />
        <rect
           class="e"
           width="11.06"
           height="11.06"
           transform="translate(11.084 0.011)"
           id="rect3837" />
        <rect
           class="e"
           width="11.06"
           height="11.06"
           transform="translate(22.133 0)"
           id="rect3839" />
        <rect
           class="e"
           width="11.06"
           height="11.06"
           transform="translate(0.024 11.074)"
           id="rect3841" />
        <rect
           class="e"
           width="11.06"
           height="11.06"
           transform="translate(22.133 11.063)"
           id="rect3843" />
        <rect
           class="e"
           width="11.06"
           height="11.06"
           transform="translate(11.075 22.124)"
           id="rect3845" />
        <rect
           class="e"
           width="11.06"
           height="11.06"
           transform="translate(22.136 22.124)"
           id="rect3847" />
        <rect
           class="e"
           width="11.06"
           height="11.06"
           transform="translate(33.185 22.113)"
           id="rect3849" />
        <rect
           class="e"
           width="11.06"
           height="11.06"
           transform="translate(0 33.16)"
           id="rect3851" />
        <rect
           class="e"
           width="11.06"
           height="11.06"
           transform="translate(22.109 33.149)"
           id="rect3853" />
      </g>
    </g>
  </g>
  <flowRoot
     xml:space="preserve"
     id="flowRoot3901"
     style="fill:black;fill-opacity:1;stroke:none;font-family:sans-serif;font-style:normal;font-weight:normal;font-size:40px;line-height:1.25;letter-spacing:0px;word-spacing:0px"><flowRegion
       id="flowRegion3903"><rect
         id="rect3905"
         width="5.2085309"
         height="140.2583"
         x="159.9763"
         y="81.476303" /></flowRegion><flowPara
       id="flowPara3907"></flowPara></flowRoot></svg>
