<svg xmlns="http://www.w3.org/2000/svg" width="371.571" height="148.311" viewBox="0 0 371.571 148.311"><defs><style>.a{fill:#fff;stroke:#64bbcc;stroke-width:5px;}.a,.b{stroke-linecap:round;}.a,.b,.c{stroke-miterlimit:10;}.b,.c{fill:none;stroke-width:2px;}.b{stroke:#64bbcd;}.c{stroke:#2b4290;}</style></defs><g transform="translate(-350.014 -554.115)"><path class="a" d="M686.438,601.422l31.688,79.328-107,19.108-80.254-24.567-76.742,23.218L353.466,673.792l49.1-115.332,64.809,15.031,60.758-16.669,65.693,16.669L668.7,557.013l3.9,9.758" transform="translate(0 0)"/><line class="b" x1="10.849" y2="102.333" transform="translate(454.126 596.176)"/><line class="b" x2="13.111" y2="101.293" transform="translate(595.921 586.028)"/><line class="b" x2="0.895" y2="38.849" transform="translate(529.972 636.442)"/><path class="c" d="M614.6,603.213l-37.729,7.362-8.741-2.3-2.76-24.383L537.3,576.529l.46,14.261-30.825-8.741-20.246,5.98.462-22.544-25.766,7.821-.919,16.1-19.784,6.44-28.525-7.362-16.564-3.22-20.7,63.954,19.784,6.9,11.5-42.788,8.743,2.76-6.9,42.329,23.926,6.9,59.35-17.483V611.035l15.183-3.68,28.987,9.662L535,646l48.769,15.183,41.409-7.821ZM465.068,634.5l-19.784,5.061,2.76-20.7,18.4-1.841Z" transform="translate(23.343 9.44)"/><path class="c" d="M480.99,591.413l33.126-6.556L526.194,634.2l14.493-2.761-14.838-63.147L476.5,578.3Z" transform="translate(134.059 12.5)"/></g></svg>