<svg xmlns="http://www.w3.org/2000/svg" width="238.025" height="52.746" viewBox="0 0 238.025 52.746"><defs><style>.a{fill:#fff;}</style></defs><g transform="translate(-33.712 -146.798)"><g transform="translate(33.712 146.798)"><g transform="translate(61.35)"><path class="a" d="M88.711,155.121c-.992-4.871-2.026-6.521-7.607-6.521a8.518,8.518,0,0,0-5.626,1.795,4.414,4.414,0,0,0-1.656,3.59,5.779,5.779,0,0,0,1.61,3.787,24.975,24.975,0,0,0,6,3.727c3.691,1.9,6.48,2.986,8.513,5.294a9.031,9.031,0,0,1,1.985,5.588,8.2,8.2,0,0,1-2.649,6.287c-1.987,1.8-5.1,2.976-9.315,2.976a27.811,27.811,0,0,1-8.839-1.605,45.688,45.688,0,0,0-1.559-7l1.656-.431c1.511,5.819,4.16,7.24,9.17,7.24a9.3,9.3,0,0,0,5.674-1.752,6.038,6.038,0,0,0,2.413-4.918,5.9,5.9,0,0,0-1.514-4.208c-1.513-1.795-4.069-2.928-6.808-4.3-2.885-1.466-6.855-3.6-8.225-5.532a7.94,7.94,0,0,1-1.417-4.538,6.879,6.879,0,0,1,2.83-5.582c1.708-1.326,4.3-2.223,7.992-2.223a20.946,20.946,0,0,1,7.9,1.323c.275,1.944.707,4.5,1.133,6.622Z" transform="translate(-69.567 -146.798)"/><path class="a" d="M88.266,165.148c0-3.643.666-6,1.942-7.661a6.414,6.414,0,0,1,9.266,0c1.275,1.658,1.94,4.018,1.94,7.661,0,3.829-.8,6.239-1.988,7.753a6.276,6.276,0,0,1-9.166,0C89.076,171.387,88.266,168.977,88.266,165.148Zm-3.4-.044c0,4.3,1.136,7.133,2.976,8.884a10.059,10.059,0,0,0,7,2.368,10.148,10.148,0,0,0,7.183-2.462c1.8-1.749,2.885-4.538,2.885-8.79,0-3.735-1.033-6.62-2.885-8.465a9.639,9.639,0,0,0-7.183-2.6,9.677,9.677,0,0,0-7.046,2.553C85.9,158.436,84.868,161.368,84.868,165.1Z" transform="translate(-58.687 -141.65)"/><path class="a" d="M101.752,160.629h-3.5V159.12h3.5v-2.979c0-2.887.712-5.058,2.271-6.666a7.42,7.42,0,0,1,8.839-.714,3.967,3.967,0,0,1,2.036,2.929c0,.951-.479,1.473-1.33,1.473-1.129,0-1.555-1-2.079-2.04s-1.136-2.029-2.6-2.029a3.063,3.063,0,0,0-2.368,1.042c-.939,1.134-1.507,2.832-1.507,6.189v2.794h6v1.509h-6v15.456c0,2.839.188,3.126,3.737,3.126v1.182H98.2v-1.182c3.313,0,3.549-.332,3.549-3.22Z" transform="translate(-49.204 -146.208)"/><path class="a" d="M106.886,157.244c2.976-.282,5.012-1.424,5.623-6.381h1.177v5.956H118.7v1.509h-5.015V173.6c0,2.219.666,3.357,2.319,3.357a4.666,4.666,0,0,0,2.935-1.093l.755,1.047a6.646,6.646,0,0,1-4.635,1.7c-2.409,0-4.63-1.138-4.63-4.829V158.328h-3.542Z" transform="translate(-43.03 -143.907)"/><path class="a" d="M123.235,150.641c0-1.282.187-1.656,1.424-1.656h4.485c3.314,0,5.441.753,6.76,1.845a6.015,6.015,0,0,1,1.853,4.3,6.214,6.214,0,0,1-2.182,5.06c-1.7,1.42-4.35,2.034-7.613,2.034h-4.728Zm-3.5,25.1c0,3.352-.284,3.593-3.828,3.593v1.374h15.413c4.916,0,7.705-1.136,9.55-2.935a8.781,8.781,0,0,0,2.649-6.519,7.2,7.2,0,0,0-3.034-5.819,13.485,13.485,0,0,0-7.838-2.459v-.094a11.591,11.591,0,0,0,6.379-2.645,7.222,7.222,0,0,0,2.361-5.436,6.583,6.583,0,0,0-3.017-5.532c-2.555-1.7-5.4-2.082-9.748-2.082H115.91v1.371c3.544,0,3.828.236,3.828,3.643Zm3.5-11.723h5.871c3.867,0,6.47.662,8.131,1.937a6.372,6.372,0,0,1,2.6,5.2,7.481,7.481,0,0,1-1.851,5.4c-1.607,1.651-3.773,2.365-7.135,2.365h-5.867c-1.465,0-1.749-.334-1.749-2.324Z" transform="translate(-36.613 -146.522)"/><path class="a" d="M146.516,172.1a7.146,7.146,0,0,1-5.1,2.452,4.353,4.353,0,0,1-3.124-1.136,4.057,4.057,0,0,1-1.039-2.977c0-2.173,1.324-3.4,3.166-4.394a24.208,24.208,0,0,1,6.1-2.313Zm3.263-11.49a6.2,6.2,0,0,0-1.561-4.726c-1.181-1.323-2.839-1.846-5.671-1.846a10.3,10.3,0,0,0-5.393,1.326,4.366,4.366,0,0,0-2.455,3.306,1.268,1.268,0,0,0,1.321,1.372,1.54,1.54,0,0,0,1.651-1.14,5.451,5.451,0,0,1,1.473-2.312,4.865,4.865,0,0,1,3.212-1.081,3.966,3.966,0,0,1,3.4,1.413,5.951,5.951,0,0,1,.756,3.306v2.038l-2.789.664a20.572,20.572,0,0,0-6.995,2.69,5.851,5.851,0,0,0-2.929,5.248,4.99,4.99,0,0,0,1.886,4.064,6.942,6.942,0,0,0,4.351,1.424,8.862,8.862,0,0,0,6.613-2.608h.147a2.926,2.926,0,0,0,3.073,2.413,6.321,6.321,0,0,0,2.883-.66l-.279-1.085a2.371,2.371,0,0,1-1.28.329c-.941,0-1.418-.943-1.418-3.068Z" transform="translate(-23.89 -141.65)"/><path class="a" d="M165.153,171.623c0,2.65.2,3.03,2.319,3.03v1.182h-7.992v-1.182c2.274,0,2.413-.287,2.413-3.126V160.988c0-1.843-.234-3.361-1.134-4.305a3.625,3.625,0,0,0-2.734-.941c-1.992,0-4.113,1.8-6,4.4v11.389c0,2.839.041,3.126,2.259,3.126v1.182h-8.266v-1.182c2.55,0,2.739-.287,2.739-3.126V160.042c0-2.739-.236-3.07-2.739-3.025v-1.044a11.271,11.271,0,0,0,5.246-1.935l.471.282.19,3.641h.1c1.889-2.406,4.29-3.923,6.9-3.923a6.244,6.244,0,0,1,4.534,1.518c1.087,1.035,1.7,2.738,1.7,5.243Z" transform="translate(-15.208 -141.65)"/><path class="a" d="M166.25,168.762l6.757-6.576c1.273-1.177,1.608-1.886-.664-1.886V159.12h7V160.3a4.213,4.213,0,0,0-3.212,1.42l-4.964,4.723,7.229,10.97a3.366,3.366,0,0,0,3.5,1.8v1.182H176.5l-7.7-11.913-2.652,2.6v5c0,2.746.1,3.126,2.693,3.126v1.182h-8.786v-1.182c2.738,0,2.828-.38,2.828-3.126v-22.4c0-2.743-.284-3.073-2.828-3.073V149.57a13.665,13.665,0,0,0,5.671-1.942l.423.281v20.853Z" transform="translate(-5.22 -146.208)"/></g><g transform="translate(0 0.004)"><rect class="a" width="47.265" height="11.616"/><rect class="a" width="47.265" height="11.616" transform="translate(0 23.228)"/></g></g><g transform="translate(208.391 187.686)"><path class="a" d="M145.385,172.5a4.126,4.126,0,0,1,4.249,4.38,4.259,4.259,0,1,1-8.514,0A4.13,4.13,0,0,1,145.385,172.5Zm0,7.513c1.8,0,2.608-1.641,2.608-3.133,0-1.591-.967-3.135-2.608-3.135-1.656,0-2.625,1.543-2.625,3.135C142.76,178.376,143.564,180.017,145.385,180.017Z" transform="translate(-132.016 -169.407)"/><path class="a" d="M147.2,170.694h1.542v4.442h.033a2.988,2.988,0,0,1,2.774-1.345c2.428,0,3.609,1.985,3.609,4.233,0,2.3-1.066,4.528-3.593,4.528a3.357,3.357,0,0,1-2.854-1.379h-.034v1.182H147.2Zm4.019,4.343c-1.673,0-2.478,1.593-2.478,3.15,0,1.395.722,3.118,2.462,3.118,1.656,0,2.344-1.853,2.312-3.165C153.543,176.63,152.888,175.037,151.214,175.037Z" transform="translate(-127.695 -170.694)"/><path class="a" d="M157.113,172.5a4.126,4.126,0,0,1,4.249,4.38,4.259,4.259,0,1,1-8.514,0A4.13,4.13,0,0,1,157.113,172.5Zm0,7.513c1.805,0,2.608-1.641,2.608-3.133,0-1.591-.967-3.135-2.608-3.135-1.656,0-2.625,1.543-2.625,3.135C154.488,178.376,155.292,180.017,157.113,180.017Z" transform="translate(-123.676 -169.407)"/><path class="a" d="M163.906,174.875H161.69v4.577a1.327,1.327,0,0,0,1.3,1.492,1.905,1.905,0,0,0,1.049-.294v1.312a4.871,4.871,0,0,1-1.312.229c-1.591,0-2.575-.755-2.575-2.428v-4.889h-1.887v-1.247h1.887v-1.935l1.542-.493v2.428h2.216Z" transform="translate(-119.827 -170.334)"/><path class="a" d="M164.607,172.431h-1.738v-1.737h1.738Zm-1.641,1.557h1.542v8.367h-1.542Z" transform="translate(-116.55 -170.694)"/><path class="a" d="M171.044,174.112a4.476,4.476,0,0,0-1.673-.363,2.867,2.867,0,0,0-2.692,3.135c0,1.492.8,3.133,2.789,3.133a3.21,3.21,0,0,0,1.658-.476l.115,1.379a4.724,4.724,0,0,1-1.937.344,4.232,4.232,0,0,1-4.264-4.38,4.13,4.13,0,0,1,4.264-4.38,5.809,5.809,0,0,1,1.872.327Z" transform="translate(-115.006 -169.407)"/><path class="a" d="M135.8,170.694h2.858c2.3,0,4.528.366,4.528,3.157a2.718,2.718,0,0,1-2.406,2.657v.033c.517.2.768.452,1.136,1.169l2.206,4.646h-1.906l-1.786-4.043c-.518-1.136-1.069-1.136-1.956-1.136h-1v5.179H135.8Zm1.67,5.012h1.42c1.586,0,2.524-.7,2.524-1.821,0-1.054-.8-1.721-2.339-1.721h-1.605Z" transform="translate(-135.799 -170.694)"/><path class="a" d="M169.734,179.427a4.637,4.637,0,0,0,2.055.59c.755,0,1.685-.294,1.685-1.2,0-1.526-3.881-1.395-3.881-3.74,0-1.738,1.388-2.575,3.159-2.575a7.374,7.374,0,0,1,2.057.327l-.142,1.347a5.367,5.367,0,0,0-1.785-.428c-.844,0-1.643.329-1.643,1.018,0,1.706,3.874,1.215,3.874,3.888,0,1.788-1.412,2.609-3.01,2.609a5.467,5.467,0,0,1-2.457-.459Z" transform="translate(-111.768 -169.407)"/></g></g></svg>