<svg xmlns="http://www.w3.org/2000/svg" width="352.844" height="887.159" viewBox="0 0 352.844 887.159"><defs><style>.a,.b,.c,.d,.e,.f,.g,.h,.i,.j{fill:#fff;stroke:#64bbcc;}.a,.b,.c,.d,.e,.f,.g,.i,.j{stroke-miterlimit:10;}.a,.c{stroke-width:5.721px;}.b,.c,.h{stroke-linecap:round;}.b{stroke-width:10px;}.d{stroke-width:2.86px;}.e{stroke-width:5.257px;}.f,.h{stroke-width:2.628px;}.g{stroke-width:6px;}.h{stroke-linejoin:bevel;}.i{stroke-width:4px;}.j{stroke-width:5px;}</style></defs><g transform="translate(1.676 2.644)"><g transform="translate(0 0)"><g transform="translate(0 195.418)"><rect class="a" width="53.159" height="148.201" rx="26.58" transform="translate(1.99 109.315) rotate(-14.933)"/><line class="b" x1="1.755" y2="33.659" transform="translate(48.406 248.213)"/><line class="b" x2="3.012" y2="34.25" transform="translate(62.793 251.716)"/><line class="b" x2="11.77" y2="35.659" transform="translate(73.76 250.112)"/><line class="b" x2="14.881" y2="26.346" transform="translate(84.05 241.769)"/><line class="c" x2="17.578" y2="4.6" transform="translate(89.369 228.636)"/><rect class="a" width="53.159" height="148.201" rx="26.58" transform="translate(52.678 -2.071) rotate(20)"/></g><path class="a" d="M771.935,901.3l-.248-57.725,1.672,35.375c-7.522,2.786-14.912,15.346-19,28.1-5.055,15.758-7.859,40.171-15.659,52.8-6.524,10.564-15.643,20.771-26.167,31.557-13.008,13.334-20.322,31.729-18.065,50.221a55.582,55.582,0,0,0,5.994,19.5c.073.137.149.276.222.413h0a60.591,60.591,0,0,0,62.956,30.783l53.264-15.209a309.858,309.858,0,0,1,67.578-11.416l49.568-2.8c37.711-6.158,58.58-44.034,48.249-77.537-3.116-10.107-9.637-18.832-17.709-25.667L920.376,929a72.493,72.493,0,0,1-25.087-54.419l-.863-154.369a60.59,60.59,0,0,0-58.7-55.233l-16.5-.45a60.463,60.463,0,0,0-22.917,3.828c-22.943,8.607-40.159,31.861-37.307,56.2C779.3,897.889,775.958,903.088,761.1,931.314" transform="translate(-682.946 -211.501)"/><path class="a" d="M808.421,824.211h0a64.787,64.787,0,0,0,61.741-46.466L899.482,664.71c12.237-41.5-17.48-67.357-62.142-83.108L775.9,562.093c-43.706-10.918-72.848,39.272-62.965,80.046l32.123,132.546A64.786,64.786,0,0,0,808.421,824.211Z" transform="translate(-659.925 -352.708)"/><rect class="d" width="41.621" height="58.721" rx="20.811" transform="matrix(0.997, -0.072, 0.072, 0.997, 123.076, 177.249)"/><path class="e" d="M905.769,612.449c7.609,55.641-51.721,73.152-108.11,65.506A103.037,103.037,0,0,1,709.407,562c7.647-56.389,59.8-97.51,115.948-88.252C932.076,491.345,898.056,556.067,905.769,612.449Z" transform="translate(-663.379 -472.447)"/><ellipse class="f" cx="30.922" cy="20.421" rx="30.922" ry="20.421" transform="matrix(0.134, -0.991, 0.991, 0.134, 179.769, 146.071)"/><g transform="translate(195.289 266.672)"><rect class="g" width="53.159" height="148.201" rx="26.58" transform="translate(8.03 132.871) rotate(-30)"/><rect class="g" width="53.159" height="148.201" rx="26.58" transform="matrix(0.997, -0.072, 0.072, 0.997, 0, 3.834)"/><line class="b" x2="30.607" y2="17.72" transform="translate(118.439 229.037)"/><line class="b" x2="25.371" y2="17.317" transform="translate(114.412 240.716)"/><line class="b" x1="6.846" y2="20.941" transform="translate(66.891 246.354)"/><line class="b" x2="19.331" y2="20.941" transform="translate(106.76 247.965)"/><line class="b" x2="12.082" y2="20.941" transform="translate(98.303 252.395)"/></g><path class="h" d="M892.987,491.218c.755-.182-69.388-12.187-104.766,31.054-18.428,22.523-13.31,59.719-46.412,52.554-38.046-8.236-32.76-38.222-28.665-53.919" transform="translate(-660.876 -449.205)"/><path class="i" d="M721.381,828.8h0c-4.75-2.838-5.047-10.142-.668-16.313l11.331-15.966c4.382-6.173,11.781-8.876,16.532-6.038h0c4.748,2.838,5.047,10.142.667,16.313l-11.333,15.966C733.531,828.939,726.129,831.642,721.381,828.8Z" transform="translate(-650.941 -41.863)"/><path class="j" d="M721.381,828.8h0c-4.75-2.838-5.047-10.142-.668-16.313l11.331-15.966c4.382-6.173,11.781-8.876,16.532-6.038h0c4.748,2.838,5.047,10.142.667,16.313l-11.333,15.966C733.531,828.939,726.129,831.642,721.381,828.8Z" transform="translate(-2.666 -333.725) rotate(38)"/></g></g></svg>